<svg xmlns="http://www.w3.org/2000/svg" xmlns:xlink="http://www.w3.org/1999/xlink" viewBox="0 0 755.19 506.21"><defs><style>.cls-1{fill:#001137;}.cls-2{fill:url(#linear-gradient);}.cls-3{fill:url(#linear-gradient-2);}.cls-4{fill:#ea227a;}.cls-5,.cls-8,.cls-9{fill:none;}.cls-5{stroke:#ea227a;}.cls-5,.cls-8{stroke-miterlimit:10;}.cls-6{fill:#00255b;}.cls-7{fill:#fff;}.cls-8{stroke:#fff;}</style><linearGradient id="linear-gradient" x1="366.47" y1="-76.47" x2="145.57" y2="311.86" gradientUnits="userSpaceOnUse"><stop offset="0" stop-opacity="0"/><stop offset="0.02" stop-color="#000205" stop-opacity="0.04"/><stop offset="0.16" stop-color="#00142d" stop-opacity="0.33"/><stop offset="0.32" stop-color="#00224d" stop-opacity="0.57"/><stop offset="0.47" stop-color="#002e66" stop-opacity="0.76"/><stop offset="0.63" stop-color="#003678" stop-opacity="0.9"/><stop offset="0.8" stop-color="#003a83" stop-opacity="0.97"/><stop offset="1" stop-color="#003c86"/></linearGradient><linearGradient id="linear-gradient-2" x1="652.6" y1="147.24" x2="424.38" y2="548.44" xlink:href="#linear-gradient"/></defs><g id="Layer_2" data-name="Layer 2"><g id="BACKGROUND"><rect class="cls-1" x="5.19" width="750" height="500"/></g><g id="OBJECTS"><path class="cls-2" d="M7.08,233.64c18.58,4.9,37.46,8.09,56.7,8.48a221.59,221.59,0,0,0,54.84-6.07c18.38-4.3,35.9-10.87,53.3-18.09a407.64,407.64,0,0,0,46-22.51A446.34,446.34,0,0,0,301,133.65q4.86-4.53,9.58-9.18a144.24,144.24,0,0,1,11.3-9.63l5.25-4.2a20.31,20.31,0,0,0,3.74-4.27c1.55-2.08,4-3.71,6-5.39l5.87-5q22.17-18.87,44.71-37.3A193.67,193.67,0,0,1,411.5,42.34c8.34-4.93,16.77-9.85,25.32-14.42C453.93,18.77,472.57,13.05,491,7.31c4.65-1.45,9.3-2.89,13.94-4.39.76-.24.44-1.45-.33-1.2-18.46,5.94-37.2,11.14-55.1,18.7A203.07,203.07,0,0,0,425.35,33c-8.14,4.83-16.47,9.29-24.45,14.42s-15.13,11-22.42,17-14.62,12.09-21.88,18.2q-11.28,9.49-22.49,19.1a26.41,26.41,0,0,0-4.32,4.06,23.5,23.5,0,0,1-2,2.82,36.66,36.66,0,0,1-3,2.4c-3.87,3.09-7.88,6.07-11.63,9.3-3.35,2.89-6.37,6.23-9.58,9.29s-6.42,6-9.69,9q-9.72,8.79-19.91,17a433.31,433.31,0,0,1-42.36,30.26,402.89,402.89,0,0,1-45.48,24.61,401.43,401.43,0,0,1-51.73,20.11,238,238,0,0,1-55.55,10.07,216.66,216.66,0,0,1-57.46-4.8c-4.68-1-9.32-2.15-13.94-3.37a.62.62,0,0,0-.34,1.2Z"/><path class="cls-3" d="M339.08,499.5A206.62,206.62,0,0,1,372.69,405a238.49,238.49,0,0,1,15.79-20.7c2.73-3.29,5.19-6.75,8.15-9.85s6-6.25,9-9.32c12-12.09,24.85-23.48,39.34-32.55,1.6-1,3.22-2,4.86-2.93,1.84-1.06,4-1.91,5.71-3.15a21,21,0,0,0,2.06-2.05,15.24,15.24,0,0,1,2.84-2.08c2.07-1.23,4.14-2.45,6.23-3.64q11.54-6.62,23.46-12.5a527.71,527.71,0,0,1,49.1-21.11c16.41-6.15,33.07-11.63,49.81-16.77,8.45-2.6,16.92-5.11,25.41-7.59,8.81-2.57,17.74-4.74,26.54-7.35,4.48-1.32,8.91-2.77,13.29-4.41,2.18-.81,4.57-2.23,6.91-2.36,2-.13,3.72.13,5.68-.61,9.09-3.42,18.15-7,27.21-10.45,8.6-3.32,17.33-6.37,25.7-10.25s16.29-8.2,24.19-12.75a24.83,24.83,0,0,0,4.93-3.4,13.92,13.92,0,0,1,5.47-3.42c.76-.24.44-1.45-.33-1.21-3.86,1.22-6.25,4.38-9.65,6.35-4.08,2.35-8.18,4.67-12.34,6.89a225.53,225.53,0,0,1-26.2,11.94c-9.06,3.44-18.08,7-27.12,10.45-2.28.88-4.55,1.75-6.83,2.61s-5,2.35-7.45,2.6c-1.76.17-3.54-.33-5.22.33-2.38.94-4.75,1.89-7.15,2.76-8.88,3.21-18,5.47-27.09,7.93-8.7,2.34-17.33,5-26,7.6C582,269.12,565,274.5,548.21,280.5c-16.5,5.91-32.79,12.43-48.67,19.83q-12.3,5.73-24.25,12.18-6,3.23-11.85,6.65a47.16,47.16,0,0,0-5.57,3.3c-.77.61-1.4,1.43-2.12,2.1a16.11,16.11,0,0,1-3.41,2.25c-14.68,8-27.83,18.5-39.95,30-6.29,6-12.59,12.08-18.33,18.58-2.91,3.28-5.35,6.95-8.33,10.17a109.79,109.79,0,0,0-7.74,9.71,208.83,208.83,0,0,0-38.71,92.39c-.6,3.94-1.07,7.9-1.45,11.86-.07.8,1.18.8,1.25,0Z"/><path class="cls-4" d="M524.51,501.72h-1A242.88,242.88,0,0,1,754.36,279.27v1C632.88,285.84,534.5,381.43,524.51,501.72Z"/><circle class="cls-5" cx="621.87" cy="256.2" r="30.59" transform="translate(57.93 622.73) rotate(-55.41)"/><path class="cls-6" d="M0,486.27v19.94H57.71l-1.17-1.59,1.77-1.31,1.3,1.85-1.59,1h6.76l-.09-.13,1.78-1.23,1,1.36h7l.32-.24.18.24h25.32l-1.88-2.68,3.09-2.28,2.35,3.32-2.72,1.64h6.22l-.87-1.2,3.48-2.54,2,3.36-.5.38h3.83l3-2.42a5.05,5.05,0,0,0,1,2.42h5.92a3.71,3.71,0,0,0,.82-1.41,3.77,3.77,0,0,0-1.81-4.59,5.26,5.26,0,0,0-3.27-.29c-1,.27-1.74,1.24-2.64,1.93a4,4,0,0,0-3.68-3.8c-2.22-.26-3.62,1-4.55,3.1-.22-2.47-.61-3.09-2.79-4.63,2.75-.74,4-1.93,4.16-4a3.92,3.92,0,0,0-2.64-4.07,5.52,5.52,0,0,0-3.27.18c-.93.38-1.6,1.39-2.34,2.09-.23-2-.67-2.66-2.76-4.07.33-.08.61-.13.88-.21a4.13,4.13,0,0,0,.66-7.9l-.64-.34,0,0a4.63,4.63,0,0,0-5,3.11,4.77,4.77,0,0,0-3.06-4.56,4.8,4.8,0,0,0,4.47-3.38l0,.06a4.35,4.35,0,0,0-2.43-4.68c-2.11-1-4.11-.17-5.58,2.1l-2.17-3.8a4.7,4.7,0,0,0,3.23-2.95c.27-2.5-.69-4.3-2.68-5s-3.81.06-5.52,2.68a4.67,4.67,0,0,0-2.93-4.4l1-.27a4.06,4.06,0,0,0,0-8,4.07,4.07,0,0,0-4.55,2.29,5.25,5.25,0,0,1-.67.84,3.9,3.9,0,0,0-2.44-4.48c-2.1-.86-4,0-5.52,2.4a10.61,10.61,0,0,0-.92-2.35,12.69,12.69,0,0,0-2-1.89c.35-.08.68-.14,1-.23a4,4,0,0,0-.13-7.89A4,4,0,0,0,61,440.17a10.17,10.17,0,0,1-.57.88c.1-2.3-.8-4.06-2.68-4.52a6.13,6.13,0,0,0-3.28.23,9.48,9.48,0,0,0-2.33,1.5,3.94,3.94,0,0,0-3-3.36c-2.16-.67-3.68.35-5,2.07-.54-2.14-1.71-3.55-3.85-3.76a4.08,4.08,0,0,0-4.25,2.49c-.72-1.21-1.52-2.55-2.31-3.85,2.33-.86,3.48-2.27,3.34-4.29a4,4,0,0,0-3-3.66,3.76,3.76,0,0,0-4.45,1.86,5.32,5.32,0,0,0-.34,3.26,7.27,7.27,0,0,0,1.61,2.36c-1.17.91-2.38,1.87-3.29,2.59l-2.29-3.63c2.35-.77,3.52-2.22,3.39-4.29a4,4,0,0,0-7.63-1.5c-.93,1.93-.32,3.74,1.57,5.29L19,432.69a4.07,4.07,0,0,0-3.67-3.64c-2.19-.29-3.65.91-4.65,3.06-.18-2.46-1.24-4.07-3.49-4.49s-3.82.83-4.84,3c-.09-.5-.13-.79-.19-1.08a4.27,4.27,0,0,0-2.19-3v7.33a4.08,4.08,0,0,0,2-2.22l2,3.73-3,2.3-1-1.33V441l.66-.52,2,3.05L0,445.39v5.06l1,1.46-1,.59V486l1.51-1.09c.36.56.7,1.07,1.07,1.63L1,487.64Zm9.21,2.46-.87-1.1,1.29-1,.81,1.23Zm1.56-7.94-1.29-1.64,1.61-1.27,1.25,1.89Zm1.25-8-1.49-2,2.1-1.56,1.46,2.18Zm1.45-8.09-1.71-2.3,2.4-1.74,1.7,2.45Zm4,25.54L16.61,489,18,487.9l1,1.34Zm1.39-8-1.23-1.49,1.83-1.36,1,1.63Zm1.51-7.93-1.45-2,2-1.55,1.43,2.15Zm-.21-10.37,2.35-1.76,1.66,2.44c-.75.51-1.56,1-2.38,1.58Zm4.28,36-1-1.24,1.28-.84.85,1.21Zm1.39-8.15-1.09-1.44,1.53-1.12c.35.49.68,1,1.1,1.53Zm1.44-8.09c-.36-.52-.69-1-1.05-1.54l1.58-1.25,1.1,1.67Zm1.45-7.84-1.44-2,2.07-1.53,1.45,2.16Zm-.18-10.41,2.31-1.73,1.7,2.45-2.38,1.57Zm4.22,36.09-.93-1.28,1.31-1c.32.45.59.84.91,1.31C33.66,500.82,33.28,501.11,32.78,501.5Zm1.46-8.2-1.13-1.5,1.55-1.19,1.14,1.68Zm1.39-8.1-1.07-1.6,1.73-1.4,1.24,1.72C36.9,484.35,36.3,484.76,35.63,485.2Zm1.41-8-1.44-1.88,2.14-1.59c.41.62.84,1.25,1.32,2Zm-.15-10.29,2.37-1.77L41,467.64l-2.43,1.62Zm4.24,36.14-1-1.4,1.4-1.05,1,1.46Zm1.44-8.14-1.19-1.62L43.05,492l1.19,1.77ZM44,486.75l-1.38-1.87,1.93-1.46,1.39,2Zm1.41-8.05-1.32-2,2-1.55,1.4,2.09Zm-.26-10.32,2.46-1.78,1.78,2.53-2.52,1.7C46.34,470.06,45.76,469.22,45.17,468.38Zm4.33,36.31-1.17-1.55,1.6-1.18c.36.55.72,1.07,1.11,1.66Zm1.41-8.16c-.43-.59-.83-1.14-1.28-1.74l1.81-1.37,1.29,1.88Zm1.44-8.17-1.42-2,2-1.53L54.44,487Zm1.44-8.09-1.4-2.1c.65-.51,1.3-1,2-1.51L56,478.73ZM55.07,472l-1.66-2.12,2.43-1.67c.47.71,1,1.45,1.5,2.23Zm-.51-10.57,2.71-2.08,2,3.06L56.62,464C55.9,463.11,55.18,462.2,54.56,461.42Zm4.71,36.79-1.42-2L59.61,495l1.46,1.91Zm1.34-8.43-1.5-1.95,2-1.39,1.57,2.07Zm1.45-8.14-1.75-2.28,2.25-1.71,1.81,2.58Zm1.21-7.89c-.5-.77-1.06-1.63-1.63-2.49l2.49-2L65.75,472ZM62.66,463l3-2.25,2.07,3.17-3,1.94Zm4.81,36.68-1.53-2,2-1.49,1.65,2.24Zm1.25-8-1.62-2.37,2.31-1.75,1.75,2.49Zm1.43-8.19c-.55-.8-1.16-1.68-1.78-2.56L71,479l1.9,2.7Zm5.44,18.06L74,499.16l2.31-1.72c.55.77,1.15,1.59,1.76,2.45ZM77,493.32l-1.76-2.54,2.56-1.87,1.86,2.66C78.82,492.14,77.91,492.73,77,493.32Zm1.48-8.17-1.93-2.77,2.78-2.08,2,2.95ZM77.81,474l3.07-2.31c.67,1,1.46,2.17,2.2,3.29l-3.15,1.95C79.26,476,78.47,474.91,77.81,474Zm6.08,29.21-1.77-2.57,2.58-1.91,1.9,2.68ZM85.37,495l-1.91-2.76,2.76-2.07,2,2.95Zm6.84,9.89-1.92-2.79L93.1,500c.64,1,1.36,2,2,3C94.16,503.61,93.16,504.28,92.21,504.89Zm1.45-8.21-2.09-3,3.05-2.24,2.2,3.24Zm9.52-4.09a4.23,4.23,0,0,0,2.6,3.49l-3.84,2.3-2.22-3.2Zm-7.08-9.65,2.47,3.44-3.47,2.1c-.71-1-1.56-2.21-2.22-3.16Zm-6.66-10a4.27,4.27,0,0,0,2.49,3.46l-3.67,2.24L86,475.46Zm-1.69,8.68,2.18,3.23-3.11,2-2.08-2.93Zm-5.34-18.25,2,3.38-3.08,2.22-1.89-3.08Zm-6.9-11a9.89,9.89,0,0,0,.81,2.67,14.11,14.11,0,0,0,2.2,2.29,4.34,4.34,0,0,0-3.88,2.31L72,455.84C73.6,455.47,75.3,454.68,75.51,452.31ZM74.09,462l1.83,3.19-2.9,2.1-2.14-2.87Zm-1.53,8.55,2,2.83-3,1.94-1.71-2.6Zm-5.38-18.42,2.35,3.45-3.39,2.14-2.26-3.19Zm-6.8-11c.41,2,.87,3.95,3.29,4.66a4.71,4.71,0,0,0-4.27,2.47l-2.67-3.84A4.23,4.23,0,0,0,60.38,441.18Zm-1.57,9.51,2.2,3.44-3.18,1.95-2.2-3Zm-6.64-10.22a4.22,4.22,0,0,0,2.58,3.71l-3.62,1.95c-.74-.91-1.64-2-2.4-2.94Zm-1.65,9.16c.64.9,1.4,1.95,2.1,2.92l-2.93,1.76-2.13-2.75ZM49,458.22l2,2.68-2.58,1.81c-.65-.93-1.33-1.88-2-2.75Zm-5.3-18.56,2.4,3.14L42.88,445l-2.38-3.31Zm-1.29,8.19,2,3.19-3,2-2.12-2.89Zm-1.56,8.66,1.87,2.82L40,461.12l-1.9-2.63Zm-5.29-18.75c.7,1.07,1.58,2.41,2.31,3.5l-3.34,2.16-2.27-3.18ZM34,446.4c.59.94,1.29,2.06,2,3.17l-2.93,1.91L31,448.62Zm-1.57,8.67,1.87,2.74-2.69,1.79L29.75,457Zm-5.27-18.86,2.24,3.58-3.28,2.1-2.27-3.13Zm-1.51,8.72c.59.92,1.3,2.05,2,3.11L24.74,450l-2.15-2.83Zm-1.6,8.67,1.87,2.73-2.67,1.78-1.86-2.6Zm-5.22-18.69,2.25,3.34-3.37,2.21c-.55-.87-1.26-2-1.86-3Zm-1.57,8.51c.62,1,1.33,2.08,2,3.13l-2.92,1.95-2.14-2.86Zm-1.57,8.66,1.88,2.75-2.68,1.79L13,454ZM10.5,433.4c.52,1,1.21,2.26,1.87,3.47l-3,2.22L7.47,436Zm-1.56,8.49,2,3.18-2.95,2-2.17-2.94Zm-1.56,8.67c.59.89,1.24,1.85,1.88,2.8l-2.72,1.8-2-2.63Zm-1.55,8.57,1.69,2.53L5.09,463.3l-1.72-2.38Zm-1.56,8.58L5.77,470,3.86,471.2,2.3,469.25ZM2.48,479.57c-.48-.67-.89-1.22-1.34-1.84l1.66-1.2,1.34,1.81Z"/><path class="cls-6" d="M97.77,473.47A13.78,13.78,0,0,1,99.44,471a3.83,3.83,0,0,1,4.54-.43,4,4,0,0,1,2,4.14,3.92,3.92,0,0,1-3.14,3.32c-.48.1-1,.15-1.46.23l0,0a4.79,4.79,0,0,1-3.61-4.83Z"/><path class="cls-6" d="M90.82,464.18c.64-2.41,2-4,4.65-4.16l0,0c2.76,1.06,3.87,2.4,3.71,4.48a4,4,0,0,1-7.93.71c-.1-.37-.25-.71-.38-1.06Z"/><path class="cls-6" d="M113.05,484.21c-1.16,3-2.75,4.12-5.11,3.6a4,4,0,1,1,4.78-5c.13.48.2,1,.3,1.46Z"/><path class="cls-6" d="M45.41,429.15A4,4,0,1,1,41.49,425,4,4,0,0,1,45.41,429.15Z"/><path class="cls-6" d="M45.48,430.31a4,4,0,1,1,4.09,4.15A4,4,0,0,1,45.48,430.31Z"/><path class="cls-6" d="M8,427.3a4,4,0,1,1,.09-8,4,4,0,0,1-.09,8Z"/><path class="cls-6" d="M115.73,489.75a4,4,0,1,1-4,3.93A3.94,3.94,0,0,1,115.73,489.75Z"/><path class="cls-6" d="M77,443.25a4,4,0,1,1-4-3.94A4,4,0,0,1,77,443.25Z"/><path class="cls-6" d="M92.26,454.68a4,4,0,1,1-3.9-4A4,4,0,0,1,92.26,454.68Z"/><path class="cls-6" d="M20.34,424.75a4,4,0,1,1-4-3.94A4,4,0,0,1,20.34,424.75Z"/><path class="cls-6" d="M61.78,432a4,4,0,1,1-3.89-4A3.91,3.91,0,0,1,61.78,432Z"/><path class="cls-6" d="M81.43,448.74a3.94,3.94,0,1,1,3.9-4A3.87,3.87,0,0,1,81.43,448.74Z"/><path class="cls-6" d="M0,417.92v7.82a3.88,3.88,0,0,0,3.58-4A3.86,3.86,0,0,0,0,417.92Z"/><path class="cls-6" d="M95.47,460c-1.59-.8-2.77-1.89-2.78-3.85A3.92,3.92,0,1,1,96.91,460a14.63,14.63,0,0,1-1.48,0Z"/><path class="cls-6" d="M103.49,469.61a3.92,3.92,0,1,1,3.91-4A3.85,3.85,0,0,1,103.49,469.61Z"/><path class="cls-6" d="M113,484.25c.8-1.6,1.9-2.78,3.85-2.78a3.92,3.92,0,1,1-3.87,4.21,14.44,14.44,0,0,1,0-1.47Z"/><path class="cls-6" d="M70.09,433.49a3.92,3.92,0,1,1-3.82-3.94A3.87,3.87,0,0,1,70.09,433.49Z"/><path class="cls-6" d="M110.4,471.61a3.93,3.93,0,1,1-4,3.9A3.87,3.87,0,0,1,110.4,471.61Z"/><path class="cls-6" d="M74.46,438.84a3.89,3.89,0,1,1,4-3.77A3.87,3.87,0,0,1,74.46,438.84Z"/><path class="cls-6" d="M26.17,421.83a3.89,3.89,0,1,1,3.9-3.83A3.86,3.86,0,0,1,26.17,421.83Z"/><path class="cls-6" d="M21.71,416.41a3.88,3.88,0,1,1-3.93-3.83A3.86,3.86,0,0,1,21.71,416.41Z"/><path class="cls-6" d="M51,418.55a3.88,3.88,0,1,1-3.89,3.86A3.89,3.89,0,0,1,51,418.55Z"/><path class="cls-6" d="M42.4,424.83a3.9,3.9,0,1,1,4.09-4A3.9,3.9,0,0,1,42.4,424.83Z"/><path class="cls-6" d="M123.84,499.12a3.89,3.89,0,1,1,3.81-3.93A3.88,3.88,0,0,1,123.84,499.12Z"/><path class="cls-6" d="M34.52,423.32a3.89,3.89,0,1,1,3.91-3.82A3.86,3.86,0,0,1,34.52,423.32Z"/><path class="cls-6" d="M89.76,450.18a3.89,3.89,0,1,1,3.87-3.86A3.86,3.86,0,0,1,89.76,450.18Z"/><path class="cls-6" d="M122.25,477.06a3.86,3.86,0,1,1-3.87-3.89A3.89,3.89,0,0,1,122.25,477.06Z"/><path class="cls-6" d="M108.52,457.84a3.86,3.86,0,1,1-3.68-4.06A3.91,3.91,0,0,1,108.52,457.84Z"/><path class="cls-6" d="M9.6,411.1a3.87,3.87,0,1,1-4,3.78A3.89,3.89,0,0,1,9.6,411.1Z"/><path class="cls-6" d="M115.4,467.2a3.87,3.87,0,1,1-3.89-3.88A3.89,3.89,0,0,1,115.4,467.2Z"/><path class="cls-6" d="M101.94,447.86A3.84,3.84,0,1,1,98.21,444,3.92,3.92,0,0,1,101.94,447.86Z"/><path class="cls-6" d="M1.23,409.62a3.86,3.86,0,0,0-1.23.19v7.32a3.84,3.84,0,0,0,1,.19,3.89,3.89,0,0,0,4-3.82A3.9,3.9,0,0,0,1.23,409.62Z"/><path class="cls-6" d="M134.19,506.21a3.84,3.84,0,0,0,.29-1.43,3.85,3.85,0,1,0-7.7,0,3.65,3.65,0,0,0,.29,1.43Z"/><path class="cls-6" d="M129.09,486.85a3.84,3.84,0,1,1-3.82-3.81A3.91,3.91,0,0,1,129.09,486.85Z"/><path class="cls-6" d="M67.66,428.93a3.82,3.82,0,1,1,3.83-3.78A3.91,3.91,0,0,1,67.66,428.93Z"/><path class="cls-6" d="M86.73,436.6a3.85,3.85,0,1,1-3.62-4A3.9,3.9,0,0,1,86.73,436.6Z"/><path class="cls-6" d="M59.1,427.46a3.85,3.85,0,1,1,4-3.56A3.9,3.9,0,0,1,59.1,427.46Z"/><path class="cls-6" d="M132.08,500.51a3.79,3.79,0,1,1,3.82-3.78A3.85,3.85,0,0,1,132.08,500.51Z"/><path class="cls-6" d="M95,437.89a3.78,3.78,0,1,1-3.86-3.73A3.84,3.84,0,0,1,95,437.89Z"/><path class="cls-6" d="M31.43,409.52a3.75,3.75,0,1,1-3.74-3.68A3.79,3.79,0,0,1,31.43,409.52Z"/><path class="cls-6" d="M123.62,468.9a3.74,3.74,0,1,1-3.44-3.95A3.75,3.75,0,0,1,123.62,468.9Z"/><path class="cls-6" d="M76.1,430.35a3.75,3.75,0,1,1,3.67-3.75A3.79,3.79,0,0,1,76.1,430.35Z"/><path class="cls-6" d="M116.76,459a3.74,3.74,0,1,1-3.45-3.94A3.75,3.75,0,0,1,116.76,459Z"/><path class="cls-6" d="M23.05,408.12a3.73,3.73,0,1,1-3.67-3.74A3.71,3.71,0,0,1,23.05,408.12Z"/><path class="cls-6" d="M39.47,411.31A3.74,3.74,0,1,1,36,407.36,3.74,3.74,0,0,1,39.47,411.31Z"/><path class="cls-6" d="M106.14,453a3.73,3.73,0,1,1,3.74-3.66A3.72,3.72,0,0,1,106.14,453Z"/><path class="cls-6" d="M43.88,416.31a3.74,3.74,0,1,1,3.94-3.45A3.75,3.75,0,0,1,43.88,416.31Z"/><path class="cls-6" d="M103,439.38a3.66,3.66,0,1,1-3.74-3.6A3.59,3.59,0,0,1,103,439.38Z"/><path class="cls-6" d="M142.64,506.21a3.67,3.67,0,0,0-7.33,0h7.33Z"/><path class="cls-6" d="M133.49,492a3.65,3.65,0,1,1,3.78-3.56A3.58,3.58,0,0,1,133.49,492Z"/><path class="cls-6" d="M130.45,478.47a3.7,3.7,0,1,1-3.72-3.65A3.67,3.67,0,0,1,130.45,478.47Z"/><path class="cls-6" d="M14.65,406.68a3.62,3.62,0,0,1-3.75,3.61,3.69,3.69,0,1,1,3.75-3.61Z"/><path class="cls-6" d="M52.49,417.77a3.7,3.7,0,1,1,3.66-3.71A3.66,3.66,0,0,1,52.49,417.77Z"/><path class="cls-6" d="M57.15,415.5a3.66,3.66,0,1,1,3.63,3.71A3.58,3.58,0,0,1,57.15,415.5Z"/><path class="cls-6" d="M88,428a3.66,3.66,0,1,1-3.74-3.6A3.59,3.59,0,0,1,88,428Z"/><path class="cls-6" d="M121.34,456.72a3.6,3.6,0,1,1-3.57,3.59A3.55,3.55,0,0,1,121.34,456.72Z"/><path class="cls-6" d="M118.12,450.77a3.61,3.61,0,1,1-3.56-3.6A3.57,3.57,0,0,1,118.12,450.77Z"/><path class="cls-6" d="M92.69,433.18a3.6,3.6,0,1,1,3.64-3.52A3.56,3.56,0,0,1,92.69,433.18Z"/><path class="cls-6" d="M144.07,498.2a3.6,3.6,0,1,1-3.58-3.58A3.57,3.57,0,0,1,144.07,498.2Z"/><path class="cls-6" d="M2.53,401.47A3.61,3.61,0,0,0,0,402.54v5.15a3.64,3.64,0,0,0,2.63,1.07,3.65,3.65,0,1,0-.1-7.29Z"/><path class="cls-6" d="M69.16,413.14a3.61,3.61,0,1,1-3.61,3.54A3.57,3.57,0,0,1,69.16,413.14Z"/><path class="cls-6" d="M128.18,466.57a3.6,3.6,0,1,1-3.54,3.62A3.58,3.58,0,0,1,128.18,466.57Z"/><path class="cls-6" d="M135.15,483.59a3.58,3.58,0,1,1,3.53-3.62A3.58,3.58,0,0,1,135.15,483.59Z"/><path class="cls-6" d="M77.52,414.66a3.59,3.59,0,1,1-3.59,3.58A3.58,3.58,0,0,1,77.52,414.66Z"/><path class="cls-6" d="M107.68,437.34a3.58,3.58,0,1,1-3.61,3.56A3.59,3.59,0,0,1,107.68,437.34Z"/><path class="cls-6" d="M17.25,399.68a3.57,3.57,0,1,1,3.54,3.63A3.61,3.61,0,0,1,17.25,399.68Z"/><path class="cls-6" d="M12.49,401.8A3.55,3.55,0,1,1,16,398.3,3.61,3.61,0,0,1,12.49,401.8Z"/><path class="cls-6" d="M54,409.26a3.55,3.55,0,1,1,3.54-3.49A3.6,3.6,0,0,1,54,409.26Z"/><path class="cls-6" d="M45.64,400.65A3.57,3.57,0,1,1,42,404.2,3.61,3.61,0,0,1,45.64,400.65Z"/><path class="cls-6" d="M37.21,399.15a3.58,3.58,0,1,1-3.56,3.63A3.61,3.61,0,0,1,37.21,399.15Z"/><path class="cls-6" d="M32.75,401.28a3.58,3.58,0,1,1-3.57-3.62A3.6,3.6,0,0,1,32.75,401.28Z"/><path class="cls-6" d="M104.33,431.05a3.54,3.54,0,1,1-3.53-3.51A3.61,3.61,0,0,1,104.33,431.05Z"/><path class="cls-6" d="M62.33,403.67a3.54,3.54,0,1,1-3.57,3.5A3.62,3.62,0,0,1,62.33,403.67Z"/><path class="cls-6" d="M142,493.4a3.54,3.54,0,1,1,3.49-3.56A3.61,3.61,0,0,1,142,493.4Z"/><path class="cls-6" d="M150.48,506.21a3.48,3.48,0,0,0-6.29,0Z"/><path class="cls-6" d="M85.87,423.28a3.54,3.54,0,1,1,3.54-3.51A3.61,3.61,0,0,1,85.87,423.28Z"/><path class="cls-6" d="M4.15,400.28a3.52,3.52,0,1,1-.08-7,3.52,3.52,0,1,1,.08,7Z"/><path class="cls-6" d="M70.66,405.23a3.47,3.47,0,1,1-3.48,3.38A3.5,3.5,0,0,1,70.66,405.23Z"/><path class="cls-6" d="M140.08,471.65a3.49,3.49,0,1,1-3.53-3.48A3.55,3.55,0,0,1,140.08,471.65Z"/><path class="cls-6" d="M126.37,452a3.5,3.5,0,1,1-3.49-3.55A3.58,3.58,0,0,1,126.37,452Z"/><path class="cls-6" d="M129.78,465.31a3.5,3.5,0,1,1,3.46-3.58A3.56,3.56,0,0,1,129.78,465.31Z"/><path class="cls-6" d="M116,445.9a3.49,3.49,0,1,1,3.52-3.49A3.54,3.54,0,0,1,116,445.9Z"/><path class="cls-6" d="M148.89,496a3.45,3.45,0,1,1-3.51,3.32A3.47,3.47,0,0,1,148.89,496Z"/><path class="cls-6" d="M93.9,424.68a3.45,3.45,0,1,1,3.47-3.36A3.47,3.47,0,0,1,93.9,424.68Z"/><path class="cls-6" d="M146.86,481.53a3.4,3.4,0,1,1-3.38-3.43A3.37,3.37,0,0,1,146.86,481.53Z"/><path class="cls-6" d="M82.39,410.22A3.39,3.39,0,1,1,79,406.81,3.33,3.33,0,0,1,82.39,410.22Z"/><path class="cls-6" d="M112.54,432.6a3.4,3.4,0,1,1-3.37-3.43A3.35,3.35,0,0,1,112.54,432.6Z"/><path class="cls-6" d="M63.76,402.14a3.29,3.29,0,1,1,3.32-3.26A3.27,3.27,0,0,1,63.76,402.14Z"/><path class="cls-6" d="M105.6,422.66a3.32,3.32,0,1,1-3.34-3.26A3.29,3.29,0,0,1,105.6,422.66Z"/><path class="cls-6" d="M17.26,389.85a3.31,3.31,0,1,1-3.32-3.26A3.27,3.27,0,0,1,17.26,389.85Z"/><path class="cls-6" d="M58.75,397.3A3.32,3.32,0,1,1,55.41,394,3.27,3.27,0,0,1,58.75,397.3Z"/><path class="cls-6" d="M90.67,411.42a3.31,3.31,0,1,1-3.23-3.35A3.27,3.27,0,0,1,90.67,411.42Z"/><path class="cls-6" d="M33.7,392.9a3.34,3.34,0,1,1-3.24-3.36A3.27,3.27,0,0,1,33.7,392.9Z"/><path class="cls-6" d="M38.78,391a3.34,3.34,0,1,1-3.4,3.21A3.29,3.29,0,0,1,38.78,391Z"/><path class="cls-6" d="M120.79,434.12a3.29,3.29,0,1,1-3.24-3.35A3.27,3.27,0,0,1,120.79,434.12Z"/><path class="cls-6" d="M131.27,450.14a3.32,3.32,0,1,1-3.36,3.23A3.26,3.26,0,0,1,131.27,450.14Z"/><path class="cls-6" d="M124.31,447.22a3.32,3.32,0,1,1,3.37-3.23A3.26,3.26,0,0,1,124.31,447.22Z"/><path class="cls-6" d="M22.37,388.06a3.33,3.33,0,1,1-3.39,3.2A3.28,3.28,0,0,1,22.37,388.06Z"/><path class="cls-6" d="M153.65,491.3a3.33,3.33,0,1,1-3.3-3.27A3.27,3.27,0,0,1,153.65,491.3Z"/><path class="cls-6" d="M144.91,469.86a3.29,3.29,0,1,1-3.25,3.33A3.27,3.27,0,0,1,144.91,469.86Z"/><path class="cls-6" d="M141.4,463.31a3.32,3.32,0,1,1-3.27-3.32A3.26,3.26,0,0,1,141.4,463.31Z"/><path class="cls-6" d="M47,399.2a3.34,3.34,0,1,1,3.46-3.14A3.28,3.28,0,0,1,47,399.2Z"/><path class="cls-6" d="M8.88,388.41a3.28,3.28,0,1,1-3.32-3.29A3.28,3.28,0,0,1,8.88,388.41Z"/><path class="cls-6" d="M75.41,400.39a3.27,3.27,0,1,1-3.15-3.32A3.3,3.3,0,0,1,75.41,400.39Z"/><path class="cls-6" d="M151.82,479.75a3.25,3.25,0,1,1-.08,6.5,3.25,3.25,0,0,1,.08-6.5Z"/><path class="cls-6" d="M0,385.51v3.39a3.26,3.26,0,0,0,.5-1.53A3.09,3.09,0,0,0,0,385.51Z"/><path class="cls-6" d="M113.88,424.19a3.25,3.25,0,1,1-3.24-3.23A3.3,3.3,0,0,1,113.88,424.19Z"/><path class="cls-6" d="M157.17,504.16a3.26,3.26,0,1,1,3.27-3.21A3.31,3.31,0,0,1,157.17,504.16Z"/><path class="cls-6" d="M95.49,416.13a3.26,3.26,0,1,1,3.19-3.29A3.31,3.31,0,0,1,95.49,416.13Z"/><path class="cls-6" d="M80.5,398.62a3.22,3.22,0,1,1-3.22,3.25A3.3,3.3,0,0,1,80.5,398.62Z"/><path class="cls-6" d="M129.5,445.33a3.22,3.22,0,1,1,3.18,3.28A3.29,3.29,0,0,1,129.5,445.33Z"/><path class="cls-6" d="M142.79,454.87a3.21,3.21,0,1,1-3.32-3.13A3.29,3.29,0,0,1,142.79,454.87Z"/><path class="cls-6" d="M149.62,464.76a3.18,3.18,0,1,1-3.14-3.14A3.24,3.24,0,0,1,149.62,464.76Z"/><path class="cls-6" d="M125.91,438.73a3.18,3.18,0,1,1,3.12-3.16A3.24,3.24,0,0,1,125.91,438.73Z"/><path class="cls-6" d="M31.9,387.68A3.16,3.16,0,1,1,35,384.52,3.19,3.19,0,0,1,31.9,387.68Z"/><path class="cls-6" d="M37.06,386a3.16,3.16,0,1,1,3.12,3.15A3.18,3.18,0,0,1,37.06,386Z"/><path class="cls-6" d="M51.7,387.55a3.13,3.13,0,1,1-3.09-3.17A3.14,3.14,0,0,1,51.7,387.55Z"/><path class="cls-6" d="M106.92,414.42a3.15,3.15,0,1,1-3.06-3.21A3.18,3.18,0,0,1,106.92,414.42Z"/><path class="cls-6" d="M161.83,492.57a3.16,3.16,0,1,1-3.1-3.18A3.19,3.19,0,0,1,161.83,492.57Z"/><path class="cls-6" d="M163.18,484.54a3,3,0,1,1-3-3.06A3,3,0,0,1,163.18,484.54Z"/><path class="cls-6" d="M68.33,390.44a3.05,3.05,0,1,1-3-3A3,3,0,0,1,68.33,390.44Z"/><path class="cls-6" d="M56.89,385.92a3.08,3.08,0,1,1-3,3.16A3,3,0,0,1,56.89,385.92Z"/><path class="cls-6" d="M10.13,380.36a3,3,0,0,1-3,3,3,3,0,1,1,0-6.07A3,3,0,0,1,10.13,380.36Z"/><path class="cls-6" d="M122.07,425.7a3.08,3.08,0,1,1-3.12-3.08A3,3,0,0,1,122.07,425.7Z"/><path class="cls-6" d="M15.4,378.48a3.07,3.07,0,1,1-3,3A3,3,0,0,1,15.4,378.48Z"/><path class="cls-6" d="M168.54,502.51a3,3,0,1,1-2.88-3.12A3,3,0,0,1,168.54,502.51Z"/><path class="cls-6" d="M91.66,403.3a3.11,3.11,0,1,1-3.13-3.08A3.08,3.08,0,0,1,91.66,403.3Z"/><path class="cls-6" d="M115.13,415.84a3,3,0,1,1-3-3A3,3,0,0,1,115.13,415.84Z"/><path class="cls-6" d="M156.39,474.62a3.09,3.09,0,1,1-3.15-3.06A3,3,0,0,1,156.39,474.62Z"/><path class="cls-6" d="M96.86,401.81a3,3,0,1,1-3,3.06A3,3,0,0,1,96.86,401.81Z"/><path class="cls-6" d="M23.78,386.14a3.11,3.11,0,1,1,3.12-3.08A3.07,3.07,0,0,1,23.78,386.14Z"/><path class="cls-6" d="M73.62,389a3,3,0,1,1-3,3A3,3,0,0,1,73.62,389Z"/><path class="cls-6" d="M157.77,466.27a3,3,0,1,1-3-2.95A3,3,0,0,1,157.77,466.27Z"/><path class="cls-6" d="M147.86,453.45a3,3,0,1,1-2.92,3.1A3,3,0,0,1,147.86,453.45Z"/><path class="cls-6" d="M0,376.15v5.42a3,3,0,0,0,1.73-2.71A3,3,0,0,0,0,376.15Z"/><path class="cls-6" d="M130.31,427.15a3,3,0,1,1-3-2.92A3,3,0,0,1,130.31,427.15Z"/><path class="cls-6" d="M141.06,443.6a3,3,0,1,1-3,3A3,3,0,0,1,141.06,443.6Z"/><path class="cls-6" d="M137.2,437.1a3,3,0,1,1-3-3.05A3,3,0,0,1,137.2,437.1Z"/><path class="cls-6" d="M82,390.52a3,3,0,1,1-2.93,3A3,3,0,0,1,82,390.52Z"/><path class="cls-6" d="M25.06,377.86A2.88,2.88,0,1,1,27.88,375,2.95,2.95,0,0,1,25.06,377.86Z"/><path class="cls-6" d="M167.1,491.1a2.94,2.94,0,1,1-3,2.9A3,3,0,0,1,167.1,491.1Z"/><path class="cls-6" d="M47.18,379.16A2.88,2.88,0,1,1,50,382,2.94,2.94,0,0,1,47.18,379.16Z"/><path class="cls-6" d="M161.62,473.23a2.91,2.91,0,1,1-2.86,2.87A3,3,0,0,1,161.62,473.23Z"/><path class="cls-6" d="M92.93,395a2.88,2.88,0,1,1-2.78-3A2.95,2.95,0,0,1,92.93,395Z"/><path class="cls-6" d="M108.2,406.05a2.94,2.94,0,1,1-2.94-3A3,3,0,0,1,108.2,406.05Z"/><path class="cls-6" d="M123.38,417.29a2.9,2.9,0,1,1-2.88-2.84A3,3,0,0,1,123.38,417.29Z"/><path class="cls-6" d="M33.38,379.07a2.9,2.9,0,1,1,2.87-2.85A3,3,0,0,1,33.38,379.07Z"/><path class="cls-6" d="M44.61,377.68a2.91,2.91,0,1,1-2.81-2.92A3,3,0,0,1,44.61,377.68Z"/><path class="cls-6" d="M16.9,376.32a2.84,2.84,0,1,1,2.87-2.8A2.82,2.82,0,0,1,16.9,376.32Z"/><path class="cls-6" d="M61.27,380.7a2.86,2.86,0,1,1-2.76-2.91A2.87,2.87,0,0,1,61.27,380.7Z"/><path class="cls-6" d="M138.46,428.69a2.76,2.76,0,1,1-2.68-2.76A2.7,2.7,0,0,1,138.46,428.69Z"/><path class="cls-6" d="M171,485.92a2.77,2.77,0,1,1-2.75-2.7A2.7,2.7,0,0,1,171,485.92Z"/><path class="cls-6" d="M152.21,448.06a2.78,2.78,0,1,1-2.74-2.76A2.74,2.74,0,0,1,152.21,448.06Z"/><path class="cls-6" d="M66.77,384.92a2.78,2.78,0,1,1,2.78-2.71A2.72,2.72,0,0,1,66.77,384.92Z"/><path class="cls-6" d="M142.54,441.34a2.8,2.8,0,1,1,2.82-2.82A2.76,2.76,0,0,1,142.54,441.34Z"/><path class="cls-6" d="M8.54,374.76a2.77,2.77,0,1,1,.09-5.53,2.77,2.77,0,1,1-.09,5.53Z"/><path class="cls-6" d="M172.1,506.21h3a2.75,2.75,0,1,0-3,0Z"/><path class="cls-6" d="M116.36,407.54a2.75,2.75,0,1,1-2.67-2.78A2.67,2.67,0,0,1,116.36,407.54Z"/><path class="cls-6" d="M98.46,393.72a2.75,2.75,0,1,1-2.8,2.65A2.67,2.67,0,0,1,98.46,393.72Z"/><path class="cls-6" d="M159.05,458a2.76,2.76,0,1,1-2.65-2.8A2.7,2.7,0,0,1,159.05,458Z"/><path class="cls-6" d="M75.1,386.35a2.72,2.72,0,1,1,2.74-2.69A2.67,2.67,0,0,1,75.1,386.35Z"/><path class="cls-6" d="M.17,367.8l-.17,0v5.37l.21,0a2.71,2.71,0,1,0,0-5.41Z"/><path class="cls-6" d="M126.13,418.77a2.71,2.71,0,1,1,2.68,2.78A2.67,2.67,0,0,1,126.13,418.77Z"/><path class="cls-6" d="M106.69,400.61a2.66,2.66,0,1,1,2.72-2.59A2.71,2.71,0,0,1,106.69,400.61Z"/><path class="cls-6" d="M172.37,477.62a2.66,2.66,0,1,1-2.66-2.65A2.7,2.7,0,0,1,172.37,477.62Z"/><path class="cls-6" d="M175,492.86a2.67,2.67,0,1,1-2.61,2.69A2.72,2.72,0,0,1,175,492.86Z"/><path class="cls-6" d="M85.86,385.06a2.68,2.68,0,1,1-2.7-2.62A2.71,2.71,0,0,1,85.86,385.06Z"/><path class="cls-6" d="M162.91,470.49a2.71,2.71,0,1,1,2.65-2.8A2.68,2.68,0,0,1,162.91,470.49Z"/><path class="cls-6" d="M122,406.35a2.65,2.65,0,1,1-2.63,2.69A2.71,2.71,0,0,1,122,406.35Z"/><path class="cls-6" d="M153.55,440a2.63,2.63,0,1,1-2.7-2.59A2.71,2.71,0,0,1,153.55,440Z"/><path class="cls-6" d="M160.09,449.55a2.61,2.61,0,1,1-2.56-2.58A2.69,2.69,0,0,1,160.09,449.55Z"/><path class="cls-6" d="M91.61,384A2.59,2.59,0,1,1,89,386.51,2.66,2.66,0,0,1,91.61,384Z"/><path class="cls-6" d="M144,432.79a2.61,2.61,0,1,1,2.67-2.47A2.68,2.68,0,0,1,144,432.79Z"/><path class="cls-6" d="M43.2,367a2.61,2.61,0,1,1-2.61,2.53A2.68,2.68,0,0,1,43.2,367Z"/><path class="cls-6" d="M34.87,365.5A2.62,2.62,0,1,1,32.23,368,2.69,2.69,0,0,1,34.87,365.5Z"/><path class="cls-6" d="M26.48,369.21a2.59,2.59,0,1,1,2.6-2.54A2.66,2.66,0,0,1,26.48,369.21Z"/><path class="cls-6" d="M164.29,462a2.54,2.54,0,1,1,2.59-2.52A2.55,2.55,0,0,1,164.29,462Z"/><path class="cls-6" d="M137.23,422.87a2.54,2.54,0,1,1,2.5-2.61A2.54,2.54,0,0,1,137.23,422.87Z"/><path class="cls-6" d="M59.87,369.76a2.54,2.54,0,1,1-2.5,2.61A2.54,2.54,0,0,1,59.87,369.76Z"/><path class="cls-6" d="M51.59,368.24a2.56,2.56,0,1,1-2.6,2.52A2.6,2.6,0,0,1,51.59,368.24Z"/><path class="cls-6" d="M21,365.08a2.53,2.53,0,1,1-2.62-2.48A2.52,2.52,0,0,1,21,365.08Z"/><path class="cls-6" d="M12.52,363.65a2.39,2.39,0,0,1-2.45,2.43,2.44,2.44,0,0,1,0-4.88A2.38,2.38,0,0,1,12.52,363.65Z"/><path class="cls-6" d="M117.59,399.5a2.48,2.48,0,1,1-2.35-2.53A2.44,2.44,0,0,1,117.59,399.5Z"/><path class="cls-6" d="M176.64,489.65a2.48,2.48,0,1,1,2.42-2.46A2.44,2.44,0,0,1,176.64,489.65Z"/><path class="cls-6" d="M70.72,373.72a2.46,2.46,0,1,1-2.48-2.39A2.4,2.4,0,0,1,70.72,373.72Z"/><path class="cls-6" d="M184.25,506.21a2.63,2.63,0,0,0,.14-.8,2.44,2.44,0,1,0-4.88-.06,2.72,2.72,0,0,0,.14.86Z"/><path class="cls-6" d="M102.33,388a2.44,2.44,0,1,1-2.5-2.37A2.38,2.38,0,0,1,102.33,388Z"/><path class="cls-6" d="M161.34,441.26a2.37,2.37,0,1,1-2.33-2.41A2.41,2.41,0,0,1,161.34,441.26Z"/><path class="cls-6" d="M130.27,408.06a2.43,2.43,0,1,1-2.37,2.53A2.36,2.36,0,0,1,130.27,408.06Z"/><path class="cls-6" d="M171.18,466.85a2.43,2.43,0,1,1,0,4.85,2.43,2.43,0,0,1,0-4.85Z"/><path class="cls-6" d="M1.81,359.76a2.37,2.37,0,0,0-1.81.73v3.31a2.39,2.39,0,1,0,1.81-4Z"/><path class="cls-6" d="M154.48,431.71a2.37,2.37,0,1,1-2.33-2.4A2.41,2.41,0,0,1,154.48,431.71Z"/><path class="cls-6" d="M78.73,375.33a2.41,2.41,0,1,1-4.82-.18,2.41,2.41,0,0,1,4.82.18Z"/><path class="cls-6" d="M178.11,481.47a2.36,2.36,0,1,1,2.32-2.42A2.42,2.42,0,0,1,178.11,481.47Z"/><path class="cls-6" d="M145.22,419.49a2.34,2.34,0,1,1-2.31,2.29A2.42,2.42,0,0,1,145.22,419.49Z"/><path class="cls-6" d="M84.72,374.41a2.36,2.36,0,1,1-2.4,2.35A2.42,2.42,0,0,1,84.72,374.41Z"/><path class="cls-6" d="M110.59,389.56a2.34,2.34,0,1,1-2.31-2.3A2.42,2.42,0,0,1,110.59,389.56Z"/><path class="cls-6" d="M168.18,451a2.34,2.34,0,1,1-2.31-2.3A2.44,2.44,0,0,1,168.18,451Z"/><path class="cls-6" d="M125.8,400.61a2.34,2.34,0,1,1-2.29-2.31A2.42,2.42,0,0,1,125.8,400.61Z"/><path class="cls-6" d="M183.49,494.67a2.36,2.36,0,1,1-2.4,2.35A2.42,2.42,0,0,1,183.49,494.67Z"/><path class="cls-6" d="M174.94,461a2.25,2.25,0,0,1-2.39,2.12,2.24,2.24,0,1,1,2.39-2.12Z"/><path class="cls-6" d="M140.92,412a2.24,2.24,0,1,1-2.24-2.27A2.24,2.24,0,0,1,140.92,412Z"/><path class="cls-6" d="M38.53,359.75a2.2,2.2,0,1,1-4.4,0,2.2,2.2,0,1,1,4.4,0Z"/><path class="cls-6" d="M46.89,361.32a2.2,2.2,0,1,1-2-2.26A2.17,2.17,0,0,1,46.89,361.32Z"/><path class="cls-6" d="M55.22,362.73a2.18,2.18,0,1,1-2.16-2.16A2.12,2.12,0,0,1,55.22,362.73Z"/><path class="cls-6" d="M27.92,356.09a2.18,2.18,0,1,1-2.11,2.2A2.12,2.12,0,0,1,27.92,356.09Z"/><path class="cls-6" d="M93,376.06a2.2,2.2,0,1,1-2.2,2.13A2.16,2.16,0,0,1,93,376.06Z"/><path class="cls-6" d="M116.54,389a2.13,2.13,0,1,1,0,4.26,2.13,2.13,0,0,1,0-4.26Z"/><path class="cls-6" d="M19.56,354.64a2.14,2.14,0,1,1-2.07,2.24A2.09,2.09,0,0,1,19.56,354.64Z"/><path class="cls-6" d="M59.27,364.12a2.13,2.13,0,1,1,2,2.25A2.08,2.08,0,0,1,59.27,364.12Z"/><path class="cls-6" d="M133.92,402.17a2.1,2.1,0,1,1-2-2.14A2.07,2.07,0,0,1,133.92,402.17Z"/><path class="cls-6" d="M181.68,470.74a2.12,2.12,0,1,1-2.07-2.1A2.08,2.08,0,0,1,181.68,470.74Z"/><path class="cls-6" d="M185,490.8a2.14,2.14,0,1,1,2.07-2.23A2.08,2.08,0,0,1,185,490.8Z"/><path class="cls-6" d="M103.48,379.76a2.1,2.1,0,1,1-2-2.1A2.1,2.1,0,0,1,103.48,379.76Z"/><path class="cls-6" d="M69.82,363.34a2.09,2.09,0,1,1-2.16,2A2.1,2.1,0,0,1,69.82,363.34Z"/><path class="cls-6" d="M192.28,506.21a2.08,2.08,0,0,0-3.95,0Z"/><path class="cls-6" d="M162.55,433.22a2.08,2.08,0,1,1-2-2.13A2.11,2.11,0,0,1,162.55,433.22Z"/><path class="cls-6" d="M13.66,355.33a2.09,2.09,0,1,1-4.18-.16,2.09,2.09,0,0,1,4.18.16Z"/><path class="cls-6" d="M148.75,413.44a2,2,0,1,1-2-2A2.07,2.07,0,0,1,148.75,413.44Z"/><path class="cls-6" d="M155.67,423.25a2.11,2.11,0,0,1-2,2.13,2.06,2.06,0,0,1-2.08-2.07,2,2,0,0,1,1.95-2.05A2.09,2.09,0,0,1,155.67,423.25Z"/><path class="cls-6" d="M167.3,444.78a2.13,2.13,0,0,1-2-2.14,2.09,2.09,0,0,1,2.18-2,2,2,0,0,1,1.94,2A2.06,2.06,0,0,1,167.3,444.78Z"/><path class="cls-6" d="M5.24,353.79a2.09,2.09,0,0,1-2,2,2,2,0,1,1,0-4.06A2.09,2.09,0,0,1,5.24,353.79Z"/><path class="cls-6" d="M79.86,366.86A2.11,2.11,0,0,1,77.8,369a2.05,2.05,0,1,1,2.06-2.11Z"/><path class="cls-6" d="M176.2,452.6a2,2,0,1,1-2-2.05A2.06,2.06,0,0,1,176.2,452.6Z"/><path class="cls-6" d="M191.84,496.57a1.93,1.93,0,0,1,1.88,2.13,1.84,1.84,0,0,1-2,1.74,1.94,1.94,0,0,1,.15-3.87Z"/><path class="cls-6" d="M186.37,482.59a2,2,0,0,1-1.92-2.07,2,2,0,0,1,2.1-1.87,1.9,1.9,0,0,1,1.84,2A2,2,0,0,1,186.37,482.59Z"/><path class="cls-6" d="M124.89,390.61a2,2,0,0,1,2,1.94,2,2,0,0,1-2,2,1.93,1.93,0,0,1-2-1.86A2,2,0,0,1,124.89,390.61Z"/><path class="cls-6" d="M109.68,379.31a1.91,1.91,0,0,1,2,2,1.84,1.84,0,0,1-1.94,1.85,1.93,1.93,0,0,1,0-3.86Z"/><path class="cls-6" d="M88.07,368.39a1.9,1.9,0,1,1-3.79,0,1.75,1.75,0,0,1,1.89-1.84A1.79,1.79,0,0,1,88.07,368.39Z"/><path class="cls-6" d="M94.44,368.09c1.1.09,1.82.62,1.86,1.74a1.78,1.78,0,0,1-3.55.15C92.69,368.85,93.37,368.27,94.44,368.09Z"/><path class="cls-6" d="M179.2,462.43a1.81,1.81,0,0,1,2-1.85,1.7,1.7,0,0,1,1.67,2,1.67,1.67,0,0,1-1.91,1.64A1.71,1.71,0,0,1,179.2,462.43Z"/><path class="cls-6" d="M139.9,401.76c1.16.13,1.85.74,1.81,1.92a1.68,1.68,0,0,1-1.93,1.77,1.65,1.65,0,0,1-1.73-1.81A1.75,1.75,0,0,1,139.9,401.76Z"/><path class="cls-6" d="M189.87,472.64c-.66.45-1.29,1.17-2,1.26a1.65,1.65,0,1,1,.07-3.29c.71.12,1.3.87,1.95,1.34Z"/><path class="cls-6" d="M195.28,490.49a7.52,7.52,0,0,1-2,1.36c-.88.25-1.86-.82-1.76-1.76s.76-1.78,1.75-1.61c.71.13,1.31.87,2,1.33Z"/><path class="cls-6" d="M120.09,383.07a7.41,7.41,0,0,1-2,1.36c-.88.25-1.85-.82-1.76-1.76s.76-1.79,1.75-1.61c.72.12,1.32.86,2,1.33C120.08,382.62,120.09,382.84,120.09,383.07Z"/><path class="cls-6" d="M31.45,350.32a7.57,7.57,0,0,1-2,1.28c-.89.22-1.83-.9-1.7-1.82s.83-1.76,1.81-1.55c.71.16,1.29.92,1.92,1.41Z"/><path class="cls-6" d="M170.82,434.93a7.28,7.28,0,0,1-1.92,1.42c-.87.28-1.88-.77-1.81-1.71s.72-1.81,1.71-1.66c.71.11,1.34.83,2,1.28C170.81,434.48,170.82,434.71,170.82,434.93Z"/><path class="cls-6" d="M48,352.38c-.18,1.55-.74,2.26-1.86,2.26A1.61,1.61,0,0,1,44.44,353c0-1.11.68-1.91,1.75-1.75C46.91,351.3,47.52,352.05,48,352.38Z"/><path class="cls-6" d="M163.94,425.19a7.44,7.44,0,0,1-2,1.31c-.89.23-1.85-.87-1.72-1.8s.8-1.77,1.79-1.57c.71.15,1.29.9,1.93,1.38Z"/><path class="cls-6" d="M133,396c-.46-.64-1.21-1.24-1.34-1.94A1.65,1.65,0,1,1,135,394c-.09.71-.82,1.34-1.26,2Z"/><path class="cls-6" d="M56.52,354.74a7.48,7.48,0,0,1-2,1.34c-.88.24-1.85-.84-1.75-1.77s.78-1.78,1.77-1.6c.71.13,1.31.88,2,1.35C56.53,354.29,56.53,354.51,56.52,354.74Z"/><path class="cls-6" d="M37.33,349.57c1.54.19,2.25.75,2.24,1.87a1.61,1.61,0,0,1-1.7,1.7,1.54,1.54,0,0,1-1.74-1.76C36.24,350.67,37,350.05,37.33,349.57Z"/><path class="cls-6" d="M157,415.24c-.64.47-1.23,1.22-1.92,1.34a1.37,1.37,0,0,1-1.63-1.61,2.31,2.31,0,0,1,1.51-1.58c.63-.06,1.33.73,2,1.14C157,414.77,157,415,157,415.24Z"/><path class="cls-6" d="M62.54,357.81c-.44-.66-1.17-1.27-1.26-2A1.37,1.37,0,0,1,63,354.27a2.33,2.33,0,0,1,1.52,1.58c0,.63-.78,1.3-1.22,2Z"/><path class="cls-6" d="M23,348.82c-.66.43-1.3,1.14-2,1.22a1.38,1.38,0,0,1-1.52-1.71,2.34,2.34,0,0,1,1.61-1.49c.64,0,1.29.81,1.93,1.27C23,348.35,23,348.58,23,348.82Z"/><path class="cls-6" d="M177.56,444.61c-.66.41-1.35,1.19-2,1.13a2.26,2.26,0,0,1-1.47-1.58,1.34,1.34,0,0,1,1.66-1.54c.65.13,1.2.85,1.79,1.31Z"/><path class="cls-6" d="M103.31,369.58c.39.63,1,1.23,1.1,1.89.12,1-.61,1.54-1.6,1.5s-1.67-.69-1.47-1.63c.14-.66.83-1.2,1.27-1.79Z"/><path class="cls-6" d="M184.31,454.48c-.58.37-1.14,1-1.76,1-1,.15-1.56-.54-1.52-1.54s.69-1.63,1.65-1.42c.61.14,1.11.8,1.66,1.22Z"/><path class="cls-6" d="M148.59,403.34c.39.57,1,1.1,1.12,1.72.18,1-.47,1.58-1.48,1.58s-1.66-.63-1.48-1.6c.12-.62.74-1.14,1.14-1.71Z"/><path class="cls-6" d="M12.67,348.7c-.38-.58-1-1.12-1.09-1.74-.16-1,.51-1.57,1.52-1.55s1.64.66,1.44,1.62c-.13.62-.77,1.13-1.18,1.69Z"/><path class="cls-6" d="M72.78,357.71c-.61.42-1.17,1.08-1.83,1.2-1,.16-1.57-.53-1.58-1.53s.6-1.7,1.56-1.54c.66.11,1.23.76,1.85,1.17Z"/><path class="cls-6" d="M81.05,359.14c-.57.41-1.16,1.17-1.68,1.12s-1-.86-1.56-1.34c.48-.51.9-1.36,1.45-1.45s1.17.62,1.76,1Z"/><path class="cls-6" d="M196.48,482.2c-.6.36-1.21,1-1.77,1s-1.37-.95-1.3-1.34a2.1,2.1,0,0,1,1.39-1.43c.52-.06,1.13.7,1.7,1.1Z"/><path class="cls-6" d="M200.21,502.07c-.7-.95-1.44-1.52-1.39-2s.83-1,1.3-1.48c.49.47,1.3.89,1.37,1.41S200.86,501.08,200.21,502.07Z"/><path class="cls-6" d="M6.77,345.46c-.95.66-1.58,1.43-2,1.34s-1-.94-1.5-1.45c.5-.46,1-1.24,1.51-1.28S5.84,344.77,6.77,345.46Z"/><path class="cls-6" d="M128.51,384.33c-1,.63-1.63,1.37-2.07,1.26s-1-1-1.44-1.51c.52-.43,1-1.2,1.56-1.22S127.61,383.61,128.51,384.33Z"/><path class="cls-6" d="M112.82,373.24c-.55.34-1.17,1-1.64.95a2,2,0,0,1-1.25-1.42c0-.37.83-1.18,1.3-1.19s1.07.67,1.61,1Z"/><path class="cls-6" d="M87.71,362c-.65-.85-1.34-1.35-1.31-1.82s.74-.95,1.15-1.42c.48.44,1.24.82,1.37,1.36S88.31,361.08,87.71,362Z"/><path class="cls-6" d="M189.65,462.29c.39.53,1.11,1.1,1.06,1.58a2,2,0,0,1-1.33,1.33c-.37.07-1.24-.75-1.27-1.21s.59-1.12.93-1.68Z"/><path class="cls-6" d="M141.08,396.87c-.37-.54-1.08-1.13-1-1.61a2,2,0,0,1,1.37-1.29c.37-.06,1.21.78,1.24,1.25s-.63,1.1-1,1.65Z"/><path class="cls-6" d="M96,359.89c.56.77,1.15,1.22,1.12,1.62s-.67.79-1,1.19c-.4-.37-1-.71-1.11-1.13S95.45,360.69,96,359.89Z"/><path class="cls-6" d="M179,435.86c-.89.57-1.41,1.17-1.82,1.11a1.75,1.75,0,0,1-1.09-1.21c-.05-.3.69-1,1.09-1S178.09,435.28,179,435.86Z"/><path class="cls-6" d="M134.46,387.38c-.52-.8-1.08-1.29-1-1.69s.72-.75,1.11-1.12c.37.4,1,.77,1,1.19S135,386.62,134.46,387.38Z"/><path class="cls-6" d="M165.24,416.42c-.87.6-1.38,1.21-1.79,1.15a1.75,1.75,0,0,1-1.12-1.18c-.05-.3.67-1,1.06-1.06S164.34,415.86,165.24,416.42Z"/><path class="cls-6" d="M170.23,424.53c.62.8,1.29,1.3,1.22,1.67s-.74.88-1.15,1.32c-.41-.4-1.07-.76-1.13-1.21S169.69,425.38,170.23,424.53Z"/><path class="cls-6" d="M47.62,346c-.46-.69-1-1.17-.93-1.47s.71-.72,1.09-1.07c.32.38.86.74.88,1.13S48.13,345.37,47.62,346Z"/><path class="cls-6" d="M156.49,408.23c-.48-.82-1-1.33-.94-1.71a1.62,1.62,0,0,1,1.19-.93c.27,0,.9.68.89,1.05S157.07,407.47,156.49,408.23Z"/><path class="cls-6" d="M203.27,491.56c-.76.57-1.21,1.16-1.59,1.12a1.6,1.6,0,0,1-1.07-1.06c-.06-.27.58-1,.94-1S202.45,491.08,203.27,491.56Z"/><path class="cls-6" d="M121.21,374.43c-.81.5-1.3,1.06-1.68,1a1.6,1.6,0,0,1-1-1.15c0-.27.67-.92,1-.92S120.44,373.88,121.21,374.43Z"/><path class="cls-6" d="M194.65,473.84c.76-.57,1.16-1.11,1.6-1.13s1.08.61,1.05.89a1.59,1.59,0,0,1-.94,1.18C196,474.86,195.47,474.33,194.65,473.84Z"/><path class="cls-6" d="M185.66,445.67c-.78.54-1.24,1.11-1.63,1.06a1.57,1.57,0,0,1-1-1.1c-.06-.27.61-1,1-1S184.87,445.16,185.66,445.67Z"/><path class="cls-6" d="M40.8,343.15c-.7.44-1.2,1-1.49.88s-.7-.72-1-1.12c.38-.3.76-.84,1.15-.84S40.16,342.62,40.8,343.15Z"/><path class="cls-6" d="M23.92,340c-.61.47-1,1-1.28.93a1.29,1.29,0,0,1-.87-.86c-.06-.21.46-.8.74-.82S23.25,339.59,23.92,340Z"/><path class="cls-6" d="M57.45,346.13c-.71.41-1.13.85-1.51.82s-.89-.71-.82-.91a1.54,1.54,0,0,1,1-.92C56.42,345.07,56.8,345.61,57.45,346.13Z"/><path class="cls-6" d="M151,396.72c-.63.45-1,.87-1.33.88s-.86-.52-.83-.73a1.35,1.35,0,0,1,.79-.95C150,395.86,150.39,396.32,151,396.72Z"/><path class="cls-6" d="M104.44,364.25c-.43-.52-.94-.88-.88-1.11s.54-.65.84-1c.28.29.75.56.78.87S104.8,363.7,104.44,364.25Z"/><path class="cls-6" d="M64.34,346.18c.46.62.94,1,.91,1.31a1.24,1.24,0,0,1-.84.9,1.26,1.26,0,0,1-.9-.85C63.47,347.22,63.92,346.83,64.34,346.18Z"/><path class="cls-6" d="M192.22,455.48c-.62.46-1,.94-1.3.9a1.33,1.33,0,0,1-.86-.88c-.05-.21.48-.79.76-.8S191.55,455.08,192.22,455.48Z"/><path class="cls-6" d="M73.65,349.07c-.55.38-1,.84-1.19.76s-.6-.6-.89-.92c.31-.26.62-.7.94-.71S73.13,348.65,73.65,349.07Z"/><path class="cls-6" d="M32.39,341.55c-.67.46-1.06.92-1.45.92s-.63-.55-1-.86c.33-.34.62-.87,1-1S31.7,341.08,32.39,341.55Z"/><circle class="cls-7" cx="478.12" cy="467.61" r="2.3"/><path class="cls-4" d="M718.43,372.05a2.3,2.3,0,1,1-2.3-2.29A2.3,2.3,0,0,1,718.43,372.05Z"/><path class="cls-7" d="M281.16,439.41a3.13,3.13,0,1,1-3.13-3.12A3.13,3.13,0,0,1,281.16,439.41Z"/><rect class="cls-7" x="536.99" y="437.92" width="2.74" height="9.23"/><rect class="cls-7" x="536.99" y="437.92" width="2.74" height="9.23" transform="translate(980.9 -95.82) rotate(90)"/><rect class="cls-7" x="113.17" y="435.57" width="4.95" height="16.68"/><rect class="cls-7" x="113.17" y="435.57" width="4.95" height="16.68" transform="translate(559.55 328.26) rotate(90)"/><line class="cls-5" x1="547.24" y1="352.74" x2="508.62" y2="391.36"/><line class="cls-8" x1="235.35" y1="388.38" x2="197.84" y2="425.89"/><circle class="cls-5" cx="118.12" cy="327.91" r="71.7"/><rect class="cls-9" x="5.19" width="750" height="500"/></g></g></svg>