<?xml version="1.0" encoding="utf-8"?>
<!-- Generator: Adobe Illustrator 25.0.1, SVG Export Plug-In . SVG Version: 6.00 Build 0)  -->
<svg version="1.1" xmlns="http://www.w3.org/2000/svg" xmlns:xlink="http://www.w3.org/1999/xlink" x="0px" y="0px"
	 viewBox="0 0 750 500" style="enable-background:new 0 0 750 500;" xml:space="preserve">
<style type="text/css">
	.st0{clip-path:url(#SVGID_2_);fill:#001137;}
	.st1{clip-path:url(#SVGID_2_);}
	.st2{fill:url(#SVGID_3_);}
	.st3{fill:url(#SVGID_4_);}
	.st4{fill:url(#SVGID_5_);}
	.st5{fill:url(#SVGID_6_);}
	.st6{fill:url(#SVGID_7_);}
	.st7{fill:url(#SVGID_8_);}
	.st8{fill:url(#SVGID_9_);}
	.st9{fill:#EA227A;}
	.st10{clip-path:url(#SVGID_2_);fill:none;stroke:#EA227A;stroke-miterlimit:10;}
	.st11{fill:#FFFFFF;}
	.st12{fill:#00255B;}
	.st13{clip-path:url(#SVGID_2_);fill:#FFFFFF;}
	.st14{clip-path:url(#SVGID_2_);fill:#EA227A;}
	.st15{clip-path:url(#SVGID_2_);fill:none;stroke:#FFFFFF;stroke-miterlimit:10;}
	.st16{clip-path:url(#SVGID_2_);fill:none;}
</style>
<g id="BACKGROUND">
</g>
<g id="OBJECTS">
	<g>
		<defs>
			<rect id="SVGID_1_" width="750" height="500"/>
		</defs>
		<clipPath id="SVGID_2_">
			<use xlink:href="#SVGID_1_"  style="overflow:visible;"/>
		</clipPath>
		<rect class="st0" width="750" height="500"/>
		<g class="st1">
			<linearGradient id="SVGID_3_" gradientUnits="userSpaceOnUse" x1="533.4023" y1="-472.0781" x2="82.9247" y2="319.8499">
				<stop  offset="0" style="stop-color:#000000;stop-opacity:0"/>
				<stop  offset="0.1903" style="stop-color:#000204;stop-opacity:0.1903"/>
				<stop  offset="0.3617" style="stop-color:#00060F;stop-opacity:0.3617"/>
				<stop  offset="0.5258" style="stop-color:#000F21;stop-opacity:0.5258"/>
				<stop  offset="0.6854" style="stop-color:#001A3B;stop-opacity:0.6854"/>
				<stop  offset="0.8418" style="stop-color:#00295C;stop-opacity:0.8418"/>
				<stop  offset="0.9938" style="stop-color:#003B84;stop-opacity:0.9938"/>
				<stop  offset="1" style="stop-color:#003C86"/>
			</linearGradient>
			<path class="st2" d="M-5.2-5.5v219c30.3,4.3,61.6,2.7,91.5-3.7c50.5-10.7,97.5-34.2,140.8-62.3c60.3-39.1,116-88.4,184.9-109
				c33.7-10.1,69.6-12.9,101.8-27.1c9.7-4.3,19.1-10,27.4-16.8H-5.2z"/>
		</g>
		<g class="st1">
			<g>
				<linearGradient id="SVGID_4_" gradientUnits="userSpaceOnUse" x1="361.2788" y1="-76.4653" x2="140.3833" y2="311.8634">
					<stop  offset="0" style="stop-color:#000000;stop-opacity:0"/>
					<stop  offset="1.811987e-02" style="stop-color:#000205;stop-opacity:1.811987e-02"/>
					<stop  offset="0.1641" style="stop-color:#00142D;stop-opacity:0.1641"/>
					<stop  offset="0.3152" style="stop-color:#00224D;stop-opacity:0.3152"/>
					<stop  offset="0.4706" style="stop-color:#002E66;stop-opacity:0.4706"/>
					<stop  offset="0.6319" style="stop-color:#003678;stop-opacity:0.6319"/>
					<stop  offset="0.8029" style="stop-color:#003A83;stop-opacity:0.8029"/>
					<stop  offset="1" style="stop-color:#003C86"/>
				</linearGradient>
				<path class="st3" d="M1.9,233.6c18.6,4.9,37.5,8.1,56.7,8.5c18.4,0.4,36.9-1.9,54.8-6.1c18.4-4.3,35.9-10.9,53.3-18.1
					c15.8-6.6,31.2-14,46-22.5c30.1-17.2,57.8-38.2,83.1-61.8c3.2-3,6.4-6.1,9.6-9.2c3.5-3.5,7.4-6.5,11.3-9.6
					c1.8-1.4,3.5-2.8,5.2-4.2c1.6-1.3,2.5-2.6,3.7-4.3c1.6-2.1,4-3.7,6-5.4c2-1.7,3.9-3.3,5.9-5c14.8-12.6,29.7-25,44.7-37.3
					c7.6-6.1,15.7-11.4,24.1-16.3c8.3-4.9,16.8-9.9,25.3-14.4c17.1-9.2,35.8-14.9,54.2-20.6c4.7-1.4,9.3-2.9,13.9-4.4
					c0.8-0.2,0.4-1.5-0.3-1.2c-18.5,5.9-37.2,11.1-55.1,18.7C436,24,428,28.3,420.2,33c-8.1,4.8-16.5,9.3-24.5,14.4
					c-7.9,5.1-15.1,11-22.4,17c-7.3,6-14.6,12.1-21.9,18.2c-7.5,6.3-15,12.7-22.5,19.1c-1.5,1.3-3.1,2.5-4.3,4.1
					c-0.7,0.9-1.2,2-2,2.8c-0.9,0.9-2,1.6-3,2.4c-3.9,3.1-7.9,6.1-11.6,9.3c-3.4,2.9-6.4,6.2-9.6,9.3c-3.2,3-6.4,6-9.7,9
					c-6.5,5.9-13.1,11.5-19.9,17c-13.5,10.9-27.6,21-42.4,30.3c-14.6,9.2-29.8,17.4-45.5,24.6c-16.8,7.7-34,14.8-51.7,20.1
					c-18.1,5.4-36.7,9.1-55.6,10.1c-19.3,1-38.6-0.7-57.5-4.8c-4.7-1-9.3-2.2-13.9-3.4C1.4,232.2,1.1,233.4,1.9,233.6L1.9,233.6z"/>
			</g>
		</g>
		<g class="st1">
			<g>
				<linearGradient id="SVGID_5_" gradientUnits="userSpaceOnUse" x1="741.597" y1="420.2369" x2="694.0235" y2="503.8699">
					<stop  offset="0" style="stop-color:#000000;stop-opacity:0"/>
					<stop  offset="1.811987e-02" style="stop-color:#000205;stop-opacity:1.811987e-02"/>
					<stop  offset="0.1641" style="stop-color:#00142D;stop-opacity:0.1641"/>
					<stop  offset="0.3152" style="stop-color:#00224D;stop-opacity:0.3152"/>
					<stop  offset="0.4706" style="stop-color:#002E66;stop-opacity:0.4706"/>
					<stop  offset="0.6319" style="stop-color:#003678;stop-opacity:0.6319"/>
					<stop  offset="0.8029" style="stop-color:#003A83;stop-opacity:0.8029"/>
					<stop  offset="1" style="stop-color:#003C86"/>
				</linearGradient>
				<path class="st4" d="M749,424.3c-8.5,9.8-16.4,20-24.6,30.1c-3.9,4.9-7.8,10-12.2,14.5c-4.4,4.5-8.6,9.1-12.7,13.9
					c-4.7,5.3-9.2,10.8-13.8,16.2c-0.5,0.6,0.4,1.5,0.9,0.9c8.1-9.6,16.1-19.3,24.8-28.4c8.8-9.1,16.4-19.4,24.3-29.2
					c4.6-5.8,9.3-11.5,14.1-17.1C750.4,424.6,749.5,423.7,749,424.3L749,424.3z"/>
			</g>
		</g>
		<g class="st1">
			<g>
				<linearGradient id="SVGID_6_" gradientUnits="userSpaceOnUse" x1="647.4109" y1="147.2352" x2="419.1926" y2="548.437">
					<stop  offset="0" style="stop-color:#000000;stop-opacity:0"/>
					<stop  offset="1.811987e-02" style="stop-color:#000205;stop-opacity:1.811987e-02"/>
					<stop  offset="0.1641" style="stop-color:#00142D;stop-opacity:0.1641"/>
					<stop  offset="0.3152" style="stop-color:#00224D;stop-opacity:0.3152"/>
					<stop  offset="0.4706" style="stop-color:#002E66;stop-opacity:0.4706"/>
					<stop  offset="0.6319" style="stop-color:#003678;stop-opacity:0.6319"/>
					<stop  offset="0.8029" style="stop-color:#003A83;stop-opacity:0.8029"/>
					<stop  offset="1" style="stop-color:#003C86"/>
				</linearGradient>
				<path class="st5" d="M333.9,499.5c3.2-33.7,14.9-66.3,33.6-94.5c4.8-7.3,10.2-14,15.8-20.7c2.7-3.3,5.2-6.7,8.2-9.8
					c3-3.1,6-6.3,9-9.3c12-12.1,24.9-23.5,39.3-32.6c1.6-1,3.2-2,4.9-2.9c1.8-1.1,4-1.9,5.7-3.2c0.8-0.5,1.4-1.4,2.1-2
					c0.9-0.8,1.8-1.5,2.8-2.1c2.1-1.2,4.1-2.4,6.2-3.6c7.7-4.4,15.5-8.6,23.5-12.5c16-7.9,32.4-14.9,49.1-21.1
					c16.4-6.1,33.1-11.6,49.8-16.8c8.4-2.6,16.9-5.1,25.4-7.6c8.8-2.6,17.7-4.7,26.5-7.4c4.5-1.3,8.9-2.8,13.3-4.4
					c2.2-0.8,4.6-2.2,6.9-2.4c2.1-0.1,3.7,0.1,5.7-0.6c9.1-3.4,18.1-6.9,27.2-10.5c8.6-3.3,17.3-6.4,25.7-10.2
					c8.3-3.8,16.3-8.2,24.2-12.8c1.8-1,3.4-2,4.9-3.4c1.6-1.5,3.3-2.7,5.5-3.4c0.8-0.2,0.4-1.4-0.3-1.2c-3.9,1.2-6.2,4.4-9.6,6.3
					c-4.1,2.4-8.2,4.7-12.3,6.9c-8.5,4.5-17.2,8.5-26.2,11.9c-9.1,3.4-18.1,7-27.1,10.5c-2.3,0.9-4.5,1.7-6.8,2.6
					c-2.3,0.9-5,2.3-7.5,2.6c-1.8,0.2-3.5-0.3-5.2,0.3c-2.4,0.9-4.7,1.9-7.2,2.8c-8.9,3.2-18,5.5-27.1,7.9c-8.7,2.3-17.3,5-26,7.6
					c-17.1,5.1-34.1,10.5-50.9,16.5c-16.5,5.9-32.8,12.4-48.7,19.8c-8.2,3.8-16.3,7.9-24.2,12.2c-4,2.2-7.9,4.4-11.8,6.6
					c-1.8,1.1-3.9,2-5.6,3.3c-0.8,0.6-1.4,1.4-2.1,2.1c-1.1,1-2.2,1.6-3.4,2.3c-14.7,8-27.8,18.5-39.9,30
					c-6.3,6-12.6,12.1-18.3,18.6c-2.9,3.3-5.3,7-8.3,10.2c-2.8,3-5.3,6.4-7.7,9.7c-20.1,27.1-33.6,59-38.7,92.4
					c-0.6,3.9-1.1,7.9-1.4,11.9C332.6,500.3,333.8,500.3,333.9,499.5L333.9,499.5z"/>
			</g>
		</g>
		<g class="st1">
			<linearGradient id="SVGID_7_" gradientUnits="userSpaceOnUse" x1="419.217" y1="-331.1241" x2="102.0602" y2="226.4295">
				<stop  offset="0" style="stop-color:#000000;stop-opacity:0"/>
				<stop  offset="0.1903" style="stop-color:#000204;stop-opacity:0.1903"/>
				<stop  offset="0.3617" style="stop-color:#00060F;stop-opacity:0.3617"/>
				<stop  offset="0.5258" style="stop-color:#000F21;stop-opacity:0.5258"/>
				<stop  offset="0.6854" style="stop-color:#001A3B;stop-opacity:0.6854"/>
				<stop  offset="0.8418" style="stop-color:#00295C;stop-opacity:0.8418"/>
				<stop  offset="0.9938" style="stop-color:#003B84;stop-opacity:0.9938"/>
				<stop  offset="1" style="stop-color:#003C86"/>
			</linearGradient>
			<path class="st6" d="M-5.2-5.5V133c10,9.8,21.7,17.9,34.4,23.9c32.8,15.5,71.1,17.4,106.6,9.9c35.5-7.6,68.6-24.1,99.1-43.9
				c42.4-27.5,81.7-62.2,130.2-76.8c23.7-7.1,49-9.1,71.7-19.1c15.1-6.6,29.2-18.2,36.4-32.6H-5.2z"/>
		</g>
		<g class="st1">
			
				<linearGradient id="SVGID_8_" gradientUnits="userSpaceOnUse" x1="994.3774" y1="-170.8736" x2="394.7482" y2="883.2593" gradientTransform="matrix(-1 0 0 -1 1086.7572 963.6127)">
				<stop  offset="0" style="stop-color:#000000;stop-opacity:0"/>
				<stop  offset="0.1903" style="stop-color:#000204;stop-opacity:0.1903"/>
				<stop  offset="0.3617" style="stop-color:#00060F;stop-opacity:0.3617"/>
				<stop  offset="0.5258" style="stop-color:#000F21;stop-opacity:0.5258"/>
				<stop  offset="0.6854" style="stop-color:#001A3B;stop-opacity:0.6854"/>
				<stop  offset="0.8418" style="stop-color:#00295C;stop-opacity:0.8418"/>
				<stop  offset="0.9938" style="stop-color:#003B84;stop-opacity:0.9938"/>
				<stop  offset="1" style="stop-color:#003C86"/>
			</linearGradient>
			<path class="st7" d="M756.2,235.1c-14.4,1.4-28.7,3.6-42.8,6.6c-67.2,14.3-129.8,45.5-187.4,82.9
				c-80.2,52.1-154.5,117.7-246.1,145.1c-44.8,13.4-92.6,17.2-135.5,36.1c-0.3,0.1-0.7,0.3-1,0.4h612.8V235.1z"/>
		</g>
		<g class="st1">
			
				<linearGradient id="SVGID_9_" gradientUnits="userSpaceOnUse" x1="924.1152" y1="-92.4341" x2="415.1696" y2="802.2792" gradientTransform="matrix(-1 0 0 -1 1086.7572 963.6127)">
				<stop  offset="0" style="stop-color:#000000;stop-opacity:0"/>
				<stop  offset="0.1903" style="stop-color:#000204;stop-opacity:0.1903"/>
				<stop  offset="0.3617" style="stop-color:#00060F;stop-opacity:0.3617"/>
				<stop  offset="0.5258" style="stop-color:#000F21;stop-opacity:0.5258"/>
				<stop  offset="0.6854" style="stop-color:#001A3B;stop-opacity:0.6854"/>
				<stop  offset="0.8418" style="stop-color:#00295C;stop-opacity:0.8418"/>
				<stop  offset="0.9938" style="stop-color:#003B84;stop-opacity:0.9938"/>
				<stop  offset="1" style="stop-color:#003C86"/>
			</linearGradient>
			<path class="st8" d="M756.2,280c-29.4-2.5-59.3-0.2-88.2,5.9c-57,12.1-110.2,38.6-159.1,70.4c-68.1,44.2-131.1,99.9-208.9,123.2
				c-34.7,10.4-71.6,14-105.4,26.7h561.5V280z"/>
		</g>
		<g class="st1">
			<path class="st9" d="M208.2,506.2C223.4,437.5,284.8,386,358,386c73.2,0,134.6,51.5,149.8,120.2h1C493.6,436.9,431.7,385,358,385
				c-73.8,0-135.6,52-150.8,121.2H208.2z"/>
		</g>
		
			<ellipse transform="matrix(0.5677 -0.8233 0.8233 0.5677 55.6896 618.4544)" class="st10" cx="616.7" cy="256.2" rx="30.6" ry="30.6"/>
		<g class="st1">
			<circle class="st9" cx="571.8" cy="350.8" r="1.2"/>
			<circle class="st9" cx="584.7" cy="350.8" r="1.2"/>
			<path class="st9" d="M598.7,350.8c0,0.7-0.5,1.2-1.2,1.2c-0.7,0-1.2-0.5-1.2-1.2s0.5-1.2,1.2-1.2
				C598.2,349.5,598.7,350.1,598.7,350.8z"/>
			<path class="st9" d="M611.6,350.8c0,0.7-0.5,1.2-1.2,1.2c-0.7,0-1.2-0.5-1.2-1.2s0.5-1.2,1.2-1.2
				C611.1,349.5,611.6,350.1,611.6,350.8z"/>
			<path class="st11" d="M624.5,350.8c0,0.7-0.5,1.2-1.2,1.2c-0.7,0-1.2-0.5-1.2-1.2s0.5-1.2,1.2-1.2
				C623.9,349.5,624.5,350.1,624.5,350.8z"/>
			<circle class="st9" cx="636.1" cy="350.8" r="1.2"/>
			<path class="st9" d="M650.2,350.8c0,0.7-0.5,1.2-1.2,1.2c-0.7,0-1.2-0.5-1.2-1.2s0.5-1.2,1.2-1.2
				C649.6,349.5,650.2,350.1,650.2,350.8z"/>
			<circle class="st11" cx="571.8" cy="365" r="1.2"/>
			<circle class="st9" cx="584.7" cy="365" r="1.2"/>
			<path class="st9" d="M598.7,365c0,0.7-0.5,1.2-1.2,1.2c-0.7,0-1.2-0.5-1.2-1.2c0-0.7,0.5-1.2,1.2-1.2
				C598.2,363.8,598.7,364.3,598.7,365z"/>
			<path class="st9" d="M611.6,365c0,0.7-0.5,1.2-1.2,1.2c-0.7,0-1.2-0.5-1.2-1.2c0-0.7,0.5-1.2,1.2-1.2
				C611.1,363.8,611.6,364.3,611.6,365z"/>
			<path class="st9" d="M624.5,365c0,0.7-0.5,1.2-1.2,1.2c-0.7,0-1.2-0.5-1.2-1.2c0-0.7,0.5-1.2,1.2-1.2
				C623.9,363.8,624.5,364.3,624.5,365z"/>
			<circle class="st9" cx="636.1" cy="365" r="1.2"/>
			<path class="st9" d="M650.2,365c0,0.7-0.5,1.2-1.2,1.2c-0.7,0-1.2-0.5-1.2-1.2c0-0.7,0.5-1.2,1.2-1.2
				C649.6,363.8,650.2,364.3,650.2,365z"/>
			<path class="st9" d="M573,379.2c0,0.7-0.5,1.2-1.2,1.2c-0.7,0-1.2-0.5-1.2-1.2c0-0.7,0.5-1.2,1.2-1.2
				C572.5,378,573,378.5,573,379.2z"/>
			<path class="st9" d="M585.9,379.2c0,0.7-0.5,1.2-1.2,1.2c-0.7,0-1.2-0.5-1.2-1.2c0-0.7,0.5-1.2,1.2-1.2
				C585.4,378,585.9,378.5,585.9,379.2z"/>
			<path class="st11" d="M598.7,379.2c0,0.7-0.5,1.2-1.2,1.2c-0.7,0-1.2-0.5-1.2-1.2c0-0.7,0.5-1.2,1.2-1.2
				C598.2,378,598.7,378.5,598.7,379.2z"/>
			<path class="st9" d="M611.6,379.2c0,0.7-0.5,1.2-1.2,1.2c-0.7,0-1.2-0.5-1.2-1.2c0-0.7,0.5-1.2,1.2-1.2
				C611.1,378,611.6,378.5,611.6,379.2z"/>
			<path class="st9" d="M624.5,379.2c0,0.7-0.5,1.2-1.2,1.2c-0.7,0-1.2-0.5-1.2-1.2c0-0.7,0.5-1.2,1.2-1.2
				C623.9,378,624.5,378.5,624.5,379.2z"/>
			<path class="st9" d="M637.3,379.2c0,0.7-0.5,1.2-1.2,1.2s-1.2-0.5-1.2-1.2c0-0.7,0.5-1.2,1.2-1.2S637.3,378.5,637.3,379.2z"/>
			<path class="st9" d="M650.2,379.2c0,0.7-0.5,1.2-1.2,1.2c-0.7,0-1.2-0.5-1.2-1.2c0-0.7,0.5-1.2,1.2-1.2
				C649.6,378,650.2,378.5,650.2,379.2z"/>
			<circle class="st9" cx="571.8" cy="393.4" r="1.2"/>
			<circle class="st9" cx="584.7" cy="393.4" r="1.2"/>
			<path class="st9" d="M598.7,393.4c0,0.7-0.5,1.2-1.2,1.2c-0.7,0-1.2-0.5-1.2-1.2c0-0.7,0.5-1.2,1.2-1.2
				C598.2,392.2,598.7,392.8,598.7,393.4z"/>
			<path class="st9" d="M611.6,393.4c0,0.7-0.5,1.2-1.2,1.2c-0.7,0-1.2-0.5-1.2-1.2c0-0.7,0.5-1.2,1.2-1.2
				C611.1,392.2,611.6,392.8,611.6,393.4z"/>
			<path class="st11" d="M624.5,393.4c0,0.7-0.5,1.2-1.2,1.2c-0.7,0-1.2-0.5-1.2-1.2c0-0.7,0.5-1.2,1.2-1.2
				C623.9,392.2,624.5,392.8,624.5,393.4z"/>
			<circle class="st9" cx="636.1" cy="393.4" r="1.2"/>
			<path class="st9" d="M650.2,393.4c0,0.7-0.5,1.2-1.2,1.2c-0.7,0-1.2-0.5-1.2-1.2c0-0.7,0.5-1.2,1.2-1.2
				C649.6,392.2,650.2,392.8,650.2,393.4z"/>
			<path class="st9" d="M573,407.6c0,0.7-0.5,1.2-1.2,1.2c-0.7,0-1.2-0.5-1.2-1.2c0-0.7,0.5-1.2,1.2-1.2
				C572.5,406.4,573,407,573,407.6z"/>
			<path class="st9" d="M585.9,407.6c0,0.7-0.5,1.2-1.2,1.2c-0.7,0-1.2-0.5-1.2-1.2c0-0.7,0.5-1.2,1.2-1.2
				C585.4,406.4,585.9,407,585.9,407.6z"/>
			<path class="st9" d="M598.7,407.6c0,0.7-0.5,1.2-1.2,1.2c-0.7,0-1.2-0.5-1.2-1.2c0-0.7,0.5-1.2,1.2-1.2
				C598.2,406.4,598.7,407,598.7,407.6z"/>
			<path class="st9" d="M611.6,407.6c0,0.7-0.5,1.2-1.2,1.2c-0.7,0-1.2-0.5-1.2-1.2c0-0.7,0.5-1.2,1.2-1.2
				C611.1,406.4,611.6,407,611.6,407.6z"/>
			<path class="st9" d="M624.5,407.6c0,0.7-0.5,1.2-1.2,1.2c-0.7,0-1.2-0.5-1.2-1.2c0-0.7,0.5-1.2,1.2-1.2
				C623.9,406.4,624.5,407,624.5,407.6z"/>
			<path class="st9" d="M637.3,407.6c0,0.7-0.5,1.2-1.2,1.2s-1.2-0.5-1.2-1.2c0-0.7,0.5-1.2,1.2-1.2S637.3,407,637.3,407.6z"/>
			<path class="st9" d="M650.2,407.6c0,0.7-0.5,1.2-1.2,1.2c-0.7,0-1.2-0.5-1.2-1.2c0-0.7,0.5-1.2,1.2-1.2
				C649.6,406.4,650.2,407,650.2,407.6z"/>
			<circle class="st9" cx="571.8" cy="421.9" r="1.2"/>
			<circle class="st9" cx="584.7" cy="421.9" r="1.2"/>
			<path class="st9" d="M598.7,421.9c0,0.7-0.5,1.2-1.2,1.2c-0.7,0-1.2-0.5-1.2-1.2c0-0.7,0.5-1.2,1.2-1.2
				C598.2,420.7,598.7,421.2,598.7,421.9z"/>
			<path class="st11" d="M611.6,421.9c0,0.7-0.5,1.2-1.2,1.2c-0.7,0-1.2-0.5-1.2-1.2c0-0.7,0.5-1.2,1.2-1.2
				C611.1,420.7,611.6,421.2,611.6,421.9z"/>
			<path class="st9" d="M624.5,421.9c0,0.7-0.5,1.2-1.2,1.2c-0.7,0-1.2-0.5-1.2-1.2c0-0.7,0.5-1.2,1.2-1.2
				C623.9,420.7,624.5,421.2,624.5,421.9z"/>
			<circle class="st9" cx="636.1" cy="421.9" r="1.2"/>
			<path class="st9" d="M650.2,421.9c0,0.7-0.5,1.2-1.2,1.2c-0.7,0-1.2-0.5-1.2-1.2c0-0.7,0.5-1.2,1.2-1.2
				C649.6,420.7,650.2,421.2,650.2,421.9z"/>
			<circle class="st9" cx="571.8" cy="436.1" r="1.2"/>
			<circle class="st9" cx="584.7" cy="436.1" r="1.2"/>
			<path class="st9" d="M598.7,436.1c0,0.7-0.5,1.2-1.2,1.2c-0.7,0-1.2-0.5-1.2-1.2c0-0.7,0.5-1.2,1.2-1.2
				C598.2,434.9,598.7,435.4,598.7,436.1z"/>
			<path class="st9" d="M611.6,436.1c0,0.7-0.5,1.2-1.2,1.2c-0.7,0-1.2-0.5-1.2-1.2c0-0.7,0.5-1.2,1.2-1.2
				C611.1,434.9,611.6,435.4,611.6,436.1z"/>
			<path class="st9" d="M624.5,436.1c0,0.7-0.5,1.2-1.2,1.2c-0.7,0-1.2-0.5-1.2-1.2c0-0.7,0.5-1.2,1.2-1.2
				C623.9,434.9,624.5,435.4,624.5,436.1z"/>
			<circle class="st11" cx="636.1" cy="436.1" r="1.2"/>
			<path class="st9" d="M650.2,436.1c0,0.7-0.5,1.2-1.2,1.2c-0.7,0-1.2-0.5-1.2-1.2c0-0.7,0.5-1.2,1.2-1.2
				C649.6,434.9,650.2,435.4,650.2,436.1z"/>
			<path class="st9" d="M573,450.3c0,0.7-0.5,1.2-1.2,1.2c-0.7,0-1.2-0.5-1.2-1.2c0-0.7,0.5-1.2,1.2-1.2
				C572.5,449.1,573,449.6,573,450.3z"/>
			<path class="st11" d="M585.9,450.3c0,0.7-0.5,1.2-1.2,1.2c-0.7,0-1.2-0.5-1.2-1.2c0-0.7,0.5-1.2,1.2-1.2
				C585.4,449.1,585.9,449.6,585.9,450.3z"/>
			<path class="st9" d="M598.7,450.3c0,0.7-0.5,1.2-1.2,1.2c-0.7,0-1.2-0.5-1.2-1.2c0-0.7,0.5-1.2,1.2-1.2
				C598.2,449.1,598.7,449.6,598.7,450.3z"/>
			<path class="st9" d="M611.6,450.3c0,0.7-0.5,1.2-1.2,1.2c-0.7,0-1.2-0.5-1.2-1.2c0-0.7,0.5-1.2,1.2-1.2
				C611.1,449.1,611.6,449.6,611.6,450.3z"/>
			<path class="st9" d="M624.5,450.3c0,0.7-0.5,1.2-1.2,1.2c-0.7,0-1.2-0.5-1.2-1.2c0-0.7,0.5-1.2,1.2-1.2
				C623.9,449.1,624.5,449.6,624.5,450.3z"/>
			<path class="st9" d="M637.3,450.3c0,0.7-0.5,1.2-1.2,1.2s-1.2-0.5-1.2-1.2c0-0.7,0.5-1.2,1.2-1.2S637.3,449.6,637.3,450.3z"/>
			<path class="st9" d="M650.2,450.3c0,0.7-0.5,1.2-1.2,1.2c-0.7,0-1.2-0.5-1.2-1.2c0-0.7,0.5-1.2,1.2-1.2
				C649.6,449.1,650.2,449.6,650.2,450.3z"/>
		</g>
		<g class="st1">
			<path class="st12" d="M-5.2,486.3v19.9h57.7c-0.4-0.5-0.7-1-1.2-1.6c0.6-0.5,1.2-0.9,1.8-1.3c0.4,0.6,0.8,1.2,1.3,1.9
				c-0.5,0.3-1,0.7-1.6,1h6.8c0,0-0.1-0.1-0.1-0.1c0.6-0.4,1.2-0.8,1.8-1.2c0.3,0.4,0.7,0.9,1,1.4h7c0.1-0.1,0.2-0.2,0.3-0.2
				c0.1,0.1,0.1,0.2,0.2,0.2h25.3c-0.6-0.9-1.3-1.8-1.9-2.7c1-0.7,2.1-1.5,3.1-2.3c0.7,1,1.6,2.3,2.3,3.3c-0.8,0.5-1.8,1.1-2.7,1.6
				h6.2c-0.3-0.4-0.6-0.8-0.9-1.2c1-0.8,2.4-1.7,3.5-2.5c0.6,0.9,1.3,2.2,2,3.4c-0.2,0.1-0.3,0.2-0.5,0.4h3.8c1.1-0.8,2.1-1.7,3-2.4
				c0.1,0.9,0.5,1.8,1,2.4h5.9c0.4-0.4,0.7-0.9,0.8-1.4c0.5-1.8-0.1-3.9-1.8-4.6c-1-0.4-2.3-0.6-3.3-0.3c-1,0.3-1.7,1.2-2.6,1.9
				c-0.3-2.1-1.5-3.5-3.7-3.8c-2.2-0.3-3.6,1-4.5,3.1c-0.2-2.5-0.6-3.1-2.8-4.6c2.7-0.7,4-1.9,4.2-4c0.1-1.7-0.9-3.6-2.6-4.1
				c-1-0.3-2.3-0.2-3.3,0.2c-0.9,0.4-1.6,1.4-2.3,2.1c-0.2-2-0.7-2.7-2.8-4.1c0.3-0.1,0.6-0.1,0.9-0.2c1.9-0.5,3.1-1.9,3.3-3.6
				c0.2-1.8-0.8-3.4-2.6-4.3c-0.2-0.1-0.4-0.2-0.6-0.3l0,0c-2.2-0.1-4,0.7-5,3.1c-0.1-2.2-1-3.6-3.1-4.6c2.4-0.2,3.7-1.5,4.5-3.4
				l0,0.1c0.1-2.1-0.5-3.7-2.4-4.7c-2.1-1-4.1-0.2-5.6,2.1c-0.7-1.2-1.4-2.5-2.2-3.8c1.5-0.3,2.6-1.4,3.2-2.9c0.3-2.5-0.7-4.3-2.7-5
				c-2.1-0.8-3.8,0.1-5.5,2.7c0-2.1-1.1-3.4-2.9-4.4c0.5-0.1,0.7-0.2,1-0.3c2-0.5,3.3-2.2,3.3-4.1c0-1.9-1.4-3.5-3.3-3.9
				c-1.8-0.4-3.6,0.5-4.5,2.3c-0.2,0.3-0.4,0.6-0.7,0.8c0.4-1.9-0.6-3.7-2.4-4.5c-2.1-0.9-4,0-5.5,2.4c-0.3-0.7-0.4-1.7-0.9-2.3
				c-0.5-0.7-1.3-1.2-2-1.9c0.3-0.1,0.7-0.1,1-0.2c1.9-0.5,3.2-2.1,3.1-4c0-1.9-1.4-3.5-3.3-3.9c-1.9-0.4-3.6,0.5-4.5,2.3
				c-0.2,0.3-0.4,0.6-0.6,0.9c0.1-2.3-0.8-4.1-2.7-4.5c-1-0.3-2.3-0.1-3.3,0.2c-1,0.3-1.8,1.2-2.3,1.5c-0.1-1.2-0.9-2.7-3-3.4
				c-2.2-0.7-3.7,0.4-5,2.1c-0.5-2.1-1.7-3.6-3.8-3.8c-2.1-0.2-3.5,1-4.2,2.5c-0.7-1.2-1.5-2.5-2.3-3.8c2.3-0.9,3.5-2.3,3.3-4.3
				c-0.1-1.8-1.3-3.2-3-3.7c-1.8-0.4-3.7,0.2-4.4,1.9c-0.4,1-0.6,2.3-0.3,3.3c0.2,1,1.2,1.8,1.6,2.4c-1.2,0.9-2.4,1.9-3.3,2.6
				c-0.7-1.1-1.5-2.4-2.3-3.6c2.3-0.8,3.5-2.2,3.4-4.3c-0.1-1.8-1.4-3.3-3.2-3.7c-1.9-0.4-3.6,0.5-4.5,2.2c-0.9,1.9-0.3,3.7,1.6,5.3
				c-1.2,0.9-2.5,1.9-3.6,2.9c-0.3-1.8-1.4-3.4-3.7-3.6c-2.2-0.3-3.6,0.9-4.6,3.1c-0.2-2.5-1.2-4.1-3.5-4.5c-2.3-0.4-3.8,0.8-4.8,3
				c-0.1-0.5-0.1-0.8-0.2-1.1c-0.3-1.4-1.1-2.4-2.2-3v7.3c0.9-0.5,1.6-1.2,2-2.2c0.7,1.2,1.4,2.6,2,3.7c-0.9,0.7-2,1.6-3,2.3
				c-0.3-0.4-0.7-0.9-1-1.3v4.7c0.2-0.2,0.4-0.4,0.7-0.5c0.6,0.9,1.3,2,2,3.1c-0.8,0.6-1.7,1.2-2.6,1.8v5.1c0.3,0.5,0.6,1,1,1.5
				c-0.3,0.2-0.6,0.4-1,0.6V486c0.5-0.4,1-0.7,1.5-1.1c0.4,0.6,0.7,1.1,1.1,1.6c-0.5,0.4-1,0.7-1.6,1.1
				C-4.5,487.2-4.8,486.7-5.2,486.3z M4,488.7c-0.3-0.4-0.6-0.7-0.9-1.1c0.4-0.3,0.8-0.6,1.3-1c0.3,0.4,0.5,0.8,0.8,1.2
				C4.8,488.2,4.5,488.4,4,488.7z M5.6,480.8c-0.4-0.5-0.8-1-1.3-1.6c0.5-0.4,1.1-0.8,1.6-1.3c0.4,0.6,0.8,1.2,1.3,1.9
				C6.6,480.1,6.1,480.5,5.6,480.8z M6.8,472.8c-0.5-0.6-1-1.3-1.5-2c0.7-0.5,1.4-1,2.1-1.6c0.4,0.7,0.9,1.4,1.5,2.2
				C8.2,471.9,7.6,472.3,6.8,472.8z M8.3,464.7c-0.5-0.7-1.1-1.5-1.7-2.3c0.8-0.6,1.6-1.2,2.4-1.7c0.5,0.8,1.1,1.6,1.7,2.4
				C9.9,463.6,9.1,464.2,8.3,464.7z M12.3,490.3c-0.3-0.4-0.6-0.8-0.9-1.2c0.5-0.4,0.9-0.7,1.4-1.1c0.3,0.4,0.6,0.8,1,1.3
				C13.3,489.6,12.9,489.9,12.3,490.3z M13.7,482.2c-0.4-0.5-0.8-1-1.2-1.5c0.6-0.4,1.2-0.9,1.8-1.4c0.4,0.6,0.7,1.1,1,1.6
				C14.8,481.4,14.3,481.8,13.7,482.2z M15.2,474.3c-0.5-0.6-0.9-1.3-1.5-2c0.7-0.5,1.3-1,2-1.5c0.5,0.7,0.9,1.4,1.4,2.2
				C16.6,473.4,15.9,473.8,15.2,474.3z M15,463.9c0.7-0.5,1.5-1.1,2.4-1.8c0.6,0.8,1.1,1.6,1.7,2.4c-0.8,0.5-1.6,1-2.4,1.6
				C16.1,465.5,15.6,464.7,15,463.9z M19.3,499.9c-0.3-0.4-0.6-0.8-1-1.2c0.5-0.3,0.9-0.6,1.3-0.8c0.3,0.4,0.5,0.8,0.8,1.2
				C20,499.3,19.7,499.6,19.3,499.9z M20.7,491.8c-0.4-0.5-0.7-1-1.1-1.4c0.5-0.4,1-0.7,1.5-1.1c0.4,0.5,0.7,1,1.1,1.5
				C21.6,491.1,21.2,491.4,20.7,491.8z M22.1,483.7c-0.4-0.5-0.7-1-1-1.5c0.5-0.4,1-0.8,1.6-1.3c0.4,0.6,0.7,1.1,1.1,1.7
				C23.2,482.9,22.6,483.3,22.1,483.7z M23.5,475.8c-0.5-0.6-0.9-1.3-1.4-2c0.7-0.5,1.4-1,2.1-1.5c0.5,0.7,1,1.4,1.5,2.2
				C24.9,474.9,24.2,475.4,23.5,475.8z M23.4,465.4c0.7-0.5,1.5-1.1,2.3-1.7c0.5,0.8,1.1,1.6,1.7,2.4c-0.8,0.5-1.6,1.1-2.4,1.6
				C24.5,467,23.9,466.2,23.4,465.4z M27.6,501.5c-0.3-0.5-0.6-0.8-0.9-1.3c0.4-0.3,0.8-0.6,1.3-1c0.3,0.5,0.6,0.8,0.9,1.3
				C28.5,500.8,28.1,501.1,27.6,501.5z M29,493.3c-0.4-0.5-0.7-1-1.1-1.5c0.5-0.4,1-0.8,1.6-1.2c0.4,0.6,0.7,1.1,1.1,1.7
				C30,492.7,29.6,493,29,493.3z M30.4,485.2c-0.4-0.5-0.7-1-1.1-1.6c0.6-0.5,1.1-0.9,1.7-1.4c0.4,0.6,0.8,1.1,1.2,1.7
				C31.7,484.4,31.1,484.8,30.4,485.2z M31.9,477.2c-0.4-0.6-0.9-1.2-1.4-1.9c0.7-0.5,1.4-1,2.1-1.6c0.4,0.6,0.8,1.3,1.3,2
				C33.2,476.2,32.5,476.7,31.9,477.2z M31.7,466.9c0.8-0.6,1.6-1.2,2.4-1.8c0.6,0.8,1.2,1.7,1.7,2.5c-0.8,0.5-1.6,1-2.4,1.6
				C32.9,468.5,32.3,467.8,31.7,466.9z M35.9,503.1c-0.4-0.5-0.7-0.9-1-1.4c0.5-0.4,0.9-0.7,1.4-1.1c0.3,0.5,0.6,0.9,1.1,1.5
				C36.9,502.4,36.5,502.7,35.9,503.1z M37.4,494.9c-0.4-0.5-0.8-1-1.2-1.6c0.5-0.4,1.1-0.8,1.7-1.3c0.4,0.6,0.8,1.1,1.2,1.8
				C38.4,494.2,37.9,494.5,37.4,494.9z M38.8,486.8c-0.4-0.6-0.9-1.2-1.4-1.9c0.7-0.5,1.3-1,1.9-1.5c0.4,0.7,0.9,1.3,1.4,2
				C40.1,485.9,39.5,486.3,38.8,486.8z M40.2,478.7c-0.4-0.7-0.9-1.4-1.3-2c0.7-0.5,1.3-1,2-1.5c0.4,0.7,0.9,1.4,1.4,2.1
				C41.6,477.7,40.9,478.2,40.2,478.7z M40,468.4c0.8-0.6,1.6-1.2,2.5-1.8c0.6,0.9,1.2,1.7,1.8,2.5c-0.8,0.5-1.7,1.1-2.5,1.7
				C41.2,470.1,40.6,469.2,40,468.4z M44.3,504.7c-0.4-0.5-0.8-1-1.2-1.6c0.6-0.5,1.1-0.8,1.6-1.2c0.4,0.5,0.7,1.1,1.1,1.7
				C45.3,504,44.9,504.3,44.3,504.7z M45.7,496.5c-0.4-0.6-0.8-1.1-1.3-1.7c0.6-0.4,1.1-0.9,1.8-1.4c0.5,0.7,0.8,1.2,1.3,1.9
				C47,495.7,46.4,496.1,45.7,496.5z M47.2,488.4c-0.5-0.7-0.9-1.3-1.4-2c0.7-0.5,1.3-1,2-1.5c0.5,0.8,1,1.5,1.5,2.2
				C48.6,487.4,47.9,487.9,47.2,488.4z M48.6,480.3c-0.4-0.7-0.9-1.4-1.4-2.1c0.7-0.5,1.3-1,2-1.5c0.6,0.7,1.1,1.4,1.6,2.1
				C50.1,479.2,49.4,479.7,48.6,480.3z M49.9,472c-0.5-0.7-1.1-1.4-1.7-2.1c0.8-0.6,1.6-1.1,2.4-1.7c0.5,0.7,1,1.4,1.5,2.2
				C51.4,471,50.6,471.5,49.9,472z M49.4,461.4c0.9-0.7,1.9-1.4,2.7-2.1c0.6,1,1.3,2,2,3.1c-0.8,0.5-1.8,1.1-2.7,1.6
				C50.7,463.1,50,462.2,49.4,461.4z M54.1,498.2c-0.5-0.7-0.9-1.3-1.4-2c0.6-0.4,1.1-0.8,1.8-1.2c0.5,0.7,1,1.3,1.5,1.9
				C55.3,497.3,54.8,497.7,54.1,498.2z M55.4,489.8c-0.5-0.6-1-1.2-1.5-2c0.7-0.5,1.4-0.9,2-1.4c0.5,0.7,1.1,1.4,1.6,2.1
				C56.8,488.9,56.1,489.4,55.4,489.8z M56.9,481.6c-0.6-0.8-1.2-1.5-1.8-2.3c0.7-0.6,1.5-1.1,2.3-1.7c0.6,0.9,1.2,1.7,1.8,2.6
				C58.5,480.7,57.7,481.1,56.9,481.6z M58.1,473.8c-0.5-0.8-1.1-1.6-1.6-2.5c0.8-0.6,1.6-1.3,2.5-2c0.5,0.8,1.1,1.7,1.6,2.7
				C59.7,472.6,58.9,473.2,58.1,473.8z M57.5,463c1-0.7,2.1-1.6,3-2.2c0.7,1,1.4,2.1,2.1,3.2c-0.9,0.6-1.9,1.3-3,1.9
				C58.9,464.9,58.1,463.9,57.5,463z M62.3,499.6c-0.5-0.7-1-1.3-1.5-2c0.7-0.5,1.3-1,2-1.5c0.6,0.8,1.1,1.5,1.6,2.2
				C63.7,498.8,63,499.2,62.3,499.6z M63.5,491.7c-0.5-0.8-1-1.5-1.6-2.4c0.7-0.6,1.5-1.2,2.3-1.8c0.6,0.9,1.2,1.7,1.7,2.5
				C65.2,490.6,64.4,491.1,63.5,491.7z M65,483.5c-0.6-0.8-1.2-1.7-1.8-2.6c0.8-0.6,1.7-1.3,2.6-1.9c0.6,0.9,1.3,1.8,1.9,2.7
				C66.8,482.3,65.9,482.9,65,483.5z M70.4,501.5c-0.5-0.7-1-1.5-1.6-2.4c0.8-0.6,1.5-1.1,2.3-1.7c0.6,0.8,1.1,1.6,1.8,2.4
				C72.1,500.4,71.2,501,70.4,501.5z M71.8,493.3c-0.5-0.8-1.2-1.7-1.8-2.5c0.8-0.6,1.7-1.2,2.6-1.9c0.6,0.8,1.2,1.7,1.9,2.7
				C73.6,492.1,72.7,492.7,71.8,493.3z M73.3,485.1c-0.6-0.9-1.3-1.9-1.9-2.8c0.9-0.7,1.9-1.4,2.8-2.1c0.6,0.9,1.3,2,2,3
				C75.2,483.9,74.2,484.5,73.3,485.1z M72.6,474c1-0.8,2.2-1.6,3.1-2.3c0.7,1,1.5,2.2,2.2,3.3c-0.9,0.6-2.1,1.3-3.1,2
				C74.1,476,73.3,474.9,72.6,474z M78.7,503.2c-0.6-0.8-1.2-1.7-1.8-2.6c0.9-0.7,1.8-1.3,2.6-1.9c0.6,0.9,1.3,1.8,1.9,2.7
				C80.6,502,79.6,502.6,78.7,503.2z M80.2,495c-0.6-0.9-1.3-1.8-1.9-2.8c0.9-0.7,1.9-1.4,2.8-2.1c0.7,1,1.4,2,2,3
				C82.1,493.7,81.1,494.4,80.2,495z M87,504.9c-0.6-0.9-1.3-1.9-1.9-2.8c1-0.7,2-1.5,2.8-2.1c0.6,0.9,1.4,2,2,3
				C89,503.6,88,504.3,87,504.9z M88.5,496.7c-0.6-0.9-1.4-2-2.1-3c1-0.7,2.1-1.5,3.1-2.2c0.7,1,1.5,2.2,2.2,3.2
				C90.7,495.3,89.5,496,88.5,496.7z M98,492.6c0.2,1.5,1.1,2.9,2.6,3.5c-1.3,0.8-2.7,1.6-3.8,2.3c-0.7-1-1.5-2.2-2.2-3.2
				C95.6,494.4,96.8,493.5,98,492.6z M90.9,482.9c0.8,1.1,1.7,2.4,2.5,3.4c-1,0.6-2.3,1.4-3.5,2.1c-0.7-1-1.6-2.2-2.2-3.2
				C88.7,484.6,89.9,483.7,90.9,482.9z M84.3,472.9c0.2,1.5,1.1,2.9,2.5,3.5c-1.2,0.7-2.5,1.5-3.7,2.2c-0.7-1-1.6-2.2-2.3-3.1
				C81.8,474.7,83.1,473.8,84.3,472.9z M82.6,481.6c0.7,1,1.5,2.1,2.2,3.2c-1,0.6-2.1,1.3-3.1,2c-0.7-0.9-1.4-2-2.1-2.9
				C80.5,483.1,81.6,482.3,82.6,481.6z M77.2,463.3c0.6,1,1.4,2.3,2,3.4c-0.9,0.7-2,1.5-3.1,2.2c-0.6-0.9-1.3-2.1-1.9-3.1
				C75.2,465,76.3,464.1,77.2,463.3z M70.3,452.3c0.3,0.9,0.3,1.9,0.8,2.7c0.6,0.9,1.5,1.6,2.2,2.3c-1.7,0-3.1,0.9-3.9,2.3
				c-0.9-1.2-1.8-2.5-2.7-3.7C68.4,455.5,70.1,454.7,70.3,452.3z M68.9,462c0.5,0.9,1.2,2.1,1.8,3.2c-0.9,0.6-2,1.4-2.9,2.1
				c-0.7-0.9-1.5-2-2.1-2.9C66.7,463.7,67.9,462.8,68.9,462z M67.4,470.6c0.6,0.9,1.3,1.8,2,2.8c-0.9,0.6-1.9,1.3-3,1.9
				c-0.5-0.8-1.1-1.7-1.7-2.6C65.6,472,66.5,471.2,67.4,470.6z M62,452.2c0.7,1,1.6,2.4,2.4,3.4c-1,0.6-2.3,1.5-3.4,2.1
				c-0.7-1-1.5-2.2-2.3-3.2C59.7,453.8,60.9,452.9,62,452.2z M55.2,441.2c0.4,2,0.9,4,3.3,4.7c-2,0.1-3.5,1-4.3,2.5
				c-0.9-1.2-1.8-2.5-2.7-3.8C53.2,444.3,54.6,443.2,55.2,441.2z M53.6,450.7c0.6,1,1.4,2.3,2.2,3.4c-0.9,0.6-2.1,1.3-3.2,2
				c-0.7-1-1.5-2.1-2.2-3C51.4,452.3,52.6,451.4,53.6,450.7z M47,440.5c0.1,1.6,1.1,3,2.6,3.7c-1.2,0.6-2.5,1.3-3.6,1.9
				c-0.7-0.9-1.6-2-2.4-2.9C44.5,442.4,45.8,441.4,47,440.5z M45.3,449.6c0.6,0.9,1.4,1.9,2.1,2.9c-0.9,0.6-2,1.2-2.9,1.8
				c-0.7-0.9-1.4-1.9-2.1-2.7C43.3,451,44.4,450.3,45.3,449.6z M43.8,458.2c0.6,0.9,1.3,1.8,2,2.7c-0.8,0.6-1.7,1.2-2.6,1.8
				c-0.7-0.9-1.3-1.9-2-2.8C42,459.4,42.9,458.8,43.8,458.2z M38.5,439.7c0.7,1,1.6,2.1,2.4,3.1c-1,0.7-2.2,1.5-3.2,2.2
				c-0.8-1.1-1.6-2.3-2.4-3.3C36.2,441.1,37.4,440.3,38.5,439.7z M37.2,447.8c0.6,1,1.4,2.1,2,3.2c-0.9,0.6-2,1.3-3,2
				c-0.7-0.9-1.4-2-2.1-2.9C35.1,449.4,36.2,448.5,37.2,447.8z M35.6,456.5c0.6,0.9,1.2,1.8,1.9,2.8c-0.8,0.5-1.8,1.2-2.7,1.8
				c-0.6-0.8-1.3-1.7-1.9-2.6C33.8,457.8,34.8,457.2,35.6,456.5z M30.3,437.8c0.7,1.1,1.6,2.4,2.3,3.5c-1,0.7-2.3,1.5-3.3,2.2
				c-0.7-1-1.6-2.2-2.3-3.2C28.1,439.5,29.3,438.5,30.3,437.8z M28.8,446.4c0.6,0.9,1.3,2.1,2,3.2c-0.8,0.5-1.9,1.2-2.9,1.9
				c-0.7-1-1.5-2-2.1-2.9C26.7,447.9,27.9,447.1,28.8,446.4z M27.3,455.1c0.6,0.9,1.3,1.9,1.9,2.7c-0.9,0.6-1.8,1.2-2.7,1.8
				c-0.6-0.8-1.3-1.7-1.9-2.6C25.5,456.4,26.4,455.7,27.3,455.1z M22,436.2c0.6,1,1.5,2.4,2.2,3.6c-0.9,0.6-2.2,1.4-3.3,2.1
				c-0.7-1-1.6-2.2-2.3-3.1C19.7,437.9,21,437,22,436.2z M20.5,444.9c0.6,0.9,1.3,2.1,2,3.1c-0.9,0.6-1.9,1.3-2.9,1.9
				c-0.7-0.9-1.5-2-2.1-2.8C18.4,446.4,19.5,445.7,20.5,444.9z M18.9,453.6c0.6,0.9,1.3,1.8,1.9,2.7c-0.8,0.5-1.8,1.2-2.7,1.8
				c-0.6-0.8-1.2-1.7-1.9-2.6C17,454.9,18,454.3,18.9,453.6z M13.7,434.9c0.7,1,1.5,2.3,2.2,3.3c-1,0.7-2.3,1.5-3.4,2.2
				c-0.5-0.9-1.3-2-1.9-3C11.6,436.7,12.7,435.7,13.7,434.9z M12.1,443.4c0.6,1,1.3,2.1,2,3.1c-0.9,0.6-1.9,1.3-2.9,1.9
				c-0.7-0.9-1.5-2-2.1-2.9C10,444.9,11.2,444.1,12.1,443.4z M10.5,452.1c0.6,0.9,1.3,1.8,1.9,2.7c-0.8,0.6-1.8,1.2-2.7,1.8
				c-0.6-0.8-1.3-1.7-1.9-2.6C8.7,453.4,9.6,452.7,10.5,452.1z M5.3,433.4c0.5,1,1.2,2.3,1.9,3.5c-0.9,0.7-2,1.5-3,2.2
				c-0.6-0.9-1.3-2.1-1.9-3.1C3.2,435.2,4.4,434.2,5.3,433.4z M3.8,441.9c0.6,1,1.3,2.1,2,3.2c-0.9,0.6-2,1.3-3,2
				c-0.7-0.9-1.5-2-2.2-2.9C1.6,443.4,2.8,442.6,3.8,441.9z M2.2,450.6c0.6,0.9,1.2,1.8,1.9,2.8c-0.8,0.6-1.8,1.2-2.7,1.8
				c-0.7-0.9-1.4-1.8-2-2.6C0.3,451.9,1.3,451.2,2.2,450.6z M0.6,459.1c0.5,0.8,1.1,1.7,1.7,2.5c-0.8,0.5-1.6,1.1-2.4,1.6
				c-0.5-0.7-1.1-1.5-1.7-2.4C-1,460.4-0.2,459.7,0.6,459.1z M-0.9,467.7c0.5,0.7,1,1.5,1.5,2.3c-0.6,0.4-1.2,0.8-1.9,1.2
				c-0.5-0.7-1-1.3-1.6-2C-2.2,468.7-1.6,468.2-0.9,467.7z M-2.7,479.6c-0.5-0.7-0.9-1.2-1.3-1.8c0.5-0.4,1.1-0.8,1.7-1.2
				c0.4,0.6,0.9,1.2,1.3,1.8C-1.6,478.8-2.1,479.2-2.7,479.6z"/>
			<path class="st12" d="M92.6,473.5c0.5-0.9,1-1.8,1.7-2.5c1.2-1.2,3.1-1.2,4.5-0.4c1.5,0.8,2.3,2.5,2,4.1c-0.3,1.7-1.4,3-3.1,3.3
				c-0.5,0.1-1,0.2-1.5,0.2l0,0C93.9,477.5,92.6,475.9,92.6,473.5L92.6,473.5z"/>
			<path class="st12" d="M85.6,464.2c0.6-2.4,2-4,4.7-4.2l0,0c2.8,1.1,3.9,2.4,3.7,4.5c-0.2,2-1.7,3.6-3.7,3.7
				c-1.9,0.2-3.7-1.1-4.2-3C85.9,464.8,85.8,464.5,85.6,464.2C85.6,464.1,85.6,464.2,85.6,464.2z"/>
			<path class="st12" d="M107.9,484.2c-1.2,3-2.7,4.1-5.1,3.6c-1.9-0.4-3.3-2.2-3.1-4.2c0.1-2,1.6-3.5,3.6-3.8
				c1.9-0.2,3.8,1,4.3,2.9C107.7,483.3,107.7,483.8,107.9,484.2L107.9,484.2z"/>
			<path class="st12" d="M40.2,429.2c0,2.1-1.9,3.9-4.1,3.8c-2.2,0-3.9-1.8-3.9-4c0-2.3,1.8-4,4.1-4C38.6,425,40.2,426.8,40.2,429.2
				z"/>
			<path class="st12" d="M40.3,430.3c0-2,1.8-3.8,3.9-3.8c2.2,0,4,1.7,4,3.9c0,2.2-1.7,4-3.9,4.1C42,434.5,40.3,432.8,40.3,430.3z"
				/>
			<path class="st12" d="M2.8,427.3c-2.2,0-4-1.7-4-4c0-2.3,1.8-4.1,4.1-4c2.2,0,3.9,1.8,3.9,4C6.8,425.6,5,427.3,2.8,427.3z"/>
			<path class="st12" d="M110.5,489.8c2.2,0,4,1.7,4,4c0,2.3-1.8,4.1-4.1,4c-2.2,0-3.9-1.8-3.9-4
				C106.6,491.5,108.3,489.7,110.5,489.8z"/>
			<path class="st12" d="M71.8,443.2c0,2.2-1.7,4-3.9,4.1c-2.3,0.1-4.1-1.7-4.1-3.9c0-2.3,1.7-4.1,4-4.1
				C70.1,439.3,71.8,441,71.8,443.2z"/>
			<path class="st12" d="M87.1,454.7c0,2.3-1.8,4-4.1,4c-2.2-0.1-3.9-1.8-3.9-4c0-2.3,1.8-4,4.1-4C85.4,450.7,87.1,452.5,87.1,454.7
				z"/>
			<path class="st12" d="M15.2,424.8c0,2.2-1.7,4-3.9,4.1c-2.3,0.1-4.1-1.7-4.1-3.9c0-2.3,1.8-4.1,4-4.1
				C13.4,420.8,15.1,422.5,15.2,424.8z"/>
			<path class="st12" d="M56.6,432c0,2.2-1.8,3.9-4,3.9c-2.2,0-3.9-1.8-3.9-4c0-2.2,1.8-3.9,4-3.9C54.9,428,56.6,429.8,56.6,432z"/>
			<path class="st12" d="M76.2,448.7c-2.2,0-4-1.7-4-3.9c0-2.2,1.7-3.9,4-3.9c2.2,0,3.9,1.7,3.9,3.9C80.2,447,78.5,448.7,76.2,448.7
				z"/>
			<path class="st12" d="M-5.2,417.9v7.8c2.1-0.2,3.6-1.8,3.6-4C-1.6,419.7-3.2,418.1-5.2,417.9z"/>
			<path class="st12" d="M90.3,460c-1.6-0.8-2.8-1.9-2.8-3.9c0-2.2,1.6-3.9,3.8-3.9c2.2-0.1,3.9,1.6,4,3.7c0.1,2.2-1.4,4-3.6,4.1
				C91.2,460.1,90.7,460,90.3,460C90.2,460,90.3,460,90.3,460z"/>
			<path class="st12" d="M98.3,469.6c-2.2,0-4-1.7-3.9-3.9c0-2.2,1.7-3.9,4-3.9c2.2,0,3.8,1.7,3.9,3.9
				C102.2,467.9,100.5,469.6,98.3,469.6z"/>
			<path class="st12" d="M107.8,484.2c0.8-1.6,1.9-2.8,3.9-2.8c2.2,0,3.9,1.6,3.9,3.8c0.1,2.2-1.6,3.9-3.7,4c-2.2,0.1-4-1.4-4.1-3.6
				C107.8,485.2,107.8,484.7,107.8,484.2C107.9,484.2,107.8,484.2,107.8,484.2z"/>
			<path class="st12" d="M64.9,433.5c0,2.2-1.8,3.9-4,3.9c-2.2,0-3.8-1.8-3.8-3.9c0-2.2,1.8-3.9,4-3.9
				C63.2,429.6,64.9,431.3,64.9,433.5z"/>
			<path class="st12" d="M105.2,471.6c2.2,0,3.9,1.8,3.9,4c0,2.2-1.8,3.9-4.1,3.8c-2.2-0.1-3.8-1.8-3.8-3.9
				C101.2,473.3,103,471.6,105.2,471.6z"/>
			<path class="st12" d="M69.3,438.8c-2.1,0-3.8-1.8-3.8-3.9c0-2.2,1.8-3.9,4-3.8c2.1,0.1,3.8,1.8,3.7,4
				C73.2,437.2,71.4,438.9,69.3,438.8z"/>
			<path class="st12" d="M21,421.8c-2.1,0-3.9-1.7-3.9-3.9c0-2.2,1.8-4,4-3.9c2.1,0,3.8,1.8,3.8,3.9C24.9,420.1,23.1,421.8,21,421.8
				z"/>
			<path class="st12" d="M16.5,416.4c0,2.2-1.7,3.9-3.8,3.9c-2.2,0-3.9-1.7-3.9-3.8c0-2.2,1.7-3.9,3.8-3.9
				C14.7,412.6,16.5,414.3,16.5,416.4z"/>
			<path class="st12" d="M45.8,418.5c2.1,0,3.9,1.8,3.9,3.9c0,2.1-1.7,3.8-3.9,3.9c-2.1,0-3.9-1.8-3.9-3.9
				C41.9,420.3,43.6,418.5,45.8,418.5z"/>
			<path class="st12" d="M37.2,424.8c-1.9,0-3.7-1.8-3.7-3.9c0-2.2,1.7-3.9,3.8-3.9c2.2,0,3.9,1.7,3.9,3.8
				C41.3,423.1,39.6,424.8,37.2,424.8z"/>
			<path class="st12" d="M118.6,499.1c-2.2,0-3.9-1.7-4-3.9c0-2.1,1.7-3.8,3.9-3.8c2.1,0,3.9,1.7,3.9,3.8
				C122.5,497.3,120.8,499.1,118.6,499.1z"/>
			<path class="st12" d="M29.3,423.3c-2.1,0-3.9-1.7-3.9-3.9c0-2.2,1.8-3.9,4-3.9c2.1,0,3.8,1.8,3.8,3.9
				C33.2,421.6,31.5,423.3,29.3,423.3z"/>
			<path class="st12" d="M84.6,450.2c-2.1,0-3.9-1.7-3.9-3.8c0-2.2,1.7-4,3.9-3.9c2.1,0,3.8,1.8,3.8,3.9
				C88.4,448.5,86.7,450.2,84.6,450.2z"/>
			<path class="st12" d="M117.1,477.1c0,2.1-1.8,3.9-3.9,3.8c-2.1,0-3.9-1.9-3.8-4c0.1-2.1,1.8-3.8,3.9-3.8
				C115.3,473.2,117.1,474.9,117.1,477.1z"/>
			<path class="st12" d="M103.3,457.8c-0.1,2.1-2,3.8-4.1,3.6c-2.1-0.1-3.8-2.1-3.6-4.1c0.2-2.1,2-3.7,4-3.6
				C101.8,453.9,103.5,455.7,103.3,457.8z"/>
			<path class="st12" d="M4.4,411.1c2.1,0.1,3.8,1.9,3.7,4c-0.1,2.1-1.9,3.8-4.1,3.7c-2.1-0.1-3.7-1.9-3.7-3.9
				C0.5,412.7,2.3,411,4.4,411.1z"/>
			<path class="st12" d="M110.2,467.2c0,2.1-1.8,3.9-3.9,3.9c-2.1,0-3.9-1.8-3.8-4c0-2.1,1.8-3.8,3.8-3.8
				C108.4,463.3,110.2,465.1,110.2,467.2z"/>
			<path class="st12" d="M96.7,447.9c0,2-1.8,3.8-3.9,3.8c-2.1,0-3.9-1.9-3.8-4c0.1-2.1,1.9-3.8,3.9-3.7
				C95.1,444,96.8,445.8,96.7,447.9z"/>
			<path class="st12" d="M-4,409.6c-0.4,0-0.8,0.1-1.2,0.2v7.3c0.3,0.1,0.7,0.2,1,0.2c2.1,0.1,3.9-1.7,4-3.8
				C-0.2,411.4-1.9,409.7-4,409.6z"/>
			<path class="st12" d="M129,506.2c0.2-0.4,0.3-0.9,0.3-1.4c0-2.1-1.7-3.8-3.8-3.8c-2.1,0-3.9,1.7-3.9,3.9c0,0.5,0.1,1,0.3,1.4H129
				z"/>
			<path class="st12" d="M123.9,486.9c0,2-1.7,3.8-3.8,3.9c-2.1,0-3.9-1.8-3.9-3.9c0-2,1.8-3.8,3.8-3.8
				C122.1,483.1,123.9,484.8,123.9,486.9z"/>
			<path class="st12" d="M62.5,428.9c-2,0-3.8-1.7-3.8-3.8c0-2.1,1.8-3.9,3.9-3.9c2,0.1,3.8,1.8,3.7,3.9
				C66.3,427.2,64.5,428.9,62.5,428.9z"/>
			<path class="st12" d="M81.5,436.6c-0.1,2.1-2,3.8-4.1,3.7c-2.1-0.1-3.7-2-3.6-4c0.1-2.1,2-3.8,4.1-3.7
				C80,432.7,81.6,434.6,81.5,436.6z"/>
			<path class="st12" d="M53.9,427.5c-2.1-0.1-3.8-2-3.6-4.1c0.2-2.1,2-3.7,4.1-3.6c2.1,0.1,3.8,2,3.6,4.1
				C57.8,426,56,427.6,53.9,427.5z"/>
			<path class="st12" d="M126.9,500.5c-2.1,0-3.8-1.8-3.7-3.9c0.1-2.1,1.9-3.8,3.9-3.7c2,0.1,3.7,1.8,3.7,3.8
				C130.7,498.8,128.9,500.5,126.9,500.5z"/>
			<path class="st12" d="M89.8,437.9c0,2-1.7,3.8-3.8,3.8c-2.1,0-3.8-1.8-3.8-3.8c0-2,1.7-3.7,3.7-3.8
				C88,434.1,89.8,435.8,89.8,437.9z"/>
			<path class="st12" d="M26.2,409.5c0,2.1-1.7,3.8-3.8,3.8c-2,0-3.7-1.7-3.7-3.7c0-2.1,1.7-3.8,3.8-3.8
				C24.5,405.8,26.2,407.5,26.2,409.5z"/>
			<path class="st12" d="M118.4,468.9c-0.1,2.1-2,3.7-4,3.5c-2-0.2-3.6-1.9-3.4-3.9c0.1-2.1,2-3.7,4-3.5
				C117,465.1,118.6,466.9,118.4,468.9z"/>
			<path class="st12" d="M70.9,430.3c-2.1,0-3.8-1.7-3.8-3.7c0-2,1.6-3.7,3.7-3.7c2.1,0,3.8,1.7,3.8,3.7
				C74.6,428.6,72.9,430.3,70.9,430.3z"/>
			<path class="st12" d="M111.6,459c-0.1,2.1-2,3.7-4,3.5c-2-0.2-3.6-1.9-3.5-3.9c0.1-2.1,2-3.7,4-3.5
				C110.2,455.3,111.7,457,111.6,459z"/>
			<path class="st12" d="M17.9,408.1c0,2-1.7,3.7-3.7,3.7c-2.1,0-3.8-1.7-3.7-3.8c0.1-2,1.7-3.7,3.8-3.6
				C16.2,404.4,17.9,406.1,17.9,408.1z"/>
			<path class="st12" d="M34.3,411.3c-0.1,2.1-2,3.7-4,3.5c-2-0.2-3.6-1.9-3.4-3.9c0.1-2.1,2-3.7,4-3.5
				C32.9,407.5,34.4,409.3,34.3,411.3z"/>
			<path class="st12" d="M100.9,453c-2,0-3.7-1.7-3.7-3.7c0-2.1,1.7-3.8,3.8-3.7c2,0.1,3.7,1.7,3.6,3.8
				C104.7,451.4,103,453,100.9,453z"/>
			<path class="st12" d="M38.7,416.3c-2.1-0.1-3.7-2-3.5-4c0.2-2,1.9-3.6,3.9-3.4c2.1,0.1,3.7,2,3.5,4
				C42.5,414.9,40.7,416.4,38.7,416.3z"/>
			<path class="st12" d="M97.8,439.4c0,2.1-1.5,3.7-3.6,3.7c-2.1,0-3.7-1.6-3.7-3.7c0-2,1.5-3.6,3.6-3.6
				C96.1,435.7,97.7,437.3,97.8,439.4z"/>
			<path class="st12" d="M137.4,506.2c0-2-1.6-3.6-3.6-3.6c-2.1,0-3.7,1.5-3.7,3.6c0,0,0,0,0,0H137.4z"/>
			<path class="st12" d="M128.3,492c-2.1-0.1-3.6-1.7-3.5-3.8c0.1-2.1,1.7-3.6,3.9-3.5c2,0.1,3.5,1.7,3.5,3.7
				C132,490.5,130.4,492.1,128.3,492z"/>
			<path class="st12" d="M125.3,478.5c0,2.1-1.6,3.7-3.6,3.8c-2.1,0.1-3.8-1.6-3.8-3.7c0-2.1,1.6-3.7,3.7-3.7
				C123.6,474.8,125.2,476.4,125.3,478.5z"/>
			<path class="st12" d="M9.5,406.7c0,2.1-1.7,3.7-3.8,3.6c-2.1,0-3.7-1.7-3.6-3.8c0-2.1,1.7-3.7,3.8-3.6
				C7.9,403,9.5,404.6,9.5,406.7z"/>
			<path class="st12" d="M47.3,417.8c-2.1,0-3.7-1.6-3.7-3.6c0-2.1,1.6-3.8,3.7-3.8c2.1,0,3.7,1.6,3.7,3.7
				C51,416.1,49.4,417.7,47.3,417.8z"/>
			<path class="st12" d="M52,415.5c0-2.1,1.7-3.6,3.8-3.6c2.1,0,3.6,1.7,3.6,3.8c-0.1,2-1.6,3.5-3.7,3.5
				C53.5,419.2,51.9,417.6,52,415.5z"/>
			<path class="st12" d="M82.8,428c0,2.1-1.5,3.7-3.6,3.7c-2.1,0-3.7-1.6-3.7-3.7c0-2,1.5-3.6,3.6-3.6C81.2,424.4,82.8,426,82.8,428
				z"/>
			<path class="st12" d="M116.2,456.7c2,0,3.6,1.5,3.6,3.5c0,2.1-1.6,3.7-3.6,3.7c-2,0-3.6-1.6-3.6-3.6
				C112.6,458.3,114.1,456.7,116.2,456.7z"/>
			<path class="st12" d="M112.9,450.8c0,2-1.6,3.6-3.6,3.6c-2.1,0-3.7-1.6-3.6-3.7c0-2,1.6-3.5,3.6-3.5
				C111.4,447.2,112.9,448.8,112.9,450.8z"/>
			<path class="st12" d="M87.5,433.2c-2,0-3.6-1.6-3.6-3.6c0-2.1,1.7-3.6,3.7-3.6c2,0.1,3.5,1.7,3.5,3.7
				C91.1,431.6,89.5,433.2,87.5,433.2z"/>
			<path class="st12" d="M138.9,498.2c0,2-1.5,3.6-3.5,3.6c-2.1,0-3.7-1.6-3.7-3.6c0-2,1.6-3.5,3.6-3.5
				C137.3,494.6,138.9,496.2,138.9,498.2z"/>
			<path class="st12" d="M-2.7,401.5c-1,0-1.9,0.4-2.5,1.1v5.2c0.7,0.7,1.6,1.1,2.6,1.1c2.1,0,3.7-1.6,3.6-3.7
				C1,403-0.6,401.4-2.7,401.5z"/>
			<path class="st12" d="M64,413.1c2.1,0,3.6,1.6,3.6,3.7c0,2-1.6,3.5-3.6,3.5c-2.1,0-3.6-1.6-3.6-3.7C60.4,414.7,62,413.1,64,413.1
				z"/>
			<path class="st12" d="M123,466.6c2,0,3.6,1.5,3.7,3.5c0,2.1-1.6,3.7-3.6,3.7c-2,0-3.6-1.6-3.6-3.6
				C119.4,468.2,121,466.6,123,466.6z"/>
			<path class="st12" d="M130,483.6c-2,0-3.6-1.6-3.6-3.5c0-2,1.6-3.6,3.5-3.6c2,0,3.6,1.6,3.6,3.5
				C133.5,481.9,131.9,483.6,130,483.6z"/>
			<path class="st12" d="M72.3,414.7c2,0,3.6,1.6,3.6,3.6c0,2-1.6,3.6-3.6,3.6c-2,0-3.6-1.6-3.6-3.6
				C68.7,416.3,70.4,414.7,72.3,414.7z"/>
			<path class="st12" d="M102.5,437.3c2,0,3.6,1.6,3.6,3.6c0,2-1.6,3.6-3.6,3.6c-2,0-3.6-1.6-3.6-3.6
				C98.9,438.9,100.5,437.3,102.5,437.3z"/>
			<path class="st12" d="M12.1,399.7c0-2,1.7-3.6,3.7-3.5c2,0.1,3.5,1.8,3.5,3.7c-0.1,1.9-1.7,3.4-3.6,3.4
				C13.6,403.3,12,401.6,12.1,399.7z"/>
			<path class="st12" d="M7.3,401.8c-1.9,0-3.6-1.7-3.6-3.6c0-1.9,1.6-3.5,3.5-3.5c1.9,0,3.6,1.7,3.6,3.6
				C10.8,400.2,9.2,401.8,7.3,401.8z"/>
			<path class="st12" d="M48.8,409.3c-1.9,0-3.6-1.7-3.6-3.6c0-1.9,1.7-3.5,3.5-3.5c1.9,0,3.6,1.7,3.6,3.6
				C52.3,407.7,50.6,409.3,48.8,409.3z"/>
			<path class="st12" d="M40.5,400.7c2,0,3.6,1.7,3.5,3.7c-0.1,2-1.8,3.5-3.7,3.5c-1.9-0.1-3.4-1.7-3.4-3.6
				C36.8,402.2,38.5,400.6,40.5,400.7z"/>
			<path class="st12" d="M32,399.2c2,0,3.6,1.6,3.6,3.6c0,2-1.7,3.6-3.6,3.6c-1.9,0-3.5-1.6-3.5-3.5C28.4,400.8,30.1,399.2,32,399.2
				z"/>
			<path class="st12" d="M27.6,401.3c0,2-1.7,3.6-3.7,3.5c-2,0-3.6-1.7-3.5-3.7c0.1-1.9,1.7-3.5,3.6-3.5
				C26,397.7,27.6,399.3,27.6,401.3z"/>
			<path class="st12" d="M99.1,431c0,1.9-1.6,3.5-3.5,3.6c-1.9,0-3.6-1.6-3.6-3.6c0-1.9,1.7-3.5,3.6-3.5
				C97.5,427.5,99.1,429.2,99.1,431z"/>
			<path class="st12" d="M57.1,403.7c1.9,0,3.5,1.7,3.5,3.6c0,1.9-1.7,3.5-3.6,3.5c-1.9,0-3.5-1.7-3.5-3.6
				C53.6,405.3,55.2,403.7,57.1,403.7z"/>
			<path class="st12" d="M136.8,493.4c-1.9,0-3.5-1.5-3.6-3.4c-0.1-1.9,1.6-3.6,3.6-3.6c1.9,0,3.5,1.6,3.5,3.5
				C140.3,491.7,138.7,493.4,136.8,493.4z"/>
			<path class="st12" d="M145.3,506.2c-0.6-1.1-1.7-1.9-3-2c-1.4-0.1-2.6,0.8-3.3,2H145.3z"/>
			<path class="st12" d="M80.7,423.3c-1.9,0-3.5-1.6-3.5-3.5c0-1.9,1.7-3.6,3.6-3.6c1.9,0,3.5,1.7,3.5,3.6
				C84.2,421.7,82.6,423.3,80.7,423.3z"/>
			<path class="st12" d="M-1,400.3c-1.9,0-3.5-1.6-3.6-3.5c0-1.9,1.6-3.5,3.5-3.6c1.9,0,3.5,1.6,3.6,3.5
				C2.5,398.6,0.8,400.3-1,400.3z"/>
			<path class="st12" d="M65.5,405.2c1.9,0,3.5,1.7,3.5,3.6c-0.1,1.9-1.6,3.4-3.5,3.4c-1.9,0-3.5-1.7-3.5-3.6
				C62,406.7,63.6,405.2,65.5,405.2z"/>
			<path class="st12" d="M134.9,471.6c0,1.9-1.6,3.5-3.5,3.5c-1.9,0-3.5-1.7-3.5-3.6c0-1.8,1.6-3.4,3.4-3.4
				C133.2,468.1,134.9,469.8,134.9,471.6z"/>
			<path class="st12" d="M121.2,452c0,1.9-1.7,3.5-3.6,3.5c-1.9-0.1-3.5-1.8-3.4-3.6c0.1-1.9,1.7-3.4,3.5-3.4
				C119.6,448.5,121.2,450.1,121.2,452z"/>
			<path class="st12" d="M124.6,465.3c-1.9,0-3.5-1.6-3.5-3.5c0-1.9,1.6-3.5,3.5-3.5c1.8,0,3.4,1.6,3.5,3.4
				C128.1,463.6,126.5,465.3,124.6,465.3z"/>
			<path class="st12" d="M110.8,445.9c-1.9,0-3.5-1.7-3.5-3.6c0-1.9,1.7-3.5,3.6-3.4c1.9,0.1,3.4,1.6,3.4,3.5
				C114.3,444.3,112.7,445.9,110.8,445.9z"/>
			<path class="st12" d="M143.7,496c1.9,0,3.5,1.7,3.4,3.6c-0.1,1.9-1.6,3.4-3.5,3.3c-1.9,0-3.5-1.7-3.4-3.6
				C140.3,497.4,141.8,495.9,143.7,496z"/>
			<path class="st12" d="M88.7,424.7c-1.9,0-3.5-1.6-3.4-3.5c0.1-1.9,1.6-3.4,3.5-3.4c1.9,0,3.5,1.6,3.4,3.5
				C92.1,423.2,90.6,424.7,88.7,424.7z"/>
			<path class="st12" d="M141.7,481.5c0,1.9-1.5,3.4-3.4,3.4c-1.9,0-3.4-1.5-3.4-3.4c0-1.9,1.5-3.4,3.4-3.4
				C140.2,478.1,141.7,479.6,141.7,481.5z"/>
			<path class="st12" d="M77.2,410.2c0,1.9-1.5,3.4-3.4,3.4c-1.9,0-3.4-1.5-3.4-3.4c0-1.9,1.5-3.4,3.4-3.4
				C75.8,406.8,77.2,408.3,77.2,410.2z"/>
			<path class="st12" d="M107.4,432.6c0,1.9-1.5,3.4-3.4,3.4c-1.9,0-3.4-1.5-3.4-3.4c0-1.9,1.5-3.4,3.4-3.4
				C105.9,429.2,107.4,430.7,107.4,432.6z"/>
			<path class="st12" d="M58.6,402.1c-1.8,0-3.3-1.5-3.3-3.3c0-1.8,1.5-3.3,3.3-3.3c1.8,0,3.3,1.5,3.3,3.3
				C61.9,400.7,60.4,402.2,58.6,402.1z"/>
			<path class="st12" d="M100.4,422.7c0,1.9-1.4,3.3-3.2,3.4c-1.9,0-3.4-1.4-3.4-3.3c0-1.9,1.4-3.3,3.3-3.3
				C98.9,419.4,100.4,420.8,100.4,422.7z"/>
			<path class="st12" d="M12.1,389.8c0,1.8-1.4,3.3-3.2,3.4c-1.9,0-3.4-1.4-3.4-3.3c0-1.8,1.4-3.3,3.3-3.3
				C10.6,386.6,12,388,12.1,389.8z"/>
			<path class="st12" d="M53.6,397.3c0,1.9-1.4,3.3-3.2,3.4c-1.9,0-3.4-1.4-3.4-3.3c0-1.9,1.4-3.3,3.3-3.3
				C52.1,394,53.5,395.4,53.6,397.3z"/>
			<path class="st12" d="M85.5,411.4c0,1.8-1.5,3.3-3.3,3.3c-1.9,0-3.4-1.5-3.3-3.4c0.1-1.8,1.5-3.2,3.4-3.2
				C84.1,408.1,85.5,409.6,85.5,411.4z"/>
			<path class="st12" d="M28.5,392.9c0,1.9-1.5,3.4-3.4,3.3c-1.9,0-3.3-1.5-3.2-3.4c0-1.9,1.5-3.4,3.4-3.3
				C27.1,389.6,28.5,391,28.5,392.9z"/>
			<path class="st12" d="M33.6,391c1.9,0,3.3,1.5,3.3,3.5c-0.1,1.8-1.5,3.2-3.4,3.2c-1.9,0-3.3-1.5-3.3-3.5
				C30.3,392.4,31.7,391,33.6,391z"/>
			<path class="st12" d="M115.6,434.1c0,1.8-1.5,3.3-3.3,3.2c-1.8,0-3.3-1.5-3.2-3.3c0-1.8,1.5-3.3,3.3-3.2
				C114.2,430.8,115.6,432.3,115.6,434.1z"/>
			<path class="st12" d="M126.1,450.1c1.9,0,3.3,1.5,3.3,3.3c0,1.9-1.5,3.4-3.4,3.3c-1.8-0.1-3.2-1.5-3.2-3.4
				C122.8,451.5,124.2,450.1,126.1,450.1z"/>
			<path class="st12" d="M119.1,447.2c-1.9,0-3.3-1.5-3.3-3.3c0-1.9,1.5-3.4,3.4-3.3c1.8,0.1,3.2,1.5,3.2,3.4
				C122.4,445.8,121,447.2,119.1,447.2z"/>
			<path class="st12" d="M17.2,388.1c1.9,0,3.3,1.5,3.3,3.5c-0.1,1.8-1.5,3.2-3.4,3.2c-1.9,0-3.3-1.5-3.3-3.5
				C13.9,389.4,15.3,388,17.2,388.1z"/>
			<path class="st12" d="M148.5,491.3c0,1.9-1.4,3.4-3.4,3.4c-1.9,0-3.3-1.4-3.3-3.3c0-1.9,1.4-3.4,3.4-3.4
				C147,488,148.4,489.5,148.5,491.3z"/>
			<path class="st12" d="M139.7,469.9c1.8,0,3.3,1.4,3.3,3.3c0,1.8-1.4,3.3-3.3,3.3c-1.8,0-3.3-1.4-3.3-3.3
				C136.4,471.4,137.9,469.9,139.7,469.9z"/>
			<path class="st12" d="M136.2,463.3c0,1.9-1.4,3.3-3.3,3.3c-1.9,0-3.4-1.5-3.3-3.4c0-1.8,1.5-3.3,3.4-3.2
				C134.8,460,136.2,461.5,136.2,463.3z"/>
			<path class="st12" d="M41.8,399.2c-1.9-0.1-3.3-1.6-3.2-3.5c0.1-1.8,1.6-3.2,3.5-3.1c1.9,0.1,3.3,1.6,3.2,3.5
				C45.1,397.9,43.6,399.3,41.8,399.2z"/>
			<path class="st12" d="M3.7,388.4c0,1.8-1.5,3.3-3.3,3.3c-1.8,0-3.3-1.5-3.2-3.4c0-1.8,1.5-3.2,3.2-3.2
				C2.2,385.1,3.7,386.6,3.7,388.4z"/>
			<path class="st12" d="M70.2,400.4c0,1.8-1.6,3.3-3.4,3.2c-1.8-0.1-3.2-1.6-3.2-3.3c0-1.8,1.6-3.3,3.4-3.2
				C68.8,397.1,70.2,398.6,70.2,400.4z"/>
			<path class="st12" d="M146.6,479.7c1.7,0,3.2,1.5,3.2,3.2c0,1.8-1.5,3.3-3.3,3.3c-1.7,0-3.2-1.6-3.2-3.3
				C143.4,481.2,144.9,479.7,146.6,479.7z"/>
			<path class="st12" d="M-5.2,385.5v3.4c0.3-0.5,0.5-1,0.5-1.5C-4.7,386.7-4.8,386.1-5.2,385.5z"/>
			<path class="st12" d="M108.7,424.2c0,1.7-1.4,3.2-3.2,3.3c-1.8,0-3.3-1.5-3.3-3.3c0-1.7,1.5-3.2,3.3-3.2
				C107.2,421,108.7,422.4,108.7,424.2z"/>
			<path class="st12" d="M152,504.2c-1.8,0-3.2-1.5-3.2-3.2c0-1.8,1.6-3.3,3.4-3.3c1.8,0.1,3.2,1.6,3.2,3.3
				C155.2,502.7,153.7,504.2,152,504.2z"/>
			<path class="st12" d="M90.3,416.1c-1.7,0-3.3-1.4-3.3-3.2c-0.1-1.8,1.5-3.4,3.3-3.4c1.8,0,3.2,1.5,3.3,3.2
				C93.5,414.6,92,416.1,90.3,416.1z"/>
			<path class="st12" d="M75.3,398.6c1.7,0,3.2,1.5,3.2,3.2c0,1.7-1.6,3.2-3.3,3.2c-1.7,0-3.1-1.5-3.1-3.2
				C72.1,400.1,73.6,398.6,75.3,398.6z"/>
			<path class="st12" d="M124.3,445.3c0-1.7,1.6-3.2,3.3-3.1c1.7,0.1,3.2,1.7,3.1,3.4c-0.1,1.7-1.6,3.1-3.2,3.1
				C125.8,448.6,124.3,447,124.3,445.3z"/>
			<path class="st12" d="M137.6,454.9c0,1.7-1.4,3.3-3.2,3.3c-1.7,0-3.2-1.5-3.2-3.2c0-1.7,1.4-3.1,3.1-3.2
				C136,451.7,137.6,453.1,137.6,454.9z"/>
			<path class="st12" d="M144.4,464.8c0,1.7-1.5,3.2-3.2,3.2c-1.7,0-3.1-1.4-3.1-3.1c0-1.7,1.5-3.2,3.2-3.2
				C143,461.6,144.4,463.1,144.4,464.8z"/>
			<path class="st12" d="M120.7,438.7c-1.7,0-3.2-1.5-3.2-3.2c0-1.7,1.4-3.1,3.1-3.2c1.7,0,3.2,1.5,3.2,3.2
				C123.8,437.3,122.4,438.7,120.7,438.7z"/>
			<path class="st12" d="M26.7,387.7c-1.7,0-3.1-1.4-3.2-3.1c0-1.8,1.4-3.3,3.2-3.2c1.7,0,3.1,1.4,3.1,3.1
				C29.8,386.2,28.4,387.7,26.7,387.7z"/>
			<path class="st12" d="M31.9,386c0-1.7,1.4-3.1,3.1-3.2c1.8,0,3.2,1.5,3.2,3.2c0,1.7-1.5,3.1-3.2,3.1
				C33.3,389.1,31.9,387.7,31.9,386z"/>
			<path class="st12" d="M46.5,387.6c0,1.7-1.4,3.1-3.2,3.1c-1.7,0-3.1-1.4-3.1-3.2c0-1.7,1.4-3.1,3.2-3.1
				C45.1,384.4,46.5,385.8,46.5,387.6z"/>
			<path class="st12" d="M101.7,414.4c0,1.7-1.5,3.1-3.2,3.1c-1.8,0-3.2-1.5-3.1-3.3c0.1-1.7,1.5-3.1,3.2-3
				C100.4,411.3,101.8,412.7,101.7,414.4z"/>
			<path class="st12" d="M156.6,492.6c0,1.7-1.4,3.1-3.1,3.1c-1.8,0-3.2-1.5-3.2-3.2c0.1-1.7,1.5-3.1,3.2-3.1
				C155.2,489.4,156.7,490.9,156.6,492.6z"/>
			<path class="st12" d="M158,484.5c0,1.7-1.4,3-3.1,3c-1.7,0-3-1.4-3-3.1c0-1.7,1.4-3,3.1-3C156.7,481.5,158,482.8,158,484.5z"/>
			<path class="st12" d="M63.1,390.4c0,1.8-1.3,3.1-3.1,3.1c-1.7,0-3-1.3-3-3c0-1.8,1.3-3.1,3.1-3.1
				C61.8,387.5,63.1,388.7,63.1,390.4z"/>
			<path class="st12" d="M51.7,385.9c1.8,0,3.1,1.3,3.1,3.1c0,1.8-1.4,3.1-3.1,3.1c-1.7,0-3-1.3-3-3
				C48.6,387.3,49.9,385.9,51.7,385.9z"/>
			<path class="st12" d="M4.9,380.4c0,1.7-1.3,3-3,3c-1.8,0-3.1-1.3-3.1-3.1c0-1.7,1.4-3,3.1-3C3.7,377.3,4.9,378.6,4.9,380.4z"/>
			<path class="st12" d="M116.9,425.7c0,1.8-1.4,3.1-3.1,3.1c-1.8,0-3.1-1.4-3-3.2c0-1.7,1.3-3,3-3
				C115.5,422.6,116.9,423.9,116.9,425.7z"/>
			<path class="st12" d="M10.2,378.5c1.8,0,3.1,1.3,3.1,3.1c0,1.7-1.3,3-3,3c-1.8,0-3.1-1.3-3.1-3.1C7.2,379.8,8.5,378.5,10.2,378.5
				z"/>
			<path class="st12" d="M163.4,502.5c-0.1,1.7-1.4,2.9-3.1,2.9c-1.7-0.1-2.9-1.4-2.9-3.1c0.1-1.7,1.4-2.9,3.1-2.9
				C162.1,499.4,163.4,500.8,163.4,502.5z"/>
			<path class="st12" d="M86.5,403.3c0,1.7-1.3,3.1-3.1,3.1c-1.7,0-3.1-1.3-3.1-3.1c0-1.7,1.3-3.1,3.1-3.1
				C85.1,400.2,86.5,401.6,86.5,403.3z"/>
			<path class="st12" d="M109.9,415.8c0,1.7-1.3,3-3,3c-1.7,0-3-1.3-3-3c0-1.7,1.3-3,3-3C108.6,412.8,109.9,414.2,109.9,415.8z"/>
			<path class="st12" d="M151.2,474.6c0,1.8-1.3,3.1-3.1,3.1c-1.8,0-3.1-1.4-3.1-3.1c0-1.7,1.3-3,3-3
				C149.8,471.5,151.2,472.9,151.2,474.6z"/>
			<path class="st12" d="M91.7,401.8c1.7,0,3,1.3,3.1,3c0,1.7-1.3,3-3,3.1c-1.7,0-3-1.3-3.1-3C88.7,403.2,90,401.8,91.7,401.8z"/>
			<path class="st12" d="M18.6,386.1c-1.7,0-3.1-1.4-3.1-3.1c0-1.7,1.4-3.1,3.1-3.1c1.7,0,3.1,1.4,3.1,3.1
				C21.7,384.8,20.3,386.1,18.6,386.1z"/>
			<path class="st12" d="M68.4,389c1.7,0,3,1.3,3,3c0,1.7-1.3,3-3,3c-1.7,0-3-1.3-3-3C65.4,390.3,66.7,389,68.4,389z"/>
			<path class="st12" d="M152.6,466.3c0,1.6-1.3,3-2.9,3c-1.7,0-3.1-1.4-3-3c0-1.6,1.4-2.9,3-2.9
				C151.2,463.3,152.6,464.7,152.6,466.3z"/>
			<path class="st12" d="M142.7,453.4c1.7,0,3,1.3,3.1,3c0,1.7-1.3,3-3,3c-1.6,0-2.9-1.3-3-2.9C139.7,454.9,141,453.5,142.7,453.4z"
				/>
			<path class="st12" d="M-5.2,376.1v5.4c1-0.5,1.7-1.5,1.7-2.7C-3.5,377.6-4.2,376.6-5.2,376.1z"/>
			<path class="st12" d="M125.1,427.2c0,1.6-1.3,3-2.9,3c-1.6,0-3.1-1.3-3.1-3c0-1.6,1.4-2.9,3-2.9
				C123.7,424.2,125.1,425.6,125.1,427.2z"/>
			<path class="st12" d="M135.9,443.6c1.7,0,3,1.3,3,3c0,1.7-1.4,3-3.1,3c-1.6,0-2.9-1.3-2.9-2.9C132.9,445,134.2,443.6,135.9,443.6
				z"/>
			<path class="st12" d="M132,437.1c0,1.7-1.4,3-3.1,2.9c-1.7,0-3-1.4-2.9-3.1c0.1-1.6,1.4-2.9,3-2.9
				C130.7,434.1,132,435.4,132,437.1z"/>
			<path class="st12" d="M76.8,390.5c1.6,0,2.9,1.3,3,2.9c0,1.6-1.4,3.1-3,3c-1.6,0-2.9-1.4-2.9-3C73.8,391.9,75.2,390.5,76.8,390.5
				z"/>
			<path class="st12" d="M19.9,377.9c-1.5,0-2.9-1.2-2.9-2.8c-0.1-1.6,1.3-3,2.9-3c1.5,0,2.9,1.3,2.9,2.9
				C22.7,376.5,21.4,377.8,19.9,377.9z"/>
			<path class="st12" d="M161.9,491.1c1.6,0,2.9,1.5,2.9,3c-0.1,1.6-1.5,2.9-3.1,2.8c-1.5-0.1-2.8-1.5-2.8-3
				C158.9,492.4,160.3,491.1,161.9,491.1z"/>
			<path class="st12" d="M42,379.2c0-1.5,1.3-2.9,2.8-2.9c1.6,0,3,1.4,2.9,3c0,1.5-1.4,2.8-2.9,2.8C43.3,382,42,380.7,42,379.2z"/>
			<path class="st12" d="M156.4,473.2c1.6,0,3,1.4,2.9,2.9c0,1.5-1.3,2.8-2.9,2.9c-1.6,0-3-1.4-2.9-2.9
				C153.6,474.6,154.9,473.3,156.4,473.2z"/>
			<path class="st12" d="M87.7,395c0,1.5-1.4,2.8-2.9,2.8c-1.6,0-2.9-1.4-2.8-3c0.1-1.6,1.5-2.8,3-2.7
				C86.5,392.2,87.8,393.5,87.7,395z"/>
			<path class="st12" d="M103,406c0,1.6-1.4,2.9-3,2.9c-1.6,0-2.9-1.5-2.9-3c0.1-1.5,1.4-2.8,2.9-2.8C101.6,403.1,103,404.5,103,406
				z"/>
			<path class="st12" d="M118.2,417.3c0,1.6-1.3,3-2.9,3c-1.5,0-2.9-1.3-2.9-2.8c0-1.6,1.3-3,2.9-3
				C116.8,414.5,118.2,415.8,118.2,417.3z"/>
			<path class="st12" d="M28.2,379.1c-1.6,0-3-1.4-2.9-2.9c0-1.5,1.3-2.8,2.9-2.9c1.6,0,3,1.4,2.9,2.9
				C31,377.7,29.7,379.1,28.2,379.1z"/>
			<path class="st12" d="M39.4,377.7c0,1.6-1.4,2.9-3,2.9c-1.5-0.1-2.8-1.4-2.8-2.9c0-1.6,1.4-2.9,3-2.9
				C38.1,374.8,39.4,376.2,39.4,377.7z"/>
			<path class="st12" d="M11.7,376.3c-1.6,0-2.8-1.3-2.8-2.9c0-1.6,1.3-2.8,2.9-2.8c1.6,0,2.8,1.3,2.8,2.9
				C14.6,375.1,13.3,376.3,11.7,376.3z"/>
			<path class="st12" d="M56.1,380.7c0,1.5-1.3,2.8-2.9,2.8c-1.6,0-2.9-1.4-2.8-3c0.1-1.6,1.4-2.8,2.9-2.7
				C54.9,377.8,56.1,379.2,56.1,380.7z"/>
			<path class="st12" d="M133.3,428.7c0,1.6-1.2,2.8-2.8,2.8c-1.5,0-2.7-1.2-2.7-2.8c0-1.6,1.2-2.8,2.8-2.8
				C132.1,426,133.3,427.1,133.3,428.7z"/>
			<path class="st12" d="M165.8,485.9c0,1.6-1.2,2.8-2.8,2.8c-1.5,0-2.7-1.2-2.8-2.7c0-1.6,1.2-2.8,2.8-2.8
				C164.6,483.2,165.8,484.4,165.8,485.9z"/>
			<path class="st12" d="M147,448.1c0,1.6-1.1,2.8-2.7,2.8c-1.6,0.1-2.9-1.1-2.9-2.8c0-1.6,1.2-2.8,2.8-2.8
				C145.8,445.3,147,446.5,147,448.1z"/>
			<path class="st12" d="M61.6,384.9c-1.6,0-2.8-1.2-2.8-2.9c0-1.5,1.2-2.7,2.8-2.7c1.6,0,2.8,1.2,2.8,2.9
				C64.3,383.8,63.1,384.9,61.6,384.9z"/>
			<path class="st12" d="M137.3,441.3c-1.6,0-2.8-1.3-2.8-2.9c0-1.6,1.3-2.8,2.9-2.7c1.5,0.1,2.7,1.2,2.7,2.8
				C140.2,440.1,138.9,441.3,137.3,441.3z"/>
			<path class="st12" d="M3.3,374.8c-1.6,0-2.8-1.3-2.7-2.9c0.1-1.5,1.3-2.7,2.8-2.6c1.6,0,2.8,1.3,2.7,2.9
				C6.1,373.6,4.9,374.8,3.3,374.8z"/>
			<path class="st12" d="M166.9,506.2h3c0.7-0.5,1.2-1.3,1.2-2.3c0-1.6-1.1-2.8-2.6-2.8c-1.6,0-2.9,1.1-2.8,2.8
				C165.7,504.9,166.2,505.7,166.9,506.2z"/>
			<path class="st12" d="M111.2,407.5c0,1.6-1.2,2.7-2.7,2.7c-1.6,0-2.8-1.2-2.7-2.9c0-1.5,1.3-2.7,2.8-2.6
				C110,404.8,111.2,406,111.2,407.5z"/>
			<path class="st12" d="M93.3,393.7c1.5,0,2.7,1.2,2.7,2.8c0,1.6-1.3,2.8-2.9,2.7c-1.5-0.1-2.7-1.3-2.6-2.8
				C90.5,394.8,91.7,393.7,93.3,393.7z"/>
			<path class="st12" d="M153.9,458c0,1.6-1.3,2.8-2.9,2.7c-1.5-0.1-2.7-1.2-2.7-2.8c0-1.6,1.3-2.8,2.9-2.7
				C152.7,455.2,153.9,456.4,153.9,458z"/>
			<path class="st12" d="M69.9,386.3c-1.5,0-2.7-1.2-2.7-2.7c0-1.5,1.2-2.7,2.7-2.7c1.5,0,2.7,1.2,2.7,2.7
				C72.6,385.2,71.4,386.4,69.9,386.3z"/>
			<path class="st12" d="M-5,367.8c-0.1,0-0.1,0-0.2,0v5.4c0.1,0,0.1,0,0.2,0c1.5,0,2.7-1.2,2.7-2.7C-2.3,368.9-3.5,367.8-5,367.8z"
				/>
			<path class="st12" d="M120.9,418.8c0-1.5,1.3-2.7,2.8-2.6c1.5,0.1,2.7,1.3,2.6,2.8c-0.1,1.5-1.3,2.6-2.7,2.6
				C122.1,421.5,120.9,420.3,120.9,418.8z"/>
			<path class="st12" d="M101.5,400.6c-1.4,0-2.6-1.3-2.6-2.7c0-1.4,1.3-2.6,2.7-2.6c1.4,0,2.6,1.3,2.6,2.7
				C104.2,399.4,102.9,400.6,101.5,400.6z"/>
			<path class="st12" d="M167.2,477.6c0,1.4-1.2,2.7-2.7,2.7c-1.4,0-2.7-1.2-2.7-2.7c0-1.4,1.2-2.7,2.7-2.7
				C165.9,475,167.2,476.2,167.2,477.6z"/>
			<path class="st12" d="M169.8,492.9c1.4,0,2.7,1.1,2.7,2.6c0.1,1.5-1.2,2.8-2.7,2.8c-1.4,0-2.6-1.2-2.7-2.6
				C167.2,494.1,168.4,492.9,169.8,492.9z"/>
			<path class="st12" d="M80.7,385.1c0,1.4-1.1,2.7-2.6,2.7c-1.5,0.1-2.8-1.2-2.8-2.7c0-1.4,1.2-2.7,2.7-2.7
				C79.4,382.4,80.6,383.6,80.7,385.1z"/>
			<path class="st12" d="M157.7,470.5c-1.5,0-2.8-1.2-2.8-2.7c0-1.5,1.2-2.7,2.7-2.7c1.5,0,2.6,1.1,2.7,2.6
				C160.4,469.2,159.2,470.5,157.7,470.5z"/>
			<path class="st12" d="M116.8,406.4c1.4,0,2.7,1.2,2.7,2.7c0,1.4-1.3,2.7-2.7,2.6c-1.4,0-2.6-1.2-2.6-2.6
				C114.1,407.6,115.3,406.4,116.8,406.4z"/>
			<path class="st12" d="M148.4,440c0,1.4-1.2,2.7-2.6,2.7c-1.4,0-2.7-1.3-2.6-2.7c0-1.4,1.2-2.5,2.6-2.6
				C147.1,437.4,148.3,438.6,148.4,440z"/>
			<path class="st12" d="M154.9,449.6c0,1.4-1.3,2.7-2.7,2.6c-1.4,0-2.5-1.2-2.6-2.6c0-1.4,1.3-2.7,2.7-2.6
				C153.7,447,154.9,448.2,154.9,449.6z"/>
			<path class="st12" d="M86.4,384c1.4,0,2.5,1.3,2.5,2.6c0,1.4-1.3,2.6-2.7,2.5c-1.4-0.1-2.5-1.3-2.4-2.7
				C83.8,385.1,85.1,384,86.4,384z"/>
			<path class="st12" d="M138.8,432.8c-1.4,0-2.6-1.4-2.5-2.8c0.1-1.4,1.3-2.5,2.7-2.5c1.4,0,2.6,1.4,2.5,2.8
				C141.4,431.7,140.1,432.8,138.8,432.8z"/>
			<path class="st12" d="M38,367c1.4,0,2.7,1.3,2.6,2.7c-0.1,1.4-1.3,2.5-2.6,2.5c-1.4,0-2.7-1.3-2.6-2.7
				C35.4,368.2,36.7,367,38,367z"/>
			<path class="st12" d="M29.7,365.5c1.4,0,2.6,1.3,2.6,2.7c-0.1,1.4-1.3,2.5-2.6,2.5c-1.4,0-2.6-1.3-2.6-2.7
				C27.1,366.6,28.3,365.5,29.7,365.5z"/>
			<path class="st12" d="M21.3,369.2c-1.4,0-2.6-1.2-2.6-2.6c0-1.4,1.3-2.7,2.7-2.6c1.4,0.1,2.5,1.3,2.5,2.6
				C23.9,368,22.7,369.2,21.3,369.2z"/>
			<path class="st12" d="M159.1,462c-1.4,0-2.5-1.2-2.5-2.6c0.1-1.4,1.3-2.5,2.7-2.4c1.4,0.1,2.4,1.2,2.4,2.6
				C161.7,460.9,160.5,462,159.1,462z"/>
			<path class="st12" d="M132,422.9c-1.4,0-2.6-1.1-2.6-2.5c0-1.4,1.2-2.6,2.6-2.5c1.4,0,2.5,1.1,2.5,2.5
				C134.6,421.7,133.4,422.8,132,422.9z"/>
			<path class="st12" d="M54.7,369.8c1.4,0,2.6,1.1,2.6,2.5c0,1.4-1.2,2.6-2.6,2.5c-1.4,0-2.5-1.1-2.5-2.5
				C52.1,371,53.3,369.8,54.7,369.8z"/>
			<path class="st12" d="M46.4,368.2c1.4,0,2.5,1.2,2.5,2.6c0,1.4-1.2,2.5-2.6,2.5c-1.4,0-2.5-1.2-2.5-2.6
				C43.8,369.4,45,368.2,46.4,368.2z"/>
			<path class="st12" d="M15.8,365.1c0,1.4-1.1,2.6-2.5,2.6c-1.4,0-2.6-1.1-2.5-2.6c0-1.4,1.1-2.5,2.4-2.5
				C14.6,362.5,15.7,363.7,15.8,365.1z"/>
			<path class="st12" d="M7.3,363.6c0,1.4-1.1,2.4-2.4,2.4c-1.4,0-2.4-1.1-2.4-2.4c0-1.4,1.1-2.4,2.4-2.4
				C6.3,361.2,7.3,362.3,7.3,363.6z"/>
			<path class="st12" d="M112.4,399.5c0,1.4-1.2,2.5-2.6,2.4c-1.4-0.1-2.4-1.1-2.3-2.5c0-1.4,1.2-2.5,2.6-2.4
				C111.4,397,112.4,398.1,112.4,399.5z"/>
			<path class="st12" d="M171.5,489.7c-1.4,0-2.5-1.1-2.5-2.5c0-1.4,1-2.4,2.4-2.5c1.4,0,2.5,1.1,2.5,2.5
				C173.9,488.6,172.8,489.6,171.5,489.7z"/>
			<path class="st12" d="M65.5,373.7c0,1.4-1,2.5-2.4,2.5c-1.5,0-2.6-1-2.6-2.5c0-1.4,1-2.4,2.4-2.4
				C64.4,371.3,65.5,372.3,65.5,373.7z"/>
			<path class="st12" d="M179.1,506.2c0.1-0.2,0.1-0.5,0.1-0.8c0-1.4-1-2.5-2.4-2.5c-1.4,0-2.5,1-2.5,2.4c0,0.3,0.1,0.6,0.1,0.9
				H179.1z"/>
			<path class="st12" d="M97.1,388c0,1.4-1,2.5-2.4,2.5c-1.4,0-2.5-1-2.5-2.4c0-1.4,1-2.5,2.4-2.5C96,385.6,97.1,386.7,97.1,388z"/>
			<path class="st12" d="M156.2,441.3c0,1.3-1.1,2.4-2.4,2.3c-1.3,0-2.4-1.1-2.3-2.4c0-1.3,1.1-2.4,2.4-2.3
				C155.1,438.9,156.2,440,156.2,441.3z"/>
			<path class="st12" d="M125.1,408.1c1.4,0,2.5,1,2.5,2.4c0,1.4-1,2.5-2.4,2.5c-1.3,0-2.4-1-2.4-2.3
				C122.7,409.2,123.7,408.1,125.1,408.1z"/>
			<path class="st12" d="M166,466.8c1.4,0,2.5,1,2.4,2.4c0,1.4-1.1,2.4-2.5,2.4c-1.3,0-2.3-1-2.4-2.4
				C163.6,467.9,164.6,466.9,166,466.8z"/>
			<path class="st12" d="M-3.4,359.8c-0.7,0-1.4,0.3-1.8,0.7v3.3c0.4,0.4,1,0.7,1.7,0.7c1.3,0,2.4-1,2.4-2.3
				C-1.1,360.9-2.1,359.8-3.4,359.8z"/>
			<path class="st12" d="M149.3,431.7c0,1.3-1.1,2.4-2.4,2.3c-1.3,0-2.4-1.1-2.3-2.4c0-1.3,1.1-2.4,2.4-2.3
				C148.2,429.3,149.3,430.4,149.3,431.7z"/>
			<path class="st12" d="M73.5,375.3c0,1.4-1.1,2.4-2.5,2.4c-1.4,0-2.4-1.2-2.3-2.5c0.1-1.3,1.1-2.3,2.4-2.3
				C72.5,372.9,73.6,373.9,73.5,375.3z"/>
			<path class="st12" d="M172.9,481.5c-1.3,0-2.4-1.1-2.4-2.4c0-1.3,1.1-2.4,2.4-2.4c1.2,0,2.3,1.1,2.3,2.3
				C175.3,480.3,174.2,481.5,172.9,481.5z"/>
			<path class="st12" d="M140,419.5c1.3,0,2.4,1.1,2.4,2.4c0,1.2-1.1,2.3-2.3,2.3c-1.3,0-2.4-1.1-2.4-2.4
				C137.7,420.6,138.8,419.5,140,419.5z"/>
			<path class="st12" d="M79.5,374.4c1.3,0,2.4,1.2,2.3,2.4c0,1.3-1.2,2.3-2.5,2.3c-1.2-0.1-2.2-1.2-2.2-2.4
				C77.1,375.5,78.3,374.4,79.5,374.4z"/>
			<path class="st12" d="M105.4,389.6c0,1.3-1.1,2.4-2.4,2.4c-1.2,0-2.3-1.1-2.3-2.3c0-1.3,1.1-2.4,2.4-2.4
				C104.3,387.3,105.4,388.4,105.4,389.6z"/>
			<path class="st12" d="M163,451c0,1.2-1,2.3-2.2,2.4c-1.2,0.1-2.4-1-2.5-2.3c0-1.3,1.1-2.4,2.4-2.4C161.9,448.8,163,449.8,163,451
				z"/>
			<path class="st12" d="M120.6,400.6c0,1.3-1.1,2.4-2.4,2.4c-1.2,0-2.3-1.1-2.3-2.3c0-1.3,1.1-2.4,2.4-2.4
				C119.5,398.3,120.6,399.4,120.6,400.6z"/>
			<path class="st12" d="M178.3,494.7c1.3,0,2.4,1.2,2.3,2.4c0,1.3-1.2,2.3-2.5,2.3c-1.2-0.1-2.2-1.2-2.2-2.4
				C175.9,495.7,177,494.6,178.3,494.7z"/>
			<path class="st12" d="M169.7,461c-0.1,1.2-1.1,2.2-2.4,2.1c-1.2-0.1-2.2-1.2-2.1-2.4c0.1-1.2,1.1-2.1,2.3-2.1
				C168.8,458.7,169.8,459.8,169.7,461z"/>
			<path class="st12" d="M135.7,412c0,1.2-1.1,2.2-2.3,2.2c-1.2,0-2.2-1.1-2.2-2.3c0.1-1.2,1-2.1,2.2-2.1
				C134.7,409.7,135.7,410.8,135.7,412z"/>
			<path class="st12" d="M33.3,359.7c0,1.2-0.9,2.2-2.1,2.2c-1.3,0-2.3-0.9-2.3-2.2c0-1.3,1-2.2,2.3-2.2
				C32.4,357.6,33.3,358.5,33.3,359.7z"/>
			<path class="st12" d="M41.7,361.3c0,1.3-1.1,2.2-2.3,2.1c-1.2-0.1-2.1-1-2.1-2.3c0-1.3,1.1-2.2,2.3-2.1
				C40.9,359.1,41.7,360.1,41.7,361.3z"/>
			<path class="st12" d="M50,362.7c0,1.2-0.9,2.2-2.1,2.2c-1.3,0-2.3-0.9-2.2-2.2c0-1.2,1-2.1,2.2-2.1C49.1,360.6,50,361.5,50,362.7
				z"/>
			<path class="st12" d="M22.7,356.1c1.2,0,2.2,0.9,2.2,2.1c0,1.3-0.9,2.3-2.2,2.3c-1.2,0-2.1-0.9-2.2-2.2
				C20.6,357.1,21.5,356.1,22.7,356.1z"/>
			<path class="st12" d="M87.8,376.1c1.3,0,2.2,1,2.2,2.3c0,1.2-1,2.1-2.2,2.1c-1.3,0-2.2-1-2.2-2.3C85.7,377,86.6,376.1,87.8,376.1
				z"/>
			<path class="st12" d="M111.3,389c1.2,0,2.2,0.9,2.2,2.1c0,1.2-0.9,2.2-2.1,2.2c-1.2,0-2.1-0.9-2.1-2
				C109.2,389.9,110.1,389,111.3,389z"/>
			<path class="st12" d="M14.4,354.6c1.2,0,2.2,0.9,2.2,2.1c0,1.2-0.9,2.2-2.1,2.2c-1.2,0-2.1-0.9-2.1-2
				C12.2,355.6,13.1,354.7,14.4,354.6z"/>
			<path class="st12" d="M54.1,364.1c0.1-1.2,1-2.1,2.3-2c1.2,0.1,2,1,2,2.2c0,1.2-1,2.1-2.2,2.1C54.9,366.3,54,365.4,54.1,364.1z"
				/>
			<path class="st12" d="M128.7,402.2c0,1.2-1,2.1-2.2,2.1c-1.1-0.1-2-1-2-2.1c0-1.2,1-2.1,2.2-2.1
				C127.9,400.1,128.8,401,128.7,402.2z"/>
			<path class="st12" d="M176.5,470.7c0,1.2-0.9,2.1-2,2.1c-1.2,0.1-2.2-0.9-2.2-2.1c0-1.2,0.9-2.2,2.2-2.1
				C175.6,468.7,176.5,469.6,176.5,470.7z"/>
			<path class="st12" d="M179.8,490.8c-1.2,0-2.2-0.9-2.2-2.1c0-1.2,0.9-2.2,2.1-2.2c1.2,0,2.1,0.9,2.1,2
				C181.9,489.8,181,490.8,179.8,490.8z"/>
			<path class="st12" d="M98.3,379.8c0,1.1-0.9,2.1-2.1,2.1c-1.2,0-2.2-1-2.1-2.2c0-1.1,1-2,2.1-2C97.4,377.7,98.3,378.6,98.3,379.8
				z"/>
			<path class="st12" d="M64.6,363.3c1.1,0,2,1,2,2.1c0,1.2-1,2.1-2.2,2.1c-1.1-0.1-2-1.1-2-2.2C62.5,364.2,63.5,363.3,64.6,363.3z"
				/>
			<path class="st12" d="M187.1,506.2c-0.3-0.8-1-1.4-1.9-1.4c-0.9,0-1.7,0.6-2,1.4H187.1z"/>
			<path class="st12" d="M157.4,433.2c0,1.1-1,2.1-2.1,2c-1.1,0-2.1-1-2-2.1c0-1.1,1-2.1,2.1-2C156.4,431.1,157.4,432.1,157.4,433.2
				z"/>
			<path class="st12" d="M8.5,355.3c0,1.1-1,2.1-2.1,2c-1.2,0-2.1-1-2.1-2.2c0.1-1.1,1-2,2.2-2C7.6,353.2,8.5,354.2,8.5,355.3z"/>
			<path class="st12" d="M143.6,413.4c0,1.1-0.9,2-2,2c-1.1,0-2-0.9-2-2c0-1.1,0.9-2,2-2C142.6,411.4,143.5,412.4,143.6,413.4z"/>
			<path class="st12" d="M150.5,423.3c0,1.1-0.9,2.1-2,2.1c-1.1,0-2.1-1-2.1-2.1c0.1-1.2,0.8-1.9,2-2
				C149.4,421.1,150.4,422.1,150.5,423.3z"/>
			<path class="st12" d="M162.1,444.8c-1.1,0-2.1-1-2-2.1c0-1.1,1.1-2.1,2.2-2c1.2,0.1,1.9,0.8,1.9,2.1
				C164.2,443.8,163.2,444.8,162.1,444.8z"/>
			<path class="st12" d="M0.1,353.8c0,1.1-0.9,2-2,2c-1.1,0-2.1-1-2.1-2.1c0-1.1,1-2,2.1-2C-0.9,351.8,0.1,352.7,0.1,353.8z"/>
			<path class="st12" d="M74.7,366.9c0,1.1-1,2.1-2.1,2.1c-1.1,0-2-0.9-2-2c0-1.1,1-2.1,2.1-2.1C73.7,364.9,74.6,365.8,74.7,366.9z"
				/>
			<path class="st12" d="M171,452.6c0,1.1-1,2-2,2c-1.1,0-2-1-2-2c0-1.1,1-2,2-2C170.1,450.6,171,451.5,171,452.6z"/>
			<path class="st12" d="M186.6,496.6c1.2,0.1,2,1,1.9,2.1c-0.2,1.2-0.9,1.8-2,1.7c-1.1,0-1.9-1-1.8-2.1
				C184.8,497.2,185.6,496.6,186.6,496.6z"/>
			<path class="st12" d="M181.2,482.6c-1.1,0-2-1-1.9-2.1c0.1-1.1,1-2,2.1-1.9c1.1,0.1,1.8,0.8,1.8,2
				C183.2,481.7,182.3,482.6,181.2,482.6z"/>
			<path class="st12" d="M119.7,390.6c1.1,0,2,0.9,2,1.9c0,1.1-0.9,2.1-2,2c-1.1-0.1-1.8-0.7-2-1.9
				C117.7,391.6,118.6,390.6,119.7,390.6z"/>
			<path class="st12" d="M104.5,379.3c1.2,0,2.1,0.9,2,2c-0.1,1.2-0.8,1.8-1.9,1.8c-1.1,0-2-0.9-1.9-2
				C102.7,380,103.4,379.4,104.5,379.3z"/>
			<path class="st12" d="M82.9,368.4c-0.1,1.1-0.7,1.8-1.8,1.9c-1.1,0.1-2-0.8-2-1.9c0.1-1.2,0.7-1.8,1.9-1.8
				C82.2,366.5,82.8,367.2,82.9,368.4z"/>
			<path class="st12" d="M89.2,368.1c1.1,0.1,1.8,0.6,1.9,1.7c0,1.1-0.6,1.8-1.7,1.8c-1.1,0-1.8-0.6-1.8-1.7
				C87.5,368.9,88.2,368.3,89.2,368.1z"/>
			<path class="st12" d="M174,462.4c0.1-1.2,0.9-2,2-1.9c1.2,0.1,1.8,0.9,1.7,2c-0.1,1.1-0.8,1.7-1.9,1.6
				C174.6,464.2,174,463.4,174,462.4z"/>
			<path class="st12" d="M134.7,401.8c1.2,0.1,1.8,0.7,1.8,1.9c0,1.2-0.8,1.8-1.9,1.8c-1.1,0-1.7-0.7-1.7-1.8
				C132.9,402.4,133.6,401.9,134.7,401.8z"/>
			<path class="st12" d="M184.7,472.6c-0.7,0.4-1.3,1.2-2,1.3c-1,0.1-1.7-0.7-1.6-1.7c0-1,0.7-1.8,1.7-1.6c0.7,0.1,1.3,0.9,1.9,1.3
				C184.7,472.2,184.7,472.4,184.7,472.6z"/>
			<path class="st12" d="M190.1,490.5c-0.6,0.5-1.2,1.2-2,1.4c-0.9,0.3-1.9-0.8-1.8-1.8c0.1-1,0.8-1.8,1.8-1.6
				c0.7,0.1,1.3,0.9,2,1.3C190.1,490,190.1,490.3,190.1,490.5z"/>
			<path class="st12" d="M114.9,383.1c-0.6,0.5-1.2,1.2-2,1.4c-0.9,0.3-1.9-0.8-1.8-1.8c0.1-1,0.8-1.8,1.8-1.6
				c0.7,0.1,1.3,0.9,2,1.3C114.9,382.6,114.9,382.8,114.9,383.1z"/>
			<path class="st12" d="M26.3,350.3c-0.7,0.4-1.3,1.1-2,1.3c-0.9,0.2-1.8-0.9-1.7-1.8c0.1-1,0.8-1.8,1.8-1.5
				c0.7,0.2,1.3,0.9,1.9,1.4C26.3,349.9,26.3,350.1,26.3,350.3z"/>
			<path class="st12" d="M165.6,434.9c-0.6,0.5-1.2,1.2-1.9,1.4c-0.9,0.3-1.9-0.8-1.8-1.7c0.1-1,0.7-1.8,1.7-1.7
				c0.7,0.1,1.3,0.8,2,1.3C165.6,434.5,165.6,434.7,165.6,434.9z"/>
			<path class="st12" d="M42.8,352.4c-0.2,1.5-0.7,2.3-1.9,2.3c-1,0-1.7-0.7-1.7-1.7c0-1.1,0.7-1.9,1.8-1.7
				C41.7,351.3,42.3,352,42.8,352.4z"/>
			<path class="st12" d="M158.8,425.2c-0.7,0.5-1.3,1.1-2,1.3c-0.9,0.2-1.8-0.9-1.7-1.8c0.1-1,0.8-1.8,1.8-1.6
				c0.7,0.1,1.3,0.9,1.9,1.4C158.8,424.7,158.8,425,158.8,425.2z"/>
			<path class="st12" d="M127.8,396c-0.5-0.6-1.2-1.2-1.3-1.9c-0.2-1,0.6-1.7,1.6-1.7c1,0,1.8,0.7,1.7,1.6c-0.1,0.7-0.8,1.3-1.3,2
				C128.3,396,128,396,127.8,396z"/>
			<path class="st12" d="M51.3,354.7c-0.7,0.5-1.2,1.1-2,1.3c-0.9,0.2-1.9-0.8-1.7-1.8c0.1-1,0.8-1.8,1.8-1.6c0.7,0.1,1.3,0.9,2,1.4
				C51.3,354.3,51.3,354.5,51.3,354.7z"/>
			<path class="st12" d="M32.1,349.6c1.5,0.2,2.3,0.8,2.2,1.9c0,1-0.7,1.7-1.7,1.7c-1.1,0-1.9-0.7-1.7-1.8
				C31,350.7,31.8,350.1,32.1,349.6z"/>
			<path class="st12" d="M151.8,415.2c-0.6,0.5-1.2,1.2-1.9,1.3c-1,0.2-1.8-0.6-1.6-1.6c0.1-0.6,0.9-1.5,1.5-1.6
				c0.6-0.1,1.3,0.7,2,1.1C151.8,414.8,151.8,415,151.8,415.2z"/>
			<path class="st12" d="M57.4,357.8c-0.4-0.7-1.2-1.3-1.3-2c-0.1-1,0.7-1.8,1.7-1.6c0.6,0.1,1.5,1,1.5,1.6c0,0.6-0.8,1.3-1.2,2
				C57.8,357.8,57.6,357.8,57.4,357.8z"/>
			<path class="st12" d="M17.8,348.8c-0.7,0.4-1.3,1.1-2,1.2c-1,0.1-1.8-0.7-1.5-1.7c0.2-0.6,1-1.5,1.6-1.5c0.6,0,1.3,0.8,1.9,1.3
				C17.9,348.3,17.8,348.6,17.8,348.8z"/>
			<path class="st12" d="M172.4,444.6c-0.7,0.4-1.4,1.2-2,1.1c-0.6,0-1.4-1-1.5-1.6c-0.2-1,0.7-1.7,1.7-1.5c0.7,0.1,1.2,0.8,1.8,1.3
				C172.4,444.2,172.4,444.4,172.4,444.6z"/>
			<path class="st12" d="M98.1,369.6c0.4,0.6,1,1.2,1.1,1.9c0.1,1-0.6,1.5-1.6,1.5c-1,0-1.7-0.7-1.5-1.6c0.1-0.7,0.8-1.2,1.3-1.8
				C97.7,369.6,97.9,369.6,98.1,369.6z"/>
			<path class="st12" d="M179.1,454.5c-0.6,0.4-1.1,1-1.8,1.1c-1,0.1-1.6-0.5-1.5-1.5c0-1,0.7-1.6,1.6-1.4c0.6,0.1,1.1,0.8,1.7,1.2
				C179.1,454,179.1,454.2,179.1,454.5z"/>
			<path class="st12" d="M143.4,403.3c0.4,0.6,1,1.1,1.1,1.7c0.2,1-0.5,1.6-1.5,1.6c-1,0-1.7-0.6-1.5-1.6c0.1-0.6,0.7-1.1,1.1-1.7
				C142.9,403.3,143.2,403.3,143.4,403.3z"/>
			<path class="st12" d="M7.5,348.7c-0.4-0.6-1-1.1-1.1-1.7c-0.2-1,0.5-1.6,1.5-1.5c1,0,1.6,0.7,1.4,1.6c-0.1,0.6-0.8,1.1-1.2,1.7
				C7.9,348.7,7.7,348.7,7.5,348.7z"/>
			<path class="st12" d="M67.6,357.7c-0.6,0.4-1.2,1.1-1.8,1.2c-1,0.2-1.6-0.5-1.6-1.5c0-1,0.6-1.7,1.6-1.5c0.7,0.1,1.2,0.8,1.8,1.2
				C67.6,357.2,67.6,357.5,67.6,357.7z"/>
			<path class="st12" d="M75.9,359.1c-0.6,0.4-1.2,1.2-1.7,1.1c-0.6,0-1-0.9-1.6-1.3c0.5-0.5,0.9-1.4,1.5-1.5c0.5-0.1,1.2,0.6,1.8,1
				C75.8,358.7,75.8,358.9,75.9,359.1z"/>
			<path class="st12" d="M191.3,482.2c-0.6,0.4-1.2,1-1.8,1c-0.5,0-1.4-0.9-1.3-1.3c0.1-0.6,0.8-1.4,1.4-1.4
				c0.5-0.1,1.1,0.7,1.7,1.1C191.3,481.7,191.3,482,191.3,482.2z"/>
			<path class="st12" d="M195,502.1c-0.7-1-1.4-1.5-1.4-2c0-0.5,0.8-1,1.3-1.5c0.5,0.5,1.3,0.9,1.4,1.4
				C196.4,500.5,195.7,501.1,195,502.1z"/>
			<path class="st12" d="M1.6,345.5c-1,0.7-1.6,1.4-2,1.3c-0.6-0.1-1-0.9-1.5-1.4c0.5-0.5,1-1.2,1.5-1.3
				C0.1,344,0.6,344.8,1.6,345.5z"/>
			<path class="st12" d="M123.3,384.3c-1,0.6-1.6,1.4-2.1,1.3c-0.6-0.1-1-1-1.4-1.5c0.5-0.4,1-1.2,1.6-1.2
				C121.9,382.8,122.4,383.6,123.3,384.3z"/>
			<path class="st12" d="M107.6,373.2c-0.6,0.3-1.2,1-1.6,1c-0.5-0.1-1.2-0.9-1.2-1.4c0-0.4,0.8-1.2,1.3-1.2c0.5,0,1.1,0.7,1.6,1
				C107.6,372.8,107.6,373,107.6,373.2z"/>
			<path class="st12" d="M82.5,362c-0.6-0.8-1.3-1.3-1.3-1.8c0-0.5,0.7-1,1.1-1.4c0.5,0.4,1.2,0.8,1.4,1.4
				C83.8,360.5,83.1,361.1,82.5,362z"/>
			<path class="st12" d="M184.5,462.3c0.4,0.5,1.1,1.1,1.1,1.6c-0.1,0.5-0.8,1.2-1.3,1.3c-0.4,0.1-1.2-0.7-1.3-1.2
				c0-0.5,0.6-1.1,0.9-1.7C184.1,462.3,184.3,462.3,184.5,462.3z"/>
			<path class="st12" d="M135.9,396.9c-0.4-0.5-1.1-1.1-1-1.6c0.1-0.5,0.8-1.2,1.4-1.3c0.4-0.1,1.2,0.8,1.2,1.2c0,0.5-0.6,1.1-1,1.6
				C136.3,396.9,136.1,396.9,135.9,396.9z"/>
			<path class="st12" d="M90.8,359.9c0.6,0.8,1.2,1.2,1.1,1.6c0,0.4-0.7,0.8-1,1.2c-0.4-0.4-1-0.7-1.1-1.1
				C89.7,361.2,90.3,360.7,90.8,359.9z"/>
			<path class="st12" d="M173.8,435.9c-0.9,0.6-1.4,1.2-1.8,1.1c-0.4-0.1-1-0.7-1.1-1.2c0-0.3,0.7-1,1.1-1
				C172.4,434.7,172.9,435.3,173.8,435.9z"/>
			<path class="st12" d="M129.3,387.4c-0.5-0.8-1.1-1.3-1-1.7c0.1-0.4,0.7-0.8,1.1-1.1c0.4,0.4,1,0.8,1,1.2
				C130.4,386.2,129.8,386.6,129.3,387.4z"/>
			<path class="st12" d="M160.1,416.4c-0.9,0.6-1.4,1.2-1.8,1.2c-0.4-0.1-1-0.7-1.1-1.2c-0.1-0.3,0.7-1,1.1-1.1
				C158.7,415.3,159.2,415.9,160.1,416.4z"/>
			<path class="st12" d="M165,424.5c0.6,0.8,1.3,1.3,1.2,1.7c-0.1,0.5-0.7,0.9-1.2,1.3c-0.4-0.4-1.1-0.8-1.1-1.2
				C163.9,425.9,164.5,425.4,165,424.5z"/>
			<path class="st12" d="M42.4,346c-0.5-0.7-1-1.2-0.9-1.5c0.1-0.4,0.7-0.7,1.1-1.1c0.3,0.4,0.9,0.7,0.9,1.1
				C43.5,345,42.9,345.4,42.4,346z"/>
			<path class="st12" d="M151.3,408.2c-0.5-0.8-1-1.3-0.9-1.7c0.1-0.4,0.7-0.9,1.2-0.9c0.3,0,0.9,0.7,0.9,1
				C152.4,407.1,151.9,407.5,151.3,408.2z"/>
			<path class="st12" d="M198.1,491.6c-0.8,0.6-1.2,1.2-1.6,1.1c-0.4,0-1-0.6-1.1-1.1c-0.1-0.3,0.6-1,0.9-1
				C196.8,490.6,197.3,491.1,198.1,491.6z"/>
			<path class="st12" d="M116,374.4c-0.8,0.5-1.3,1.1-1.7,1c-0.4-0.1-0.9-0.7-1-1.2c0-0.3,0.7-0.9,1-0.9
				C114.8,373.3,115.2,373.9,116,374.4z"/>
			<path class="st12" d="M189.5,473.8c0.8-0.6,1.2-1.1,1.6-1.1c0.4,0,1.1,0.6,1.1,0.9c0,0.4-0.5,1.1-0.9,1.2
				C190.8,474.9,190.3,474.3,189.5,473.8z"/>
			<path class="st12" d="M180.5,445.7c-0.8,0.5-1.2,1.1-1.6,1.1c-0.4-0.1-0.9-0.7-1-1.1c-0.1-0.3,0.6-1,1-1
				C179.2,444.6,179.7,445.2,180.5,445.7z"/>
			<path class="st12" d="M35.6,343.1c-0.7,0.4-1.2,1-1.5,0.9c-0.4-0.1-0.7-0.7-1-1.1c0.4-0.3,0.8-0.8,1.1-0.8
				C34.6,342.1,35,342.6,35.6,343.1z"/>
			<path class="st12" d="M18.7,340c-0.6,0.5-1,1-1.3,0.9c-0.3,0-0.8-0.5-0.9-0.9c-0.1-0.2,0.5-0.8,0.7-0.8
				C17.7,339.2,18.1,339.6,18.7,340z"/>
			<path class="st12" d="M52.3,346.1c-0.7,0.4-1.1,0.8-1.5,0.8c-0.3,0-0.9-0.7-0.8-0.9c0.1-0.4,0.6-0.8,1-0.9
				C51.2,345.1,51.6,345.6,52.3,346.1z"/>
			<path class="st12" d="M145.9,396.7c-0.6,0.4-1,0.9-1.3,0.9c-0.3,0-0.9-0.5-0.8-0.7c0.1-0.4,0.5-0.9,0.8-0.9
				C144.8,395.9,145.2,396.3,145.9,396.7z"/>
			<path class="st12" d="M99.2,364.3c-0.4-0.5-0.9-0.9-0.9-1.1c0.1-0.4,0.5-0.6,0.8-1c0.3,0.3,0.8,0.6,0.8,0.9
				C100,363.3,99.6,363.7,99.2,364.3z"/>
			<path class="st12" d="M59.2,346.2c0.5,0.6,0.9,1,0.9,1.3c0,0.3-0.5,0.9-0.8,0.9c-0.3,0-0.8-0.5-0.9-0.8
				C58.3,347.2,58.7,346.8,59.2,346.2z"/>
			<path class="st12" d="M187,455.5c-0.6,0.5-1,0.9-1.3,0.9c-0.3,0-0.8-0.5-0.9-0.9c-0.1-0.2,0.5-0.8,0.8-0.8
				C186,454.7,186.4,455.1,187,455.5z"/>
			<path class="st12" d="M68.5,349.1c-0.6,0.4-1,0.8-1.2,0.8c-0.4-0.1-0.6-0.6-0.9-0.9c0.3-0.3,0.6-0.7,0.9-0.7
				C67.6,348.2,67.9,348.6,68.5,349.1z"/>
			<path class="st12" d="M27.2,341.5c-0.7,0.5-1.1,0.9-1.4,0.9c-0.3,0-0.6-0.6-1-0.9c0.3-0.3,0.6-0.9,1-1
				C26.1,340.6,26.5,341.1,27.2,341.5z"/>
		</g>
		<circle class="st13" cx="55.2" cy="199.5" r="2.7"/>
		<circle class="st13" cx="563.5" cy="158.6" r="4.6"/>
		<path class="st14" d="M658.2,86.6c0,1.3-1,2.3-2.3,2.3c-1.3,0-2.3-1-2.3-2.3c0-1.3,1-2.3,2.3-2.3
			C657.1,84.3,658.2,85.3,658.2,86.6z"/>
		<circle class="st13" cx="427.1" cy="116.5" r="2.3"/>
		<circle class="st13" cx="472.9" cy="467.6" r="2.3"/>
		<circle class="st14" cx="236.1" cy="304.5" r="2.3"/>
		<path class="st14" d="M713.2,372.1c0,1.3-1,2.3-2.3,2.3c-1.3,0-2.3-1-2.3-2.3c0-1.3,1-2.3,2.3-2.3
			C712.2,369.8,713.2,370.8,713.2,372.1z"/>
		<path class="st13" d="M276,439.4c0,1.7-1.4,3.1-3.1,3.1c-1.7,0-3.1-1.4-3.1-3.1c0-1.7,1.4-3.1,3.1-3.1
			C274.6,436.3,276,437.7,276,439.4z"/>
		<g class="st1">
			<rect x="220.9" y="158.6" class="st9" width="2.7" height="9.2"/>
			
				<rect x="220.9" y="158.6" transform="matrix(-1.836970e-16 1 -1 -1.836970e-16 385.4298 -59.0394)" class="st9" width="2.7" height="9.2"/>
		</g>
		<g class="st1">
			<rect x="531.8" y="437.9" class="st11" width="2.7" height="9.2"/>
			
				<rect x="531.8" y="437.9" transform="matrix(-1.836970e-16 1 -1 -1.836970e-16 975.7087 -90.6343)" class="st11" width="2.7" height="9.2"/>
		</g>
		<g class="st1">
			<rect x="108" y="435.6" class="st11" width="4.9" height="16.7"/>
			
				<rect x="108" y="435.6" transform="matrix(-1.836970e-16 1 -1 -1.836970e-16 554.358 333.4539)" class="st11" width="4.9" height="16.7"/>
		</g>
		<line class="st10" x1="542.1" y1="352.7" x2="503.4" y2="391.4"/>
		<line class="st15" x1="230.2" y1="388.4" x2="192.6" y2="425.9"/>
		<circle class="st10" cx="112.9" cy="327.9" r="71.7"/>
		<rect class="st16" width="750" height="500"/>
	</g>
</g>
</svg>
