<?xml version="1.0" encoding="utf-8"?>
<!-- Generator: Adobe Illustrator 25.0.1, SVG Export Plug-In . SVG Version: 6.00 Build 0)  -->
<svg version="1.1" xmlns="http://www.w3.org/2000/svg" xmlns:xlink="http://www.w3.org/1999/xlink" x="0px" y="0px"
	 viewBox="0 0 750 500" style="enable-background:new 0 0 750 500;" xml:space="preserve">
<style type="text/css">
	.st0{clip-path:url(#SVGID_2_);fill:#001137;}
	.st1{clip-path:url(#SVGID_2_);}
	.st2{fill:url(#SVGID_3_);}
	.st3{fill:url(#SVGID_4_);}
	.st4{fill:url(#SVGID_5_);}
	.st5{fill:url(#SVGID_6_);}
	.st6{fill:url(#SVGID_7_);}
	.st7{fill:url(#SVGID_8_);}
	.st8{fill:url(#SVGID_9_);}
	.st9{fill:#EA227A;}
	.st10{clip-path:url(#SVGID_2_);fill:none;stroke:#EA227A;stroke-miterlimit:10;}
	.st11{fill:#FFFFFF;}
	.st12{fill:#00255B;}
	.st13{clip-path:url(#SVGID_2_);fill:#FFFFFF;}
	.st14{clip-path:url(#SVGID_2_);fill:#EA227A;}
	.st15{clip-path:url(#SVGID_2_);fill:none;stroke:#FFFFFF;stroke-miterlimit:10;}
	.st16{clip-path:url(#SVGID_2_);fill:none;}
</style>
<g id="BACKGROUND">
</g>
<g id="OBJECTS">
	<g>
		<defs>
			<rect id="SVGID_1_" width="750" height="500"/>
		</defs>
		<clipPath id="SVGID_2_">
			<use xlink:href="#SVGID_1_"  style="overflow:visible;"/>
		</clipPath>
		<rect class="st0" width="750" height="500"/>
		<g class="st1">
			
				<linearGradient id="SVGID_3_" gradientUnits="userSpaceOnUse" x1="533.4023" y1="-472.0781" x2="82.9247" y2="319.8499" gradientTransform="matrix(1 0 0 -1 0 500)">
				<stop  offset="0" style="stop-color:#000000;stop-opacity:0"/>
				<stop  offset="0.1903" style="stop-color:#000204;stop-opacity:0.1903"/>
				<stop  offset="0.3617" style="stop-color:#00060F;stop-opacity:0.3617"/>
				<stop  offset="0.5258" style="stop-color:#000F21;stop-opacity:0.5258"/>
				<stop  offset="0.6854" style="stop-color:#001A3B;stop-opacity:0.6854"/>
				<stop  offset="0.8418" style="stop-color:#00295C;stop-opacity:0.8418"/>
				<stop  offset="0.9938" style="stop-color:#003B84;stop-opacity:0.9938"/>
				<stop  offset="1" style="stop-color:#003C86"/>
			</linearGradient>
			<path class="st2" d="M-5.2,505.5v-219c30.3-4.3,61.6-2.7,91.5,3.7c50.5,10.7,97.5,34.2,140.8,62.3c60.3,39.1,116,88.4,184.9,109
				c33.7,10.1,69.6,12.9,101.8,27.1c9.7,4.3,19.1,10,27.4,16.8H-5.2z"/>
		</g>
		<g class="st1">
			<g>
				<linearGradient id="SVGID_4_" gradientUnits="userSpaceOnUse" x1="274.6912" y1="340.3675" x2="239.5463" y2="402.1513">
					<stop  offset="0" style="stop-color:#000000;stop-opacity:0"/>
					<stop  offset="1.811987e-02" style="stop-color:#000205;stop-opacity:1.811987e-02"/>
					<stop  offset="0.1641" style="stop-color:#00142D;stop-opacity:0.1641"/>
					<stop  offset="0.3152" style="stop-color:#00224D;stop-opacity:0.3152"/>
					<stop  offset="0.4706" style="stop-color:#002E66;stop-opacity:0.4706"/>
					<stop  offset="0.6319" style="stop-color:#003678;stop-opacity:0.6319"/>
					<stop  offset="0.8029" style="stop-color:#003A83;stop-opacity:0.8029"/>
					<stop  offset="1" style="stop-color:#003C86"/>
				</linearGradient>
				<path class="st3" d="M2.2,267.6c18.9-5,38.1-8.2,57.7-8.4c18.9-0.2,37.8,2.2,56.2,6.8c18,4.4,35.1,11,52.2,18.2
					c16.2,6.8,31.9,14.6,47,23.4c30.1,17.5,57.8,39,83,63c3.3,3.2,6.4,6.7,10,9.6c3.7,3.1,7.5,6,11.2,9c1.9,1.5,3.4,2.9,4.8,4.9
					c1.2,1.7,2.9,3,4.5,4.4c3.8,3.2,7.6,6.5,11.4,9.7c14.8,12.6,29.7,25,44.8,37.2c7,5.7,15.2,10.3,23,14.9
					c8.2,4.8,16.5,9.7,24.9,14.1c16.6,8.7,34.7,14.1,52.5,19.7c4.7,1.4,9.3,2.9,13.9,4.4c0.8,0.2,1.1-1,0.3-1.2
					c-18.8-6.1-38-11.3-56.2-19.2c-8.6-3.8-16.7-8.5-24.9-13.2c-8.2-4.7-16.4-9.2-24.3-14.4c-8.5-5.5-16.1-12.1-23.9-18.5
					c-7.4-6.1-14.8-12.3-22.2-18.5c-3.7-3.2-7.5-6.3-11.2-9.5c-1.8-1.6-3.7-3.1-5.5-4.7c-2-1.7-4.4-3.3-6-5.4
					c-1.1-1.5-1.9-2.8-3.4-4c-2-1.6-4-3.2-6-4.8c-3.8-3-7.5-5.9-10.9-9.3c-24.7-24.3-51.9-46.2-81.6-64.4
					c-14.8-9.1-30.2-17.3-46.1-24.4c-16.5-7.4-33.4-14.2-50.8-19.3c-17.8-5.2-36.1-8.5-54.7-9.4c-18.9-0.9-37.9,0.9-56.4,4.9
					c-4.7,1-9.3,2.2-13.9,3.4C1.1,266.6,1.4,267.8,2.2,267.6L2.2,267.6z"/>
			</g>
		</g>
		<g class="st1">
			<g>
				<linearGradient id="SVGID_5_" gradientUnits="userSpaceOnUse" x1="726.183" y1="23.2283" x2="709.4376" y2="52.6664">
					<stop  offset="0" style="stop-color:#000000;stop-opacity:0"/>
					<stop  offset="1.811987e-02" style="stop-color:#000205;stop-opacity:1.811987e-02"/>
					<stop  offset="0.1641" style="stop-color:#00142D;stop-opacity:0.1641"/>
					<stop  offset="0.3152" style="stop-color:#00224D;stop-opacity:0.3152"/>
					<stop  offset="0.4706" style="stop-color:#002E66;stop-opacity:0.4706"/>
					<stop  offset="0.6319" style="stop-color:#003678;stop-opacity:0.6319"/>
					<stop  offset="0.8029" style="stop-color:#003A83;stop-opacity:0.8029"/>
					<stop  offset="1" style="stop-color:#003C86"/>
				</linearGradient>
				<path class="st4" d="M749.9,74.8c-8.5-9.8-16.4-20-24.6-30.1c-3.9-4.9-7.8-10-12.2-14.5c-4.4-4.5-8.6-9.1-12.7-13.9
					c-4.7-5.3-9.2-10.8-13.8-16.2c-0.5-0.6-1.4,0.3-0.9,0.9c8.1,9.6,16.1,19.3,24.8,28.4c8.8,9.1,16.4,19.4,24.3,29.2
					c4.6,5.8,9.3,11.5,14.1,17.1C749.5,76.3,750.4,75.4,749.9,74.8L749.9,74.8z"/>
			</g>
		</g>
		<g class="st1">
			<g>
				<linearGradient id="SVGID_6_" gradientUnits="userSpaceOnUse" x1="553.6022" y1="125.7504" x2="506.8508" y2="207.9382">
					<stop  offset="0" style="stop-color:#000000;stop-opacity:0"/>
					<stop  offset="1.811987e-02" style="stop-color:#000205;stop-opacity:1.811987e-02"/>
					<stop  offset="0.1641" style="stop-color:#00142D;stop-opacity:0.1641"/>
					<stop  offset="0.3152" style="stop-color:#00224D;stop-opacity:0.3152"/>
					<stop  offset="0.4706" style="stop-color:#002E66;stop-opacity:0.4706"/>
					<stop  offset="0.6319" style="stop-color:#003678;stop-opacity:0.6319"/>
					<stop  offset="0.8029" style="stop-color:#003A83;stop-opacity:0.8029"/>
					<stop  offset="1" style="stop-color:#003C86"/>
				</linearGradient>
				<path class="st5" d="M332.6,0.5c3.1,33.5,14.6,65.8,33,93.9c4.7,7.1,9.7,14.2,15.4,20.5c2.9,3.2,5.2,6.7,8.1,9.9
					c2.9,3.2,5.9,6.3,9,9.3c11.8,12,24.3,23.3,38.4,32.6c3.7,2.4,7.4,4.6,11.3,6.7c1,0.6,1.9,1.1,2.8,1.9c0.7,0.6,1.3,1.5,2.1,2
					c1.8,1.4,4,2.4,6,3.5c7.8,4.5,15.7,8.8,23.8,12.8c15.8,7.9,32.1,14.9,48.7,21.2c16.5,6.3,33.2,11.8,50.1,17
					c8.7,2.7,17.4,5.3,26.1,7.8c8.9,2.6,17.9,4.9,26.9,7.4c4.5,1.3,8.9,2.7,13.3,4.3c2.3,0.8,4.5,1.8,6.8,2.6
					c1.7,0.6,3.5,0.2,5.2,0.3c2.5,0.2,5.1,1.7,7.5,2.6c2.3,0.9,4.5,1.7,6.8,2.6c4.6,1.8,9.3,3.6,13.9,5.4c9.2,3.6,18.6,6.8,27.6,11
					c8.4,3.9,16.5,8.4,24.6,13.1c3.3,1.9,5.5,5,9.3,6.1c0.8,0.2,1.1-1,0.3-1.2c-2.1-0.7-3.8-1.9-5.5-3.4c-1.5-1.4-3.1-2.3-4.9-3.4
					c-4.1-2.3-8.2-4.6-12.3-6.8c-8-4.3-16.2-8-24.7-11.2c-8.9-3.4-17.8-6.9-26.8-10.3c-4.6-1.8-9.1-3.5-13.7-5.2
					c-1.7-0.6-3.2-0.4-5-0.5c-2.6-0.1-5.2-1.6-7.6-2.5c-8.6-3.2-17.4-5.6-26.3-7.9c-8.8-2.2-17.4-5-26.1-7.5
					c-17-5.1-33.9-10.4-50.6-16.3c-16.5-5.9-32.9-12.3-48.8-19.6c-8.1-3.7-16.1-7.7-23.9-11.9c-4-2.1-7.9-4.3-11.9-6.6
					c-1.9-1.1-3.7-2.2-5.6-3.3c-1.2-0.7-2.2-1.4-3.2-2.3c-0.7-0.7-1.3-1.5-2.1-2.1c-1.5-1.2-3.6-2-5.3-2.9c-1.9-1.1-3.9-2.3-5.8-3.5
					c-3.6-2.3-7-4.6-10.4-7.2c-6.8-5-13.2-10.6-19.4-16.4c-6.2-5.8-12.1-11.9-17.9-18c-3-3.1-5.4-6.6-8.2-9.8
					c-2.9-3.5-5.8-6.8-8.5-10.4c-20.2-27-33.9-58.6-39.2-91.9c-0.7-4.3-1.2-8.6-1.6-12.9C333.8-0.3,332.6-0.3,332.6,0.5L332.6,0.5z"
					/>
			</g>
		</g>
		<g class="st1">
			
				<linearGradient id="SVGID_7_" gradientUnits="userSpaceOnUse" x1="419.217" y1="-331.1241" x2="102.0602" y2="226.4295" gradientTransform="matrix(1 0 0 -1 0 500)">
				<stop  offset="0" style="stop-color:#000000;stop-opacity:0"/>
				<stop  offset="0.1903" style="stop-color:#000204;stop-opacity:0.1903"/>
				<stop  offset="0.3617" style="stop-color:#00060F;stop-opacity:0.3617"/>
				<stop  offset="0.5258" style="stop-color:#000F21;stop-opacity:0.5258"/>
				<stop  offset="0.6854" style="stop-color:#001A3B;stop-opacity:0.6854"/>
				<stop  offset="0.8418" style="stop-color:#00295C;stop-opacity:0.8418"/>
				<stop  offset="0.9938" style="stop-color:#003B84;stop-opacity:0.9938"/>
				<stop  offset="1" style="stop-color:#003C86"/>
			</linearGradient>
			<path class="st6" d="M-5.2,505.5V367c10-9.8,21.7-17.9,34.4-23.9c32.8-15.5,71.1-17.4,106.6-9.9c35.5,7.6,68.6,24.1,99.1,43.9
				c42.4,27.5,81.7,62.2,130.2,76.8c23.7,7.1,49,9.1,71.7,19.1c15.1,6.6,29.2,18.2,36.4,32.6H-5.2z"/>
		</g>
		<g class="st1">
			
				<linearGradient id="SVGID_8_" gradientUnits="userSpaceOnUse" x1="994.3774" y1="-170.8736" x2="394.7482" y2="883.2593" gradientTransform="matrix(-1 0 0 1 1086.7572 -463.6127)">
				<stop  offset="0" style="stop-color:#000000;stop-opacity:0"/>
				<stop  offset="0.1903" style="stop-color:#000204;stop-opacity:0.1903"/>
				<stop  offset="0.3617" style="stop-color:#00060F;stop-opacity:0.3617"/>
				<stop  offset="0.5258" style="stop-color:#000F21;stop-opacity:0.5258"/>
				<stop  offset="0.6854" style="stop-color:#001A3B;stop-opacity:0.6854"/>
				<stop  offset="0.8418" style="stop-color:#00295C;stop-opacity:0.8418"/>
				<stop  offset="0.9938" style="stop-color:#003B84;stop-opacity:0.9938"/>
				<stop  offset="1" style="stop-color:#003C86"/>
			</linearGradient>
			<path class="st7" d="M756.2,264.9c-14.4-1.4-28.7-3.6-42.8-6.6c-67.2-14.3-129.8-45.5-187.4-82.9
				C445.7,123.3,371.5,57.7,279.8,30.3C235,16.9,187.2,13.1,144.4-5.8c-0.3-0.1-0.7-0.3-1-0.4h612.8V264.9z"/>
		</g>
		<g class="st1">
			
				<linearGradient id="SVGID_9_" gradientUnits="userSpaceOnUse" x1="924.1152" y1="-92.4341" x2="415.1696" y2="802.2792" gradientTransform="matrix(-1 0 0 1 1086.7572 -463.6127)">
				<stop  offset="0" style="stop-color:#000000;stop-opacity:0"/>
				<stop  offset="0.1903" style="stop-color:#000204;stop-opacity:0.1903"/>
				<stop  offset="0.3617" style="stop-color:#00060F;stop-opacity:0.3617"/>
				<stop  offset="0.5258" style="stop-color:#000F21;stop-opacity:0.5258"/>
				<stop  offset="0.6854" style="stop-color:#001A3B;stop-opacity:0.6854"/>
				<stop  offset="0.8418" style="stop-color:#00295C;stop-opacity:0.8418"/>
				<stop  offset="0.9938" style="stop-color:#003B84;stop-opacity:0.9938"/>
				<stop  offset="1" style="stop-color:#003C86"/>
			</linearGradient>
			<path class="st8" d="M756.2,220c-29.4,2.5-59.3,0.2-88.2-5.9c-57-12.1-110.2-38.6-159.1-70.4C440.9,99.5,377.8,43.8,300.1,20.5
				c-34.7-10.4-71.6-14-105.4-26.7h561.5V220z"/>
		</g>
		<g class="st1">
			<path class="st9" d="M208.2-6.2C223.4,62.5,284.8,114,358,114c73.2,0,134.6-51.5,149.8-120.2h1C493.6,63.1,431.7,115,358,115
				c-73.8,0-135.6-52-150.8-121.2H208.2z"/>
		</g>
		
			<ellipse transform="matrix(0.8233 -0.5677 0.5677 0.8233 -29.4011 393.1592)" class="st10" cx="616.7" cy="243.8" rx="30.6" ry="30.6"/>
		<g class="st1">
			<circle class="st9" cx="571.8" cy="149.2" r="1.2"/>
			<circle class="st9" cx="584.7" cy="149.2" r="1.2"/>
			<path class="st9" d="M598.7,149.2c0-0.7-0.5-1.2-1.2-1.2c-0.7,0-1.2,0.5-1.2,1.2s0.5,1.2,1.2,1.2
				C598.2,150.5,598.7,149.9,598.7,149.2z"/>
			<path class="st9" d="M611.6,149.2c0-0.7-0.5-1.2-1.2-1.2c-0.7,0-1.2,0.5-1.2,1.2s0.5,1.2,1.2,1.2
				C611.1,150.5,611.6,149.9,611.6,149.2z"/>
			<path class="st11" d="M624.5,149.2c0-0.7-0.5-1.2-1.2-1.2c-0.7,0-1.2,0.5-1.2,1.2s0.5,1.2,1.2,1.2
				C623.9,150.5,624.5,149.9,624.5,149.2z"/>
			<circle class="st9" cx="636.1" cy="149.2" r="1.2"/>
			<path class="st9" d="M650.2,149.2c0-0.7-0.5-1.2-1.2-1.2c-0.7,0-1.2,0.5-1.2,1.2s0.5,1.2,1.2,1.2
				C649.6,150.5,650.2,149.9,650.2,149.2z"/>
			<circle class="st11" cx="571.8" cy="135" r="1.2"/>
			<circle class="st9" cx="584.7" cy="135" r="1.2"/>
			<path class="st9" d="M598.7,135c0-0.7-0.5-1.2-1.2-1.2c-0.7,0-1.2,0.5-1.2,1.2c0,0.7,0.5,1.2,1.2,1.2
				C598.2,136.2,598.7,135.7,598.7,135z"/>
			<path class="st9" d="M611.6,135c0-0.7-0.5-1.2-1.2-1.2c-0.7,0-1.2,0.5-1.2,1.2c0,0.7,0.5,1.2,1.2,1.2
				C611.1,136.2,611.6,135.7,611.6,135z"/>
			<path class="st9" d="M624.5,135c0-0.7-0.5-1.2-1.2-1.2c-0.7,0-1.2,0.5-1.2,1.2c0,0.7,0.5,1.2,1.2,1.2
				C623.9,136.2,624.5,135.7,624.5,135z"/>
			<circle class="st9" cx="636.1" cy="135" r="1.2"/>
			<path class="st9" d="M650.2,135c0-0.7-0.5-1.2-1.2-1.2c-0.7,0-1.2,0.5-1.2,1.2c0,0.7,0.5,1.2,1.2,1.2
				C649.6,136.2,650.2,135.7,650.2,135z"/>
			<path class="st9" d="M573,120.8c0-0.7-0.5-1.2-1.2-1.2c-0.7,0-1.2,0.5-1.2,1.2c0,0.7,0.5,1.2,1.2,1.2
				C572.5,122,573,121.5,573,120.8z"/>
			<path class="st9" d="M585.9,120.8c0-0.7-0.5-1.2-1.2-1.2c-0.7,0-1.2,0.5-1.2,1.2c0,0.7,0.5,1.2,1.2,1.2
				C585.4,122,585.9,121.5,585.9,120.8z"/>
			<path class="st11" d="M598.7,120.8c0-0.7-0.5-1.2-1.2-1.2c-0.7,0-1.2,0.5-1.2,1.2c0,0.7,0.5,1.2,1.2,1.2
				C598.2,122,598.7,121.5,598.7,120.8z"/>
			<path class="st9" d="M611.6,120.8c0-0.7-0.5-1.2-1.2-1.2c-0.7,0-1.2,0.5-1.2,1.2c0,0.7,0.5,1.2,1.2,1.2
				C611.1,122,611.6,121.5,611.6,120.8z"/>
			<path class="st9" d="M624.5,120.8c0-0.7-0.5-1.2-1.2-1.2c-0.7,0-1.2,0.5-1.2,1.2c0,0.7,0.5,1.2,1.2,1.2
				C623.9,122,624.5,121.5,624.5,120.8z"/>
			<path class="st9" d="M637.3,120.8c0-0.7-0.5-1.2-1.2-1.2s-1.2,0.5-1.2,1.2c0,0.7,0.5,1.2,1.2,1.2S637.3,121.5,637.3,120.8z"/>
			<path class="st9" d="M650.2,120.8c0-0.7-0.5-1.2-1.2-1.2c-0.7,0-1.2,0.5-1.2,1.2c0,0.7,0.5,1.2,1.2,1.2
				C649.6,122,650.2,121.5,650.2,120.8z"/>
			<circle class="st9" cx="571.8" cy="106.6" r="1.2"/>
			<circle class="st9" cx="584.7" cy="106.6" r="1.2"/>
			<path class="st9" d="M598.7,106.6c0-0.7-0.5-1.2-1.2-1.2c-0.7,0-1.2,0.5-1.2,1.2c0,0.7,0.5,1.2,1.2,1.2
				C598.2,107.8,598.7,107.2,598.7,106.6z"/>
			<path class="st9" d="M611.6,106.6c0-0.7-0.5-1.2-1.2-1.2c-0.7,0-1.2,0.5-1.2,1.2c0,0.7,0.5,1.2,1.2,1.2
				C611.1,107.8,611.6,107.2,611.6,106.6z"/>
			<path class="st11" d="M624.5,106.6c0-0.7-0.5-1.2-1.2-1.2c-0.7,0-1.2,0.5-1.2,1.2c0,0.7,0.5,1.2,1.2,1.2
				C623.9,107.8,624.5,107.2,624.5,106.6z"/>
			<circle class="st9" cx="636.1" cy="106.6" r="1.2"/>
			<path class="st9" d="M650.2,106.6c0-0.7-0.5-1.2-1.2-1.2c-0.7,0-1.2,0.5-1.2,1.2c0,0.7,0.5,1.2,1.2,1.2
				C649.6,107.8,650.2,107.2,650.2,106.6z"/>
			<path class="st9" d="M573,92.4c0-0.7-0.5-1.2-1.2-1.2c-0.7,0-1.2,0.5-1.2,1.2c0,0.7,0.5,1.2,1.2,1.2C572.5,93.6,573,93,573,92.4z
				"/>
			<path class="st9" d="M585.9,92.4c0-0.7-0.5-1.2-1.2-1.2c-0.7,0-1.2,0.5-1.2,1.2c0,0.7,0.5,1.2,1.2,1.2
				C585.4,93.6,585.9,93,585.9,92.4z"/>
			<path class="st9" d="M598.7,92.4c0-0.7-0.5-1.2-1.2-1.2c-0.7,0-1.2,0.5-1.2,1.2c0,0.7,0.5,1.2,1.2,1.2
				C598.2,93.6,598.7,93,598.7,92.4z"/>
			<path class="st9" d="M611.6,92.4c0-0.7-0.5-1.2-1.2-1.2c-0.7,0-1.2,0.5-1.2,1.2c0,0.7,0.5,1.2,1.2,1.2
				C611.1,93.6,611.6,93,611.6,92.4z"/>
			<path class="st9" d="M624.5,92.4c0-0.7-0.5-1.2-1.2-1.2c-0.7,0-1.2,0.5-1.2,1.2c0,0.7,0.5,1.2,1.2,1.2
				C623.9,93.6,624.5,93,624.5,92.4z"/>
			<path class="st9" d="M637.3,92.4c0-0.7-0.5-1.2-1.2-1.2s-1.2,0.5-1.2,1.2c0,0.7,0.5,1.2,1.2,1.2S637.3,93,637.3,92.4z"/>
			<path class="st9" d="M650.2,92.4c0-0.7-0.5-1.2-1.2-1.2c-0.7,0-1.2,0.5-1.2,1.2c0,0.7,0.5,1.2,1.2,1.2
				C649.6,93.6,650.2,93,650.2,92.4z"/>
			<circle class="st9" cx="571.8" cy="78.1" r="1.2"/>
			<circle class="st9" cx="584.7" cy="78.1" r="1.2"/>
			<path class="st9" d="M598.7,78.1c0-0.7-0.5-1.2-1.2-1.2c-0.7,0-1.2,0.5-1.2,1.2c0,0.7,0.5,1.2,1.2,1.2
				C598.2,79.3,598.7,78.8,598.7,78.1z"/>
			<path class="st11" d="M611.6,78.1c0-0.7-0.5-1.2-1.2-1.2c-0.7,0-1.2,0.5-1.2,1.2c0,0.7,0.5,1.2,1.2,1.2
				C611.1,79.3,611.6,78.8,611.6,78.1z"/>
			<path class="st9" d="M624.5,78.1c0-0.7-0.5-1.2-1.2-1.2c-0.7,0-1.2,0.5-1.2,1.2c0,0.7,0.5,1.2,1.2,1.2
				C623.9,79.3,624.5,78.8,624.5,78.1z"/>
			<circle class="st9" cx="636.1" cy="78.1" r="1.2"/>
			<path class="st9" d="M650.2,78.1c0-0.7-0.5-1.2-1.2-1.2c-0.7,0-1.2,0.5-1.2,1.2c0,0.7,0.5,1.2,1.2,1.2
				C649.6,79.3,650.2,78.8,650.2,78.1z"/>
			<circle class="st9" cx="571.8" cy="63.9" r="1.2"/>
			<circle class="st9" cx="584.7" cy="63.9" r="1.2"/>
			<path class="st9" d="M598.7,63.9c0-0.7-0.5-1.2-1.2-1.2c-0.7,0-1.2,0.5-1.2,1.2c0,0.7,0.5,1.2,1.2,1.2
				C598.2,65.1,598.7,64.6,598.7,63.9z"/>
			<path class="st9" d="M611.6,63.9c0-0.7-0.5-1.2-1.2-1.2c-0.7,0-1.2,0.5-1.2,1.2c0,0.7,0.5,1.2,1.2,1.2
				C611.1,65.1,611.6,64.6,611.6,63.9z"/>
			<path class="st9" d="M624.5,63.9c0-0.7-0.5-1.2-1.2-1.2c-0.7,0-1.2,0.5-1.2,1.2c0,0.7,0.5,1.2,1.2,1.2
				C623.9,65.1,624.5,64.6,624.5,63.9z"/>
			<circle class="st11" cx="636.1" cy="63.9" r="1.2"/>
			<path class="st9" d="M650.2,63.9c0-0.7-0.5-1.2-1.2-1.2c-0.7,0-1.2,0.5-1.2,1.2c0,0.7,0.5,1.2,1.2,1.2
				C649.6,65.1,650.2,64.6,650.2,63.9z"/>
			<path class="st9" d="M573,49.7c0-0.7-0.5-1.2-1.2-1.2c-0.7,0-1.2,0.5-1.2,1.2c0,0.7,0.5,1.2,1.2,1.2
				C572.5,50.9,573,50.4,573,49.7z"/>
			<path class="st11" d="M585.9,49.7c0-0.7-0.5-1.2-1.2-1.2c-0.7,0-1.2,0.5-1.2,1.2c0,0.7,0.5,1.2,1.2,1.2
				C585.4,50.9,585.9,50.4,585.9,49.7z"/>
			<path class="st9" d="M598.7,49.7c0-0.7-0.5-1.2-1.2-1.2c-0.7,0-1.2,0.5-1.2,1.2c0,0.7,0.5,1.2,1.2,1.2
				C598.2,50.9,598.7,50.4,598.7,49.7z"/>
			<path class="st9" d="M611.6,49.7c0-0.7-0.5-1.2-1.2-1.2c-0.7,0-1.2,0.5-1.2,1.2c0,0.7,0.5,1.2,1.2,1.2
				C611.1,50.9,611.6,50.4,611.6,49.7z"/>
			<path class="st9" d="M624.5,49.7c0-0.7-0.5-1.2-1.2-1.2c-0.7,0-1.2,0.5-1.2,1.2c0,0.7,0.5,1.2,1.2,1.2
				C623.9,50.9,624.5,50.4,624.5,49.7z"/>
			<path class="st9" d="M637.3,49.7c0-0.7-0.5-1.2-1.2-1.2s-1.2,0.5-1.2,1.2c0,0.7,0.5,1.2,1.2,1.2S637.3,50.4,637.3,49.7z"/>
			<path class="st9" d="M650.2,49.7c0-0.7-0.5-1.2-1.2-1.2c-0.7,0-1.2,0.5-1.2,1.2c0,0.7,0.5,1.2,1.2,1.2
				C649.6,50.9,650.2,50.4,650.2,49.7z"/>
		</g>
		<g class="st1">
			<path class="st12" d="M-4.2,12.4c0.6,0.4,1,0.7,1.6,1.1C-3,14-3.3,14.5-3.7,15.1c-0.5-0.4-1-0.7-1.5-1.1v33.5
				c0.3,0.2,0.7,0.4,1,0.6c-0.3,0.5-0.6,1-1,1.5v5.1c0.9,0.6,1.8,1.2,2.6,1.8c-0.7,1.1-1.4,2.2-2,3.1C-4.7,59.3-5,59.1-5.2,59v4.7
				c0.4-0.5,0.7-0.9,1-1.3c1,0.8,2.1,1.6,3,2.3c-0.6,1.2-1.4,2.5-2,3.7c-0.4-1-1.1-1.8-2-2.2v7.3c1.1-0.6,1.9-1.6,2.2-3
				c0.1-0.3,0.1-0.6,0.2-1.1c1,2.2,2.5,3.4,4.8,3c2.3-0.4,3.3-2,3.5-4.5c1,2.2,2.5,3.3,4.6,3.1c2.3-0.3,3.4-1.9,3.7-3.6
				c1.2,0.9,2.4,1.9,3.6,2.9c-1.9,1.6-2.5,3.4-1.6,5.3c0.8,1.7,2.6,2.6,4.5,2.2c1.8-0.4,3-1.8,3.2-3.7c0.1-2.1-1-3.5-3.4-4.3
				c0.8-1.2,1.6-2.5,2.3-3.6c0.9,0.7,2.1,1.7,3.3,2.6c-0.4,0.6-1.4,1.4-1.6,2.4c-0.3,1-0.1,2.3,0.3,3.3c0.7,1.6,2.7,2.3,4.4,1.9
				c1.7-0.4,2.9-1.9,3-3.7c0.1-2-1-3.4-3.3-4.3c0.8-1.3,1.6-2.6,2.3-3.8c0.7,1.5,2.1,2.7,4.2,2.5c2.1-0.2,3.3-1.6,3.8-3.8
				c1.3,1.7,2.8,2.7,5,2.1c2-0.6,2.9-2.2,3-3.4c0.5,0.3,1.3,1.2,2.3,1.5c1,0.3,2.3,0.5,3.3,0.2c1.9-0.5,2.8-2.2,2.7-4.5
				c0.2,0.3,0.4,0.6,0.6,0.9c0.9,1.8,2.6,2.7,4.5,2.3c1.9-0.4,3.2-2,3.3-3.9c0-1.9-1.2-3.5-3.1-4c-0.3-0.1-0.7-0.2-1-0.2
				c0.7-0.6,1.5-1.2,2-1.9c0.5-0.7,0.6-1.6,0.9-2.3c1.5,2.4,3.4,3.3,5.5,2.4c1.8-0.8,2.8-2.5,2.4-4.5c0.2,0.3,0.5,0.5,0.7,0.8
				c1,1.8,2.7,2.7,4.5,2.3c1.9-0.4,3.2-2,3.3-3.9c0-1.9-1.3-3.5-3.3-4.1c-0.3-0.1-0.6-0.1-1-0.3c1.9-1,2.9-2.3,2.9-4.4
				c1.7,2.6,3.4,3.4,5.5,2.7c2-0.7,3-2.5,2.7-5c-0.7-1.5-1.7-2.6-3.2-2.9c0.8-1.3,1.5-2.6,2.2-3.8c1.5,2.3,3.5,3.1,5.6,2.1
				c1.9-0.9,2.6-2.6,2.4-4.7l0,0.1c-0.7-1.9-2-3.2-4.5-3.4c2-1,3-2.3,3.1-4.6c1,2.4,2.8,3.3,5,3.1l0,0c0.2-0.1,0.4-0.2,0.6-0.3
				c1.8-0.8,2.8-2.5,2.6-4.3c-0.2-1.7-1.4-3.1-3.3-3.6c-0.3-0.1-0.6-0.1-0.9-0.2c2.1-1.4,2.5-2.1,2.8-4.1c0.7,0.7,1.4,1.7,2.3,2.1
				c1,0.4,2.2,0.4,3.3,0.2c1.7-0.4,2.8-2.3,2.6-4.1c-0.2-2.1-1.4-3.3-4.2-4c2.2-1.5,2.6-2.2,2.8-4.6c0.9,2.1,2.3,3.4,4.5,3.1
				c2.2-0.3,3.4-1.7,3.7-3.8c0.9,0.7,1.7,1.7,2.6,1.9c1,0.3,2.3,0.1,3.3-0.3c1.7-0.7,2.4-2.8,1.8-4.6c-0.2-0.5-0.5-1-0.8-1.4h-5.9
				c-0.5,0.7-0.9,1.5-1,2.4c-0.9-0.8-2-1.6-3-2.4h-3.8c0.2,0.1,0.3,0.3,0.5,0.4c-0.7,1.2-1.4,2.4-2,3.4c-1.1-0.8-2.4-1.8-3.5-2.5
				c0.3-0.4,0.6-0.8,0.9-1.2h-6.2c1,0.6,1.9,1.2,2.7,1.6c-0.7,1-1.6,2.3-2.3,3.3c-1-0.7-2.1-1.6-3.1-2.3c0.6-0.9,1.3-1.8,1.9-2.7
				H69.8C69.7-6.1,69.6-6,69.6-6c-0.1-0.1-0.2-0.2-0.3-0.2h-7c-0.3,0.5-0.7,0.9-1,1.4c-0.6-0.4-1.1-0.8-1.8-1.2c0,0,0.1-0.1,0.1-0.1
				h-6.8c0.6,0.4,1.1,0.7,1.6,1c-0.5,0.6-0.9,1.2-1.3,1.9c-0.6-0.4-1.1-0.8-1.8-1.3c0.4-0.6,0.8-1.1,1.2-1.6H-5.2v19.9
				C-4.8,13.3-4.5,12.8-4.2,12.4z M5.3,12.1c-0.3,0.4-0.5,0.8-0.8,1.2c-0.5-0.4-0.9-0.7-1.3-1C3.4,12,3.7,11.7,4,11.3
				C4.5,11.6,4.8,11.8,5.3,12.1z M7.2,20.2c-0.5,0.7-0.8,1.3-1.3,1.9c-0.6-0.4-1.1-0.9-1.6-1.3c0.5-0.6,0.9-1.1,1.3-1.6
				C6.1,19.5,6.6,19.9,7.2,20.2z M8.9,28.6c-0.5,0.8-1,1.5-1.5,2.2c-0.7-0.6-1.4-1-2.1-1.6c0.5-0.7,1-1.4,1.5-2
				C7.6,27.7,8.2,28.1,8.9,28.6z M10.7,36.9c-0.6,0.8-1.2,1.7-1.7,2.4c-0.8-0.6-1.6-1.1-2.4-1.7c0.6-0.8,1.2-1.6,1.7-2.3
				C9.1,35.8,9.9,36.4,10.7,36.9z M13.8,10.8c-0.4,0.5-0.7,0.9-1,1.3c-0.5-0.4-0.9-0.7-1.4-1.1c0.3-0.4,0.6-0.8,0.9-1.2
				C12.9,10.1,13.3,10.4,13.8,10.8z M15.3,19c-0.3,0.5-0.6,1-1,1.6c-0.7-0.5-1.2-0.9-1.8-1.4c0.4-0.5,0.8-1,1.2-1.5
				C14.3,18.2,14.8,18.6,15.3,19z M17.2,27.1c-0.5,0.8-1,1.5-1.4,2.2c-0.7-0.5-1.4-1-2-1.5c0.5-0.7,1-1.4,1.5-2
				C15.9,26.2,16.6,26.6,17.2,27.1z M16.6,33.8c0.8,0.5,1.6,1.1,2.4,1.6c-0.6,0.8-1.1,1.6-1.7,2.4c-0.8-0.6-1.6-1.2-2.4-1.8
				C15.6,35.3,16.1,34.5,16.6,33.8z M20.4,1c-0.3,0.4-0.5,0.8-0.8,1.2c-0.4-0.3-0.8-0.5-1.3-0.8c0.3-0.4,0.6-0.8,1-1.2
				C19.7,0.4,20,0.7,20.4,1z M22.2,9.3c-0.4,0.6-0.8,1-1.1,1.5c-0.6-0.4-1-0.8-1.5-1.1c0.4-0.5,0.7-0.9,1.1-1.4
				C21.2,8.6,21.6,8.9,22.2,9.3z M23.7,17.5c-0.4,0.6-0.7,1.1-1.1,1.7c-0.6-0.5-1.1-0.8-1.6-1.3c0.4-0.5,0.7-1,1-1.5
				C22.6,16.7,23.2,17.1,23.7,17.5z M25.6,25.5c-0.5,0.7-1,1.4-1.5,2.2c-0.7-0.5-1.3-1-2.1-1.5c0.5-0.7,1-1.4,1.4-2
				C24.2,24.6,24.9,25.1,25.6,25.5z M25,32.3c0.8,0.5,1.6,1,2.4,1.6c-0.6,0.9-1.2,1.7-1.7,2.4c-0.8-0.6-1.6-1.2-2.3-1.7
				C23.9,33.8,24.5,33,25,32.3z M28.9-0.5C28.6,0,28.3,0.3,28,0.8c-0.5-0.4-0.9-0.7-1.3-1C27-0.7,27.2-1,27.6-1.5
				C28.1-1.1,28.5-0.8,28.9-0.5z M30.6,7.7c-0.4,0.6-0.8,1.1-1.1,1.7c-0.5-0.4-1-0.8-1.6-1.2c0.4-0.5,0.7-1,1.1-1.5
				C29.6,7,30,7.3,30.6,7.7z M32.3,16.1c-0.4,0.6-0.8,1.1-1.2,1.7c-0.6-0.5-1.2-0.9-1.7-1.4c0.4-0.5,0.7-1.1,1.1-1.6
				C31.1,15.2,31.7,15.6,32.3,16.1z M33.9,24.3c-0.5,0.7-0.9,1.3-1.3,2c-0.8-0.6-1.5-1.1-2.1-1.6c0.5-0.7,1-1.3,1.4-1.9
				C32.5,23.3,33.2,23.8,33.9,24.3z M33.4,30.7c0.8,0.6,1.7,1.1,2.4,1.6c-0.6,0.8-1.1,1.7-1.7,2.5c-0.8-0.6-1.6-1.2-2.4-1.8
				C32.3,32.2,32.9,31.5,33.4,30.7z M37.4-2.1c-0.4,0.6-0.7,1-1.1,1.5c-0.5-0.4-0.9-0.7-1.4-1.1c0.3-0.5,0.6-0.9,1-1.4
				C36.5-2.7,36.9-2.4,37.4-2.1z M39,6.2c-0.4,0.6-0.8,1.2-1.2,1.8c-0.6-0.4-1.1-0.9-1.7-1.3c0.4-0.6,0.8-1.1,1.2-1.6
				C37.9,5.5,38.4,5.8,39,6.2z M40.8,14.5c-0.5,0.7-0.9,1.4-1.4,2c-0.6-0.5-1.2-0.9-1.9-1.5c0.5-0.7,0.9-1.3,1.4-1.9
				C39.5,13.7,40.1,14.1,40.8,14.5z M42.3,22.8c-0.5,0.7-0.9,1.4-1.4,2.1c-0.7-0.5-1.3-1-2-1.5c0.4-0.7,0.9-1.3,1.3-2
				C40.9,21.8,41.6,22.3,42.3,22.8z M41.7,29.2c0.8,0.6,1.7,1.2,2.5,1.7c-0.6,0.8-1.2,1.7-1.8,2.5c-0.8-0.6-1.7-1.2-2.5-1.8
				C40.6,30.8,41.2,29.9,41.7,29.2z M45.9-3.6C45.5-3,45.1-2.5,44.7-2c-0.5-0.4-1-0.7-1.6-1.2c0.4-0.5,0.8-1,1.2-1.6
				C44.9-4.3,45.3-4,45.9-3.6z M47.5,4.7c-0.5,0.7-0.8,1.2-1.3,1.9c-0.7-0.5-1.2-0.9-1.8-1.4c0.4-0.6,0.8-1.2,1.3-1.7
				C46.4,3.9,47,4.3,47.5,4.7z M49.3,13c-0.5,0.7-1,1.4-1.5,2.2c-0.7-0.5-1.4-1-2-1.5c0.5-0.7,1-1.3,1.4-2
				C47.9,12.1,48.6,12.6,49.3,13z M50.8,21.3c-0.5,0.7-1,1.3-1.6,2.1c-0.7-0.5-1.3-1-2-1.5c0.5-0.7,1-1.4,1.4-2.1
				C49.4,20.3,50.1,20.8,50.8,21.3z M52.2,29.6c-0.5,0.8-1,1.5-1.5,2.2c-0.8-0.6-1.6-1.1-2.4-1.7c0.6-0.7,1.1-1.4,1.7-2.1
				C50.6,28.5,51.4,29,52.2,29.6z M51.4,36c0.9,0.5,1.8,1.1,2.7,1.6c-0.7,1-1.4,2.1-2,3.1c-0.9-0.7-1.8-1.4-2.7-2.1
				C50,37.8,50.7,36.9,51.4,36z M55.9,3.1c-0.5,0.7-0.9,1.2-1.5,1.9c-0.6-0.5-1.2-0.8-1.8-1.2c0.5-0.7,1-1.3,1.4-2
				C54.8,2.3,55.3,2.7,55.9,3.1z M57.5,11.5c-0.5,0.7-1,1.4-1.6,2.1c-0.7-0.5-1.3-0.9-2-1.4c0.5-0.7,1-1.3,1.5-2
				C56.1,10.6,56.8,11.1,57.5,11.5z M59.2,19.8c-0.6,0.9-1.2,1.7-1.8,2.6c-0.8-0.6-1.5-1.1-2.3-1.7c0.6-0.8,1.1-1.5,1.8-2.3
				C57.7,18.9,58.5,19.3,59.2,19.8z M60.6,28c-0.6,0.9-1.1,1.8-1.6,2.7c-0.9-0.7-1.7-1.3-2.5-2c0.6-0.9,1.1-1.7,1.6-2.5
				C58.9,26.8,59.7,27.4,60.6,28z M59.5,34.2c1.1,0.7,2.1,1.4,3,1.9c-0.7,1.1-1.4,2.2-2.1,3.2c-0.9-0.7-2-1.5-3-2.2
				C58.1,36.1,58.9,35.1,59.5,34.2z M64.4,1.6c-0.5,0.7-1.1,1.5-1.6,2.2c-0.7-0.5-1.3-1-2-1.5c0.5-0.7,1-1.4,1.5-2
				C63,0.8,63.7,1.2,64.4,1.6z M66,10c-0.6,0.8-1.1,1.6-1.7,2.5c-0.8-0.6-1.6-1.2-2.3-1.8c0.6-0.8,1.1-1.6,1.6-2.4
				C64.4,8.9,65.2,9.4,66,10z M67.7,18.3c-0.6,0.9-1.2,1.8-1.9,2.7c-0.9-0.6-1.8-1.3-2.6-1.9c0.6-0.9,1.2-1.8,1.8-2.6
				C65.9,17.1,66.8,17.7,67.7,18.3z M72.8,0.1c-0.6,0.9-1.2,1.7-1.8,2.4c-0.8-0.6-1.5-1.1-2.3-1.7c0.6-0.9,1.1-1.7,1.6-2.4
				C71.2-1,72.1-0.4,72.8,0.1z M74.5,8.4c-0.6,0.9-1.3,1.8-1.9,2.7c-0.9-0.6-1.7-1.3-2.6-1.9c0.6-0.9,1.2-1.7,1.8-2.5
				C72.7,7.3,73.6,7.9,74.5,8.4z M76.1,16.7c-0.7,1-1.4,2-2,3c-0.9-0.7-1.9-1.4-2.8-2.1c0.6-0.9,1.3-1.9,1.9-2.8
				C74.2,15.5,75.2,16.1,76.1,16.7z M74.7,23.1c1.1,0.7,2.2,1.4,3.1,2c-0.7,1.1-1.5,2.3-2.2,3.3c-0.9-0.7-2.1-1.5-3.1-2.3
				C73.3,25.1,74.1,24,74.7,23.1z M81.4-1.4c-0.6,0.9-1.3,1.8-1.9,2.7c-0.8-0.6-1.7-1.3-2.6-1.9c0.6-0.8,1.2-1.7,1.8-2.6
				C79.6-2.6,80.6-2,81.4-1.4z M83,6.9c-0.7,1-1.3,2-2,3c-0.9-0.6-1.8-1.4-2.8-2.1c0.6-0.9,1.3-1.9,1.9-2.8
				C81.1,5.6,82.1,6.3,83,6.9z M89.9-3c-0.7,1-1.4,2.1-2,3c-0.9-0.7-1.9-1.4-2.8-2.1C85.7-3,86.4-4,87-4.9C88-4.3,89-3.6,89.9-3z
				 M91.6,5.3c-0.7,1.1-1.5,2.3-2.2,3.2c-1-0.7-2.1-1.5-3.1-2.2c0.7-1,1.4-2.1,2.1-3C89.5,4,90.7,4.7,91.6,5.3z M94.5,4.8
				c0.7-1,1.5-2.2,2.2-3.2c1.2,0.7,2.6,1.5,3.8,2.3c-1.5,0.6-2.4,2-2.6,3.5C96.8,6.5,95.6,5.6,94.5,4.8z M87.7,14.7
				c0.7-0.9,1.5-2.2,2.2-3.2c1.1,0.7,2.5,1.5,3.5,2.1c-0.8,1.1-1.7,2.4-2.5,3.4C89.9,16.3,88.7,15.4,87.7,14.7z M80.8,24.5
				c0.7-1,1.5-2.1,2.3-3.1c1.1,0.7,2.5,1.5,3.7,2.2c-1.4,0.6-2.3,2-2.5,3.5C83.1,26.2,81.8,25.3,80.8,24.5z M79.5,16.1
				c0.7-0.9,1.4-2,2.1-2.9c1,0.6,2.1,1.4,3.1,2c-0.7,1.1-1.5,2.2-2.2,3.2C81.6,17.7,80.5,16.9,79.5,16.1z M74.3,34.1
				c0.6-1,1.3-2.1,1.9-3.1c1,0.8,2.2,1.6,3.1,2.2c-0.6,1.1-1.4,2.4-2,3.4C76.3,35.9,75.2,35,74.3,34.1z M66.8,44.2
				c0.9-1.2,1.8-2.5,2.7-3.7c0.7,1.4,2.2,2.3,3.9,2.3c-0.7,0.7-1.6,1.4-2.2,2.3c-0.5,0.8-0.6,1.8-0.8,2.7
				C70.1,45.3,68.4,44.5,66.8,44.2z M65.7,35.6c0.7-0.9,1.4-1.9,2.1-2.9c0.9,0.7,2,1.4,2.9,2.1c-0.6,1.1-1.3,2.3-1.8,3.2
				C67.9,37.2,66.7,36.3,65.7,35.6z M64.7,27.3c0.6-0.9,1.2-1.8,1.7-2.6c1,0.7,2,1.3,3,1.9c-0.7,1-1.4,2-2,2.8
				C66.5,28.8,65.6,28,64.7,27.3z M58.7,45.4c0.7-1,1.6-2.2,2.3-3.2c1.1,0.7,2.4,1.5,3.4,2.1c-0.7,1.1-1.6,2.4-2.4,3.4
				C60.9,47.1,59.7,46.2,58.7,45.4z M51.5,55.5c0.9-1.3,1.8-2.6,2.7-3.8c0.7,1.5,2.2,2.4,4.3,2.5c-2.4,0.7-2.9,2.7-3.3,4.7
				C54.6,56.8,53.2,55.7,51.5,55.5z M50.4,46.9c0.7-0.9,1.5-2,2.2-3c1.1,0.7,2.3,1.4,3.2,2c-0.8,1.2-1.6,2.4-2.2,3.4
				C52.6,48.6,51.4,47.7,50.4,46.9z M43.5,56.8c0.8-0.9,1.7-2,2.4-2.9c1.1,0.6,2.4,1.3,3.6,1.9c-1.5,0.7-2.5,2.1-2.6,3.7
				C45.8,58.6,44.5,57.6,43.5,56.8z M42.4,48.4c0.7-0.9,1.4-1.9,2.1-2.7c1,0.6,2,1.2,2.9,1.8c-0.7,1-1.5,2-2.1,2.9
				C44.4,49.7,43.3,49,42.4,48.4z M41.2,40c0.6-0.9,1.3-1.8,2-2.8c0.9,0.6,1.8,1.2,2.6,1.8c-0.7,0.9-1.3,1.8-2,2.7
				C42.9,41.2,42,40.6,41.2,40z M35.3,58.3c0.7-1,1.6-2.3,2.4-3.3c1,0.7,2.2,1.5,3.2,2.2c-0.8,1-1.7,2.2-2.4,3.1
				C37.4,59.7,36.2,58.9,35.3,58.3z M34.1,49.9c0.7-0.9,1.5-2,2.1-2.9c1,0.7,2.1,1.4,3,2c-0.7,1.1-1.4,2.2-2,3.2
				C36.2,51.5,35.1,50.6,34.1,49.9z M32.9,41.5c0.6-0.9,1.3-1.8,1.9-2.6c0.9,0.6,1.9,1.2,2.7,1.8c-0.6,1-1.3,1.9-1.9,2.8
				C34.8,42.8,33.8,42.2,32.9,41.5z M27,59.8c0.7-1,1.6-2.2,2.3-3.2c1,0.7,2.3,1.5,3.3,2.2c-0.7,1.1-1.6,2.4-2.3,3.5
				C29.3,61.5,28.1,60.5,27,59.8z M25.8,51.4c0.7-0.9,1.4-1.9,2.1-2.9c1,0.7,2.1,1.4,2.9,1.9c-0.7,1.1-1.4,2.2-2,3.2
				C27.9,52.9,26.7,52.1,25.8,51.4z M24.6,43c0.6-0.8,1.3-1.7,1.9-2.6c0.9,0.6,1.8,1.2,2.7,1.8c-0.6,0.9-1.2,1.8-1.9,2.7
				C26.4,44.3,25.5,43.6,24.6,43z M18.7,61.2c0.7-0.9,1.6-2.1,2.3-3.1c1.1,0.7,2.3,1.5,3.3,2.1c-0.7,1.2-1.6,2.6-2.2,3.6
				C21,63,19.7,62.1,18.7,61.2z M17.4,52.9c0.6-0.9,1.4-1.9,2.1-2.8c1,0.6,2,1.3,2.9,1.9c-0.7,1.1-1.4,2.2-2,3.1
				C19.5,54.3,18.4,53.6,17.4,52.9z M16.2,44.5c0.7-0.9,1.3-1.8,1.9-2.6c0.9,0.6,1.9,1.2,2.7,1.8c-0.6,0.9-1.2,1.8-1.9,2.7
				C18,45.7,17,45.1,16.2,44.5z M10.7,62.5c0.6-1,1.3-2.1,1.9-3c1.1,0.7,2.3,1.5,3.4,2.2c-0.7,1.1-1.6,2.3-2.2,3.3
				C12.7,64.3,11.6,63.3,10.7,62.5z M9,54.4c0.7-0.9,1.4-1.9,2.1-2.9c1,0.7,2,1.4,2.9,1.9c-0.7,1-1.4,2.2-2,3.1
				C11.2,55.9,10,55.1,9,54.4z M7.8,46c0.6-0.9,1.3-1.8,1.9-2.6c0.9,0.6,1.9,1.2,2.7,1.8c-0.6,0.9-1.3,1.9-1.9,2.7
				C9.6,47.3,8.7,46.6,7.8,46z M2.3,64c0.6-1,1.3-2.2,1.9-3.1c0.9,0.7,2,1.5,3,2.2c-0.7,1.2-1.4,2.5-1.9,3.5
				C4.4,65.8,3.2,64.8,2.3,64z M0.6,55.9c0.7-0.9,1.5-2,2.2-2.9c1,0.7,2,1.4,3,2c-0.7,1.1-1.4,2.2-2,3.2C2.8,57.4,1.6,56.6,0.6,55.9
				z M-0.6,47.5c0.6-0.8,1.3-1.8,2-2.6c0.9,0.6,1.9,1.2,2.7,1.8c-0.6,1-1.3,1.9-1.9,2.8C1.3,48.8,0.3,48.1-0.6,47.5z M-1.8,39.1
				c0.6-0.8,1.2-1.6,1.7-2.4c0.8,0.5,1.6,1.1,2.4,1.6c-0.6,0.9-1.1,1.7-1.7,2.5C-0.2,40.3-1,39.6-1.8,39.1z M-2.9,30.8
				c0.5-0.7,1-1.3,1.6-2c0.7,0.4,1.3,0.8,1.9,1.2c-0.5,0.8-1,1.5-1.5,2.3C-1.6,31.8-2.2,31.3-2.9,30.8z M-1.1,21.7
				c-0.5,0.6-0.9,1.2-1.3,1.8C-3,23-3.5,22.7-4,22.3c0.5-0.6,0.9-1.2,1.3-1.8C-2.1,20.8-1.6,21.2-1.1,21.7z"/>
			<path class="st12" d="M92.6,26.5c0.5,0.9,1,1.8,1.7,2.5c1.2,1.2,3.1,1.2,4.5,0.4c1.5-0.8,2.3-2.5,2-4.1c-0.3-1.7-1.4-3-3.1-3.3
				c-0.5-0.1-1-0.2-1.5-0.2l0,0C93.9,22.5,92.6,24.1,92.6,26.5L92.6,26.5z"/>
			<path class="st12" d="M85.6,35.8c0.6,2.4,2,4,4.7,4.2l0,0c2.8-1.1,3.9-2.4,3.7-4.5c-0.2-2-1.7-3.6-3.7-3.7
				c-1.9-0.2-3.7,1.1-4.2,3C85.9,35.2,85.8,35.5,85.6,35.8C85.6,35.9,85.6,35.8,85.6,35.8z"/>
			<path class="st12" d="M107.9,15.8c-1.2-3-2.7-4.1-5.1-3.6c-1.9,0.4-3.3,2.2-3.1,4.2c0.1,2,1.6,3.5,3.6,3.8c1.9,0.2,3.8-1,4.3-2.9
				C107.7,16.7,107.7,16.2,107.9,15.8L107.9,15.8z"/>
			<path class="st12" d="M40.2,70.8c0-2.1-1.9-3.9-4.1-3.8c-2.2,0-3.9,1.8-3.9,4c0,2.3,1.8,4,4.1,4C38.6,75,40.2,73.2,40.2,70.8z"/>
			<path class="st12" d="M40.3,69.7c0,2,1.8,3.8,3.9,3.8c2.2,0,4-1.7,4-3.9c0-2.2-1.7-4-3.9-4.1C42,65.5,40.3,67.2,40.3,69.7z"/>
			<path class="st12" d="M2.8,72.7c-2.2,0-4,1.7-4,4c0,2.3,1.8,4.1,4.1,4c2.2,0,3.9-1.8,3.9-4C6.8,74.4,5,72.7,2.8,72.7z"/>
			<path class="st12" d="M110.5,10.2c2.2,0,4-1.7,4-4c0-2.3-1.8-4.1-4.1-4c-2.2,0-3.9,1.8-3.9,4C106.6,8.5,108.3,10.3,110.5,10.2z"
				/>
			<path class="st12" d="M71.8,56.8c0-2.2-1.7-4-3.9-4.1c-2.3-0.1-4.1,1.7-4.1,3.9c0,2.3,1.7,4.1,4,4.1C70.1,60.7,71.8,59,71.8,56.8
				z"/>
			<path class="st12" d="M87.1,45.3c0-2.3-1.8-4-4.1-4c-2.2,0.1-3.9,1.8-3.9,4c0,2.3,1.8,4,4.1,4C85.4,49.3,87.1,47.5,87.1,45.3z"/>
			<path class="st12" d="M15.2,75.2c0-2.2-1.7-4-3.9-4.1c-2.3-0.1-4.1,1.7-4.1,3.9c0,2.3,1.8,4.1,4,4.1
				C13.4,79.2,15.1,77.5,15.2,75.2z"/>
			<path class="st12" d="M56.6,68c0-2.2-1.8-3.9-4-3.9c-2.2,0-3.9,1.8-3.9,4c0,2.2,1.8,3.9,4,3.9C54.9,72,56.6,70.2,56.6,68z"/>
			<path class="st12" d="M76.2,51.3c-2.2,0-4,1.7-4,3.9c0,2.2,1.7,3.9,4,3.9c2.2,0,3.9-1.7,3.9-3.9C80.2,53,78.5,51.3,76.2,51.3z"/>
			<path class="st12" d="M-5.2,82.1v-7.8c2.1,0.2,3.6,1.8,3.6,4C-1.6,80.3-3.2,81.9-5.2,82.1z"/>
			<path class="st12" d="M90.3,40c-1.6,0.8-2.8,1.9-2.8,3.9c0,2.2,1.6,3.9,3.8,3.9c2.2,0.1,3.9-1.6,4-3.7c0.1-2.2-1.4-4-3.6-4.1
				C91.2,39.9,90.7,40,90.3,40C90.2,40,90.3,40,90.3,40z"/>
			<path class="st12" d="M98.3,30.4c-2.2,0-4,1.7-3.9,3.9c0,2.2,1.7,3.9,4,3.9c2.2,0,3.8-1.7,3.9-3.9
				C102.2,32.1,100.5,30.4,98.3,30.4z"/>
			<path class="st12" d="M107.8,15.8c0.8,1.6,1.9,2.8,3.9,2.8c2.2,0,3.9-1.6,3.9-3.8c0.1-2.2-1.6-3.9-3.7-4c-2.2-0.1-4,1.4-4.1,3.6
				C107.8,14.8,107.8,15.3,107.8,15.8C107.9,15.8,107.8,15.8,107.8,15.8z"/>
			<path class="st12" d="M64.9,66.5c0-2.2-1.8-3.9-4-3.9c-2.2,0-3.8,1.8-3.8,3.9c0,2.2,1.8,3.9,4,3.9C63.2,70.4,64.9,68.7,64.9,66.5
				z"/>
			<path class="st12" d="M105.2,28.4c2.2,0,3.9-1.8,3.9-4c0-2.2-1.8-3.9-4.1-3.8c-2.2,0.1-3.8,1.8-3.8,3.9
				C101.2,26.7,103,28.4,105.2,28.4z"/>
			<path class="st12" d="M69.3,61.2c-2.1,0-3.8,1.8-3.8,3.9c0,2.2,1.8,3.9,4,3.8c2.1-0.1,3.8-1.8,3.7-4
				C73.2,62.8,71.4,61.1,69.3,61.2z"/>
			<path class="st12" d="M21,78.2c-2.1,0-3.9,1.7-3.9,3.9c0,2.2,1.8,4,4,3.9c2.1,0,3.8-1.8,3.8-3.9C24.9,79.9,23.1,78.2,21,78.2z"/>
			<path class="st12" d="M16.5,83.6c0-2.2-1.7-3.9-3.8-3.9c-2.2,0-3.9,1.7-3.9,3.8c0,2.2,1.7,3.9,3.8,3.9
				C14.7,87.4,16.5,85.7,16.5,83.6z"/>
			<path class="st12" d="M45.8,81.5c2.1,0,3.9-1.8,3.9-3.9c0-2.1-1.7-3.8-3.9-3.9c-2.1,0-3.9,1.8-3.9,3.9
				C41.9,79.7,43.6,81.5,45.8,81.5z"/>
			<path class="st12" d="M37.2,75.2c-1.9,0-3.7,1.8-3.7,3.9c0,2.2,1.7,3.9,3.8,3.9c2.2,0,3.9-1.7,3.9-3.8
				C41.3,76.9,39.6,75.2,37.2,75.2z"/>
			<path class="st12" d="M118.6,0.9c-2.2,0-3.9,1.7-4,3.9c0,2.1,1.7,3.8,3.9,3.8c2.1,0,3.9-1.7,3.9-3.8
				C122.5,2.7,120.8,0.9,118.6,0.9z"/>
			<path class="st12" d="M29.3,76.7c-2.1,0-3.9,1.7-3.9,3.9c0,2.2,1.8,3.9,4,3.9c2.1,0,3.8-1.8,3.8-3.9
				C33.2,78.4,31.5,76.7,29.3,76.7z"/>
			<path class="st12" d="M84.6,49.8c-2.1,0-3.9,1.7-3.9,3.8c0,2.2,1.7,4,3.9,3.9c2.1,0,3.8-1.8,3.8-3.9
				C88.4,51.5,86.7,49.8,84.6,49.8z"/>
			<path class="st12" d="M117.1,22.9c0-2.1-1.8-3.9-3.9-3.8c-2.1,0-3.9,1.9-3.8,4c0.1,2.1,1.8,3.8,3.9,3.8
				C115.3,26.8,117.1,25.1,117.1,22.9z"/>
			<path class="st12" d="M103.3,42.2c-0.1-2.1-2-3.8-4.1-3.6c-2.1,0.1-3.8,2.1-3.6,4.1c0.2,2.1,2,3.7,4,3.6
				C101.8,46.1,103.5,44.3,103.3,42.2z"/>
			<path class="st12" d="M4.4,88.9c2.1-0.1,3.8-1.9,3.7-4c-0.1-2.1-1.9-3.8-4.1-3.7c-2.1,0.1-3.7,1.9-3.7,3.9
				C0.5,87.3,2.3,89,4.4,88.9z"/>
			<path class="st12" d="M110.2,32.8c0-2.1-1.8-3.9-3.9-3.9c-2.1,0-3.9,1.8-3.8,4c0,2.1,1.8,3.8,3.8,3.8
				C108.4,36.7,110.2,34.9,110.2,32.8z"/>
			<path class="st12" d="M96.7,52.1c0-2-1.8-3.8-3.9-3.8c-2.1,0-3.9,1.9-3.8,4c0.1,2.1,1.9,3.8,3.9,3.7C95.1,56,96.8,54.2,96.7,52.1
				z"/>
			<path class="st12" d="M-4,90.4c-0.4,0-0.8-0.1-1.2-0.2v-7.3c0.3-0.1,0.7-0.2,1-0.2c2.1-0.1,3.9,1.7,4,3.8
				C-0.2,88.6-1.9,90.3-4,90.4z"/>
			<path class="st12" d="M129-6.2c0.2,0.4,0.3,0.9,0.3,1.4c0,2.1-1.7,3.8-3.8,3.8c-2.1,0-3.9-1.7-3.9-3.9c0-0.5,0.1-1,0.3-1.4H129z"
				/>
			<path class="st12" d="M123.9,13.1c0-2-1.7-3.8-3.8-3.9c-2.1,0-3.9,1.8-3.9,3.9c0,2,1.8,3.8,3.8,3.8
				C122.1,16.9,123.9,15.2,123.9,13.1z"/>
			<path class="st12" d="M62.5,71.1c-2,0-3.8,1.7-3.8,3.8c0,2.1,1.8,3.9,3.9,3.9c2-0.1,3.8-1.8,3.7-3.9
				C66.3,72.8,64.5,71.1,62.5,71.1z"/>
			<path class="st12" d="M81.5,63.4c-0.1-2.1-2-3.8-4.1-3.7c-2.1,0.1-3.7,2-3.6,4c0.1,2.1,2,3.8,4.1,3.7
				C80,67.3,81.6,65.4,81.5,63.4z"/>
			<path class="st12" d="M53.9,72.5c-2.1,0.1-3.8,2-3.6,4.1c0.2,2.1,2,3.7,4.1,3.6c2.1-0.1,3.8-2,3.6-4.1C57.8,74,56,72.4,53.9,72.5
				z"/>
			<path class="st12" d="M126.9-0.5c-2.1,0-3.8,1.8-3.7,3.9c0.1,2.1,1.9,3.8,3.9,3.7c2-0.1,3.7-1.8,3.7-3.8
				C130.7,1.2,128.9-0.5,126.9-0.5z"/>
			<path class="st12" d="M89.8,62.1c0-2-1.7-3.8-3.8-3.8c-2.1,0-3.8,1.8-3.8,3.8c0,2,1.7,3.7,3.7,3.8C88,65.9,89.8,64.2,89.8,62.1z"
				/>
			<path class="st12" d="M26.2,90.5c0-2.1-1.7-3.8-3.8-3.8c-2,0-3.7,1.7-3.7,3.7c0,2.1,1.7,3.8,3.8,3.8
				C24.5,94.2,26.2,92.5,26.2,90.5z"/>
			<path class="st12" d="M118.4,31.1c-0.1-2.1-2-3.7-4-3.5c-2,0.2-3.6,1.9-3.4,3.9c0.1,2.1,2,3.7,4,3.5
				C117,34.9,118.6,33.1,118.4,31.1z"/>
			<path class="st12" d="M70.9,69.7c-2.1,0-3.8,1.7-3.8,3.7c0,2,1.6,3.7,3.7,3.7c2.1,0,3.8-1.7,3.8-3.7
				C74.6,71.4,72.9,69.7,70.9,69.7z"/>
			<path class="st12" d="M111.6,41c-0.1-2.1-2-3.7-4-3.5c-2,0.2-3.6,1.9-3.5,3.9c0.1,2.1,2,3.7,4,3.5C110.2,44.7,111.7,43,111.6,41z
				"/>
			<path class="st12" d="M17.9,91.9c0-2-1.7-3.7-3.7-3.7c-2.1,0-3.8,1.7-3.7,3.8c0.1,2,1.7,3.7,3.8,3.6
				C16.2,95.6,17.9,93.9,17.9,91.9z"/>
			<path class="st12" d="M34.3,88.7c-0.1-2.1-2-3.7-4-3.5c-2,0.2-3.6,1.9-3.4,3.9c0.1,2.1,2,3.7,4,3.5
				C32.9,92.5,34.4,90.7,34.3,88.7z"/>
			<path class="st12" d="M100.9,47c-2,0-3.7,1.7-3.7,3.7c0,2.1,1.7,3.8,3.8,3.7c2-0.1,3.7-1.7,3.6-3.8C104.7,48.6,103,47,100.9,47z"
				/>
			<path class="st12" d="M38.7,83.7c-2.1,0.1-3.7,2-3.5,4c0.2,2,1.9,3.6,3.9,3.4c2.1-0.1,3.7-2,3.5-4C42.5,85.1,40.7,83.6,38.7,83.7
				z"/>
			<path class="st12" d="M97.8,60.6c0-2.1-1.5-3.7-3.6-3.7c-2.1,0-3.7,1.6-3.7,3.7c0,2,1.5,3.6,3.6,3.6
				C96.1,64.3,97.7,62.7,97.8,60.6z"/>
			<path class="st12" d="M137.4-6.2c0,2-1.6,3.6-3.6,3.6c-2.1,0-3.7-1.5-3.7-3.6c0,0,0,0,0,0H137.4z"/>
			<path class="st12" d="M128.3,8c-2.1,0.1-3.6,1.7-3.5,3.8c0.1,2.1,1.7,3.6,3.9,3.5c2-0.1,3.5-1.7,3.5-3.7
				C132,9.5,130.4,7.9,128.3,8z"/>
			<path class="st12" d="M125.3,21.5c0-2.1-1.6-3.7-3.6-3.8c-2.1-0.1-3.8,1.6-3.8,3.7c0,2.1,1.6,3.7,3.7,3.7
				C123.6,25.2,125.2,23.6,125.3,21.5z"/>
			<path class="st12" d="M9.5,93.3c0-2.1-1.7-3.7-3.8-3.6c-2.1,0-3.7,1.7-3.6,3.8c0,2.1,1.7,3.7,3.8,3.6C7.9,97,9.5,95.4,9.5,93.3z"
				/>
			<path class="st12" d="M47.3,82.2c-2.1,0-3.7,1.6-3.7,3.6c0,2.1,1.6,3.8,3.7,3.8c2.1,0,3.7-1.6,3.7-3.7
				C51,83.9,49.4,82.3,47.3,82.2z"/>
			<path class="st12" d="M52,84.5c0,2.1,1.7,3.6,3.8,3.6c2.1,0,3.6-1.7,3.6-3.8c-0.1-2-1.6-3.5-3.7-3.5C53.5,80.8,51.9,82.4,52,84.5
				z"/>
			<path class="st12" d="M82.8,72c0-2.1-1.5-3.7-3.6-3.7c-2.1,0-3.7,1.6-3.7,3.7c0,2,1.5,3.6,3.6,3.6C81.2,75.6,82.8,74,82.8,72z"/>
			<path class="st12" d="M116.2,43.3c2,0,3.6-1.5,3.6-3.5c0-2.1-1.6-3.7-3.6-3.7c-2,0-3.6,1.6-3.6,3.6
				C112.6,41.7,114.1,43.3,116.2,43.3z"/>
			<path class="st12" d="M112.9,49.2c0-2-1.6-3.6-3.6-3.6c-2.1,0-3.7,1.6-3.6,3.7c0,2,1.6,3.5,3.6,3.5
				C111.4,52.8,112.9,51.2,112.9,49.2z"/>
			<path class="st12" d="M87.5,66.8c-2,0-3.6,1.6-3.6,3.6c0,2.1,1.7,3.6,3.7,3.6c2-0.1,3.5-1.7,3.5-3.7
				C91.1,68.4,89.5,66.8,87.5,66.8z"/>
			<path class="st12" d="M138.9,1.8c0-2-1.5-3.6-3.5-3.6c-2.1,0-3.7,1.6-3.7,3.7c0,2,1.6,3.5,3.6,3.5C137.3,5.4,138.9,3.8,138.9,1.8
				z"/>
			<path class="st12" d="M-2.7,98.5c-1,0-1.9-0.4-2.5-1.1v-5.2c0.7-0.7,1.6-1.1,2.6-1.1c2.1,0,3.7,1.6,3.6,3.7
				C1,97-0.6,98.6-2.7,98.5z"/>
			<path class="st12" d="M64,86.9c2.1,0,3.6-1.6,3.6-3.7c0-2-1.6-3.5-3.6-3.5c-2.1,0-3.6,1.6-3.6,3.7C60.4,85.3,62,86.9,64,86.9z"/>
			<path class="st12" d="M123,33.4c2,0,3.6-1.5,3.7-3.5c0-2.1-1.6-3.7-3.6-3.7c-2,0-3.6,1.6-3.6,3.6C119.4,31.8,121,33.4,123,33.4z"
				/>
			<path class="st12" d="M130,16.4c-2,0-3.6,1.6-3.6,3.5c0,2,1.6,3.6,3.5,3.6c2,0,3.6-1.6,3.6-3.5C133.5,18.1,131.9,16.4,130,16.4z"
				/>
			<path class="st12" d="M72.3,85.3c2,0,3.6-1.6,3.6-3.6c0-2-1.6-3.6-3.6-3.6c-2,0-3.6,1.6-3.6,3.6C68.7,83.7,70.4,85.3,72.3,85.3z"
				/>
			<path class="st12" d="M102.5,62.7c2,0,3.6-1.6,3.6-3.6c0-2-1.6-3.6-3.6-3.6c-2,0-3.6,1.6-3.6,3.6
				C98.9,61.1,100.5,62.7,102.5,62.7z"/>
			<path class="st12" d="M12.1,100.3c0,2,1.7,3.6,3.7,3.5c2-0.1,3.5-1.8,3.5-3.7c-0.1-1.9-1.7-3.4-3.6-3.4
				C13.6,96.7,12,98.4,12.1,100.3z"/>
			<path class="st12" d="M7.3,98.2c-1.9,0-3.6,1.7-3.6,3.6c0,1.9,1.6,3.5,3.5,3.5c1.9,0,3.6-1.7,3.6-3.6
				C10.8,99.8,9.2,98.2,7.3,98.2z"/>
			<path class="st12" d="M48.8,90.7c-1.9,0-3.6,1.7-3.6,3.6c0,1.9,1.7,3.5,3.5,3.5c1.9,0,3.6-1.7,3.6-3.6
				C52.3,92.3,50.6,90.7,48.8,90.7z"/>
			<path class="st12" d="M40.5,99.3c2,0,3.6-1.7,3.5-3.7c-0.1-2-1.8-3.5-3.7-3.5c-1.9,0.1-3.4,1.7-3.4,3.6
				C36.8,97.8,38.5,99.4,40.5,99.3z"/>
			<path class="st12" d="M32,100.8c2,0,3.6-1.6,3.6-3.6c0-2-1.7-3.6-3.6-3.6c-1.9,0-3.5,1.6-3.5,3.5C28.4,99.2,30.1,100.8,32,100.8z
				"/>
			<path class="st12" d="M27.6,98.7c0-2-1.7-3.6-3.7-3.5c-2,0-3.6,1.7-3.5,3.7c0.1,1.9,1.7,3.5,3.6,3.5
				C26,102.3,27.6,100.7,27.6,98.7z"/>
			<path class="st12" d="M99.1,69c0-1.9-1.6-3.5-3.5-3.6c-1.9,0-3.6,1.6-3.6,3.6c0,1.9,1.7,3.5,3.6,3.5C97.5,72.5,99.1,70.8,99.1,69
				z"/>
			<path class="st12" d="M57.1,96.3c1.9,0,3.5-1.7,3.5-3.6c0-1.9-1.7-3.5-3.6-3.5c-1.9,0-3.5,1.7-3.5,3.6
				C53.6,94.7,55.2,96.3,57.1,96.3z"/>
			<path class="st12" d="M136.8,6.6c-1.9,0-3.5,1.5-3.6,3.4c-0.1,1.9,1.6,3.6,3.6,3.6c1.9,0,3.5-1.6,3.5-3.5
				C140.3,8.3,138.7,6.6,136.8,6.6z"/>
			<path class="st12" d="M145.3-6.2c-0.6,1.1-1.7,1.9-3,2c-1.4,0.1-2.6-0.8-3.3-2H145.3z"/>
			<path class="st12" d="M80.7,76.7c-1.9,0-3.5,1.6-3.5,3.5c0,1.9,1.7,3.6,3.6,3.6c1.9,0,3.5-1.7,3.5-3.6
				C84.2,78.3,82.6,76.7,80.7,76.7z"/>
			<path class="st12" d="M-1,99.7c-1.9,0-3.5,1.6-3.6,3.5c0,1.9,1.6,3.5,3.5,3.6c1.9,0,3.5-1.6,3.6-3.5C2.5,101.4,0.8,99.7-1,99.7z"
				/>
			<path class="st12" d="M65.5,94.8c1.9,0,3.5-1.7,3.5-3.6c-0.1-1.9-1.6-3.4-3.5-3.4c-1.9,0-3.5,1.7-3.5,3.6
				C62,93.3,63.6,94.8,65.5,94.8z"/>
			<path class="st12" d="M134.9,28.4c0-1.9-1.6-3.5-3.5-3.5c-1.9,0-3.5,1.7-3.5,3.6c0,1.8,1.6,3.4,3.4,3.4
				C133.2,31.9,134.9,30.2,134.9,28.4z"/>
			<path class="st12" d="M121.2,48c0-1.9-1.7-3.5-3.6-3.5c-1.9,0.1-3.5,1.8-3.4,3.6c0.1,1.9,1.7,3.4,3.5,3.4
				C119.6,51.5,121.2,49.9,121.2,48z"/>
			<path class="st12" d="M124.6,34.7c-1.9,0-3.5,1.6-3.5,3.5c0,1.9,1.6,3.5,3.5,3.5c1.8,0,3.4-1.6,3.5-3.4
				C128.1,36.4,126.5,34.7,124.6,34.7z"/>
			<path class="st12" d="M110.8,54.1c-1.9,0-3.5,1.7-3.5,3.6c0,1.9,1.7,3.5,3.6,3.4c1.9-0.1,3.4-1.6,3.4-3.5
				C114.3,55.7,112.7,54.1,110.8,54.1z"/>
			<path class="st12" d="M143.7,4c1.9,0,3.5-1.7,3.4-3.6c-0.1-1.9-1.6-3.4-3.5-3.3c-1.9,0-3.5,1.7-3.4,3.6
				C140.3,2.6,141.8,4.1,143.7,4z"/>
			<path class="st12" d="M88.7,75.3c-1.9,0-3.5,1.6-3.4,3.5c0.1,1.9,1.6,3.4,3.5,3.4c1.9,0,3.5-1.6,3.4-3.5
				C92.1,76.8,90.6,75.3,88.7,75.3z"/>
			<path class="st12" d="M141.7,18.5c0-1.9-1.5-3.4-3.4-3.4c-1.9,0-3.4,1.5-3.4,3.4c0,1.9,1.5,3.4,3.4,3.4
				C140.2,21.9,141.7,20.4,141.7,18.5z"/>
			<path class="st12" d="M77.2,89.8c0-1.9-1.5-3.4-3.4-3.4c-1.9,0-3.4,1.5-3.4,3.4c0,1.9,1.5,3.4,3.4,3.4
				C75.8,93.2,77.2,91.7,77.2,89.8z"/>
			<path class="st12" d="M107.4,67.4c0-1.9-1.5-3.4-3.4-3.4c-1.9,0-3.4,1.5-3.4,3.4c0,1.9,1.5,3.4,3.4,3.4
				C105.9,70.8,107.4,69.3,107.4,67.4z"/>
			<path class="st12" d="M58.6,97.9c-1.8,0-3.3,1.5-3.3,3.3c0,1.8,1.5,3.3,3.3,3.3c1.8,0,3.3-1.5,3.3-3.3
				C61.9,99.3,60.4,97.8,58.6,97.9z"/>
			<path class="st12" d="M100.4,77.3c0-1.9-1.4-3.3-3.2-3.4c-1.9,0-3.4,1.4-3.4,3.3c0,1.9,1.4,3.3,3.3,3.3
				C98.9,80.6,100.4,79.2,100.4,77.3z"/>
			<path class="st12" d="M12.1,110.2c0-1.8-1.4-3.3-3.2-3.4c-1.9,0-3.4,1.4-3.4,3.3c0,1.8,1.4,3.3,3.3,3.3
				C10.6,113.4,12,112,12.1,110.2z"/>
			<path class="st12" d="M53.6,102.7c0-1.9-1.4-3.3-3.2-3.4c-1.9,0-3.4,1.4-3.4,3.3c0,1.9,1.4,3.3,3.3,3.3
				C52.1,106,53.5,104.6,53.6,102.7z"/>
			<path class="st12" d="M85.5,88.6c0-1.8-1.5-3.3-3.3-3.3c-1.9,0-3.4,1.5-3.3,3.4c0.1,1.8,1.5,3.2,3.4,3.2
				C84.1,91.9,85.5,90.4,85.5,88.6z"/>
			<path class="st12" d="M28.5,107.1c0-1.9-1.5-3.4-3.4-3.3c-1.9,0-3.3,1.5-3.2,3.4c0,1.9,1.5,3.4,3.4,3.3
				C27.1,110.4,28.5,109,28.5,107.1z"/>
			<path class="st12" d="M33.6,109c1.9,0,3.3-1.5,3.3-3.5c-0.1-1.8-1.5-3.2-3.4-3.2c-1.9,0-3.3,1.5-3.3,3.5
				C30.3,107.6,31.7,109,33.6,109z"/>
			<path class="st12" d="M115.6,65.9c0-1.8-1.5-3.3-3.3-3.2c-1.8,0-3.3,1.5-3.2,3.3c0,1.8,1.5,3.3,3.3,3.2
				C114.2,69.2,115.6,67.7,115.6,65.9z"/>
			<path class="st12" d="M126.1,49.9c1.9,0,3.3-1.5,3.3-3.3c0-1.9-1.5-3.4-3.4-3.3c-1.8,0.1-3.2,1.5-3.2,3.4
				C122.8,48.5,124.2,49.9,126.1,49.9z"/>
			<path class="st12" d="M119.1,52.8c-1.9,0-3.3,1.5-3.3,3.3c0,1.9,1.5,3.4,3.4,3.3c1.8-0.1,3.2-1.5,3.2-3.4
				C122.4,54.2,121,52.8,119.1,52.8z"/>
			<path class="st12" d="M17.2,111.9c1.9,0,3.3-1.5,3.3-3.5c-0.1-1.8-1.5-3.2-3.4-3.2c-1.9,0-3.3,1.5-3.3,3.5
				C13.9,110.6,15.3,112,17.2,111.9z"/>
			<path class="st12" d="M148.5,8.7c0-1.9-1.4-3.4-3.4-3.4c-1.9,0-3.3,1.4-3.3,3.3c0,1.9,1.4,3.4,3.4,3.4
				C147,12,148.4,10.5,148.5,8.7z"/>
			<path class="st12" d="M139.7,30.1c1.8,0,3.3-1.4,3.3-3.3c0-1.8-1.4-3.3-3.3-3.3c-1.8,0-3.3,1.4-3.3,3.3
				C136.4,28.6,137.9,30.1,139.7,30.1z"/>
			<path class="st12" d="M136.2,36.7c0-1.9-1.4-3.3-3.3-3.3c-1.9,0-3.4,1.5-3.3,3.4c0,1.8,1.5,3.3,3.4,3.2
				C134.8,40,136.2,38.5,136.2,36.7z"/>
			<path class="st12" d="M41.8,100.8c-1.9,0.1-3.3,1.6-3.2,3.5c0.1,1.8,1.6,3.2,3.5,3.1c1.9-0.1,3.3-1.6,3.2-3.5
				C45.1,102.1,43.6,100.7,41.8,100.8z"/>
			<path class="st12" d="M3.7,111.6c0-1.8-1.5-3.3-3.3-3.3c-1.8,0-3.3,1.5-3.2,3.4c0,1.8,1.5,3.2,3.2,3.2
				C2.2,114.9,3.7,113.4,3.7,111.6z"/>
			<path class="st12" d="M70.2,99.6c0-1.8-1.6-3.3-3.4-3.2c-1.8,0.1-3.2,1.6-3.2,3.3c0,1.8,1.6,3.3,3.4,3.2
				C68.8,102.9,70.2,101.4,70.2,99.6z"/>
			<path class="st12" d="M146.6,20.3c1.7,0,3.2-1.5,3.2-3.2c0-1.8-1.5-3.3-3.3-3.3c-1.7,0-3.2,1.6-3.2,3.3
				C143.4,18.8,144.9,20.3,146.6,20.3z"/>
			<path class="st12" d="M-5.2,114.5v-3.4c0.3,0.5,0.5,1,0.5,1.5C-4.7,113.3-4.8,113.9-5.2,114.5z"/>
			<path class="st12" d="M108.7,75.8c0-1.7-1.4-3.2-3.2-3.3c-1.8,0-3.3,1.5-3.3,3.3c0,1.7,1.5,3.2,3.3,3.2
				C107.2,79,108.7,77.6,108.7,75.8z"/>
			<path class="st12" d="M152-4.2c-1.8,0-3.2,1.5-3.2,3.2c0,1.8,1.6,3.3,3.4,3.3c1.8-0.1,3.2-1.6,3.2-3.3
				C155.2-2.7,153.7-4.2,152-4.2z"/>
			<path class="st12" d="M90.3,83.9c-1.7,0-3.3,1.4-3.3,3.2c-0.1,1.8,1.5,3.4,3.3,3.4c1.8,0,3.2-1.5,3.3-3.2
				C93.5,85.4,92,83.9,90.3,83.9z"/>
			<path class="st12" d="M75.3,101.4c1.7,0,3.2-1.5,3.2-3.2c0-1.7-1.6-3.2-3.3-3.2c-1.7,0-3.1,1.5-3.1,3.2
				C72.1,99.9,73.6,101.4,75.3,101.4z"/>
			<path class="st12" d="M124.3,54.7c0,1.7,1.6,3.2,3.3,3.1c1.7-0.1,3.2-1.7,3.1-3.4c-0.1-1.7-1.6-3.1-3.2-3.1
				C125.8,51.4,124.3,53,124.3,54.7z"/>
			<path class="st12" d="M137.6,45.1c0-1.7-1.4-3.3-3.2-3.3c-1.7,0-3.2,1.5-3.2,3.2c0,1.7,1.4,3.1,3.1,3.2
				C136,48.3,137.6,46.9,137.6,45.1z"/>
			<path class="st12" d="M144.4,35.2c0-1.7-1.5-3.2-3.2-3.2c-1.7,0-3.1,1.4-3.1,3.1c0,1.7,1.5,3.2,3.2,3.2
				C143,38.4,144.4,36.9,144.4,35.2z"/>
			<path class="st12" d="M120.7,61.3c-1.7,0-3.2,1.5-3.2,3.2c0,1.7,1.4,3.1,3.1,3.2c1.7,0,3.2-1.5,3.2-3.2
				C123.8,62.7,122.4,61.3,120.7,61.3z"/>
			<path class="st12" d="M26.7,112.3c-1.7,0-3.1,1.4-3.2,3.1c0,1.8,1.4,3.3,3.2,3.2c1.7,0,3.1-1.4,3.1-3.1
				C29.8,113.8,28.4,112.3,26.7,112.3z"/>
			<path class="st12" d="M31.9,114c0,1.7,1.4,3.1,3.1,3.2c1.8,0,3.2-1.5,3.2-3.2c0-1.7-1.5-3.1-3.2-3.1
				C33.3,110.9,31.9,112.3,31.9,114z"/>
			<path class="st12" d="M46.5,112.4c0-1.7-1.4-3.1-3.2-3.1c-1.7,0-3.1,1.4-3.1,3.2c0,1.7,1.4,3.1,3.2,3.1
				C45.1,115.6,46.5,114.2,46.5,112.4z"/>
			<path class="st12" d="M101.7,85.6c0-1.7-1.5-3.1-3.2-3.1c-1.8,0-3.2,1.5-3.1,3.3c0.1,1.7,1.5,3.1,3.2,3
				C100.4,88.7,101.8,87.3,101.7,85.6z"/>
			<path class="st12" d="M156.6,7.4c0-1.7-1.4-3.1-3.1-3.1c-1.8,0-3.2,1.5-3.2,3.2c0.1,1.7,1.5,3.1,3.2,3.1
				C155.2,10.6,156.7,9.1,156.6,7.4z"/>
			<path class="st12" d="M158,15.5c0-1.7-1.4-3-3.1-3c-1.7,0-3,1.4-3,3.1c0,1.7,1.4,3,3.1,3C156.7,18.5,158,17.2,158,15.5z"/>
			<path class="st12" d="M63.1,109.6c0-1.8-1.3-3.1-3.1-3.1c-1.7,0-3,1.3-3,3c0,1.8,1.3,3.1,3.1,3.1
				C61.8,112.5,63.1,111.3,63.1,109.6z"/>
			<path class="st12" d="M51.7,114.1c1.8,0,3.1-1.3,3.1-3.1c0-1.8-1.4-3.1-3.1-3.1c-1.7,0-3,1.3-3,3
				C48.6,112.7,49.9,114.1,51.7,114.1z"/>
			<path class="st12" d="M4.9,119.6c0-1.7-1.3-3-3-3c-1.8,0-3.1,1.3-3.1,3.1c0,1.7,1.4,3,3.1,3C3.7,122.7,4.9,121.4,4.9,119.6z"/>
			<path class="st12" d="M116.9,74.3c0-1.8-1.4-3.1-3.1-3.1c-1.8,0-3.1,1.4-3,3.2c0,1.7,1.3,3,3,3C115.5,77.4,116.9,76.1,116.9,74.3
				z"/>
			<path class="st12" d="M10.2,121.5c1.8,0,3.1-1.3,3.1-3.1c0-1.7-1.3-3-3-3c-1.8,0-3.1,1.3-3.1,3.1C7.2,120.2,8.5,121.5,10.2,121.5
				z"/>
			<path class="st12" d="M163.4-2.5c-0.1-1.7-1.4-2.9-3.1-2.9c-1.7,0.1-2.9,1.4-2.9,3.1c0.1,1.7,1.4,2.9,3.1,2.9
				C162.1,0.6,163.4-0.8,163.4-2.5z"/>
			<path class="st12" d="M86.5,96.7c0-1.7-1.3-3.1-3.1-3.1s-3.1,1.3-3.1,3.1c0,1.7,1.3,3.1,3.1,3.1C85.1,99.8,86.5,98.4,86.5,96.7z"
				/>
			<path class="st12" d="M109.9,84.2c0-1.7-1.3-3-3-3c-1.7,0-3,1.3-3,3c0,1.7,1.3,3,3,3C108.6,87.2,109.9,85.8,109.9,84.2z"/>
			<path class="st12" d="M151.2,25.4c0-1.8-1.3-3.1-3.1-3.1c-1.8,0-3.1,1.4-3.1,3.1c0,1.7,1.3,3,3,3
				C149.8,28.5,151.2,27.1,151.2,25.4z"/>
			<path class="st12" d="M91.7,98.2c1.7,0,3-1.3,3.1-3c0-1.7-1.3-3-3-3.1c-1.7,0-3,1.3-3.1,3C88.7,96.8,90,98.2,91.7,98.2z"/>
			<path class="st12" d="M18.6,113.9c-1.7,0-3.1,1.4-3.1,3.1c0,1.7,1.4,3.1,3.1,3.1c1.7,0,3.1-1.4,3.1-3.1
				C21.7,115.2,20.3,113.9,18.6,113.9z"/>
			<path class="st12" d="M68.4,111c1.7,0,3-1.3,3-3c0-1.7-1.3-3-3-3c-1.7,0-3,1.3-3,3C65.4,109.7,66.7,111,68.4,111z"/>
			<path class="st12" d="M152.6,33.7c0-1.6-1.3-3-2.9-3c-1.7,0-3.1,1.4-3,3c0,1.6,1.4,2.9,3,2.9C151.2,36.7,152.6,35.3,152.6,33.7z"
				/>
			<path class="st12" d="M142.7,46.6c1.7,0,3-1.3,3.1-3c0-1.7-1.3-3-3-3c-1.6,0-2.9,1.3-3,2.9C139.7,45.1,141,46.5,142.7,46.6z"/>
			<path class="st12" d="M-5.2,123.9v-5.4c1,0.5,1.7,1.5,1.7,2.7C-3.5,122.4-4.2,123.4-5.2,123.9z"/>
			<path class="st12" d="M125.1,72.8c0-1.6-1.3-3-2.9-3c-1.6,0-3.1,1.3-3.1,3c0,1.6,1.4,2.9,3,2.9C123.7,75.8,125.1,74.4,125.1,72.8
				z"/>
			<path class="st12" d="M135.9,56.4c1.7,0,3-1.3,3-3c0-1.7-1.4-3-3.1-3c-1.6,0-2.9,1.3-2.9,2.9C132.9,55,134.2,56.4,135.9,56.4z"/>
			<path class="st12" d="M132,62.9c0-1.7-1.4-3-3.1-2.9c-1.7,0-3,1.4-2.9,3.1c0.1,1.6,1.4,2.9,3,2.9C130.7,65.9,132,64.6,132,62.9z"
				/>
			<path class="st12" d="M76.8,109.5c1.6,0,2.9-1.3,3-2.9c0-1.6-1.4-3.1-3-3c-1.6,0-2.9,1.4-2.9,3C73.8,108.1,75.2,109.5,76.8,109.5
				z"/>
			<path class="st12" d="M19.9,122.1c-1.5,0-2.9,1.2-2.9,2.8c-0.1,1.6,1.3,3,2.9,3c1.5,0,2.9-1.3,2.9-2.9
				C22.7,123.5,21.4,122.2,19.9,122.1z"/>
			<path class="st12" d="M161.9,8.9c1.6,0,2.9-1.5,2.9-3c-0.1-1.6-1.5-2.9-3.1-2.8c-1.5,0.1-2.8,1.5-2.8,3
				C158.9,7.6,160.3,8.9,161.9,8.9z"/>
			<path class="st12" d="M42,120.8c0,1.5,1.3,2.9,2.8,2.9c1.6,0,3-1.4,2.9-3c0-1.5-1.4-2.8-2.9-2.8C43.3,118,42,119.3,42,120.8z"/>
			<path class="st12" d="M156.4,26.8c1.6,0,3-1.4,2.9-2.9c0-1.5-1.3-2.8-2.9-2.9c-1.6,0-3,1.4-2.9,2.9
				C153.6,25.4,154.9,26.7,156.4,26.8z"/>
			<path class="st12" d="M87.7,105c0-1.5-1.4-2.8-2.9-2.8c-1.6,0-2.9,1.4-2.8,3c0.1,1.6,1.5,2.8,3,2.7
				C86.5,107.8,87.8,106.5,87.7,105z"/>
			<path class="st12" d="M103,94c0-1.6-1.4-2.9-3-2.9c-1.6,0-2.9,1.5-2.9,3c0.1,1.5,1.4,2.8,2.9,2.8C101.6,96.9,103,95.5,103,94z"/>
			<path class="st12" d="M118.2,82.7c0-1.6-1.3-3-2.9-3c-1.5,0-2.9,1.3-2.9,2.8c0,1.6,1.3,3,2.9,3C116.8,85.5,118.2,84.2,118.2,82.7
				z"/>
			<path class="st12" d="M28.2,120.9c-1.6,0-3,1.4-2.9,2.9c0,1.5,1.3,2.8,2.9,2.9c1.6,0,3-1.4,2.9-2.9
				C31,122.3,29.7,120.9,28.2,120.9z"/>
			<path class="st12" d="M39.4,122.3c0-1.6-1.4-2.9-3-2.9c-1.5,0.1-2.8,1.4-2.8,2.9c0,1.6,1.4,2.9,3,2.9
				C38.1,125.2,39.4,123.8,39.4,122.3z"/>
			<path class="st12" d="M11.7,123.7c-1.6,0-2.8,1.3-2.8,2.9c0,1.6,1.3,2.8,2.9,2.8c1.6,0,2.8-1.3,2.8-2.9
				C14.6,124.9,13.3,123.7,11.7,123.7z"/>
			<path class="st12" d="M56.1,119.3c0-1.5-1.3-2.8-2.9-2.8c-1.6,0-2.9,1.4-2.8,3c0.1,1.6,1.4,2.8,2.9,2.7
				C54.9,122.2,56.1,120.8,56.1,119.3z"/>
			<path class="st12" d="M133.3,71.3c0-1.6-1.2-2.8-2.8-2.8c-1.5,0-2.7,1.2-2.7,2.8c0,1.6,1.2,2.8,2.8,2.8
				C132.1,74,133.3,72.9,133.3,71.3z"/>
			<path class="st12" d="M165.8,14.1c0-1.6-1.2-2.8-2.8-2.8c-1.5,0-2.7,1.2-2.8,2.7c0,1.6,1.2,2.8,2.8,2.8
				C164.6,16.8,165.8,15.6,165.8,14.1z"/>
			<path class="st12" d="M147,51.9c0-1.6-1.1-2.8-2.7-2.8c-1.6-0.1-2.9,1.1-2.9,2.8c0,1.6,1.2,2.8,2.8,2.8
				C145.8,54.7,147,53.5,147,51.9z"/>
			<path class="st12" d="M61.6,115.1c-1.6,0-2.8,1.2-2.8,2.9c0,1.5,1.2,2.7,2.8,2.7c1.6,0,2.8-1.2,2.8-2.9
				C64.3,116.2,63.1,115.1,61.6,115.1z"/>
			<path class="st12" d="M137.3,58.7c-1.6,0-2.8,1.3-2.8,2.9c0,1.6,1.3,2.8,2.9,2.7c1.5,0,2.7-1.2,2.7-2.8
				C140.2,59.9,138.9,58.7,137.3,58.7z"/>
			<path class="st12" d="M3.3,125.2c-1.6,0-2.8,1.3-2.7,2.9c0.1,1.5,1.3,2.7,2.8,2.6c1.6,0,2.8-1.3,2.7-2.9
				C6.1,126.4,4.9,125.2,3.3,125.2z"/>
			<path class="st12" d="M166.9-6.2h3c0.7,0.5,1.2,1.3,1.2,2.3c0,1.6-1.1,2.8-2.6,2.8c-1.6,0-2.9-1.1-2.8-2.8
				C165.7-4.9,166.2-5.7,166.9-6.2z"/>
			<path class="st12" d="M111.2,92.5c0-1.6-1.2-2.7-2.7-2.7c-1.6,0-2.8,1.2-2.7,2.9c0,1.5,1.3,2.7,2.8,2.6
				C110,95.2,111.2,94,111.2,92.5z"/>
			<path class="st12" d="M93.3,106.3c1.5,0,2.7-1.2,2.7-2.8c0-1.6-1.3-2.8-2.9-2.7c-1.5,0.1-2.7,1.3-2.6,2.8
				C90.5,105.2,91.7,106.3,93.3,106.3z"/>
			<path class="st12" d="M153.9,42c0-1.6-1.3-2.8-2.9-2.7c-1.5,0.1-2.7,1.2-2.7,2.8c0,1.6,1.3,2.8,2.9,2.7
				C152.7,44.8,153.9,43.6,153.9,42z"/>
			<path class="st12" d="M69.9,113.7c-1.5,0-2.7,1.2-2.7,2.7c0,1.5,1.2,2.7,2.7,2.7c1.5,0,2.7-1.2,2.7-2.7
				C72.6,114.8,71.4,113.6,69.9,113.7z"/>
			<path class="st12" d="M-5,132.2c-0.1,0-0.1,0-0.2,0v-5.4c0.1,0,0.1,0,0.2,0c1.5,0,2.7,1.2,2.7,2.7C-2.3,131.1-3.5,132.2-5,132.2z
				"/>
			<path class="st12" d="M120.9,81.2c0,1.5,1.3,2.7,2.8,2.6c1.5-0.1,2.7-1.3,2.6-2.8c-0.1-1.5-1.3-2.6-2.7-2.6
				C122.1,78.5,120.9,79.7,120.9,81.2z"/>
			<path class="st12" d="M101.5,99.4c-1.4,0-2.6,1.3-2.6,2.7c0,1.4,1.3,2.6,2.7,2.6c1.4,0,2.6-1.3,2.6-2.7
				C104.2,100.6,102.9,99.4,101.5,99.4z"/>
			<path class="st12" d="M167.2,22.4c0-1.4-1.2-2.7-2.7-2.7c-1.4,0-2.7,1.2-2.7,2.7c0,1.4,1.2,2.7,2.7,2.7
				C165.9,25,167.2,23.8,167.2,22.4z"/>
			<path class="st12" d="M169.8,7.1c1.4,0,2.7-1.1,2.7-2.6c0.1-1.5-1.2-2.8-2.7-2.8c-1.4,0-2.6,1.2-2.7,2.6
				C167.2,5.9,168.4,7.1,169.8,7.1z"/>
			<path class="st12" d="M80.7,114.9c0-1.4-1.1-2.7-2.6-2.7c-1.5-0.1-2.8,1.2-2.8,2.7c0,1.4,1.2,2.7,2.7,2.7
				C79.4,117.6,80.6,116.4,80.7,114.9z"/>
			<path class="st12" d="M157.7,29.5c-1.5,0-2.8,1.2-2.8,2.7c0,1.5,1.2,2.7,2.7,2.7c1.5,0,2.6-1.1,2.7-2.6
				C160.4,30.8,159.2,29.5,157.7,29.5z"/>
			<path class="st12" d="M116.8,93.6c1.4,0,2.7-1.2,2.7-2.7c0-1.4-1.3-2.7-2.7-2.6c-1.4,0-2.6,1.2-2.6,2.6
				C114.1,92.4,115.3,93.6,116.8,93.6z"/>
			<path class="st12" d="M148.4,60c0-1.4-1.2-2.7-2.6-2.7c-1.4,0-2.7,1.3-2.6,2.7c0,1.4,1.2,2.5,2.6,2.6
				C147.1,62.6,148.3,61.4,148.4,60z"/>
			<path class="st12" d="M154.9,50.4c0-1.4-1.3-2.7-2.7-2.6c-1.4,0-2.5,1.2-2.6,2.6c0,1.4,1.3,2.7,2.7,2.6
				C153.7,53,154.9,51.8,154.9,50.4z"/>
			<path class="st12" d="M86.4,116c1.4,0,2.5-1.3,2.5-2.6c0-1.4-1.3-2.6-2.7-2.5c-1.4,0.1-2.5,1.3-2.4,2.7
				C83.8,114.9,85.1,116,86.4,116z"/>
			<path class="st12" d="M138.8,67.2c-1.4,0-2.6,1.4-2.5,2.8c0.1,1.4,1.3,2.5,2.7,2.5c1.4,0,2.6-1.4,2.5-2.8
				C141.4,68.3,140.1,67.2,138.8,67.2z"/>
			<path class="st12" d="M38,133c1.4,0,2.7-1.3,2.6-2.7c-0.1-1.4-1.3-2.5-2.6-2.5c-1.4,0-2.7,1.3-2.6,2.7
				C35.4,131.8,36.7,133,38,133z"/>
			<path class="st12" d="M29.7,134.5c1.4,0,2.6-1.3,2.6-2.7c-0.1-1.4-1.3-2.5-2.6-2.5c-1.4,0-2.6,1.3-2.6,2.7
				C27.1,133.4,28.3,134.5,29.7,134.5z"/>
			<path class="st12" d="M21.3,130.8c-1.4,0-2.6,1.2-2.6,2.6c0,1.4,1.3,2.7,2.7,2.6c1.4-0.1,2.5-1.3,2.5-2.6
				C23.9,132,22.7,130.8,21.3,130.8z"/>
			<path class="st12" d="M159.1,38c-1.4,0-2.5,1.2-2.5,2.6c0.1,1.4,1.3,2.5,2.7,2.4c1.4-0.1,2.4-1.2,2.4-2.6
				C161.7,39.1,160.5,38,159.1,38z"/>
			<path class="st12" d="M132,77.1c-1.4,0-2.6,1.1-2.6,2.5c0,1.4,1.2,2.6,2.6,2.5c1.4,0,2.5-1.1,2.5-2.5
				C134.6,78.3,133.4,77.2,132,77.1z"/>
			<path class="st12" d="M54.7,130.2c1.4,0,2.6-1.1,2.6-2.5c0-1.4-1.2-2.6-2.6-2.5c-1.4,0-2.5,1.1-2.5,2.5
				C52.1,129,53.3,130.2,54.7,130.2z"/>
			<path class="st12" d="M46.4,131.8c1.4,0,2.5-1.2,2.5-2.6c0-1.4-1.2-2.5-2.6-2.5c-1.4,0-2.5,1.2-2.5,2.6
				C43.8,130.6,45,131.8,46.4,131.8z"/>
			<path class="st12" d="M15.8,134.9c0-1.4-1.1-2.6-2.5-2.6c-1.4,0-2.6,1.1-2.5,2.6c0,1.4,1.1,2.5,2.4,2.5
				C14.6,137.5,15.7,136.3,15.8,134.9z"/>
			<path class="st12" d="M7.3,136.4c0-1.4-1.1-2.4-2.4-2.4c-1.4,0-2.4,1.1-2.4,2.4c0,1.4,1.1,2.4,2.4,2.4
				C6.3,138.8,7.3,137.7,7.3,136.4z"/>
			<path class="st12" d="M112.4,100.5c0-1.4-1.2-2.5-2.6-2.4c-1.4,0.1-2.4,1.1-2.3,2.5c0,1.4,1.2,2.5,2.6,2.4
				C111.4,103,112.4,101.9,112.4,100.5z"/>
			<path class="st12" d="M171.5,10.3c-1.4,0-2.5,1.1-2.5,2.5c0,1.4,1,2.4,2.4,2.5c1.4,0,2.5-1.1,2.5-2.5
				C173.9,11.4,172.8,10.4,171.5,10.3z"/>
			<path class="st12" d="M65.5,126.3c0-1.4-1-2.5-2.4-2.5c-1.5,0-2.6,1-2.6,2.5c0,1.4,1,2.4,2.4,2.4
				C64.4,128.7,65.5,127.7,65.5,126.3z"/>
			<path class="st12" d="M179.1-6.2c0.1,0.2,0.1,0.5,0.1,0.8c0,1.4-1,2.5-2.4,2.5c-1.4,0-2.5-1-2.5-2.4c0-0.3,0.1-0.6,0.1-0.9H179.1
				z"/>
			<path class="st12" d="M97.1,112c0-1.4-1-2.5-2.4-2.5c-1.4,0-2.5,1-2.5,2.4c0,1.4,1,2.5,2.4,2.5C96,114.4,97.1,113.3,97.1,112z"/>
			<path class="st12" d="M156.2,58.7c0-1.3-1.1-2.4-2.4-2.3c-1.3,0-2.4,1.1-2.3,2.4c0,1.3,1.1,2.4,2.4,2.3
				C155.1,61.1,156.2,60,156.2,58.7z"/>
			<path class="st12" d="M125.1,91.9c1.4,0,2.5-1,2.5-2.4c0-1.4-1-2.5-2.4-2.5c-1.3,0-2.4,1-2.4,2.3
				C122.7,90.8,123.7,91.9,125.1,91.9z"/>
			<path class="st12" d="M166,33.2c1.4,0,2.5-1,2.4-2.4c0-1.4-1.1-2.4-2.5-2.4c-1.3,0-2.3,1-2.4,2.4C163.6,32.1,164.6,33.1,166,33.2
				z"/>
			<path class="st12" d="M-3.4,140.2c-0.7,0-1.4-0.3-1.8-0.7v-3.3c0.4-0.4,1-0.7,1.7-0.7c1.3,0,2.4,1,2.4,2.3
				C-1.1,139.1-2.1,140.2-3.4,140.2z"/>
			<path class="st12" d="M149.3,68.3c0-1.3-1.1-2.4-2.4-2.3c-1.3,0-2.4,1.1-2.3,2.4c0,1.3,1.1,2.4,2.4,2.3
				C148.2,70.7,149.3,69.6,149.3,68.3z"/>
			<path class="st12" d="M73.5,124.7c0-1.4-1.1-2.4-2.5-2.4c-1.4,0-2.4,1.2-2.3,2.5c0.1,1.3,1.1,2.3,2.4,2.3
				C72.5,127.1,73.6,126.1,73.5,124.7z"/>
			<path class="st12" d="M172.9,18.5c-1.3,0-2.4,1.1-2.4,2.4c0,1.3,1.1,2.4,2.4,2.4c1.2,0,2.3-1.1,2.3-2.3
				C175.3,19.7,174.2,18.5,172.9,18.5z"/>
			<path class="st12" d="M140,80.5c1.3,0,2.4-1.1,2.4-2.4c0-1.2-1.1-2.3-2.3-2.3c-1.3,0-2.4,1.1-2.4,2.4
				C137.7,79.4,138.8,80.5,140,80.5z"/>
			<path class="st12" d="M79.5,125.6c1.3,0,2.4-1.2,2.3-2.4c0-1.3-1.2-2.3-2.5-2.3c-1.2,0.1-2.2,1.2-2.2,2.4
				C77.1,124.5,78.3,125.6,79.5,125.6z"/>
			<path class="st12" d="M105.4,110.4c0-1.3-1.1-2.4-2.4-2.4c-1.2,0-2.3,1.1-2.3,2.3c0,1.3,1.1,2.4,2.4,2.4
				C104.3,112.7,105.4,111.6,105.4,110.4z"/>
			<path class="st12" d="M163,49c0-1.2-1-2.3-2.2-2.4c-1.2-0.1-2.4,1-2.5,2.3c0,1.3,1.1,2.4,2.4,2.4C161.9,51.2,163,50.2,163,49z"/>
			<path class="st12" d="M120.6,99.4c0-1.3-1.1-2.4-2.4-2.4c-1.2,0-2.3,1.1-2.3,2.3c0,1.3,1.1,2.4,2.4,2.4
				C119.5,101.7,120.6,100.6,120.6,99.4z"/>
			<path class="st12" d="M178.3,5.3c1.3,0,2.4-1.2,2.3-2.4c0-1.3-1.2-2.3-2.5-2.3c-1.2,0.1-2.2,1.2-2.2,2.4
				C175.9,4.3,177,5.4,178.3,5.3z"/>
			<path class="st12" d="M169.7,39c-0.1-1.2-1.1-2.2-2.4-2.1c-1.2,0.1-2.2,1.2-2.1,2.4c0.1,1.2,1.1,2.1,2.3,2.1
				C168.8,41.3,169.8,40.2,169.7,39z"/>
			<path class="st12" d="M135.7,88c0-1.2-1.1-2.2-2.3-2.2c-1.2,0-2.2,1.1-2.2,2.3c0.1,1.2,1,2.1,2.2,2.1
				C134.7,90.3,135.7,89.2,135.7,88z"/>
			<path class="st12" d="M33.3,140.3c0-1.2-0.9-2.2-2.1-2.2c-1.3,0-2.3,0.9-2.3,2.2c0,1.3,1,2.2,2.3,2.2
				C32.4,142.4,33.3,141.5,33.3,140.3z"/>
			<path class="st12" d="M41.7,138.7c0-1.3-1.1-2.2-2.3-2.1c-1.2,0.1-2.1,1-2.1,2.3c0,1.3,1.1,2.2,2.3,2.1
				C40.9,140.9,41.7,139.9,41.7,138.7z"/>
			<path class="st12" d="M50,137.3c0-1.2-0.9-2.2-2.1-2.2c-1.3,0-2.3,0.9-2.2,2.2c0,1.2,1,2.1,2.2,2.1C49.1,139.4,50,138.5,50,137.3
				z"/>
			<path class="st12" d="M22.7,143.9c1.2,0,2.2-0.9,2.2-2.1c0-1.3-0.9-2.3-2.2-2.3c-1.2,0-2.1,0.9-2.2,2.2
				C20.6,142.9,21.5,143.9,22.7,143.9z"/>
			<path class="st12" d="M87.8,123.9c1.3,0,2.2-1,2.2-2.3c0-1.2-1-2.1-2.2-2.1c-1.3,0-2.2,1-2.2,2.3C85.7,123,86.6,123.9,87.8,123.9
				z"/>
			<path class="st12" d="M111.3,111c1.2,0,2.2-0.9,2.2-2.1c0-1.2-0.9-2.2-2.1-2.2c-1.2,0-2.1,0.9-2.1,2
				C109.2,110.1,110.1,111,111.3,111z"/>
			<path class="st12" d="M14.4,145.4c1.2,0,2.2-0.9,2.2-2.1c0-1.2-0.9-2.2-2.1-2.2c-1.2,0-2.1,0.9-2.1,2
				C12.2,144.4,13.1,145.3,14.4,145.4z"/>
			<path class="st12" d="M54.1,135.9c0.1,1.2,1,2.1,2.3,2c1.2-0.1,2-1,2-2.2c0-1.2-1-2.1-2.2-2.1C54.9,133.7,54,134.6,54.1,135.9z"
				/>
			<path class="st12" d="M128.7,97.8c0-1.2-1-2.1-2.2-2.1c-1.1,0.1-2,1-2,2.1c0,1.2,1,2.1,2.2,2.1C127.9,99.9,128.8,99,128.7,97.8z"
				/>
			<path class="st12" d="M176.5,29.3c0-1.2-0.9-2.1-2-2.1c-1.2-0.1-2.2,0.9-2.2,2.1c0,1.2,0.9,2.2,2.2,2.1
				C175.6,31.3,176.5,30.4,176.5,29.3z"/>
			<path class="st12" d="M179.8,9.2c-1.2,0-2.2,0.9-2.2,2.1c0,1.2,0.9,2.2,2.1,2.2c1.2,0,2.1-0.9,2.1-2
				C181.9,10.2,181,9.2,179.8,9.2z"/>
			<path class="st12" d="M98.3,120.2c0-1.1-0.9-2.1-2.1-2.1c-1.2,0-2.2,1-2.1,2.2c0,1.1,1,2,2.1,2C97.4,122.3,98.3,121.4,98.3,120.2
				z"/>
			<path class="st12" d="M64.6,136.7c1.1,0,2-1,2-2.1c0-1.2-1-2.1-2.2-2.1c-1.1,0.1-2,1.1-2,2.2C62.5,135.8,63.5,136.7,64.6,136.7z"
				/>
			<path class="st12" d="M187.1-6.2c-0.3,0.8-1,1.4-1.9,1.4c-0.9,0-1.7-0.6-2-1.4H187.1z"/>
			<path class="st12" d="M157.4,66.8c0-1.1-1-2.1-2.1-2c-1.1,0-2.1,1-2,2.1c0,1.1,1,2.1,2.1,2C156.4,68.9,157.4,67.9,157.4,66.8z"/>
			<path class="st12" d="M8.5,144.7c0-1.1-1-2.1-2.1-2c-1.2,0-2.1,1-2.1,2.2c0.1,1.1,1,2,2.2,2C7.6,146.8,8.5,145.8,8.5,144.7z"/>
			<path class="st12" d="M143.6,86.6c0-1.1-0.9-2-2-2c-1.1,0-2,0.9-2,2c0,1.1,0.9,2,2,2C142.6,88.6,143.5,87.6,143.6,86.6z"/>
			<path class="st12" d="M150.5,76.7c0-1.1-0.9-2.1-2-2.1c-1.1,0-2.1,1-2.1,2.1c0.1,1.2,0.8,1.9,2,2
				C149.4,78.9,150.4,77.9,150.5,76.7z"/>
			<path class="st12" d="M162.1,55.2c-1.1,0-2.1,1-2,2.1c0,1.1,1.1,2.1,2.2,2c1.2-0.1,1.9-0.8,1.9-2.1
				C164.2,56.2,163.2,55.2,162.1,55.2z"/>
			<path class="st12" d="M0.1,146.2c0-1.1-0.9-2-2-2c-1.1,0-2.1,1-2.1,2.1c0,1.1,1,2,2.1,2C-0.9,148.2,0.1,147.3,0.1,146.2z"/>
			<path class="st12" d="M74.7,133.1c0-1.1-1-2.1-2.1-2.1c-1.1,0-2,0.9-2,2c0,1.1,1,2.1,2.1,2.1C73.7,135.1,74.6,134.2,74.7,133.1z"
				/>
			<path class="st12" d="M171,47.4c0-1.1-1-2-2-2c-1.1,0-2,1-2,2c0,1.1,1,2,2,2C170.1,49.4,171,48.5,171,47.4z"/>
			<path class="st12" d="M186.6,3.4c1.2-0.1,2-1,1.9-2.1c-0.2-1.2-0.9-1.8-2-1.7c-1.1,0-1.9,1-1.8,2.1
				C184.8,2.8,185.6,3.4,186.6,3.4z"/>
			<path class="st12" d="M181.2,17.4c-1.1,0-2,1-1.9,2.1c0.1,1.1,1,2,2.1,1.9c1.1-0.1,1.8-0.8,1.8-2
				C183.2,18.3,182.3,17.4,181.2,17.4z"/>
			<path class="st12" d="M119.7,109.4c1.1,0,2-0.9,2-1.9c0-1.1-0.9-2.1-2-2c-1.1,0.1-1.8,0.7-2,1.9
				C117.7,108.4,118.6,109.4,119.7,109.4z"/>
			<path class="st12" d="M104.5,120.7c1.2,0,2.1-0.9,2-2c-0.1-1.2-0.8-1.8-1.9-1.8c-1.1,0-2,0.9-1.9,2
				C102.7,120,103.4,120.6,104.5,120.7z"/>
			<path class="st12" d="M82.9,131.6c-0.1-1.1-0.7-1.8-1.8-1.9c-1.1-0.1-2,0.8-2,1.9c0.1,1.2,0.7,1.8,1.9,1.8
				C82.2,133.5,82.8,132.8,82.9,131.6z"/>
			<path class="st12" d="M89.2,131.9c1.1-0.1,1.8-0.6,1.9-1.7c0-1.1-0.6-1.8-1.7-1.8c-1.1,0-1.8,0.6-1.8,1.7
				C87.5,131.1,88.2,131.7,89.2,131.9z"/>
			<path class="st12" d="M174,37.6c0.1,1.2,0.9,2,2,1.9c1.2-0.1,1.8-0.9,1.7-2c-0.1-1.1-0.8-1.7-1.9-1.6
				C174.6,35.8,174,36.6,174,37.6z"/>
			<path class="st12" d="M134.7,98.2c1.2-0.1,1.8-0.7,1.8-1.9c0-1.2-0.8-1.8-1.9-1.8c-1.1,0-1.7,0.7-1.7,1.8
				C132.9,97.6,133.6,98.1,134.7,98.2z"/>
			<path class="st12" d="M184.7,27.4c-0.7-0.4-1.3-1.2-2-1.3c-1-0.1-1.7,0.7-1.6,1.7c0,1,0.7,1.8,1.7,1.6c0.7-0.1,1.3-0.9,1.9-1.3
				C184.7,27.8,184.7,27.6,184.7,27.4z"/>
			<path class="st12" d="M190.1,9.5c-0.6-0.5-1.2-1.2-2-1.4c-0.9-0.3-1.9,0.8-1.8,1.8c0.1,1,0.8,1.8,1.8,1.6c0.7-0.1,1.3-0.9,2-1.3
				C190.1,10,190.1,9.7,190.1,9.5z"/>
			<path class="st12" d="M114.9,116.9c-0.6-0.5-1.2-1.2-2-1.4c-0.9-0.3-1.9,0.8-1.8,1.8c0.1,1,0.8,1.8,1.8,1.6
				c0.7-0.1,1.3-0.9,2-1.3C114.9,117.4,114.9,117.2,114.9,116.9z"/>
			<path class="st12" d="M26.3,149.7c-0.7-0.4-1.3-1.1-2-1.3c-0.9-0.2-1.8,0.9-1.7,1.8c0.1,1,0.8,1.8,1.8,1.5
				c0.7-0.2,1.3-0.9,1.9-1.4C26.3,150.1,26.3,149.9,26.3,149.7z"/>
			<path class="st12" d="M165.6,65.1c-0.6-0.5-1.2-1.2-1.9-1.4c-0.9-0.3-1.9,0.8-1.8,1.7c0.1,1,0.7,1.8,1.7,1.7
				c0.7-0.1,1.3-0.8,2-1.3C165.6,65.5,165.6,65.3,165.6,65.1z"/>
			<path class="st12" d="M42.8,147.6c-0.2-1.5-0.7-2.3-1.9-2.3c-1,0-1.7,0.7-1.7,1.7c0,1.1,0.7,1.9,1.8,1.7
				C41.7,148.7,42.3,148,42.8,147.6z"/>
			<path class="st12" d="M158.8,74.8c-0.7-0.5-1.3-1.1-2-1.3c-0.9-0.2-1.8,0.9-1.7,1.8c0.1,1,0.8,1.8,1.8,1.6
				c0.7-0.1,1.3-0.9,1.9-1.4C158.8,75.3,158.8,75,158.8,74.8z"/>
			<path class="st12" d="M127.8,104c-0.5,0.6-1.2,1.2-1.3,1.9c-0.2,1,0.6,1.7,1.6,1.7c1,0,1.8-0.7,1.7-1.6c-0.1-0.7-0.8-1.3-1.3-2
				C128.3,104,128,104,127.8,104z"/>
			<path class="st12" d="M51.3,145.3c-0.7-0.5-1.2-1.1-2-1.3c-0.9-0.2-1.9,0.8-1.7,1.8c0.1,1,0.8,1.8,1.8,1.6c0.7-0.1,1.3-0.9,2-1.4
				C51.3,145.7,51.3,145.5,51.3,145.3z"/>
			<path class="st12" d="M32.1,150.4c1.5-0.2,2.3-0.8,2.2-1.9c0-1-0.7-1.7-1.7-1.7c-1.1,0-1.9,0.7-1.7,1.8
				C31,149.3,31.8,149.9,32.1,150.4z"/>
			<path class="st12" d="M151.8,84.8c-0.6-0.5-1.2-1.2-1.9-1.3c-1-0.2-1.8,0.6-1.6,1.6c0.1,0.6,0.9,1.5,1.5,1.6
				c0.6,0.1,1.3-0.7,2-1.1C151.8,85.2,151.8,85,151.8,84.8z"/>
			<path class="st12" d="M57.4,142.2c-0.4,0.7-1.2,1.3-1.3,2c-0.1,1,0.7,1.8,1.7,1.6c0.6-0.1,1.5-1,1.5-1.6c0-0.6-0.8-1.3-1.2-2
				C57.8,142.2,57.6,142.2,57.4,142.2z"/>
			<path class="st12" d="M17.8,151.2c-0.7-0.4-1.3-1.1-2-1.2c-1-0.1-1.8,0.7-1.5,1.7c0.2,0.6,1,1.5,1.6,1.5c0.6,0,1.3-0.8,1.9-1.3
				C17.9,151.7,17.8,151.4,17.8,151.2z"/>
			<path class="st12" d="M172.4,55.4c-0.7-0.4-1.4-1.2-2-1.1c-0.6,0-1.4,1-1.5,1.6c-0.2,1,0.7,1.7,1.7,1.5c0.7-0.1,1.2-0.8,1.8-1.3
				C172.4,55.8,172.4,55.6,172.4,55.4z"/>
			<path class="st12" d="M98.1,130.4c0.4-0.6,1-1.2,1.1-1.9c0.1-1-0.6-1.5-1.6-1.5c-1,0-1.7,0.7-1.5,1.6c0.1,0.7,0.8,1.2,1.3,1.8
				C97.7,130.4,97.9,130.4,98.1,130.4z"/>
			<path class="st12" d="M179.1,45.5c-0.6-0.4-1.1-1-1.8-1.1c-1-0.1-1.6,0.5-1.5,1.5c0,1,0.7,1.6,1.6,1.4c0.6-0.1,1.1-0.8,1.7-1.2
				C179.1,46,179.1,45.8,179.1,45.5z"/>
			<path class="st12" d="M143.4,96.7c0.4-0.6,1-1.1,1.1-1.7c0.2-1-0.5-1.6-1.5-1.6c-1,0-1.7,0.6-1.5,1.6c0.1,0.6,0.7,1.1,1.1,1.7
				C142.9,96.7,143.2,96.7,143.4,96.7z"/>
			<path class="st12" d="M7.5,151.3c-0.4,0.6-1,1.1-1.1,1.7c-0.2,1,0.5,1.6,1.5,1.5c1,0,1.6-0.7,1.4-1.6c-0.1-0.6-0.8-1.1-1.2-1.7
				C7.9,151.3,7.7,151.3,7.5,151.3z"/>
			<path class="st12" d="M67.6,142.3c-0.6-0.4-1.2-1.1-1.8-1.2c-1-0.2-1.6,0.5-1.6,1.5c0,1,0.6,1.7,1.6,1.5c0.7-0.1,1.2-0.8,1.8-1.2
				C67.6,142.8,67.6,142.5,67.6,142.3z"/>
			<path class="st12" d="M75.9,140.9c-0.6-0.4-1.2-1.2-1.7-1.1c-0.6,0-1,0.9-1.6,1.3c0.5,0.5,0.9,1.4,1.5,1.5c0.5,0.1,1.2-0.6,1.8-1
				C75.8,141.3,75.8,141.1,75.9,140.9z"/>
			<path class="st12" d="M191.3,17.8c-0.6-0.4-1.2-1-1.8-1c-0.5,0-1.4,0.9-1.3,1.3c0.1,0.6,0.8,1.4,1.4,1.4c0.5,0.1,1.1-0.7,1.7-1.1
				C191.3,18.3,191.3,18,191.3,17.8z"/>
			<path class="st12" d="M195-2.1c-0.7,1-1.4,1.5-1.4,2c0,0.5,0.8,1,1.3,1.5c0.5-0.5,1.3-0.9,1.4-1.4C196.4-0.5,195.7-1.1,195-2.1z"
				/>
			<path class="st12" d="M1.6,154.5c-1-0.7-1.6-1.4-2-1.3c-0.6,0.1-1,0.9-1.5,1.4c0.5,0.5,1,1.2,1.5,1.3
				C0.1,156,0.6,155.2,1.6,154.5z"/>
			<path class="st12" d="M123.3,115.7c-1-0.6-1.6-1.4-2.1-1.3c-0.6,0.1-1,1-1.4,1.5c0.5,0.4,1,1.2,1.6,1.2
				C121.9,117.2,122.4,116.4,123.3,115.7z"/>
			<path class="st12" d="M107.6,126.8c-0.6-0.3-1.2-1-1.6-1c-0.5,0.1-1.2,0.9-1.2,1.4c0,0.4,0.8,1.2,1.3,1.2c0.5,0,1.1-0.7,1.6-1
				C107.6,127.2,107.6,127,107.6,126.8z"/>
			<path class="st12" d="M82.5,138c-0.6,0.8-1.3,1.3-1.3,1.8c0,0.5,0.7,1,1.1,1.4c0.5-0.4,1.2-0.8,1.4-1.4
				C83.8,139.5,83.1,138.9,82.5,138z"/>
			<path class="st12" d="M184.5,37.7c0.4-0.5,1.1-1.1,1.1-1.6c-0.1-0.5-0.8-1.2-1.3-1.3c-0.4-0.1-1.2,0.7-1.3,1.2
				c0,0.5,0.6,1.1,0.9,1.7C184.1,37.7,184.3,37.7,184.5,37.7z"/>
			<path class="st12" d="M135.9,103.1c-0.4,0.5-1.1,1.1-1,1.6c0.1,0.5,0.8,1.2,1.4,1.3c0.4,0.1,1.2-0.8,1.2-1.2c0-0.5-0.6-1.1-1-1.6
				C136.3,103.1,136.1,103.1,135.9,103.1z"/>
			<path class="st12" d="M90.8,140.1c0.6-0.8,1.2-1.2,1.1-1.6c0-0.4-0.7-0.8-1-1.2c-0.4,0.4-1,0.7-1.1,1.1
				C89.7,138.8,90.3,139.3,90.8,140.1z"/>
			<path class="st12" d="M173.8,64.1c-0.9-0.6-1.4-1.2-1.8-1.1c-0.4,0.1-1,0.7-1.1,1.2c0,0.3,0.7,1,1.1,1
				C172.4,65.3,172.9,64.7,173.8,64.1z"/>
			<path class="st12" d="M129.3,112.6c-0.5,0.8-1.1,1.3-1,1.7c0.1,0.4,0.7,0.8,1.1,1.1c0.4-0.4,1-0.8,1-1.2
				C130.4,113.8,129.8,113.4,129.3,112.6z"/>
			<path class="st12" d="M160.1,83.6c-0.9-0.6-1.4-1.2-1.8-1.2c-0.4,0.1-1,0.7-1.1,1.2c-0.1,0.3,0.7,1,1.1,1.1
				C158.7,84.7,159.2,84.1,160.1,83.6z"/>
			<path class="st12" d="M165,75.5c0.6-0.8,1.3-1.3,1.2-1.7c-0.1-0.5-0.7-0.9-1.2-1.3c-0.4,0.4-1.1,0.8-1.1,1.2
				C163.9,74.1,164.5,74.6,165,75.5z"/>
			<path class="st12" d="M42.4,154c-0.5,0.7-1,1.2-0.9,1.5c0.1,0.4,0.7,0.7,1.1,1.1c0.3-0.4,0.9-0.7,0.9-1.1
				C43.5,155,42.9,154.6,42.4,154z"/>
			<path class="st12" d="M151.3,91.8c-0.5,0.8-1,1.3-0.9,1.7c0.1,0.4,0.7,0.9,1.2,0.9c0.3,0,0.9-0.7,0.9-1
				C152.4,92.9,151.9,92.5,151.3,91.8z"/>
			<path class="st12" d="M198.1,8.4c-0.8-0.6-1.2-1.2-1.6-1.1c-0.4,0-1,0.6-1.1,1.1c-0.1,0.3,0.6,1,0.9,1
				C196.8,9.4,197.3,8.9,198.1,8.4z"/>
			<path class="st12" d="M116,125.6c-0.8-0.5-1.3-1.1-1.7-1c-0.4,0.1-0.9,0.7-1,1.2c0,0.3,0.7,0.9,1,0.9
				C114.8,126.7,115.2,126.1,116,125.6z"/>
			<path class="st12" d="M189.5,26.2c0.8,0.6,1.2,1.1,1.6,1.1c0.4,0,1.1-0.6,1.1-0.9c0-0.4-0.5-1.1-0.9-1.2
				C190.8,25.1,190.3,25.7,189.5,26.2z"/>
			<path class="st12" d="M180.5,54.3c-0.8-0.5-1.2-1.1-1.6-1.1c-0.4,0.1-0.9,0.7-1,1.1c-0.1,0.3,0.6,1,1,1
				C179.2,55.4,179.7,54.8,180.5,54.3z"/>
			<path class="st12" d="M35.6,156.9c-0.7-0.4-1.2-1-1.5-0.9c-0.4,0.1-0.7,0.7-1,1.1c0.4,0.3,0.8,0.8,1.1,0.8
				C34.6,157.9,35,157.4,35.6,156.9z"/>
			<path class="st12" d="M18.7,160c-0.6-0.5-1-1-1.3-0.9c-0.3,0-0.8,0.5-0.9,0.9c-0.1,0.2,0.5,0.8,0.7,0.8
				C17.7,160.8,18.1,160.4,18.7,160z"/>
			<path class="st12" d="M52.3,153.9c-0.7-0.4-1.1-0.8-1.5-0.8c-0.3,0-0.9,0.7-0.8,0.9c0.1,0.4,0.6,0.8,1,0.9
				C51.2,154.9,51.6,154.4,52.3,153.9z"/>
			<path class="st12" d="M145.9,103.3c-0.6-0.4-1-0.9-1.3-0.9c-0.3,0-0.9,0.5-0.8,0.7c0.1,0.4,0.5,0.9,0.8,0.9
				C144.8,104.1,145.2,103.7,145.9,103.3z"/>
			<path class="st12" d="M99.2,135.7c-0.4,0.5-0.9,0.9-0.9,1.1c0.1,0.4,0.5,0.6,0.8,1c0.3-0.3,0.8-0.6,0.8-0.9
				C100,136.7,99.6,136.3,99.2,135.7z"/>
			<path class="st12" d="M59.2,153.8c0.5-0.6,0.9-1,0.9-1.3c0-0.3-0.5-0.9-0.8-0.9c-0.3,0-0.8,0.5-0.9,0.8
				C58.3,152.8,58.7,153.2,59.2,153.8z"/>
			<path class="st12" d="M187,44.5c-0.6-0.5-1-0.9-1.3-0.9c-0.3,0-0.8,0.5-0.9,0.9c-0.1,0.2,0.5,0.8,0.8,0.8
				C186,45.3,186.4,44.9,187,44.5z"/>
			<path class="st12" d="M68.5,150.9c-0.6-0.4-1-0.8-1.2-0.8c-0.4,0.1-0.6,0.6-0.9,0.9c0.3,0.3,0.6,0.7,0.9,0.7
				C67.6,151.8,67.9,151.4,68.5,150.9z"/>
			<path class="st12" d="M27.2,158.5c-0.7-0.5-1.1-0.9-1.4-0.9c-0.3,0-0.6,0.6-1,0.9c0.3,0.3,0.6,0.9,1,1
				C26.1,159.4,26.5,158.9,27.2,158.5z"/>
		</g>
		<circle class="st13" cx="55.2" cy="300.5" r="2.7"/>
		<circle class="st13" cx="563.5" cy="341.4" r="4.6"/>
		<path class="st14" d="M658.2,413.4c0-1.3-1-2.3-2.3-2.3c-1.3,0-2.3,1-2.3,2.3c0,1.3,1,2.3,2.3,2.3
			C657.1,415.7,658.2,414.7,658.2,413.4z"/>
		<circle class="st13" cx="427.1" cy="383.5" r="2.3"/>
		<circle class="st13" cx="472.9" cy="32.4" r="2.3"/>
		<circle class="st14" cx="236.1" cy="195.5" r="2.3"/>
		<path class="st14" d="M713.2,127.9c0-1.3-1-2.3-2.3-2.3c-1.3,0-2.3,1-2.3,2.3s1,2.3,2.3,2.3C712.2,130.2,713.2,129.2,713.2,127.9z
			"/>
		<path class="st13" d="M276,60.6c0-1.7-1.4-3.1-3.1-3.1c-1.7,0-3.1,1.4-3.1,3.1s1.4,3.1,3.1,3.1C274.6,63.7,276,62.3,276,60.6z"/>
		<g class="st1">
			<rect x="220.9" y="332.2" class="st9" width="2.7" height="9.2"/>
			
				<rect x="220.9" y="332.2" transform="matrix(6.123234e-17 -1 1 6.123234e-17 -114.5702 559.0394)" class="st9" width="2.7" height="9.2"/>
		</g>
		<g class="st1">
			<rect x="531.8" y="52.8" class="st11" width="2.7" height="9.2"/>
			
				<rect x="531.8" y="52.8" transform="matrix(6.123234e-17 -1 1 6.123234e-17 475.7087 590.6343)" class="st11" width="2.7" height="9.2"/>
		</g>
		<g class="st1">
			<rect x="108" y="47.8" class="st11" width="4.9" height="16.7"/>
			
				<rect x="108" y="47.8" transform="matrix(6.123234e-17 -1 1 6.123234e-17 54.358 166.5462)" class="st11" width="4.9" height="16.7"/>
		</g>
		<line class="st10" x1="542.1" y1="147.3" x2="503.4" y2="108.6"/>
		<line class="st15" x1="230.2" y1="111.6" x2="192.6" y2="74.1"/>
		<circle class="st10" cx="112.9" cy="172.1" r="71.7"/>
		<rect class="st16" width="750" height="500"/>
	</g>
</g>
</svg>
