<?xml version="1.0" encoding="utf-8"?>
<!-- Generator: Adobe Illustrator 25.0.1, SVG Export Plug-In . SVG Version: 6.00 Build 0)  -->
<svg version="1.1" id="Layer_1" xmlns="http://www.w3.org/2000/svg" xmlns:xlink="http://www.w3.org/1999/xlink" x="0px" y="0px"
	 viewBox="0 0 447.3 355.9" enable-background="new 0 0 447.3 355.9" xml:space="preserve">
<linearGradient id="SVGID_1_" gradientUnits="userSpaceOnUse" x1="243.1647" y1="169.2337" x2="159.0247" y2="22.9303">
	<stop  offset="3.535350e-02" style="stop-color:#138BBD"/>
	<stop  offset="0.2257" style="stop-color:#169AC7"/>
	<stop  offset="0.5946" style="stop-color:#1FC3DF"/>
	<stop  offset="1" style="stop-color:#2AF6FF"/>
</linearGradient>
<polygon fill="url(#SVGID_1_)" points="244.4,141.6 149.8,87 149.8,36.8 244.4,91.4 "/>
<radialGradient id="SVGID_2_" cx="197.1239" cy="89.1776" r="49.9287" gradientUnits="userSpaceOnUse">
	<stop  offset="0" style="stop-color:#FFFFFF"/>
	<stop  offset="1" style="stop-color:#000000"/>
</radialGradient>
<polygon fill="url(#SVGID_2_)" points="149.8,36.8 149.8,38.7 243.2,92.6 243.2,140.9 244.4,141.6 244.4,91.4 "/>
<g>
	<linearGradient id="SVGID_3_" gradientUnits="userSpaceOnUse" x1="182.9225" y1="66.5648" x2="189.1061" y2="66.5648">
		<stop  offset="0" style="stop-color:#FFFFFF"/>
		<stop  offset="0.9444" style="stop-color:#9EC3E5"/>
	</linearGradient>
	<polygon fill="url(#SVGID_3_)" points="182.9,65.7 189.1,69.2 189.1,67.4 182.9,63.9 	"/>
	<linearGradient id="SVGID_4_" gradientUnits="userSpaceOnUse" x1="179.3567" y1="79.8176" x2="185.5074" y2="79.8176">
		<stop  offset="0" style="stop-color:#FFFFFF"/>
		<stop  offset="0.9444" style="stop-color:#9EC3E5"/>
	</linearGradient>
	<polygon fill="url(#SVGID_4_)" points="185.5,80.7 179.4,77.1 179.4,79 185.5,82.5 	"/>
	<linearGradient id="SVGID_5_" gradientUnits="userSpaceOnUse" x1="178.3098" y1="68.0758" x2="185.178" y2="68.0758">
		<stop  offset="0" style="stop-color:#FFFFFF"/>
		<stop  offset="0.9444" style="stop-color:#9EC3E5"/>
	</linearGradient>
	<polygon fill="url(#SVGID_5_)" points="185.2,70.9 185.2,69.1 178.3,65.2 178.3,67 	"/>
	<linearGradient id="SVGID_6_" gradientUnits="userSpaceOnUse" x1="177.9609" y1="74.3576" x2="181.4526" y2="74.3576">
		<stop  offset="0" style="stop-color:#FFFFFF"/>
		<stop  offset="0.9444" style="stop-color:#9EC3E5"/>
	</linearGradient>
	<polygon fill="url(#SVGID_6_)" points="178,72.4 178,74.3 181.5,76.3 181.5,74.5 	"/>
	<linearGradient id="SVGID_7_" gradientUnits="userSpaceOnUse" x1="167.0069" y1="72.6399" x2="172.6836" y2="72.6399">
		<stop  offset="0" style="stop-color:#FFFFFF"/>
		<stop  offset="0.9444" style="stop-color:#9EC3E5"/>
	</linearGradient>
	<polygon fill="url(#SVGID_7_)" points="172.7,75.2 172.7,73.3 167,70.1 167,71.9 	"/>
	<linearGradient id="SVGID_8_" gradientUnits="userSpaceOnUse" x1="183.2773" y1="77.8241" x2="188.1432" y2="77.8241">
		<stop  offset="0" style="stop-color:#FFFFFF"/>
		<stop  offset="0.9444" style="stop-color:#9EC3E5"/>
	</linearGradient>
	<polygon fill="url(#SVGID_8_)" points="188.1,78.3 183.3,75.5 183.3,77.3 188.1,80.1 	"/>
	<linearGradient id="SVGID_9_" gradientUnits="userSpaceOnUse" x1="181.1485" y1="72.3179" x2="184.0376" y2="72.3179">
		<stop  offset="0" style="stop-color:#FFFFFF"/>
		<stop  offset="0.9444" style="stop-color:#9EC3E5"/>
	</linearGradient>
	<polygon fill="url(#SVGID_9_)" points="181.1,70.6 181.1,72.4 184,74.1 184,72.2 	"/>
	<linearGradient id="SVGID_10_" gradientUnits="userSpaceOnUse" x1="190.9308" y1="69.8362" x2="192.5021" y2="69.8362">
		<stop  offset="0" style="stop-color:#FFFFFF"/>
		<stop  offset="0.9444" style="stop-color:#9EC3E5"/>
	</linearGradient>
	<polygon fill="url(#SVGID_10_)" points="190.9,68.5 190.9,70.3 192.5,71.2 192.5,69.4 	"/>
	<linearGradient id="SVGID_11_" gradientUnits="userSpaceOnUse" x1="173.4439" y1="68.7806" x2="179.3237" y2="68.7806">
		<stop  offset="0" style="stop-color:#FFFFFF"/>
		<stop  offset="0.9444" style="stop-color:#9EC3E5"/>
	</linearGradient>
	<polygon fill="url(#SVGID_11_)" points="179.3,71.4 179.3,69.5 173.4,66.2 173.4,68 	"/>
	<linearGradient id="SVGID_12_" gradientUnits="userSpaceOnUse" x1="187.0027" y1="73.5488" x2="195.6701" y2="73.5488">
		<stop  offset="0" style="stop-color:#FFFFFF"/>
		<stop  offset="0.9444" style="stop-color:#9EC3E5"/>
	</linearGradient>
	<polygon fill="url(#SVGID_12_)" points="187,70.2 187,72 195.7,76.9 195.7,75.1 	"/>
	<linearGradient id="SVGID_13_" gradientUnits="userSpaceOnUse" x1="168.7809" y1="70.2459" x2="176.1632" y2="70.2459">
		<stop  offset="0" style="stop-color:#FFFFFF"/>
		<stop  offset="0.9444" style="stop-color:#9EC3E5"/>
	</linearGradient>
	<polygon fill="url(#SVGID_13_)" points="176.2,73.2 176.2,71.4 168.8,67.3 168.8,69.1 	"/>
	<linearGradient id="SVGID_14_" gradientUnits="userSpaceOnUse" x1="170.5549" y1="59.368" x2="176.3331" y2="59.368">
		<stop  offset="0" style="stop-color:#FFFFFF"/>
		<stop  offset="0.9444" style="stop-color:#9EC3E5"/>
	</linearGradient>
	<polygon fill="url(#SVGID_14_)" points="170.6,56.8 170.6,58.6 176.3,61.9 176.3,60.1 	"/>
	<linearGradient id="SVGID_15_" gradientUnits="userSpaceOnUse" x1="178.1579" y1="62.9083" x2="181.0978" y2="62.9083">
		<stop  offset="0" style="stop-color:#FFFFFF"/>
		<stop  offset="0.9444" style="stop-color:#9EC3E5"/>
	</linearGradient>
	<polygon fill="url(#SVGID_15_)" points="181.1,62.8 178.2,61.2 178.2,63 181.1,64.7 	"/>
	<linearGradient id="SVGID_16_" gradientUnits="userSpaceOnUse" x1="174.5083" y1="76.1411" x2="177.5593" y2="76.1411">
		<stop  offset="0" style="stop-color:#FFFFFF"/>
		<stop  offset="0.9444" style="stop-color:#9EC3E5"/>
	</linearGradient>
	<polygon fill="url(#SVGID_16_)" points="177.6,76.1 174.5,74.4 174.5,76.2 177.6,77.9 	"/>
	<linearGradient id="SVGID_17_" gradientUnits="userSpaceOnUse" x1="194.047" y1="84.932" x2="201.9298" y2="84.932">
		<stop  offset="0" style="stop-color:#FFFFFF"/>
		<stop  offset="0.9444" style="stop-color:#9EC3E5"/>
	</linearGradient>
	<polygon fill="url(#SVGID_17_)" points="194,83.6 201.9,88.1 201.9,86.3 194,81.7 	"/>
	<linearGradient id="SVGID_18_" gradientUnits="userSpaceOnUse" x1="162.3944" y1="69.2006" x2="165.1822" y2="69.2006">
		<stop  offset="0" style="stop-color:#FFFFFF"/>
		<stop  offset="0.9444" style="stop-color:#9EC3E5"/>
	</linearGradient>
	<polygon fill="url(#SVGID_18_)" points="165.2,69.1 162.4,67.5 162.4,69.3 165.2,70.9 	"/>
	<linearGradient id="SVGID_19_" gradientUnits="userSpaceOnUse" x1="156.6922" y1="53.5763" x2="169.0851" y2="53.5763">
		<stop  offset="0" style="stop-color:#FFFFFF"/>
		<stop  offset="0.9444" style="stop-color:#9EC3E5"/>
	</linearGradient>
	<polygon fill="url(#SVGID_19_)" points="156.7,49.1 156.7,51 169.1,58 169.1,56.2 	"/>
	<linearGradient id="SVGID_20_" gradientUnits="userSpaceOnUse" x1="195.8724" y1="80.7463" x2="198.7872" y2="80.7463">
		<stop  offset="0" style="stop-color:#FFFFFF"/>
		<stop  offset="0.9444" style="stop-color:#9EC3E5"/>
	</linearGradient>
	<polygon fill="url(#SVGID_20_)" points="195.9,80.8 198.8,82.5 198.8,80.7 195.9,79 	"/>
	<linearGradient id="SVGID_21_" gradientUnits="userSpaceOnUse" x1="197.4948" y1="80.9825" x2="211.104" y2="80.9825">
		<stop  offset="0" style="stop-color:#FFFFFF"/>
		<stop  offset="0.9444" style="stop-color:#9EC3E5"/>
	</linearGradient>
	<polygon fill="url(#SVGID_21_)" points="197.5,78 211.1,85.8 211.1,84 197.5,76.2 	"/>
	<linearGradient id="SVGID_22_" gradientUnits="userSpaceOnUse" x1="185.8623" y1="76.5195" x2="194.0747" y2="76.5195">
		<stop  offset="0" style="stop-color:#FFFFFF"/>
		<stop  offset="0.9444" style="stop-color:#9EC3E5"/>
	</linearGradient>
	<polygon fill="url(#SVGID_22_)" points="185.9,75.1 194.1,79.8 194.1,77.9 185.9,73.3 	"/>
	<linearGradient id="SVGID_23_" gradientUnits="userSpaceOnUse" x1="194.3268" y1="73.2091" x2="200.8654" y2="73.2091">
		<stop  offset="0" style="stop-color:#FFFFFF"/>
		<stop  offset="0.9444" style="stop-color:#9EC3E5"/>
	</linearGradient>
	<polygon fill="url(#SVGID_23_)" points="194.3,70.4 194.3,72.3 200.9,76 200.9,74.2 	"/>
	<linearGradient id="SVGID_24_" gradientUnits="userSpaceOnUse" x1="162.3944" y1="65.8819" x2="166.9562" y2="65.8819">
		<stop  offset="0" style="stop-color:#FFFFFF"/>
		<stop  offset="0.9444" style="stop-color:#9EC3E5"/>
	</linearGradient>
	<polygon fill="url(#SVGID_24_)" points="167,66.2 162.4,63.7 162.4,65.5 167,68.1 	"/>
	<linearGradient id="SVGID_25_" gradientUnits="userSpaceOnUse" x1="189.9679" y1="80.9431" x2="192.2493" y2="80.9431">
		<stop  offset="0" style="stop-color:#FFFFFF"/>
		<stop  offset="0.9444" style="stop-color:#9EC3E5"/>
	</linearGradient>
	<polygon fill="url(#SVGID_25_)" points="192.2,80.7 190,79.4 190,81.2 192.2,82.5 	"/>
	<linearGradient id="SVGID_26_" gradientUnits="userSpaceOnUse" x1="162.3944" y1="63.4386" x2="171.6192" y2="63.4386">
		<stop  offset="0" style="stop-color:#FFFFFF"/>
		<stop  offset="0.9444" style="stop-color:#9EC3E5"/>
	</linearGradient>
	<polygon fill="url(#SVGID_26_)" points="171.6,65.2 162.4,59.9 162.4,61.7 171.6,67 	"/>
	<linearGradient id="SVGID_27_" gradientUnits="userSpaceOnUse" x1="187.2053" y1="88.3305" x2="194.6056" y2="88.3305">
		<stop  offset="0" style="stop-color:#FFFFFF"/>
		<stop  offset="0.9444" style="stop-color:#9EC3E5"/>
	</linearGradient>
	<polygon fill="url(#SVGID_27_)" points="187.2,87.1 194.6,91.4 194.6,89.5 187.2,85.3 	"/>
	<linearGradient id="SVGID_28_" gradientUnits="userSpaceOnUse" x1="162.3944" y1="61.0503" x2="176.4851" y2="61.0503">
		<stop  offset="0" style="stop-color:#FFFFFF"/>
		<stop  offset="0.9444" style="stop-color:#9EC3E5"/>
	</linearGradient>
	<polygon fill="url(#SVGID_28_)" points="176.5,64.2 162.4,56.1 162.4,57.9 176.5,66 	"/>
</g>
<g>
	<linearGradient id="SVGID_29_" gradientUnits="userSpaceOnUse" x1="179.3567" y1="94.8952" x2="185.5074" y2="94.8952">
		<stop  offset="0" style="stop-color:#FFFFFF"/>
		<stop  offset="0.9444" style="stop-color:#9EC3E5"/>
	</linearGradient>
	<polygon fill="url(#SVGID_29_)" points="185.5,95.8 179.4,92.2 179.4,94 185.5,97.6 	"/>
	<linearGradient id="SVGID_30_" gradientUnits="userSpaceOnUse" x1="178.3098" y1="83.1534" x2="185.178" y2="83.1534">
		<stop  offset="0" style="stop-color:#FFFFFF"/>
		<stop  offset="0.9444" style="stop-color:#9EC3E5"/>
	</linearGradient>
	<polygon fill="url(#SVGID_30_)" points="185.2,86 185.2,84.2 178.3,80.3 178.3,82.1 	"/>
	<linearGradient id="SVGID_31_" gradientUnits="userSpaceOnUse" x1="177.9609" y1="89.4352" x2="181.4526" y2="89.4352">
		<stop  offset="0" style="stop-color:#FFFFFF"/>
		<stop  offset="0.9444" style="stop-color:#9EC3E5"/>
	</linearGradient>
	<polygon fill="url(#SVGID_31_)" points="178,87.5 178,89.3 181.5,91.4 181.5,89.5 	"/>
	<linearGradient id="SVGID_32_" gradientUnits="userSpaceOnUse" x1="167.0069" y1="87.7175" x2="172.6836" y2="87.7175">
		<stop  offset="0" style="stop-color:#FFFFFF"/>
		<stop  offset="0.9444" style="stop-color:#9EC3E5"/>
	</linearGradient>
	<polygon fill="url(#SVGID_32_)" points="172.7,90.2 172.7,88.4 167,85.2 167,87 	"/>
	<linearGradient id="SVGID_33_" gradientUnits="userSpaceOnUse" x1="183.2773" y1="92.9016" x2="188.1432" y2="92.9016">
		<stop  offset="0" style="stop-color:#FFFFFF"/>
		<stop  offset="0.9444" style="stop-color:#9EC3E5"/>
	</linearGradient>
	<polygon fill="url(#SVGID_33_)" points="188.1,93.4 183.3,90.6 183.3,92.4 188.1,95.2 	"/>
	<linearGradient id="SVGID_34_" gradientUnits="userSpaceOnUse" x1="181.1485" y1="87.3954" x2="184.0376" y2="87.3954">
		<stop  offset="0" style="stop-color:#FFFFFF"/>
		<stop  offset="0.9444" style="stop-color:#9EC3E5"/>
	</linearGradient>
	<polygon fill="url(#SVGID_34_)" points="181.1,85.7 181.1,87.5 184,89.1 184,87.3 	"/>
	<linearGradient id="SVGID_35_" gradientUnits="userSpaceOnUse" x1="173.4439" y1="83.8581" x2="179.3237" y2="83.8581">
		<stop  offset="0" style="stop-color:#FFFFFF"/>
		<stop  offset="0.9444" style="stop-color:#9EC3E5"/>
	</linearGradient>
	<polygon fill="url(#SVGID_35_)" points="179.3,86.4 179.3,84.6 173.4,81.3 173.4,83.1 	"/>
	<linearGradient id="SVGID_36_" gradientUnits="userSpaceOnUse" x1="168.7809" y1="85.3235" x2="176.1632" y2="85.3235">
		<stop  offset="0" style="stop-color:#FFFFFF"/>
		<stop  offset="0.9444" style="stop-color:#9EC3E5"/>
	</linearGradient>
	<polygon fill="url(#SVGID_36_)" points="176.2,88.3 176.2,86.5 168.8,82.3 168.8,84.2 	"/>
	<linearGradient id="SVGID_37_" gradientUnits="userSpaceOnUse" x1="174.5083" y1="91.2187" x2="177.5593" y2="91.2187">
		<stop  offset="0" style="stop-color:#FFFFFF"/>
		<stop  offset="0.9444" style="stop-color:#9EC3E5"/>
	</linearGradient>
	<polygon fill="url(#SVGID_37_)" points="177.6,91.2 174.5,89.4 174.5,91.3 177.6,93 	"/>
	<linearGradient id="SVGID_38_" gradientUnits="userSpaceOnUse" x1="194.047" y1="100.0096" x2="201.9298" y2="100.0096">
		<stop  offset="0" style="stop-color:#FFFFFF"/>
		<stop  offset="0.9444" style="stop-color:#9EC3E5"/>
	</linearGradient>
	<polygon fill="url(#SVGID_38_)" points="194,98.6 201.9,103.2 201.9,101.4 194,96.8 	"/>
	<linearGradient id="SVGID_39_" gradientUnits="userSpaceOnUse" x1="162.3944" y1="84.2781" x2="165.1822" y2="84.2781">
		<stop  offset="0" style="stop-color:#FFFFFF"/>
		<stop  offset="0.9444" style="stop-color:#9EC3E5"/>
	</linearGradient>
	<polygon fill="url(#SVGID_39_)" points="165.2,84.2 162.4,82.6 162.4,84.4 165.2,86 	"/>
	<linearGradient id="SVGID_40_" gradientUnits="userSpaceOnUse" x1="195.8724" y1="95.8239" x2="198.7872" y2="95.8239">
		<stop  offset="0" style="stop-color:#FFFFFF"/>
		<stop  offset="0.9444" style="stop-color:#9EC3E5"/>
	</linearGradient>
	<polygon fill="url(#SVGID_40_)" points="195.9,95.9 198.8,97.6 198.8,95.8 195.9,94.1 	"/>
	<linearGradient id="SVGID_41_" gradientUnits="userSpaceOnUse" x1="185.8623" y1="91.5971" x2="194.0747" y2="91.5971">
		<stop  offset="0" style="stop-color:#FFFFFF"/>
		<stop  offset="0.9444" style="stop-color:#9EC3E5"/>
	</linearGradient>
	<polygon fill="url(#SVGID_41_)" points="185.9,90.2 194.1,94.8 194.1,93 185.9,88.3 	"/>
	<linearGradient id="SVGID_42_" gradientUnits="userSpaceOnUse" x1="162.3944" y1="80.9595" x2="166.9562" y2="80.9595">
		<stop  offset="0" style="stop-color:#FFFFFF"/>
		<stop  offset="0.9444" style="stop-color:#9EC3E5"/>
	</linearGradient>
	<polygon fill="url(#SVGID_42_)" points="167,81.3 162.4,78.8 162.4,80.6 167,83.1 	"/>
	<linearGradient id="SVGID_43_" gradientUnits="userSpaceOnUse" x1="189.9679" y1="96.0207" x2="192.2493" y2="96.0207">
		<stop  offset="0" style="stop-color:#FFFFFF"/>
		<stop  offset="0.9444" style="stop-color:#9EC3E5"/>
	</linearGradient>
	<polygon fill="url(#SVGID_43_)" points="192.2,95.8 190,94.4 190,96.3 192.2,97.6 	"/>
	<linearGradient id="SVGID_44_" gradientUnits="userSpaceOnUse" x1="162.3944" y1="78.5162" x2="171.6192" y2="78.5162">
		<stop  offset="0" style="stop-color:#FFFFFF"/>
		<stop  offset="0.9444" style="stop-color:#9EC3E5"/>
	</linearGradient>
	<polygon fill="url(#SVGID_44_)" points="171.6,80.2 162.4,75 162.4,76.8 171.6,82.1 	"/>
	<linearGradient id="SVGID_45_" gradientUnits="userSpaceOnUse" x1="176.9668" y1="96.2402" x2="179.8559" y2="96.2402">
		<stop  offset="0" style="stop-color:#FFFFFF"/>
		<stop  offset="0.9444" style="stop-color:#9EC3E5"/>
	</linearGradient>
	<polygon fill="url(#SVGID_45_)" points="177,94.5 177,96.3 179.9,98 179.9,96.2 	"/>
	<linearGradient id="SVGID_46_" gradientUnits="userSpaceOnUse" x1="169.2623" y1="92.7029" x2="175.1421" y2="92.7029">
		<stop  offset="0" style="stop-color:#FFFFFF"/>
		<stop  offset="0.9444" style="stop-color:#9EC3E5"/>
	</linearGradient>
	<polygon fill="url(#SVGID_46_)" points="175.1,95.3 175.1,93.5 169.3,90.1 169.3,91.9 	"/>
	<linearGradient id="SVGID_47_" gradientUnits="userSpaceOnUse" x1="191.6907" y1="104.6687" x2="194.6056" y2="104.6687">
		<stop  offset="0" style="stop-color:#FFFFFF"/>
		<stop  offset="0.9444" style="stop-color:#9EC3E5"/>
	</linearGradient>
	<polygon fill="url(#SVGID_47_)" points="191.7,104.7 194.6,106.4 194.6,104.6 191.7,102.9 	"/>
	<linearGradient id="SVGID_48_" gradientUnits="userSpaceOnUse" x1="181.6807" y1="100.4419" x2="189.893" y2="100.4419">
		<stop  offset="0" style="stop-color:#FFFFFF"/>
		<stop  offset="0.9444" style="stop-color:#9EC3E5"/>
	</linearGradient>
	<polygon fill="url(#SVGID_48_)" points="181.7,99 189.9,103.7 189.9,101.9 181.7,97.2 	"/>
	<linearGradient id="SVGID_49_" gradientUnits="userSpaceOnUse" x1="158.2128" y1="87.3609" x2="167.4376" y2="87.3609">
		<stop  offset="0" style="stop-color:#FFFFFF"/>
		<stop  offset="0.9444" style="stop-color:#9EC3E5"/>
	</linearGradient>
	<polygon fill="url(#SVGID_49_)" points="167.4,89.1 158.2,83.8 158.2,85.6 167.4,90.9 	"/>
	<linearGradient id="SVGID_50_" gradientUnits="userSpaceOnUse" x1="162.3944" y1="76.1279" x2="176.4851" y2="76.1279">
		<stop  offset="0" style="stop-color:#FFFFFF"/>
		<stop  offset="0.9444" style="stop-color:#9EC3E5"/>
	</linearGradient>
	<polygon fill="url(#SVGID_50_)" points="176.5,79.2 162.4,71.2 162.4,73 176.5,81.1 	"/>
</g>
<g opacity="0.8">
	<path fill="#7C1DC9" d="M327,48.4c-1.3-1.2-2.2-2.4-2.8-3.6c-0.5-1.2-0.8-2.5-0.8-3.8v-2.3c0-0.8-0.1-1.4-0.4-2
		c-0.3-0.6-0.7-1.1-1.3-1.4v-2.3c0.6,0.3,1,0.4,1.3,0.1c0.3-0.2,0.4-0.8,0.4-1.5v-2.3c0-1.3,0.3-2.3,0.8-2.9
		c0.6-0.6,1.5-0.7,2.8-0.4l0.6,2.1c-0.6-0.1-1,0.1-1.2,0.6c-0.2,0.5-0.4,1.2-0.4,2.1V33c0,0.8-0.1,1.4-0.4,1.9
		c-0.3,0.4-0.7,0.7-1.3,0.7c0.6,0.7,1,1.5,1.3,2.2c0.3,0.8,0.4,1.6,0.4,2.4v2.3c0,0.9,0.1,1.7,0.4,2.5c0.2,0.7,0.6,1.4,1.2,2
		L327,48.4z"/>
	<path fill="#7C1DC9" d="M378.1,73.9c0.6,0.1,1-0.1,1.2-0.6c0.2-0.5,0.4-1.2,0.4-2.1V69c0-0.8,0.2-1.4,0.5-1.8
		c0.3-0.4,0.8-0.6,1.4-0.6c-0.6-0.7-1.1-1.5-1.4-2.2c-0.3-0.8-0.5-1.6-0.5-2.4v-2.3c0-0.9-0.1-1.7-0.4-2.5c-0.2-0.7-0.6-1.4-1.2-2
		l0.6-1.5c1.3,1.2,2.2,2.4,2.8,3.6c0.6,1.2,0.8,2.5,0.8,3.8v2.3c0,0.8,0.1,1.5,0.4,2c0.3,0.6,0.7,1.1,1.4,1.4v2.3
		c-0.6-0.4-1.1-0.4-1.4-0.1c-0.3,0.3-0.4,0.8-0.4,1.5v2.3c0,1.3-0.3,2.3-0.8,2.9c-0.6,0.6-1.5,0.7-2.8,0.4L378.1,73.9z"/>
</g>
<g opacity="0.2">
	<path opacity="0" d="M260.2,304.8c-5.1,0-9.7-1.1-13.4-3.2l-141.6-81.8c-4.9-2.8-7.7-7.3-7.7-12.2c0-5.4,3.4-10.5,9.2-13.9
		l80.4-46.4c4.6-2.7,10.4-4.1,16.2-4.1c5.1,0,9.7,1.1,13.4,3.2l141.6,81.8c4.9,2.8,7.7,7.3,7.7,12.2c0,5.4-3.4,10.5-9.2,13.9
		l-80.4,46.4C271.8,303.4,266,304.8,260.2,304.8z"/>
	<path opacity="9.090909e-02" d="M187.5,147.9c4.6-2.7,10.4-4.1,16.2-4c2.3,0,4.6,0.3,6.6,0.8c2.2,0.5,4.8,1.6,6.6,2.6L358,228.8
		c4.9,2.8,7.4,7.2,7.1,12.1c-0.1,1.3-0.4,2.6-0.9,3.9c-1.2,3.4-4.7,7.1-8.7,9.4l-79.2,45.8c-1,0.6-2.3,1.2-3.4,1.7
		c-3.8,1.6-8.1,2.5-12.5,2.5c-5,0-9.6-1-13.2-3.1l-141.6-81.8c-4.9-2.8-7.4-7.3-7.1-12.1c0.1-1.1,0.3-2.3,0.7-3.4
		c1.1-3.7,4.8-7.6,8.9-10L187.5,147.9z"/>
	<path opacity="0.1818" d="M187.8,148.6c4.6-2.6,10.4-4,16.1-3.9c2.3,0.1,4.5,0.4,6.6,0.9c2,0.5,4.9,1.8,6.5,2.7l140.6,81.2
		c4.8,2.8,7.1,7.2,6.5,11.9c-0.2,1.3-0.6,2.5-1,3.7c-1.2,3.1-5.2,7-8.8,9l-78.1,45.1c-0.9,0.5-2.4,1.3-3.4,1.7
		c-3.7,1.6-8,2.5-12.3,2.5c-4.9,0.1-9.5-1-13-3l-141.6-81.8c-4.9-2.8-7.1-7.2-6.5-12c0.1-1.1,0.5-2.1,0.9-3.2
		c1.1-3.3,5.3-7.4,9.1-9.6L187.8,148.6z"/>
	<path opacity="0.2727" d="M188.2,149.2c4.6-2.6,10.4-4,16.1-3.8c2.3,0.1,4.5,0.5,6.5,1c1.8,0.5,5,1.9,6.5,2.8l140,80.8
		c4.8,2.8,6.8,7.2,5.9,11.8c-0.2,1.2-0.7,2.4-1.2,3.5c-1.2,2.7-5.7,6.8-8.9,8.6l-77,44.4c-0.8,0.5-2.4,1.3-3.3,1.7
		c-3.7,1.6-7.9,2.5-12.1,2.6c-4.9,0.1-9.4-0.9-12.8-2.9L106.2,218c-4.8-2.8-6.8-7.2-5.8-11.8c0.2-1,0.6-2,1-3.1
		c1.1-2.9,5.9-7.3,9.2-9.2L188.2,149.2z"/>
	<path opacity="0.3636" d="M188.5,149.8c4.6-2.6,10.4-3.9,16.1-3.7c2.3,0.1,4.5,0.6,6.5,1.2c1.5,0.4,5.2,2.1,6.4,2.9L357,230.7
		c4.8,2.8,6.6,7.1,5.3,11.6c-0.3,1.1-0.9,2.2-1.4,3.4c-1.1,2.3-6.2,6.7-9,8.3L276,297.7c-0.7,0.4-2.5,1.4-3.3,1.7
		c-3.6,1.6-7.7,2.5-11.9,2.6c-4.8,0.1-9.2-0.9-12.6-2.8l-141.6-81.8c-4.8-2.8-6.6-7.2-5.2-11.7c0.3-1,0.8-1.9,1.2-2.9
		c1.1-2.5,6.5-7.1,9.4-8.8L188.5,149.8z"/>
	<path opacity="0.4545" d="M188.9,150.4c4.6-2.6,10.5-3.9,16-3.6c2.3,0.1,4.5,0.7,6.4,1.3c1.3,0.4,5.3,2.3,6.3,2.9l138.9,80.2
		c4.8,2.7,6.3,7.1,4.8,11.4c-0.4,1.1-1.1,2.1-1.6,3.2c-1,2-6.7,6.5-9.1,7.9L276,296.9c-0.6,0.3-2.5,1.4-3.2,1.7
		c-3.5,1.6-7.6,2.6-11.7,2.7c-4.7,0.1-9.1-0.8-12.5-2.7l-141.6-81.8c-4.8-2.8-6.3-7.2-4.6-11.6c0.4-0.9,1-1.8,1.4-2.7
		c1-2.1,7-7,9.5-8.4L188.9,150.4z"/>
	<path opacity="0.5455" d="M189.2,151c4.5-2.6,10.5-3.8,16-3.4c2.3,0.2,4.4,0.8,6.4,1.4c1.1,0.3,5.4,2.5,6.3,3l138.4,79.9
		c4.7,2.7,6.1,7.1,4.2,11.3c-0.5,1-1,2-1.8,3c-0.6,1.7-7.2,6.4-9.2,7.5l-73.5,42.5c-0.5,0.3-2.6,1.4-3.1,1.7
		c-3.5,1.5-7.5,2.6-11.5,2.7c-4.6,0.2-9-0.7-12.3-2.6l-141.6-81.8c-4.8-2.8-6.1-7.2-4-11.4c0.4-0.9,0.9-1.8,1.6-2.6
		c0.5-1.8,7.6-6.8,9.7-8L189.2,151z"/>
	<path opacity="0.6364" d="M189.6,151.6c4.5-2.6,10.5-3.8,15.9-3.3c2.3,0.2,4.4,0.9,6.3,1.5c0.9,0.3,5.5,2.7,6.2,3.1l137.9,79.6
		c4.7,2.7,5.8,7,3.6,11.1c-0.5,1-1.2,1.9-2,2.8c-0.5,1.4-7.7,6.2-9.3,7.1l-72.4,41.8c-0.4,0.2-2.7,1.5-3.1,1.7
		c-3.4,1.5-7.3,2.6-11.3,2.8c-4.5,0.2-8.9-0.7-12.1-2.5l-141.6-81.8c-4.8-2.8-5.8-7.2-3.4-11.3c0.5-0.8,1.1-1.7,1.8-2.4
		c0.4-1.5,8.2-6.6,9.8-7.6L189.6,151.6z"/>
	<path opacity="0.7273" d="M190,152.2c4.5-2.6,10.5-3.7,15.9-3.2c2.3,0.2,4.4,1,6.3,1.6c0.7,0.2,5.6,2.9,6.1,3.2l137.3,79.3
		c4.7,2.7,5.6,7,3,11c-0.6,0.9-1.3,1.8-2.2,2.6c-0.3,1-8.2,6.1-9.4,6.7l-71.3,41.1c-0.3,0.2-2.7,1.5-3,1.7
		c-3.3,1.5-7.2,2.7-11.1,2.9c-4.5,0.2-8.7-0.6-11.9-2.4L108,214.9c-4.8-2.8-5.6-7.2-2.8-11.2c0.5-0.8,1.2-1.6,2-2.3
		c0.3-1.1,8.8-6.5,10-7.2L190,152.2z"/>
	<path opacity="0.8182" d="M190.3,152.9c4.5-2.6,10.5-3.7,15.8-3.1c2.3,0.3,4.3,1.1,6.2,1.7c0.4,0.2,5.7,3.1,6.1,3.3l136.8,79
		c4.7,2.7,5.4,7,2.4,10.8c-0.6,0.8-1.4,1.7-2.4,2.5c-0.2,0.7-8.7,5.9-9.5,6.4l-70.1,40.5c-0.2,0.1-2.8,1.6-3,1.7
		c-3.3,1.5-7,2.7-10.9,2.9c-4.4,0.2-8.6-0.5-11.7-2.3l-141.6-81.8c-4.8-2.8-5.4-7.2-2.2-11c0.6-0.7,1.3-1.5,2.2-2.1
		c0.2-0.7,9.3-6.3,10.2-6.8L190.3,152.9z"/>
	<path opacity="0.9091" d="M190.7,153.5c4.5-2.6,10.5-3.6,15.8-3c2.3,0.3,4.3,1.1,6.2,1.8c0.2,0.1,5.8,3.2,6,3.3l136.2,78.7
		c4.6,2.7,5.2,7,1.9,10.7c-0.7,0.8-1.6,1.6-2.6,2.3c-0.1,0.3-9.2,5.8-9.6,6l-69,39.8c-0.1,0.1-2.8,1.6-2.9,1.7
		c-3.2,1.5-6.9,2.7-10.7,3c-4.3,0.3-8.5-0.5-11.5-2.2l-141.6-81.8c-4.8-2.7-5.2-7.2-1.6-10.9c0.7-0.7,1.4-1.3,2.4-2
		c0.1-0.4,9.9-6.2,10.3-6.4L190.7,153.5z"/>
	<path d="M250.7,294.9l-141.6-81.8c-5.6-3.2-4.9-8.9,1.6-12.6l80.4-46.4c6.5-3.7,16.2-4.1,21.8-0.9l141.6,81.8
		c5.6,3.2,4.9,8.9-1.6,12.6L272.5,294C266.1,297.7,256.3,298.1,250.7,294.9z"/>
</g>
<linearGradient id="SVGID_51_" gradientUnits="userSpaceOnUse" x1="119.3424" y1="223.8866" x2="382.2803" y2="223.8866">
	<stop  offset="5.555560e-02" style="stop-color:#200041"/>
	<stop  offset="0.2576" style="stop-color:#210243"/>
	<stop  offset="0.3572" style="stop-color:#25084B"/>
	<stop  offset="0.4341" style="stop-color:#2C1358"/>
	<stop  offset="0.4697" style="stop-color:#311B61"/>
	<stop  offset="0.482" style="stop-color:#351F65"/>
	<stop  offset="0.4954" style="stop-color:#422C73"/>
	<stop  offset="0.5093" style="stop-color:#584188"/>
	<stop  offset="0.5235" style="stop-color:#765FA7"/>
	<stop  offset="0.5303" style="stop-color:#8770B8"/>
	<stop  offset="0.5366" style="stop-color:#7E67AE"/>
	<stop  offset="0.5617" style="stop-color:#5C468D"/>
	<stop  offset="0.5857" style="stop-color:#442E75"/>
	<stop  offset="0.6078" style="stop-color:#362066"/>
	<stop  offset="0.6263" style="stop-color:#311B61"/>
	<stop  offset="0.6724" style="stop-color:#2A1155"/>
	<stop  offset="0.7491" style="stop-color:#230446"/>
	<stop  offset="0.8131" style="stop-color:#200041"/>
	<stop  offset="1" style="stop-color:#200041"/>
</linearGradient>
<path fill="url(#SVGID_51_)" d="M250.7,294.7L109.1,213c-2.5-1.4-3.7-3.4-3.8-5.4c0-0.1,0-7,0-7c0-2.4,1.9,1.8,5.3-0.2l80.4-46.4
	c6.5-3.7,16.2-4.1,21.8-0.9l141.6,81.8c1.9,1.1,3.2-3.5,3.7-2c0.2,0.5,0.1,6.9,0.1,7.4c0.1,2.5-1.8,5.2-5.3,7.2l-80.4,46.4
	C266.1,297.6,256.3,298,250.7,294.7z"/>
<linearGradient id="SVGID_52_" gradientUnits="userSpaceOnUse" x1="105.2959" y1="217.0001" x2="358.2552" y2="217.0001">
	<stop  offset="0" style="stop-color:#311B61"/>
	<stop  offset="0.2031" style="stop-color:#290F52"/>
	<stop  offset="0.4949" style="stop-color:#200041"/>
	<stop  offset="1" style="stop-color:#0F001F"/>
</linearGradient>
<path fill="url(#SVGID_52_)" d="M250.7,287.8l-141.6-81.8c-5.6-3.2-4.9-8.9,1.6-12.6l80.4-46.4c6.5-3.7,16.2-4.1,21.8-0.9
	l141.6,81.8c5.6,3.2,4.9,8.9-1.6,12.6l-80.4,46.4C266.1,290.7,256.3,291.1,250.7,287.8z"/>
<linearGradient id="SVGID_53_" gradientUnits="userSpaceOnUse" x1="121.1038" y1="259.0921" x2="384.0408" y2="259.0921">
	<stop  offset="5.555560e-02" style="stop-color:#200041"/>
	<stop  offset="0.2576" style="stop-color:#210243"/>
	<stop  offset="0.3572" style="stop-color:#25084B"/>
	<stop  offset="0.4341" style="stop-color:#2C1358"/>
	<stop  offset="0.4697" style="stop-color:#311B61"/>
	<stop  offset="0.482" style="stop-color:#351F65"/>
	<stop  offset="0.4954" style="stop-color:#422C73"/>
	<stop  offset="0.5093" style="stop-color:#584188"/>
	<stop  offset="0.5235" style="stop-color:#765FA7"/>
	<stop  offset="0.5303" style="stop-color:#8770B8"/>
	<stop  offset="0.5366" style="stop-color:#7E67AE"/>
	<stop  offset="0.5617" style="stop-color:#5C468D"/>
	<stop  offset="0.5857" style="stop-color:#442E75"/>
	<stop  offset="0.6078" style="stop-color:#362066"/>
	<stop  offset="0.6263" style="stop-color:#311B61"/>
	<stop  offset="0.6724" style="stop-color:#2A1155"/>
	<stop  offset="0.7491" style="stop-color:#230446"/>
	<stop  offset="0.8131" style="stop-color:#200041"/>
	<stop  offset="1" style="stop-color:#200041"/>
</linearGradient>
<path opacity="0.2" fill="url(#SVGID_53_)" d="M358.2,244c0,2.5-1.8,5.1-5.3,7.1l-80.4,46.4c-6.5,3.7-16.2,4.1-21.8,0.9l-141.6-81.8
	c-2.7-1.6-3.9-3.7-3.7-5.9c0,0.1,0,0.2,0,0.4c0,0.1,0,7,0,7c0,2,1.3,3.9,3.8,5.4l141.6,81.8c5.6,3.2,15.4,2.8,21.8-0.9l80.4-46.4
	c3.6-2.1,5.4-4.7,5.3-7.2C358.2,250.3,358.3,245.7,358.2,244z"/>
<linearGradient id="SVGID_54_" gradientUnits="userSpaceOnUse" x1="108.1249" y1="217.0003" x2="355.426" y2="217.0003">
	<stop  offset="0" style="stop-color:#3D065F"/>
	<stop  offset="1" style="stop-color:#5F27BD"/>
</linearGradient>
<path fill="url(#SVGID_54_)" d="M260.2,287.2c-3.2,0-6.1-0.6-8.1-1.8l-141.6-81.8c-0.9-0.5-2.4-1.6-2.4-3c0-1.5,1.5-3.3,3.9-4.7
	l80.4-46.4c3-1.7,7-2.7,10.9-2.7c3.2,0,6.1,0.6,8.1,1.8l141.6,81.8c0.9,0.5,2.4,1.6,2.4,3c0,1.5-1.5,3.3-3.9,4.7l-80.4,46.4
	C268.1,286.2,264.2,287.2,260.2,287.2z"/>
<radialGradient id="SVGID_55_" cx="241.6302" cy="261.8892" r="94.9305" gradientUnits="userSpaceOnUse">
	<stop  offset="0" style="stop-color:#FFFFFF"/>
	<stop  offset="1" style="stop-color:#000000"/>
</radialGradient>
<path fill="url(#SVGID_55_)" d="M352.9,239.4l-80.4,46.4c-6.5,3.7-16.2,4.1-21.8,0.9l-141.6-81.8c-2.3-1.3-3.5-3.1-3.7-5
	c-0.3,2.3,0.9,4.5,3.7,6.1l141.6,81.8c5.6,3.2,15.4,2.8,21.8-0.9l80.4-46.4c3.8-2.2,5.6-5,5.3-7.6
	C357.9,235.2,356.1,237.5,352.9,239.4z"/>
<radialGradient id="SVGID_56_" cx="1195.2194" cy="-1975.4343" r="35.3566" gradientTransform="matrix(0.9456 -0.3253 0.1921 0.5584 -539.8906 1674.8619)" gradientUnits="userSpaceOnUse">
	<stop  offset="0" style="stop-color:#972A74"/>
	<stop  offset="4.128253e-02" style="stop-color:#8A266A"/>
	<stop  offset="0.1941" style="stop-color:#601B4A"/>
	<stop  offset="0.35" style="stop-color:#3D112F"/>
	<stop  offset="0.5074" style="stop-color:#220A1B"/>
	<stop  offset="0.6667" style="stop-color:#0F040C"/>
	<stop  offset="0.8293" style="stop-color:#040103"/>
	<stop  offset="1" style="stop-color:#000000"/>
</radialGradient>
<path fill="url(#SVGID_56_)" d="M244.3,171.5c3.8,10.9-8.2,24.9-26.6,31.2s-36.5,2.7-40.2-8.2c-3.8-10.9,8.2-24.9,26.6-31.2
	C222.5,156.9,240.5,160.6,244.3,171.5z"/>
<linearGradient id="SVGID_57_" gradientUnits="userSpaceOnUse" x1="-560.845" y1="413.7967" x2="-638.8659" y2="354.8167" gradientTransform="matrix(0.866 0.5 -1.5 0.2887 1309.9703 410.9167)">
	<stop  offset="0" style="stop-color:#3D065F"/>
	<stop  offset="1" style="stop-color:#260556"/>
</linearGradient>
<path fill="url(#SVGID_57_)" d="M216.5,254.4l-43.7-25.2c-2-1.2-1.7-3.2,0.6-4.5l22.2-12.9c2.3-1.3,5.8-1.5,7.8-0.3l43.7,25.2
	c2,1.2,1.7,3.2-0.6,4.5l-22.2,12.9C222,255.4,218.5,255.5,216.5,254.4z"/>
<linearGradient id="SVGID_58_" gradientUnits="userSpaceOnUse" x1="5117.4463" y1="-22.6127" x2="4854.2852" y2="205.9701" gradientTransform="matrix(-1 0 0 1 5235.9443 0)">
	<stop  offset="0.1869" style="stop-color:#3D065F"/>
	<stop  offset="0.9343" style="stop-color:#3D065F"/>
</linearGradient>
<path fill="url(#SVGID_58_)" d="M352.2,226.8L215.8,148c-5.3-3.1-9.6-11.2-9.6-18.3V22.7c0-7,4.3-10.3,9.6-7.2l136.5,78.8
	c5.3,3.1,9.6,11.2,9.6,18.3v107.1C361.8,226.7,357.5,229.9,352.2,226.8z"/>
<linearGradient id="SVGID_59_" gradientUnits="userSpaceOnUse" x1="5114.6646" y1="-20.1963" x2="4855.9263" y2="204.5445" gradientTransform="matrix(-1 0 0 1 5235.9443 0)">
	<stop  offset="0" style="stop-color:#311B61"/>
	<stop  offset="0.2031" style="stop-color:#290F52"/>
	<stop  offset="0.4949" style="stop-color:#200041"/>
	<stop  offset="1" style="stop-color:#0F001F"/>
</linearGradient>
<path fill="url(#SVGID_59_)" d="M356,225.9c-0.8,0-1.8-0.3-2.7-0.9l-136.5-78.8c-4.6-2.7-8.5-10.2-8.5-16.4V22.7
	c0-2.9,1-6.3,3.7-6.3c0.8,0,1.8,0.3,2.7,0.9l136.5,78.8c4.6,2.7,8.5,10.2,8.5,16.4v107.1C359.7,222.5,358.7,225.9,356,225.9z"/>
<linearGradient id="SVGID_60_" gradientUnits="userSpaceOnUse" x1="166.1622" y1="-17.6625" x2="416.2004" y2="276.5287">
	<stop  offset="1.010100e-02" style="stop-color:#2AF6FF"/>
	<stop  offset="5.870951e-02" style="stop-color:#3EC0F2"/>
	<stop  offset="0.1101" style="stop-color:#518FE5"/>
	<stop  offset="0.1612" style="stop-color:#6066DB"/>
	<stop  offset="0.2108" style="stop-color:#6C46D3"/>
	<stop  offset="0.2585" style="stop-color:#752FCE"/>
	<stop  offset="0.3037" style="stop-color:#7A22CA"/>
	<stop  offset="0.3434" style="stop-color:#7C1DC9"/>
	<stop  offset="0.4908" style="stop-color:#5E1699"/>
	<stop  offset="0.7364" style="stop-color:#300B4E"/>
	<stop  offset="0.9124" style="stop-color:#13051F"/>
	<stop  offset="1" style="stop-color:#08020D"/>
</linearGradient>
<path fill="url(#SVGID_60_)" d="M353.5,221.3l-135-78c-4.3-2.7-6.9-8.1-6.9-13.6V22.2c0-1.3,1.4-2.1,2.6-1.5
	c0.1,0.1,0.2,0.1,0.3,0.2l135.1,78.1c5.1,2.9,6.9,8.1,6.9,13.6v107.3c0,1.4-1.5,2.3-2.7,1.6C353.6,221.4,353.5,221.4,353.5,221.3z"
	/>
<linearGradient id="SVGID_61_" gradientUnits="userSpaceOnUse" x1="187.4909" y1="7.2013" x2="369.8955" y2="222.2519">
	<stop  offset="0" style="stop-color:#7C1DC9"/>
	<stop  offset="3.000182e-02" style="stop-color:#741BBD"/>
	<stop  offset="0.162" style="stop-color:#56148B"/>
	<stop  offset="0.2971" style="stop-color:#3B0E60"/>
	<stop  offset="0.4332" style="stop-color:#26093E"/>
	<stop  offset="0.5704" style="stop-color:#150523"/>
	<stop  offset="0.7095" style="stop-color:#09020F"/>
	<stop  offset="0.8512" style="stop-color:#020104"/>
	<stop  offset="1" style="stop-color:#000000"/>
</linearGradient>
<path fill="url(#SVGID_61_)" d="M349.5,98.9L214.4,20.9c-0.1,0-0.2-0.1-0.3-0.2c-1.1-0.7-2.6,0.2-2.6,1.5v107.6
	c0,5.5,2.6,10.9,6.9,13.6l135,78c0.1,0,0.1,0.1,0.2,0.1c1.2,0.7,2.7-0.2,2.7-1.6V112.6C356.4,107,354.6,101.8,349.5,98.9z
	 M355.4,219.9c0,0.5-0.4,0.8-0.8,0.8c-0.1,0-0.3,0-0.4-0.1L219,142.4c-3.8-2.4-6.3-7.4-6.3-12.7V22.2c0-0.4,0.3-0.6,0.6-0.6
	c0.1,0,0.2,0,0.3,0.1L349,99.9c5.2,3,6.3,8.6,6.3,12.7V219.9z"/>
<linearGradient id="SVGID_62_" gradientUnits="userSpaceOnUse" x1="1380.9868" y1="232.7598" x2="1251.6273" y2="26.0609" gradientTransform="matrix(1 0 0 1 -985.5782 0)">
	<stop  offset="5.555560e-02" style="stop-color:#200041"/>
	<stop  offset="0.2576" style="stop-color:#210243"/>
	<stop  offset="0.3572" style="stop-color:#25084B"/>
	<stop  offset="0.4341" style="stop-color:#2C1358"/>
	<stop  offset="0.4697" style="stop-color:#311B61"/>
	<stop  offset="0.482" style="stop-color:#351F65"/>
	<stop  offset="0.4954" style="stop-color:#422C73"/>
	<stop  offset="0.5093" style="stop-color:#584188"/>
	<stop  offset="0.5235" style="stop-color:#765FA7"/>
	<stop  offset="0.5303" style="stop-color:#8770B8"/>
	<stop  offset="0.5366" style="stop-color:#7E67AE"/>
	<stop  offset="0.5617" style="stop-color:#5C468D"/>
	<stop  offset="0.5857" style="stop-color:#442E75"/>
	<stop  offset="0.6078" style="stop-color:#362066"/>
	<stop  offset="0.6263" style="stop-color:#311B61"/>
	<stop  offset="0.6724" style="stop-color:#2A1155"/>
	<stop  offset="0.7491" style="stop-color:#230446"/>
	<stop  offset="0.8131" style="stop-color:#200041"/>
	<stop  offset="1" style="stop-color:#200041"/>
</linearGradient>
<path fill="url(#SVGID_62_)" d="M354.9,92.8L218.5,14c-2.1-1.2-4-1.4-5.6-0.8c-0.2,0.1-2.9,1.5-3.1,1.6l0,0c1.6-0.8,3.7-0.6,6,0.7
	l136.5,78.8c5.3,3.1,9.6,11.2,9.6,18.3v107.1c0,4.4-1.7,7.3-4.2,8.1c0.2,0,0.5-0.1,0.8-0.3c0.1-0.1,3-1.7,3.1-1.8
	c1.8-1.3,2.9-3.9,2.9-7.5V111.1C364.5,104.1,360.2,95.9,354.9,92.8z"/>
<radialGradient id="SVGID_63_" cx="1344.0759" cy="105.7695" r="21.9845" gradientTransform="matrix(1 0 0 1 -985.5782 0)" gradientUnits="userSpaceOnUse">
	<stop  offset="0" style="stop-color:#FFFFFF"/>
	<stop  offset="1" style="stop-color:#000000"/>
</radialGradient>
<path fill="url(#SVGID_63_)" d="M352.7,94L216.2,15.2c-2.2-1.3-4.2-1.4-5.8-0.7c1.4-0.2,2.9,0.1,4.6,1.1l136.5,78.8
	c5.3,3.1,9.6,11.2,9.6,18.3v107.1c0,4.2-1.5,7-3.8,8c3-0.5,5-3.5,5-8.3V112.3C362.3,105.3,358,97.1,352.7,94z"/>
<g>
	<linearGradient id="SVGID_64_" gradientUnits="userSpaceOnUse" x1="284.4902" y1="165.8305" x2="239.2569" y2="215.0757">
		<stop  offset="0" style="stop-color:#3D065F"/>
		<stop  offset="1" style="stop-color:#12054E"/>
		<stop  offset="1" style="stop-color:#10054D"/>
	</linearGradient>
	<path fill="url(#SVGID_64_)" d="M265.9,235.5l-69.4-40c-2.3-1.3-2-3.6,0.6-5.2l23-13.6c2.7-1.5,6.7-1.7,9-0.4l69.8,39.8
		c2.3,1.3,2,3.6-0.6,5.2l-23.4,13.8C272.2,236.6,268.2,236.8,265.9,235.5z"/>
	<linearGradient id="SVGID_65_" gradientUnits="userSpaceOnUse" x1="224.8944" y1="178.9267" x2="224.8944" y2="199.0543">
		<stop  offset="0" style="stop-color:#3D065F"/>
		<stop  offset="1" style="stop-color:#521B9A"/>
	</linearGradient>
	<path fill="url(#SVGID_65_)" d="M236.7,183.3l-0.9-2.5h0c-0.1-0.6-0.5-1.1-1.3-1.6l-6.4-3.7c-1.8-1-4.7-1.1-6.5,0l-6.3,3.7
		c-0.8,0.5-1.1,1.2-1.3,1.8l-0.9,2.3c-0.5,1.3-0.4,2.3,1.1,3.2l7.1,4.1c2,1.2,5.3,1.2,7.3,0l7-4.1
		C237.1,185.6,237.3,184.6,236.7,183.3z"/>
	<linearGradient id="SVGID_66_" gradientUnits="userSpaceOnUse" x1="237.9327" y1="165.1257" x2="221.593" y2="185.0965">
		<stop  offset="0" style="stop-color:#3D065F"/>
		<stop  offset="0.7677" style="stop-color:#5E26BA"/>
		<stop  offset="1" style="stop-color:#6F2BCF"/>
	</linearGradient>
	<path fill="url(#SVGID_66_)" d="M215.6,182.9l6.1,3.5c1.7,1,4.6,1,6.3,0l6.1-3.5c1.7-1,1.7-2.6,0-3.6l-6.1-3.5c-1.7-1-4.6-1-6.3,0
		l-6.1,3.5C213.9,180.2,213.9,181.9,215.6,182.9z"/>
	<linearGradient id="SVGID_67_" gradientUnits="userSpaceOnUse" x1="240.4272" y1="187.5101" x2="240.4272" y2="209.3892">
		<stop  offset="0" style="stop-color:#3D065F"/>
		<stop  offset="1" style="stop-color:#521B9A"/>
	</linearGradient>
	<path fill="url(#SVGID_67_)" d="M252.2,191.8l-0.9-2.5h0c-0.1-0.6-0.5-1.1-1.3-1.6l-6.4-3.7c-1.8-1-4.7-1.1-6.5,0l-6.3,3.7
		c-0.8,0.5-1.1,1.2-1.3,1.8l-0.9,2.3c-0.5,1.3-0.4,2.3,1.1,3.2l7.1,4.1c2,1.2,5.3,1.2,7.3,0l7-4.1
		C252.6,194.2,252.8,193.2,252.2,191.8z"/>
	<linearGradient id="SVGID_68_" gradientUnits="userSpaceOnUse" x1="253.4655" y1="173.6991" x2="237.1258" y2="193.6698">
		<stop  offset="0" style="stop-color:#3D065F"/>
		<stop  offset="0.7677" style="stop-color:#5E26BA"/>
		<stop  offset="1" style="stop-color:#6F2BCF"/>
	</linearGradient>
	<path fill="url(#SVGID_68_)" d="M231.2,191.5l6.1,3.5c1.7,1,4.6,1,6.3,0l6.1-3.5c1.7-1,1.7-2.6,0-3.6l-6.1-3.5c-1.7-1-4.6-1-6.3,0
		l-6.1,3.5C229.4,188.8,229.4,190.4,231.2,191.5z"/>
	<linearGradient id="SVGID_69_" gradientUnits="userSpaceOnUse" x1="255.9601" y1="197.3434" x2="255.9601" y2="214.6839">
		<stop  offset="0" style="stop-color:#3D065F"/>
		<stop  offset="1" style="stop-color:#521B9A"/>
	</linearGradient>
	<path fill="url(#SVGID_69_)" d="M267.8,200.4l-0.9-2.5h0c-0.1-0.6-0.5-1.1-1.3-1.6l-6.4-3.7c-1.8-1-4.7-1.1-6.5,0l-6.3,3.7
		c-0.8,0.5-1.1,1.2-1.3,1.8l-0.9,2.3c-0.5,1.3-0.4,2.3,1.1,3.2l7.1,4.1c2,1.2,5.3,1.2,7.3,0l7-4.1
		C268.2,202.8,268.4,201.8,267.8,200.4z"/>
	<linearGradient id="SVGID_70_" gradientUnits="userSpaceOnUse" x1="268.9983" y1="182.2724" x2="252.6586" y2="202.2431">
		<stop  offset="0" style="stop-color:#3D065F"/>
		<stop  offset="0.7677" style="stop-color:#5E26BA"/>
		<stop  offset="1" style="stop-color:#6F2BCF"/>
	</linearGradient>
	<path fill="url(#SVGID_70_)" d="M246.7,200l6.1,3.5c1.7,1,4.6,1,6.3,0l6.1-3.5c1.7-1,1.7-2.6,0-3.6l-6.1-3.5c-1.7-1-4.6-1-6.3,0
		l-6.1,3.5C244.9,197.4,244.9,199,246.7,200z"/>
	<linearGradient id="SVGID_71_" gradientUnits="userSpaceOnUse" x1="271.4929" y1="206.01" x2="271.4929" y2="221.4269">
		<stop  offset="0" style="stop-color:#3D065F"/>
		<stop  offset="1" style="stop-color:#521B9A"/>
	</linearGradient>
	<path fill="url(#SVGID_71_)" d="M283.3,209l-0.9-2.5h0c-0.1-0.6-0.5-1.1-1.3-1.6l-6.4-3.7c-1.8-1-4.7-1.1-6.5,0l-6.3,3.7
		c-0.8,0.5-1.1,1.2-1.3,1.8l-0.9,2.3c-0.5,1.3-0.4,2.3,1.1,3.2l7.1,4.1c2,1.2,5.3,1.2,7.3,0l7-4.1
		C283.7,211.3,283.9,210.4,283.3,209z"/>
	<linearGradient id="SVGID_72_" gradientUnits="userSpaceOnUse" x1="284.5311" y1="190.8457" x2="268.1914" y2="210.8165">
		<stop  offset="0" style="stop-color:#3D065F"/>
		<stop  offset="0.7677" style="stop-color:#5E26BA"/>
		<stop  offset="1" style="stop-color:#6F2BCF"/>
	</linearGradient>
	<path fill="url(#SVGID_72_)" d="M262.2,208.6l6.1,3.5c1.7,1,4.6,1,6.3,0l6.1-3.5c1.7-1,1.7-2.6,0-3.6l-6.1-3.5c-1.7-1-4.6-1-6.3,0
		l-6.1,3.5C260.5,206,260.5,207.6,262.2,208.6z"/>
	<path fill="#C7BCD6" d="M223,180l-0.2-0.1l-0.1,0l0.1,0.1l3,3.8l-2,1.2l-3.9-5.8l1.6-0.9l10.1,2.3l-2,1.2L223,180z"/>
	<path fill="#C7BCD6" d="M242.6,191.8c-1,0.6-2.1,0.9-3.1,1c-1,0-1.9-0.2-2.8-0.6c-0.8-0.5-1.2-1-1.1-1.6c0.1-0.6,0.6-1.2,1.7-1.8
		l1.8-1.1c1-0.6,2.1-0.9,3.1-1c1,0,1.9,0.2,2.8,0.6c0.8,0.5,1.2,1,1.1,1.6c-0.1,0.6-0.6,1.2-1.7,1.8L242.6,191.8z M243.3,189.8
		c0.7-0.4,1-0.7,1.1-1c0.1-0.3-0.1-0.6-0.5-0.8c-0.4-0.2-0.9-0.3-1.4-0.3c-0.5,0.1-1.1,0.3-1.8,0.7l-2.2,1.3c-0.7,0.4-1,0.7-1.1,1
		c-0.1,0.3,0.1,0.6,0.5,0.8c0.4,0.2,0.9,0.3,1.4,0.3c0.5-0.1,1.1-0.3,1.8-0.7L243.3,189.8z"/>
	<path fill="#C7BCD6" d="M253,201.1l-1.3-0.8l6.8-3.9l-1.6-0.9l1-0.6l3.3,1.6L253,201.1z"/>
	<path fill="#C7BCD6" d="M270.4,204.1l2-1.1l4.1,6l-1.6,0.9l-10.3-2.4l2-1.1l7,1.8l0.2,0.1l0.1,0l-0.1-0.1L270.4,204.1z"/>
	<g>
		<linearGradient id="SVGID_73_" gradientUnits="userSpaceOnUse" x1="232.5182" y1="206.1677" x2="227.8515" y2="230.251">
			<stop  offset="0" style="stop-color:#3D065F"/>
			<stop  offset="1" style="stop-color:#521B9A"/>
		</linearGradient>
		<path fill="url(#SVGID_73_)" d="M266.7,217.7l-0.9-2.5h0c-0.1-0.6-0.5-1.1-1.3-1.6l-51-29.5c-1.8-1-4.7-1.1-6.5,0l-6.3,3.7
			c-0.8,0.5-1.1,1.2-1.3,1.8l-0.9,2.3c-0.5,1.3-0.4,2.3,1.1,3.2l51.7,29.9c2,1.2,5.3,1.2,7.3,0l7-4.1
			C267.1,220,267.2,219,266.7,217.7z"/>
		<linearGradient id="SVGID_74_" gradientUnits="userSpaceOnUse" x1="252.9685" y1="177.6027" x2="227.4054" y2="208.8466">
			<stop  offset="0" style="stop-color:#3D065F"/>
			<stop  offset="0.7677" style="stop-color:#5E26BA"/>
			<stop  offset="1" style="stop-color:#6F2BCF"/>
		</linearGradient>
		<path fill="url(#SVGID_74_)" d="M201,191.5l50.7,29.4c1.7,1,4.6,1,6.3,0l6.1-3.5c1.7-1,1.7-2.6,0-3.6l-50.7-29.4
			c-1.7-1-4.6-1-6.3,0l-6.1,3.5C199.2,188.8,199.2,190.4,201,191.5z"/>
	</g>
	<g>
		<linearGradient id="SVGID_75_" gradientUnits="userSpaceOnUse" x1="278.953" y1="223.8779" x2="281.7863" y2="241.3779">
			<stop  offset="0" style="stop-color:#3D065F"/>
			<stop  offset="1" style="stop-color:#521B9A"/>
		</linearGradient>
		<path fill="url(#SVGID_75_)" d="M298.8,217.5l-0.9-2.5h0c-0.1-0.6-0.5-1.1-1.3-1.6l-6.4-3.7c-1.8-1-4.7-1.1-6.5,0L261,222.7
			c-0.8,0.5-1.1,1.2-1.3,1.8l-0.9,2.3c-0.5,1.3-0.4,2.3,1.1,3.2l7.1,4.1c2,1.2,5.3,1.2,7.3,0l23.4-13.4
			C299.2,219.8,299.4,218.8,298.8,217.5z"/>
		<linearGradient id="SVGID_76_" gradientUnits="userSpaceOnUse" x1="307.5462" y1="184.8385" x2="271.6178" y2="228.7509">
			<stop  offset="0" style="stop-color:#3D065F"/>
			<stop  offset="0.7677" style="stop-color:#5E26BA"/>
			<stop  offset="1" style="stop-color:#6F2BCF"/>
		</linearGradient>
		<path fill="url(#SVGID_76_)" d="M261.4,226.4l6.1,3.5c1.7,1,4.6,1,6.3,0l22.4-12.8c1.7-1,1.7-2.6,0-3.6l-6.1-3.5
			c-1.7-1-4.6-1-6.3,0l-22.4,12.8C259.7,223.7,259.7,225.4,261.4,226.4z"/>
	</g>
	<g>
		<path fill="#C7BCD6" d="M275.8,218.2l-1.3-0.7l-0.9,0.5l1.5,0.8l-0.4,0.2l-1.9-1.1l2.8-1.6l1.9,1.1l-0.4,0.2l-1.4-0.8l-0.8,0.5
			l1.3,0.7L275.8,218.2z"/>
		<path fill="#C7BCD6" d="M277.6,218.3l-0.3,0.2c0.2,0,0.3,0,0.5,0c0.2,0,0.3,0.1,0.4,0.2c0.2,0.1,0.3,0.3,0.3,0.4
			c0,0.2-0.2,0.3-0.4,0.5l-1.3,0.8l-0.5-0.3l1.3-0.8c0.2-0.1,0.2-0.2,0.2-0.3c0-0.1-0.1-0.2-0.2-0.2c-0.1-0.1-0.2-0.1-0.3-0.1
			c-0.1,0-0.2,0-0.3,0l-1.5,0.9l-0.5-0.3l2.1-1.2L277.6,218.3z"/>
		<path fill="#C7BCD6" d="M280.6,219.4l-0.5,0.3l0.4,0.2l-0.4,0.2l-0.4-0.2l-1.2,0.7c-0.1,0-0.1,0.1-0.1,0.1c0,0,0,0.1,0.1,0.1
			c0,0,0.1,0,0.1,0c0,0,0.1,0,0.1,0l-0.3,0.2c-0.1,0-0.1,0-0.2-0.1c-0.1,0-0.1-0.1-0.2-0.1c-0.2-0.1-0.3-0.2-0.3-0.3
			c0-0.1,0.1-0.2,0.3-0.4l1.2-0.7l-0.3-0.2l0.4-0.2l0.3,0.2l0.5-0.3L280.6,219.4z"/>
		<path fill="#C7BCD6" d="M279.6,221.9c-0.3-0.2-0.4-0.4-0.4-0.6c0-0.2,0.2-0.4,0.5-0.6l0.1,0c0.3-0.2,0.7-0.3,1-0.3
			c0.4,0,0.7,0.1,1,0.2c0.3,0.2,0.4,0.3,0.4,0.5c0,0.2-0.2,0.4-0.5,0.5l-0.3,0.2l-1.3-0.8l0,0c-0.2,0.1-0.2,0.2-0.3,0.3
			c0,0.1,0.1,0.2,0.2,0.3c0.1,0.1,0.3,0.1,0.4,0.2c0.1,0,0.3,0.1,0.4,0.1l-0.2,0.3c-0.2,0-0.3,0-0.5-0.1
			C280,222.1,279.8,222,279.6,221.9z M281.4,220.8c-0.1-0.1-0.3-0.1-0.4-0.1c-0.2,0-0.3,0.1-0.5,0.1l0,0l0.8,0.5l0,0
			c0.1-0.1,0.2-0.2,0.2-0.2C281.6,221,281.5,220.9,281.4,220.8z"/>
		<path fill="#C7BCD6" d="M283.6,222.2l-0.2-0.1c-0.1-0.1-0.2-0.1-0.3-0.1c-0.1,0-0.2,0-0.3,0l-1.5,0.8l-0.5-0.3l2.1-1.2l0.4,0.3
			l-0.3,0.2c0.2,0,0.3,0,0.5,0c0.1,0,0.3,0.1,0.4,0.1c0,0,0.1,0,0.1,0c0,0,0,0,0.1,0L283.6,222.2z"/>
	</g>
</g>
<linearGradient id="SVGID_77_" gradientUnits="userSpaceOnUse" x1="340.4009" y1="183.4615" x2="283.4009" y2="111.4615">
	<stop  offset="3.535350e-02" style="stop-color:#138BBD"/>
	<stop  offset="0.2257" style="stop-color:#169AC7"/>
	<stop  offset="0.5946" style="stop-color:#1FC3DF"/>
	<stop  offset="1" style="stop-color:#2AF6FF"/>
</linearGradient>
<polygon fill="url(#SVGID_77_)" points="340.3,180.4 302.6,158.6 302.6,138.6 340.3,160.4 "/>
<linearGradient id="SVGID_78_" gradientUnits="userSpaceOnUse" x1="249.8184" y1="139.7718" x2="216.3184" y2="81.5218">
	<stop  offset="3.535350e-02" style="stop-color:#138BBD"/>
	<stop  offset="0.2257" style="stop-color:#169AC7"/>
	<stop  offset="0.5946" style="stop-color:#1FC3DF"/>
	<stop  offset="1" style="stop-color:#2AF6FF"/>
</linearGradient>
<polygon fill="url(#SVGID_78_)" points="250.3,128.8 212.7,107 212.7,87 250.3,108.8 "/>
<linearGradient id="SVGID_79_" gradientUnits="userSpaceOnUse" x1="289.4081" y1="93.2517" x2="276.4081" y2="55.2518">
	<stop  offset="3.535350e-02" style="stop-color:#9F19AB"/>
	<stop  offset="0.2438" style="stop-color:#AE25B1"/>
	<stop  offset="0.6455" style="stop-color:#D744BF"/>
	<stop  offset="1" style="stop-color:#FF63CE"/>
</linearGradient>
<path fill="url(#SVGID_79_)" d="M299.2,91.8l-31-17.9c-2.6-1.5-4.8-5.6-4.8-9.2l0,0c0-3.5,2.1-5.2,4.8-3.6l31,17.9
	c2.6,1.5,4.8,5.6,4.8,9.2l0,0C304,91.7,301.8,93.4,299.2,91.8z"/>
<linearGradient id="SVGID_80_" gradientUnits="userSpaceOnUse" x1="289.4875" y1="178.9647" x2="268.9875" y2="143.4647">
	<stop  offset="3.535350e-02" style="stop-color:#9F19AB"/>
	<stop  offset="0.2438" style="stop-color:#AE25B1"/>
	<stop  offset="0.6455" style="stop-color:#D744BF"/>
	<stop  offset="1" style="stop-color:#FF63CE"/>
</linearGradient>
<path fill="url(#SVGID_80_)" d="M297.6,181.4l-31-17.9c-2.6-1.5-4.8-5.6-4.8-9.2l0,0c0-3.5,2.1-5.2,4.8-3.6l31,17.9
	c2.6,1.5,4.8,5.6,4.8,9.2v0C302.4,181.3,300.2,183,297.6,181.4z"/>
<g>
	<polygon fill="none" stroke="#B086CC" stroke-miterlimit="10" points="323.5,144.7 323.5,134.2 301.5,121.6 301,122.5 322.5,134.8 
		322.5,144.1 320.4,142.9 322.8,149.1 325.2,145.7 	"/>
	<polygon fill="none" stroke="#B086CC" stroke-miterlimit="10" points="283.1,95 285.5,91.5 283.6,90.4 283.6,84.6 282.6,84.3 
		282.6,89.8 280.7,88.7 	"/>
	<polygon fill="none" stroke="#B086CC" stroke-miterlimit="10" points="244.6,104.4 247,100.9 245.3,99.9 245.3,90.4 263.1,100.6 
		263.6,99.8 244.3,88.6 244.3,99.4 242.2,98.1 	"/>
	<polygon fill="none" stroke="#B086CC" stroke-miterlimit="10" points="320,172.8 242.6,128.2 242.6,124.8 241.6,124.5 241.6,128.8 
		282.6,152.4 282.6,154.6 280.7,153.5 283.1,159.8 285.5,156.3 283.6,155.2 283.6,153 320.3,174.1 321,174.6 321,169.8 320,169.5 	
		"/>
</g>
<linearGradient id="SVGID_81_" gradientUnits="userSpaceOnUse" x1="296.5593" y1="133.9458" x2="273.3093" y2="95.1958">
	<stop  offset="3.535350e-02" style="stop-color:#FFA98C"/>
	<stop  offset="0.3169" style="stop-color:#FFB892"/>
	<stop  offset="0.8601" style="stop-color:#FEE1A3"/>
	<stop  offset="1" style="stop-color:#FEECA8"/>
</linearGradient>
<polygon fill="url(#SVGID_81_)" points="283,127 263.9,100.3 283,95.5 302,122.3 "/>
<radialGradient id="SVGID_82_" cx="321.4213" cy="159.4872" r="19.8788" gradientUnits="userSpaceOnUse">
	<stop  offset="0" style="stop-color:#FFFFFF"/>
	<stop  offset="1" style="stop-color:#000000"/>
</radialGradient>
<polygon fill="url(#SVGID_82_)" points="302.6,138.6 302.6,139.4 339.8,160.9 339.8,180.1 340.3,180.4 340.3,160.4 "/>
<radialGradient id="SVGID_83_" cx="231.4875" cy="107.8978" r="19.8789" gradientUnits="userSpaceOnUse">
	<stop  offset="0" style="stop-color:#FFFFFF"/>
	<stop  offset="1" style="stop-color:#000000"/>
</radialGradient>
<polygon fill="url(#SVGID_83_)" points="212.7,87 212.7,87.8 249.8,109.3 249.8,128.5 250.3,128.8 250.3,108.8 "/>
<radialGradient id="SVGID_84_" cx="284.1235" cy="76.2288" r="17.8927" gradientUnits="userSpaceOnUse">
	<stop  offset="0" style="stop-color:#FFFFFF"/>
	<stop  offset="1" style="stop-color:#000000"/>
</radialGradient>
<path fill="url(#SVGID_84_)" d="M299.2,79l-31-17.9c-1.6-0.9-3-0.7-3.9,0.4c0.9-0.6,2.1-0.7,3.4,0.1l31,17.9
	c2.6,1.5,4.8,5.6,4.8,9.2c0,1.4-0.3,2.5-0.9,3.2c0.9-0.7,1.4-1.9,1.4-3.7C304,84.7,301.8,80.6,299.2,79z"/>
<radialGradient id="SVGID_85_" cx="282.5028" cy="165.8376" r="17.8927" gradientUnits="userSpaceOnUse">
	<stop  offset="0" style="stop-color:#FFFFFF"/>
	<stop  offset="1" style="stop-color:#000000"/>
</radialGradient>
<path fill="url(#SVGID_85_)" d="M297.6,168.6l-31-17.9c-1.6-0.9-3-0.7-3.9,0.4c0.9-0.6,2.1-0.7,3.4,0.1l31,17.9
	c2.6,1.5,4.8,5.6,4.8,9.2c0,1.4-0.3,2.5-0.9,3.2c0.9-0.7,1.4-1.9,1.4-3.7C302.4,174.3,300.2,170.2,297.6,168.6z"/>
<radialGradient id="SVGID_86_" cx="282.9608" cy="109.006" r="16.5008" gradientUnits="userSpaceOnUse">
	<stop  offset="0" style="stop-color:#FFFFFF"/>
	<stop  offset="1" style="stop-color:#000000"/>
</radialGradient>
<polygon fill="url(#SVGID_86_)" points="282.5,96 301.3,122.5 302,122.3 283,95.5 263.9,100.3 264.1,100.6 "/>
<g>
	<polygon fill="#E0ECF7" points="232.5,104.3 236.8,106.7 236.8,105.5 232.5,103 	"/>
	<polygon fill="#E0ECF7" points="234.3,114.6 230,112.2 230,113.4 234.3,115.9 	"/>
	<polygon fill="#E0ECF7" points="234.1,107.9 234.1,106.6 229.3,103.9 229.3,105.2 	"/>
	<polygon fill="#E0ECF7" points="229.1,108.9 229.1,110.2 231.5,111.6 231.5,110.3 	"/>
	<polygon fill="#E0ECF7" points="225.4,110.8 225.4,109.5 221.5,107.3 221.5,108.6 	"/>
	<polygon fill="#E0ECF7" points="236.1,113 232.8,111.1 232.8,112.3 236.1,114.3 	"/>
	<polygon fill="#E0ECF7" points="231.3,107.6 231.3,108.9 233.3,110 233.3,108.8 	"/>
	<polygon fill="#E0ECF7" points="238.1,106.2 238.1,107.4 239.1,108.1 239.1,106.8 	"/>
	<polygon fill="#E0ECF7" points="230,108.2 230,106.9 226,104.6 226,105.9 	"/>
	<polygon fill="#E0ECF7" points="235.3,107.3 235.3,108.6 241.3,112 241.3,110.8 	"/>
	<polygon fill="#E0ECF7" points="227.8,109.5 227.8,108.2 222.7,105.3 222.7,106.6 	"/>
	<polygon fill="#E0ECF7" points="224,98.1 224,99.4 228,101.7 228,100.4 	"/>
	<polygon fill="#E0ECF7" points="231.2,102.3 229.2,101.1 229.2,102.4 231.2,103.5 	"/>
	<polygon fill="#E0ECF7" points="228.8,111.5 226.7,110.3 226.7,111.5 228.8,112.7 	"/>
	<polygon fill="#E0ECF7" points="240.2,116.6 245.7,119.8 245.7,118.5 240.2,115.4 	"/>
	<polygon fill="#E0ECF7" points="220.2,106.6 218.3,105.5 218.3,106.8 220.2,107.9 	"/>
	<polygon fill="#E0ECF7" points="214.4,92.8 214.4,94.1 222.9,99 222.9,97.7 	"/>
	<polygon fill="#E0ECF7" points="241.5,114.7 243.5,115.9 243.5,114.6 241.5,113.5 	"/>
	<polygon fill="#E0ECF7" points="242.6,112.8 248.4,116.2 248.4,114.9 242.6,111.5 	"/>
	<polygon fill="#E0ECF7" points="234.5,110.8 240.2,114 240.2,112.7 234.5,109.5 	"/>
	<polygon fill="#E0ECF7" points="240.4,107.5 240.4,108.8 244.9,111.4 244.9,110.1 	"/>
	<polygon fill="#E0ECF7" points="221.5,104.6 218.3,102.9 218.3,104.1 221.5,105.9 	"/>
	<polygon fill="#E0ECF7" points="239,114.6 237.4,113.7 237.4,115 239,115.9 	"/>
	<polygon fill="#E0ECF7" points="224.7,103.9 218.3,100.2 218.3,101.5 224.7,105.2 	"/>
	<polygon fill="#E0ECF7" points="228.1,103.2 218.3,97.6 218.3,98.9 228.1,104.5 	"/>
</g>
<g>
	<path fill="#C7BCD6" d="M281.1,105.9l-1.5-0.9v-1.5l1.5,0.9V105.9z M281.1,115.6l-1.5-0.9v-7.8l1.5,0.9V115.6z"/>
	<path fill="#C7BCD6" d="M283.3,116.8v-6.5l-1-0.6v-1.3l1,0.6v-0.9c0-0.9,0.2-1.4,0.6-1.6c0.4-0.2,1-0.1,1.7,0.3
		c0.1,0.1,0.3,0.2,0.4,0.3c0.2,0.1,0.3,0.2,0.5,0.4l-0.2,1.3c-0.1-0.1-0.2-0.1-0.3-0.2c-0.1-0.1-0.2-0.1-0.3-0.2
		c-0.3-0.2-0.6-0.2-0.7-0.1c-0.2,0.1-0.2,0.4-0.2,0.8v0.9l1.4,0.8v1.3l-1.4-0.8v6.5L283.3,116.8z"/>
</g>
<path opacity="0.8" fill="#7C1DC9" d="M371.9,193.7l3.3,1.9V188l-3.3-1.9V193.7z M377.2,196.7l3.3,1.9v-14l-3.3-1.9V196.7z
	 M382.4,179.4v20.3l3.3,1.9v-20.3L382.4,179.4z"/>
<path opacity="0.8" fill="#7C1DC9" d="M201.1,32.2c0-0.3,0-0.6-0.1-0.9l1.5-0.2c-0.2-0.8-0.4-1.6-0.7-2.3l-1.7-0.5
	c-0.3-0.7-0.7-1.3-1.1-1.9l0.4-1.8c-0.5-0.6-1.1-1.2-1.7-1.8l-0.9,1.2c-0.3-0.2-0.5-0.4-0.8-0.5c-0.3-0.2-0.5-0.3-0.8-0.4l-0.9-2.3
	c-0.6-0.2-1.2-0.2-1.7-0.2l0.4,2.2c-0.4,0.1-0.8,0.3-1.1,0.6l-1.7-1.5c-0.3,0.4-0.5,0.9-0.7,1.5l1.5,2c0,0.3-0.1,0.5-0.1,0.8
	c0,0.3,0,0.6,0.1,0.9l-1.5,0.2c0.2,0.8,0.4,1.6,0.7,2.3l1.7,0.5c0.3,0.7,0.7,1.3,1.1,1.9l-0.4,1.8c0.5,0.6,1.1,1.2,1.7,1.8l0.9-1.2
	c0.3,0.2,0.5,0.4,0.8,0.5c0.3,0.2,0.5,0.3,0.8,0.4l0.9,2.3c0.6,0.2,1.2,0.2,1.7,0.2l-0.4-2.2c0.4-0.1,0.8-0.3,1.1-0.6l1.7,1.5
	c0.3-0.4,0.5-0.9,0.7-1.5l-1.5-2C201.1,32.8,201.1,32.5,201.1,32.2z M196.1,31.6c-1.1-0.6-2-2.2-2-3.5c0-1.3,0.9-1.8,2-1.1
	c1.1,0.6,2,2.2,2,3.5C198.1,31.7,197.2,32.3,196.1,31.6z"/>
<g opacity="0.8">
	<path fill="#7C1DC9" d="M176.1,122.9c-0.1,0-0.1-0.1-0.2-0.2c-0.1-0.1-0.1-0.2-0.1-0.3v-1.3c0-0.1,0-0.2,0.1-0.3
		c0.1,0,0.1-0.1,0.3-0.1l3.4-0.6l-3.4-4.6c-0.1-0.2-0.2-0.3-0.3-0.4c-0.1-0.1-0.1-0.2-0.1-0.4v-1.2c0-0.1,0-0.2,0.1-0.2
		c0.1,0,0.1,0,0.2,0c0.1,0,0.2,0.2,0.3,0.3l4.8,6.5c0.1,0.2,0.3,0.4,0.3,0.5c0.1,0.1,0.1,0.3,0.1,0.4v0.4c0,0.2,0,0.3-0.1,0.3
		c-0.1,0.1-0.2,0.1-0.3,0.1l-4.8,1C176.3,122.9,176.2,122.9,176.1,122.9z"/>
	<path fill="#7C1DC9" d="M173.9,123.8l-0.9-0.5c-0.1-0.1-0.2-0.2-0.3-0.3c-0.1-0.1-0.1-0.2-0.1-0.3l-4.8-15.9c0-0.1,0-0.1,0-0.2
		c0-0.1,0-0.2,0.1-0.2c0.1,0,0.1,0,0.2,0l0.9,0.5c0.1,0.1,0.2,0.2,0.3,0.3c0.1,0.1,0.1,0.2,0.2,0.3l4.8,15.9c0,0.1,0,0.1,0,0.2
		c0,0.1,0,0.2-0.1,0.2C174.1,123.9,174,123.9,173.9,123.8z"/>
	<path fill="#7C1DC9" d="M165.9,117c-0.1-0.1-0.2-0.2-0.3-0.3l-4.8-6.5c-0.1-0.2-0.2-0.4-0.3-0.5s-0.1-0.3-0.1-0.4v-0.4
		c0-0.2,0-0.3,0.1-0.3c0.1-0.1,0.2-0.1,0.3-0.2l4.8-1c0.1,0,0.2,0,0.3,0c0.1,0,0.1,0.1,0.2,0.2c0.1,0.1,0.1,0.2,0.1,0.3v1.2
		c0,0.1,0,0.2-0.1,0.3c-0.1,0-0.1,0.1-0.3,0.1l-3.4,0.6l3.4,4.6c0.1,0.2,0.2,0.3,0.3,0.4c0.1,0.1,0.1,0.2,0.1,0.4v1.3
		c0,0.1,0,0.2-0.1,0.2C166.1,117,166,117,165.9,117z"/>
</g>
<g>
	<polygon opacity="0.8" fill="#7C1DC9" points="147,109.4 147,97.1 153.6,107.1 147,109.4 	"/>
	<polygon opacity="0.6" fill="#7C1DC9" points="138,104.3 138,92 144.6,101.9 138,104.3 	"/>
	<polygon opacity="0.4" fill="#7C1DC9" points="128.9,99.1 128.9,86.8 135.6,96.8 128.9,99.1 	"/>
	<polygon opacity="0.25" fill="#7C1DC9" points="119.9,93.9 119.9,81.6 126.5,91.6 119.9,93.9 	"/>
	<polygon opacity="0.15" fill="#7C1DC9" points="110.9,88.7 110.9,76.5 117.5,86.4 110.9,88.7 	"/>
</g>
<g>
	<polygon opacity="0.8" fill="#7C1DC9" points="337.3,36.2 337.3,48.5 330.7,38.5 337.3,36.2 	"/>
	<polygon opacity="0.6" fill="#7C1DC9" points="346.4,41.3 346.4,53.6 339.7,43.7 346.4,41.3 	"/>
	<polygon opacity="0.4" fill="#7C1DC9" points="355.4,46.5 355.4,58.8 348.8,48.8 355.4,46.5 	"/>
	<polygon opacity="0.25" fill="#7C1DC9" points="364.4,51.7 364.4,64 357.8,54 364.4,51.7 	"/>
	<polygon opacity="0.15" fill="#7C1DC9" points="373.5,56.8 373.5,69.1 366.8,59.2 373.5,56.8 	"/>
</g>
<g opacity="0.8">
	<polygon opacity="0.6" fill="#7C1DC9" points="81.4,238.3 85.9,240.9 88.1,239.6 83.6,237 	"/>
	<polygon opacity="0.8" fill="#7C1DC9" points="84.8,236.3 89.2,238.9 91.6,237.5 87.2,235 	"/>
	<polygon opacity="0.3" fill="#7C1DC9" points="74.8,242.1 79.2,244.7 80.9,243.7 76.4,241.1 	"/>
	<polygon opacity="0.15" fill="#7C1DC9" points="72.5,243.4 77,246 77.8,245.6 73.4,243 	"/>
	<polygon opacity="0.5" fill="#7C1DC9" points="78.1,240.2 82.6,242.8 84.5,241.7 80,239.1 	"/>
	<polygon fill="#7C1DC9" points="84.4,232 96.6,239 98.8,230.7 	"/>
</g>
<linearGradient id="SVGID_87_" gradientUnits="userSpaceOnUse" x1="401.2977" y1="155.544" x2="386.5538" y2="130.9709">
	<stop  offset="3.535350e-02" style="stop-color:#FFA98C"/>
	<stop  offset="0.3169" style="stop-color:#FFB892"/>
	<stop  offset="0.8601" style="stop-color:#FEE1A3"/>
	<stop  offset="1" style="stop-color:#FEECA8"/>
</linearGradient>
<polygon fill="url(#SVGID_87_)" points="392.7,151.2 380.6,134.2 392.7,131.2 404.8,148.2 "/>
<linearGradient id="SVGID_88_" gradientUnits="userSpaceOnUse" x1="384.3503" y1="108.5093" x2="375.5455" y2="82.772">
	<stop  offset="3.535350e-02" style="stop-color:#9F19AB"/>
	<stop  offset="0.2438" style="stop-color:#AE25B1"/>
	<stop  offset="0.6455" style="stop-color:#D744BF"/>
	<stop  offset="1" style="stop-color:#FF63CE"/>
</linearGradient>
<path fill="url(#SVGID_88_)" d="M391,107.5l-21-12.1c-1.8-1-3.2-3.8-3.2-6.2l0,0c0-2.4,1.5-3.5,3.2-2.5l21,12.1
	c1.8,1,3.2,3.8,3.2,6.2l0,0C394.2,107.5,392.8,108.6,391,107.5z"/>
</svg>
