<?xml version="1.0" encoding="utf-8"?>
<!-- Generator: Adobe Illustrator 25.0.1, SVG Export Plug-In . SVG Version: 6.00 Build 0)  -->
<svg version="1.1" id="Layer_1" xmlns="http://www.w3.org/2000/svg" xmlns:xlink="http://www.w3.org/1999/xlink" x="0px" y="0px"
	 viewBox="0 0 503.4 339.3" style="enable-background:new 0 0 503.4 339.3;" xml:space="preserve">
<style type="text/css">
	.st0{fill:#061537;}
	.st1{fill:url(#SVGID_1_);}
	.st2{fill:url(#SVGID_2_);}
	.st3{fill:#E9247A;}
	.st4{fill:none;stroke:#E9247A;stroke-miterlimit:10;}
	.st5{fill:#1C2A59;}
	.st6{fill:#FFFFFF;}
	.st7{fill:none;stroke:#FFFFFF;stroke-miterlimit:10;}
	.st8{fill:none;}
</style>
<rect x="-4.1" class="st0" width="508.1" height="338.7"/>
<g>
	<g>
		<linearGradient id="SVGID_1_" gradientUnits="userSpaceOnUse" x1="240.721" y1="-51.8269" x2="91.036" y2="211.3156">
			<stop  offset="0" style="stop-color:#010101;stop-opacity:0"/>
			<stop  offset="8.650780e-02" style="stop-color:#171A22;stop-opacity:8.650780e-02"/>
			<stop  offset="0.2023" style="stop-color:#21283B;stop-opacity:0.2023"/>
			<stop  offset="0.3223" style="stop-color:#263250;stop-opacity:0.3223"/>
			<stop  offset="0.4449" style="stop-color:#273862;stop-opacity:0.4449"/>
			<stop  offset="0.5709" style="stop-color:#253D70;stop-opacity:0.5709"/>
			<stop  offset="0.7016" style="stop-color:#233F7A;stop-opacity:0.7016"/>
			<stop  offset="0.8403" style="stop-color:#214180;stop-opacity:0.8403"/>
			<stop  offset="1" style="stop-color:#204182"/>
		</linearGradient>
		<path class="st1" d="M-2.8,158.5c12.6,3.3,25.4,5.5,38.5,5.7c12.5,0.2,25-1.3,37.2-4.1c12.5-2.9,24.3-7.4,36.1-12.3
			c10.7-4.4,21.1-9.5,31.2-15.3c20.4-11.6,39.2-25.9,56.3-41.9c2.2-2,4.4-4.1,6.5-6.2c2.4-2.4,5-4.4,7.7-6.5
			c1.2-0.9,2.4-1.9,3.6-2.8c1.1-0.9,1.7-1.8,2.6-2.9c1-1.4,2.7-2.5,4-3.6c1.3-1.1,2.7-2.3,4-3.4c10-8.5,20.1-17,30.3-25.3
			c5.1-4.2,10.6-7.7,16.3-11c5.7-3.3,11.4-6.7,17.2-9.8C300,12.9,312.7,9,325.1,5.1c3.2-1,6.3-2,9.4-3c0.8-0.2,0.4-1.5-0.3-1.2
			c-12.5,4-25.2,7.6-37.3,12.7c-5.7,2.4-11.1,5.4-16.4,8.5c-5.5,3.3-11.2,6.3-16.6,9.8c-5.4,3.5-10.3,7.5-15.2,11.5
			c-5,4.1-9.9,8.2-14.8,12.3c-5.1,4.3-10.2,8.6-15.2,12.9c-1,0.9-2.1,1.7-3,2.8c-0.5,0.6-0.8,1.3-1.4,1.9c-0.6,0.6-1.4,1.1-2,1.6
			c-2.6,2.1-5.3,4.1-7.9,6.3c-2.3,2-4.3,4.2-6.5,6.3c-2.2,2.1-4.3,4.1-6.6,6.1c-4.4,4-8.9,7.8-13.5,11.5
			c-9.1,7.4-18.7,14.2-28.7,20.5c-9.9,6.2-20.2,11.8-30.8,16.7c-11.4,5.2-23,10-35,13.6c-12.2,3.7-24.8,6.1-37.6,6.8
			c-13,0.7-26.1-0.5-38.9-3.2c-3.2-0.7-6.3-1.5-9.4-2.3C-3.3,157.1-3.6,158.3-2.8,158.5L-2.8,158.5z"/>
	</g>
</g>
<g>
	<g>
		<linearGradient id="SVGID_2_" gradientUnits="userSpaceOnUse" x1="434.5677" y1="99.7232" x2="279.9322" y2="371.5685">
			<stop  offset="0" style="stop-color:#010101;stop-opacity:0"/>
			<stop  offset="8.650780e-02" style="stop-color:#171A22;stop-opacity:8.650780e-02"/>
			<stop  offset="0.2023" style="stop-color:#21283B;stop-opacity:0.2023"/>
			<stop  offset="0.3223" style="stop-color:#263250;stop-opacity:0.3223"/>
			<stop  offset="0.4449" style="stop-color:#273862;stop-opacity:0.4449"/>
			<stop  offset="0.5709" style="stop-color:#253D70;stop-opacity:0.5709"/>
			<stop  offset="0.7016" style="stop-color:#233F7A;stop-opacity:0.7016"/>
			<stop  offset="0.8403" style="stop-color:#214180;stop-opacity:0.8403"/>
			<stop  offset="1" style="stop-color:#204182"/>
		</linearGradient>
		<path class="st2" d="M222.4,338.4c2.1-22.8,10.1-44.8,22.7-63.9c3.3-4.9,6.9-9.5,10.7-14c1.8-2.2,3.5-4.6,5.5-6.7
			c2-2.1,4-4.2,6.1-6.3c8.1-8.2,16.8-15.9,26.6-22c1.1-0.7,2.2-1.3,3.3-2c1.3-0.7,2.7-1.3,3.9-2.2c0.5-0.4,1-1,1.4-1.4
			c0.6-0.6,1.2-1,1.9-1.4c1.4-0.8,2.8-1.7,4.2-2.5c5.2-3,10.5-5.8,15.9-8.5c10.8-5.3,21.9-10.1,33.2-14.3
			c11.1-4.2,22.4-7.9,33.7-11.4c5.7-1.8,11.5-3.5,17.2-5.1c6-1.7,12-3.2,18-5c3-0.9,6-1.9,9-3c1.5-0.5,3.1-1.5,4.6-1.6
			c1.4-0.1,2.6,0.1,3.9-0.4c6.2-2.3,12.3-4.7,18.4-7.1c5.8-2.3,11.8-4.3,17.5-7c5.6-2.6,11-5.6,16.4-8.6c1.2-0.7,2.3-1.4,3.4-2.3
			c1.1-1,2.2-1.8,3.6-2.3c0.8-0.2,0.4-1.4-0.3-1.2c-2.6,0.8-4.3,3-6.6,4.3c-2.8,1.6-5.5,3.2-8.4,4.7c-5.7,3.1-11.6,5.8-17.7,8.1
			c-6.1,2.3-12.2,4.7-18.4,7.1c-1.5,0.6-3.1,1.2-4.6,1.8c-1.5,0.6-3.3,1.6-5,1.7c-1.2,0.1-2.4-0.2-3.6,0.2c-1.6,0.6-3.2,1.3-4.8,1.9
			c-6,2.2-12.2,3.7-18.3,5.4c-5.9,1.6-11.7,3.4-17.6,5.2c-11.6,3.5-23.1,7.1-34.5,11.2c-11.2,4-22.2,8.4-33,13.5
			c-5.6,2.6-11,5.3-16.4,8.2c-2.7,1.5-5.4,3-8,4.5c-1.2,0.7-2.7,1.4-3.8,2.2c-0.5,0.4-1,1-1.5,1.5c-0.7,0.6-1.4,1-2.3,1.5
			c-10,5.4-18.9,12.5-27.1,20.3c-4.3,4-8.5,8.2-12.4,12.6c-2,2.2-3.6,4.7-5.6,6.9c-1.9,2.1-3.6,4.4-5.3,6.6
			c-13.6,18.4-22.8,40-26.2,62.6c-0.4,2.7-0.7,5.4-1,8.1C221,339.2,222.3,339.2,222.4,338.4L222.4,338.4z"/>
	</g>
</g>
<g>
	<path class="st3" d="M347.8,339.9h-0.7c3.2-38.8,19.8-74.8,47.6-102.7c29.3-29.3,67.7-46.2,108.8-48v0.7
		C421.2,193.7,354.5,258.4,347.8,339.9z"/>
</g>
<ellipse transform="matrix(0.5677 -0.8233 0.8233 0.5677 35.9766 415.6542)" class="st4" cx="413.7" cy="173.6" rx="20.7" ry="20.7"/>
<g>
	<path class="st5" d="M-7.6,329.4v13.5h39.1c-0.3-0.3-0.5-0.7-0.8-1.1c0.4-0.3,0.8-0.6,1.2-0.9c0.3,0.4,0.6,0.8,0.9,1.3
		c-0.4,0.2-0.7,0.5-1.1,0.7h4.6c0,0,0-0.1-0.1-0.1c0.4-0.3,0.8-0.5,1.2-0.8c0.2,0.3,0.5,0.6,0.7,0.9h4.7c0.1-0.1,0.1-0.1,0.2-0.2
		c0,0.1,0.1,0.1,0.1,0.2h17.2c-0.4-0.6-0.9-1.2-1.3-1.8c0.6-0.5,1.4-1,2.1-1.5c0.5,0.7,1.1,1.5,1.6,2.2c-0.5,0.3-1.2,0.7-1.8,1.1
		h4.2c-0.2-0.3-0.4-0.6-0.6-0.8c0.7-0.5,1.6-1.2,2.4-1.7c0.4,0.6,0.9,1.5,1.4,2.3c-0.1,0.1-0.2,0.2-0.3,0.3h2.6
		c0.7-0.6,1.4-1.1,2.1-1.6c0.1,0.6,0.3,1.2,0.7,1.6h4c0.2-0.3,0.4-0.6,0.6-1c0.4-1.2-0.1-2.6-1.2-3.1c-0.7-0.3-1.5-0.4-2.2-0.2
		c-0.7,0.2-1.2,0.8-1.8,1.3c-0.2-1.4-1-2.4-2.5-2.6c-1.5-0.2-2.5,0.7-3.1,2.1c-0.1-1.7-0.4-2.1-1.9-3.1c1.9-0.5,2.7-1.3,2.8-2.7
		c0.1-1.2-0.6-2.5-1.8-2.8c-0.7-0.2-1.6-0.2-2.2,0.1c-0.6,0.3-1.1,0.9-1.6,1.4c-0.2-1.3-0.5-1.8-1.9-2.8c0.2-0.1,0.4-0.1,0.6-0.1
		c1.3-0.4,2.1-1.3,2.2-2.5c0.1-1.2-0.6-2.3-1.8-2.9c-0.1-0.1-0.3-0.2-0.4-0.2l0,0c-1.5-0.1-2.7,0.4-3.4,2.1
		c-0.1-1.5-0.7-2.4-2.1-3.1c1.6-0.1,2.5-1,3-2.3l0,0c0.1-1.4-0.3-2.5-1.6-3.2c-1.4-0.7-2.8-0.1-3.8,1.4c-0.5-0.8-1-1.7-1.5-2.6
		c1-0.2,1.7-1,2.2-2c0.2-1.7-0.5-2.9-1.8-3.4c-1.4-0.5-2.6,0-3.7,1.8c0-1.4-0.7-2.3-2-3c0.3-0.1,0.5-0.1,0.7-0.2
		c1.4-0.4,2.3-1.5,2.2-2.7c0-1.3-0.9-2.4-2.2-2.7c-1.2-0.3-2.4,0.3-3.1,1.5c-0.1,0.2-0.3,0.4-0.5,0.6c0.3-1.3-0.4-2.5-1.7-3
		c-1.4-0.6-2.7,0-3.7,1.6c-0.2-0.5-0.3-1.1-0.6-1.6c-0.3-0.5-0.9-0.8-1.4-1.3c0.2-0.1,0.5-0.1,0.7-0.2c1.3-0.3,2.2-1.4,2.1-2.7
		c0-1.3-0.9-2.4-2.2-2.6c-1.3-0.3-2.5,0.3-3.1,1.6c-0.1,0.2-0.3,0.4-0.4,0.6c0.1-1.6-0.5-2.7-1.8-3.1c-0.7-0.2-1.5-0.1-2.2,0.2
		c-0.7,0.2-1.2,0.8-1.6,1c-0.1-0.8-0.6-1.9-2-2.3c-1.5-0.5-2.5,0.2-3.4,1.4c-0.4-1.5-1.2-2.4-2.6-2.5c-1.4-0.1-2.4,0.7-2.9,1.7
		c-0.5-0.8-1-1.7-1.6-2.6c1.6-0.6,2.4-1.5,2.3-2.9c-0.1-1.2-0.9-2.2-2-2.5c-1.2-0.3-2.5,0.2-3,1.3c-0.3,0.7-0.4,1.5-0.2,2.2
		c0.2,0.7,0.8,1.2,1.1,1.6c-0.8,0.6-1.6,1.3-2.2,1.8c-0.5-0.7-1-1.6-1.6-2.5c1.6-0.5,2.4-1.5,2.3-2.9c-0.1-1.2-0.9-2.2-2.1-2.5
		c-1.3-0.3-2.5,0.3-3,1.5c-0.6,1.3-0.2,2.5,1.1,3.6c-0.8,0.6-1.7,1.3-2.5,1.9c-0.2-1.2-1-2.3-2.5-2.5c-1.5-0.2-2.5,0.6-3.1,2.1
		c-0.1-1.7-0.8-2.8-2.4-3c-1.6-0.3-2.6,0.6-3.3,2c-0.1-0.3-0.1-0.5-0.1-0.7c-0.2-1-0.7-1.7-1.5-2v5c0.6-0.3,1.1-0.8,1.4-1.5
		c0.5,0.8,0.9,1.7,1.4,2.5c-0.6,0.5-1.4,1.1-2.1,1.6c-0.2-0.3-0.4-0.6-0.7-0.9v3.2c0.1-0.1,0.3-0.2,0.4-0.4c0.4,0.6,0.9,1.4,1.3,2.1
		c-0.6,0.4-1.2,0.8-1.8,1.2v3.4c0.2,0.3,0.4,0.7,0.7,1c-0.2,0.1-0.4,0.3-0.7,0.4v22.7c0.3-0.2,0.7-0.5,1-0.7
		c0.2,0.4,0.5,0.7,0.7,1.1c-0.4,0.2-0.7,0.5-1.1,0.7C-7.1,330.1-7.3,329.8-7.6,329.4z M-1.3,331.1c-0.2-0.3-0.4-0.5-0.6-0.7
		c0.3-0.2,0.6-0.4,0.9-0.7c0.2,0.3,0.4,0.5,0.5,0.8C-0.8,330.7-1,330.9-1.3,331.1z M-0.3,325.7c-0.3-0.4-0.6-0.7-0.9-1.1
		c0.4-0.3,0.7-0.6,1.1-0.9c0.3,0.4,0.5,0.8,0.8,1.3C0.4,325.3,0.1,325.5-0.3,325.7z M0.6,320.3c-0.3-0.4-0.7-0.9-1-1.4
		c0.5-0.3,0.9-0.7,1.4-1.1c0.3,0.5,0.6,0.9,1,1.5C1.5,319.7,1.1,320,0.6,320.3z M1.6,314.8c-0.4-0.5-0.7-1-1.2-1.6
		c0.6-0.4,1.1-0.8,1.6-1.2c0.4,0.5,0.8,1.1,1.1,1.7C2.7,314.1,2.1,314.5,1.6,314.8z M4.3,332.1c-0.2-0.3-0.4-0.5-0.6-0.8
		c0.3-0.3,0.6-0.5,1-0.8c0.2,0.3,0.4,0.6,0.7,0.9C5,331.7,4.7,331.9,4.3,332.1z M5.2,326.7c-0.3-0.3-0.5-0.6-0.8-1
		c0.4-0.3,0.8-0.6,1.2-0.9c0.3,0.4,0.5,0.7,0.7,1.1C6,326.2,5.6,326.4,5.2,326.7z M6.2,321.3c-0.3-0.4-0.6-0.9-1-1.3
		c0.4-0.3,0.9-0.7,1.4-1c0.3,0.5,0.6,0.9,1,1.5C7.2,320.7,6.7,321,6.2,321.3z M6.1,314.3c0.5-0.4,1-0.8,1.6-1.2
		c0.4,0.6,0.7,1.1,1.1,1.7c-0.5,0.3-1.1,0.7-1.6,1.1C6.9,315.4,6.5,314.9,6.1,314.3z M9,338.7c-0.2-0.3-0.4-0.5-0.7-0.8
		c0.3-0.2,0.6-0.4,0.9-0.6c0.2,0.3,0.4,0.5,0.6,0.8C9.5,338.3,9.3,338.5,9,338.7z M9.9,333.2c-0.3-0.3-0.5-0.6-0.7-1
		c0.3-0.2,0.7-0.5,1-0.8c0.2,0.3,0.5,0.6,0.7,1C10.6,332.7,10.3,332.9,9.9,333.2z M10.9,327.7c-0.2-0.4-0.5-0.7-0.7-1
		c0.3-0.3,0.7-0.5,1.1-0.8c0.3,0.4,0.5,0.7,0.7,1.1C11.6,327.2,11.3,327.4,10.9,327.7z M11.9,322.4c-0.3-0.4-0.6-0.9-1-1.4
		c0.5-0.4,0.9-0.7,1.4-1c0.3,0.5,0.7,1,1,1.5C12.8,321.7,12.4,322.1,11.9,322.4z M11.8,315.3c0.5-0.4,1-0.8,1.6-1.2
		c0.4,0.5,0.7,1.1,1.2,1.7c-0.5,0.4-1.1,0.7-1.6,1.1C12.5,316.4,12.2,315.8,11.8,315.3z M14.6,339.8c-0.2-0.3-0.4-0.6-0.6-0.9
		c0.3-0.2,0.6-0.4,0.9-0.7c0.2,0.3,0.4,0.6,0.6,0.9C15.2,339.3,15,339.5,14.6,339.8z M15.6,334.2c-0.3-0.3-0.5-0.7-0.8-1
		c0.3-0.3,0.7-0.5,1.1-0.8c0.3,0.4,0.5,0.7,0.8,1.1C16.3,333.8,16,334,15.6,334.2z M16.6,328.7c-0.2-0.4-0.5-0.7-0.7-1.1
		c0.4-0.3,0.8-0.6,1.2-0.9c0.3,0.4,0.6,0.8,0.8,1.2C17.4,328.1,17,328.4,16.6,328.7z M17.5,323.3c-0.3-0.4-0.6-0.8-1-1.3
		c0.5-0.3,0.9-0.7,1.5-1.1c0.3,0.4,0.6,0.9,0.9,1.3C18.4,322.6,18,323,17.5,323.3z M17.4,316.3c0.5-0.4,1.1-0.8,1.6-1.2
		c0.4,0.6,0.8,1.1,1.2,1.7c-0.5,0.3-1.1,0.7-1.6,1.1C18.2,317.4,17.8,316.9,17.4,316.3z M20.3,340.8c-0.2-0.3-0.5-0.6-0.7-1
		c0.3-0.2,0.6-0.5,0.9-0.7c0.2,0.3,0.4,0.6,0.7,1C21,340.4,20.6,340.6,20.3,340.8z M21.3,335.3c-0.3-0.4-0.5-0.7-0.8-1.1
		c0.4-0.3,0.7-0.6,1.1-0.9c0.3,0.4,0.5,0.8,0.8,1.2C22,334.8,21.6,335,21.3,335.3z M22.3,329.8c-0.3-0.4-0.6-0.8-0.9-1.3
		c0.5-0.4,0.9-0.7,1.3-1c0.3,0.4,0.6,0.9,0.9,1.4C23.1,329.2,22.7,329.4,22.3,329.8z M23.2,324.3c-0.3-0.5-0.6-0.9-0.9-1.4
		c0.5-0.4,0.9-0.7,1.3-1c0.3,0.5,0.6,0.9,0.9,1.4C24.1,323.6,23.7,324,23.2,324.3z M23,317.3c0.5-0.4,1.1-0.8,1.7-1.2
		c0.4,0.6,0.8,1.2,1.2,1.7c-0.5,0.4-1.1,0.8-1.7,1.2C23.8,318.5,23.4,317.9,23,317.3z M26,341.9c-0.3-0.4-0.5-0.7-0.8-1.1
		c0.4-0.3,0.7-0.5,1.1-0.8c0.2,0.4,0.5,0.7,0.8,1.1C26.7,341.4,26.3,341.7,26,341.9z M26.9,336.4c-0.3-0.4-0.6-0.8-0.9-1.2
		c0.4-0.3,0.8-0.6,1.2-0.9c0.3,0.4,0.6,0.8,0.9,1.3C27.8,335.8,27.4,336.1,26.9,336.4z M27.9,330.9c-0.3-0.4-0.6-0.9-1-1.4
		c0.5-0.3,0.9-0.7,1.4-1c0.4,0.5,0.7,1,1,1.5C28.9,330.2,28.4,330.5,27.9,330.9z M28.9,325.4c-0.3-0.5-0.6-0.9-1-1.4
		c0.4-0.3,0.9-0.7,1.3-1c0.4,0.5,0.7,0.9,1.1,1.4C29.9,324.7,29.4,325,28.9,325.4z M29.7,319.8c-0.4-0.5-0.7-1-1.1-1.4
		c0.6-0.4,1.1-0.7,1.6-1.1c0.3,0.5,0.7,1,1,1.5C30.7,319.1,30.2,319.4,29.7,319.8z M29.4,312.6c0.6-0.5,1.3-1,1.8-1.4
		c0.4,0.6,0.9,1.4,1.4,2.1c-0.6,0.3-1.2,0.7-1.8,1.1C30.3,313.7,29.8,313.1,29.4,312.6z M32.6,337.5c-0.3-0.4-0.6-0.9-1-1.3
		c0.4-0.3,0.8-0.5,1.2-0.8c0.3,0.5,0.6,0.8,1,1.3C33.4,336.9,33,337.2,32.6,337.5z M33.5,331.8c-0.3-0.4-0.6-0.8-1-1.3
		c0.5-0.3,0.9-0.6,1.4-0.9c0.4,0.5,0.7,0.9,1.1,1.4C34.4,331.2,34,331.5,33.5,331.8z M34.5,326.3c-0.4-0.5-0.8-1-1.2-1.5
		c0.5-0.4,1-0.8,1.5-1.2c0.4,0.6,0.8,1.2,1.2,1.7C35.6,325.6,35,326,34.5,326.3z M35.3,321c-0.3-0.5-0.7-1.1-1.1-1.7
		c0.5-0.4,1.1-0.9,1.7-1.3c0.3,0.6,0.7,1.2,1.1,1.8C36.4,320.2,35.9,320.6,35.3,321z M34.9,313.6c0.7-0.5,1.4-1.1,2-1.5
		c0.4,0.7,0.9,1.4,1.4,2.2c-0.6,0.4-1.3,0.9-2,1.3C35.8,315,35.3,314.3,34.9,313.6z M38.1,338.5c-0.3-0.4-0.7-0.9-1-1.4
		c0.4-0.3,0.9-0.7,1.3-1c0.4,0.5,0.7,1,1.1,1.5C39.1,337.9,38.6,338.2,38.1,338.5z M39,333.1c-0.4-0.5-0.7-1-1.1-1.6
		c0.5-0.4,1-0.8,1.6-1.2c0.4,0.6,0.8,1.1,1.2,1.7C40.1,332.3,39.6,332.7,39,333.1z M40,327.6c-0.4-0.5-0.8-1.1-1.2-1.7
		c0.6-0.4,1.2-0.9,1.7-1.3c0.4,0.6,0.9,1.2,1.3,1.8C41.2,326.7,40.6,327.1,40,327.6z M43.6,339.8c-0.3-0.5-0.7-1-1.1-1.6
		c0.5-0.4,1-0.8,1.6-1.2c0.4,0.5,0.8,1.1,1.2,1.7C44.8,339,44.2,339.4,43.6,339.8z M44.6,334.2c-0.4-0.5-0.8-1.1-1.2-1.7
		c0.6-0.4,1.1-0.8,1.7-1.3c0.4,0.6,0.8,1.2,1.3,1.8C45.8,333.4,45.2,333.8,44.6,334.2z M45.6,328.7c-0.4-0.6-0.9-1.3-1.3-1.9
		c0.6-0.5,1.3-1,1.9-1.4c0.4,0.6,0.9,1.3,1.3,2C46.9,327.8,46.2,328.3,45.6,328.7z M45.1,321.1c0.7-0.5,1.5-1.1,2.1-1.6
		c0.4,0.7,1,1.5,1.5,2.2c-0.6,0.4-1.4,0.9-2.1,1.3C46.1,322.5,45.6,321.7,45.1,321.1z M49.3,340.9c-0.4-0.6-0.8-1.2-1.2-1.7
		c0.6-0.4,1.2-0.9,1.7-1.3c0.4,0.6,0.9,1.2,1.3,1.8C50.5,340.1,49.9,340.5,49.3,340.9z M50.3,335.4c-0.4-0.6-0.9-1.2-1.3-1.9
		c0.6-0.5,1.3-1,1.9-1.4c0.4,0.7,0.9,1.4,1.4,2C51.6,334.5,50.9,334.9,50.3,335.4z M54.9,342.1c-0.4-0.6-0.9-1.3-1.3-1.9
		c0.6-0.5,1.3-1,1.9-1.4c0.4,0.6,0.9,1.4,1.4,2C56.2,341.2,55.5,341.6,54.9,342.1z M55.9,336.5c-0.4-0.6-1-1.4-1.4-2
		c0.7-0.5,1.4-1,2.1-1.5c0.4,0.7,1,1.5,1.5,2.2C57.4,335.6,56.6,336,55.9,336.5z M62.3,333.7c0.1,1,0.7,2,1.8,2.4
		c-0.9,0.5-1.8,1.1-2.6,1.6c-0.5-0.7-1-1.5-1.5-2.2C60.7,334.9,61.5,334.3,62.3,333.7z M57.5,327.2c0.5,0.7,1.1,1.6,1.7,2.3
		c-0.7,0.4-1.6,1-2.4,1.4c-0.5-0.7-1.1-1.5-1.5-2.1C56,328.3,56.9,327.7,57.5,327.2z M53,320.4c0.1,1,0.7,1.9,1.7,2.3
		c-0.8,0.5-1.7,1-2.5,1.5c-0.5-0.7-1.1-1.5-1.5-2.1C51.4,321.6,52.2,321,53,320.4z M51.9,326.3c0.4,0.7,1,1.5,1.5,2.2
		c-0.7,0.4-1.4,0.9-2.1,1.3c-0.5-0.6-1-1.4-1.4-2C50.5,327.3,51.3,326.7,51.9,326.3z M48.3,313.9c0.4,0.7,0.9,1.6,1.4,2.3
		c-0.6,0.4-1.4,1-2.1,1.5c-0.4-0.6-0.9-1.4-1.3-2.1C46.9,315.1,47.7,314.4,48.3,313.9z M43.6,306.4c0.2,0.6,0.2,1.3,0.5,1.8
		c0.4,0.6,1,1.1,1.5,1.6c-1.2,0-2.1,0.6-2.6,1.6c-0.6-0.8-1.2-1.7-1.8-2.5C42.3,308.6,43.4,308,43.6,306.4z M42.6,313
		c0.3,0.6,0.8,1.4,1.2,2.2c-0.6,0.4-1.3,1-2,1.4c-0.5-0.6-1-1.3-1.5-1.9C41.1,314.1,41.9,313.5,42.6,313z M41.6,318.8
		c0.4,0.6,0.9,1.3,1.3,1.9c-0.6,0.4-1.3,0.9-2,1.3c-0.4-0.5-0.8-1.2-1.2-1.8C40.4,319.8,41,319.3,41.6,318.8z M37.9,306.3
		c0.5,0.7,1.1,1.6,1.6,2.3c-0.7,0.4-1.6,1-2.3,1.5c-0.5-0.7-1-1.5-1.5-2.2C36.4,307.5,37.2,306.8,37.9,306.3z M33.3,298.9
		c0.3,1.4,0.6,2.7,2.2,3.2c-1.4,0.1-2.4,0.7-2.9,1.7c-0.6-0.8-1.2-1.7-1.8-2.6C32,301,33,300.3,33.3,298.9z M32.3,305.3
		c0.4,0.7,1,1.5,1.5,2.3c-0.6,0.4-1.4,0.9-2.2,1.3c-0.5-0.7-1-1.4-1.5-2C30.8,306.4,31.6,305.8,32.3,305.3z M27.8,298.4
		c0,1.1,0.7,2.1,1.7,2.5c-0.8,0.4-1.7,0.9-2.5,1.3c-0.5-0.6-1.1-1.4-1.6-2C26.1,299.7,27,299.1,27.8,298.4z M26.7,304.6
		c0.4,0.6,0.9,1.3,1.4,2c-0.6,0.4-1.3,0.8-2,1.2c-0.5-0.6-1-1.3-1.4-1.9C25.3,305.5,26,305,26.7,304.6z M25.6,310.4
		c0.4,0.6,0.9,1.2,1.3,1.8c-0.6,0.4-1.2,0.8-1.7,1.2c-0.4-0.6-0.9-1.3-1.3-1.9C24.4,311.2,25,310.8,25.6,310.4z M22,297.9
		c0.5,0.6,1.1,1.4,1.6,2.1c-0.7,0.4-1.5,1-2.2,1.5c-0.5-0.7-1.1-1.5-1.6-2.2C20.5,298.8,21.3,298.3,22,297.9z M21.1,303.4
		c0.4,0.7,0.9,1.4,1.4,2.2c-0.6,0.4-1.3,0.9-2,1.3c-0.5-0.6-1-1.3-1.4-2C19.7,304.5,20.5,303.9,21.1,303.4z M20.1,309.3
		c0.4,0.6,0.8,1.3,1.3,1.9c-0.6,0.4-1.2,0.8-1.8,1.2c-0.4-0.6-0.8-1.2-1.3-1.8C18.9,310.2,19.5,309.7,20.1,309.3z M16.5,296.6
		c0.5,0.7,1.1,1.6,1.6,2.4c-0.7,0.4-1.5,1-2.3,1.5c-0.5-0.7-1.1-1.5-1.5-2.2C15,297.7,15.8,297.1,16.5,296.6z M15.5,302.4
		c0.4,0.6,0.9,1.4,1.4,2.2c-0.6,0.4-1.3,0.8-2,1.3c-0.5-0.6-1-1.3-1.4-1.9C14.1,303.5,14.8,302.9,15.5,302.4z M14.4,308.3
		c0.4,0.6,0.9,1.3,1.3,1.9c-0.6,0.4-1.2,0.8-1.8,1.2c-0.4-0.6-0.9-1.2-1.3-1.8C13.2,309.2,13.8,308.7,14.4,308.3z M10.8,295.5
		c0.4,0.7,1,1.6,1.5,2.4c-0.6,0.4-1.5,1-2.2,1.4c-0.5-0.7-1.1-1.5-1.5-2.1C9.3,296.7,10.2,296,10.8,295.5z M9.8,301.4
		c0.4,0.6,0.9,1.4,1.3,2.1c-0.6,0.4-1.3,0.9-2,1.3c-0.5-0.6-1-1.3-1.5-1.9C8.4,302.5,9.1,301.9,9.8,301.4z M8.7,307.3
		c0.4,0.6,0.9,1.2,1.3,1.8c-0.6,0.4-1.2,0.8-1.8,1.2c-0.4-0.5-0.8-1.1-1.3-1.8C7.5,308.2,8.1,307.8,8.7,307.3z M5.2,294.6
		c0.5,0.7,1,1.5,1.5,2.3c-0.7,0.5-1.5,1-2.3,1.5c-0.4-0.6-0.8-1.4-1.3-2C3.8,295.8,4.6,295.2,5.2,294.6z M4.1,300.4
		c0.4,0.7,0.9,1.4,1.4,2.1c-0.6,0.4-1.3,0.9-2,1.3c-0.5-0.6-1-1.3-1.5-1.9C2.7,301.4,3.5,300.9,4.1,300.4z M3.1,306.3
		c0.4,0.6,0.9,1.2,1.3,1.9c-0.6,0.4-1.2,0.8-1.8,1.2c-0.4-0.6-0.9-1.2-1.3-1.8C1.9,307.1,2.5,306.7,3.1,306.3z M-0.5,293.6
		c0.4,0.7,0.8,1.5,1.3,2.4c-0.6,0.5-1.4,1-2,1.5c-0.4-0.6-0.9-1.4-1.3-2.1C-1.9,294.8-1.1,294.1-0.5,293.6z M-1.5,299.4
		c0.4,0.6,0.9,1.4,1.4,2.2c-0.6,0.4-1.3,0.9-2,1.4c-0.5-0.6-1-1.4-1.5-2C-3,300.4-2.2,299.8-1.5,299.4z M-2.6,305.2
		c0.4,0.6,0.8,1.3,1.3,1.9c-0.6,0.4-1.2,0.8-1.8,1.2c-0.4-0.6-0.9-1.2-1.3-1.8C-3.8,306.1-3.2,305.7-2.6,305.2z M-3.6,311.1
		c0.4,0.6,0.8,1.1,1.1,1.7c-0.5,0.4-1.1,0.7-1.6,1.1c-0.4-0.5-0.8-1-1.2-1.6C-4.8,311.9-4.2,311.5-3.6,311.1z M-4.7,316.9
		c0.3,0.5,0.7,1,1,1.5c-0.4,0.3-0.8,0.5-1.3,0.8c-0.4-0.5-0.7-0.9-1.1-1.3C-5.6,317.6-5.1,317.2-4.7,316.9z M-5.9,324.9
		c-0.3-0.5-0.6-0.8-0.9-1.2c0.4-0.3,0.7-0.5,1.1-0.8c0.3,0.4,0.6,0.8,0.9,1.2C-5.1,324.3-5.5,324.6-5.9,324.9z"/>
	<path class="st5" d="M58.7,320.8c0.4-0.6,0.6-1.2,1.1-1.7c0.8-0.8,2.1-0.8,3.1-0.3c1,0.6,1.5,1.7,1.3,2.8c-0.2,1.2-1,2-2.1,2.3
		c-0.3,0.1-0.7,0.1-1,0.2l0,0C59.6,323.5,58.7,322.4,58.7,320.8L58.7,320.8z"/>
	<path class="st5" d="M54,314.5c0.4-1.6,1.4-2.7,3.2-2.8l0,0c1.9,0.7,2.6,1.6,2.5,3c-0.1,1.4-1.2,2.4-2.5,2.5
		c-1.3,0.1-2.5-0.7-2.8-2.1C54.2,314.9,54.1,314.7,54,314.5C54,314.4,54,314.5,54,314.5z"/>
	<path class="st5" d="M69,328c-0.8,2-1.9,2.8-3.5,2.4c-1.3-0.3-2.2-1.5-2.1-2.8c0.1-1.3,1.1-2.4,2.4-2.6c1.3-0.2,2.6,0.7,2.9,2
		C68.9,327.4,68.9,327.7,69,328L69,328z"/>
	<path class="st5" d="M23.2,290.7c0,1.4-1.3,2.6-2.8,2.6c-1.5,0-2.7-1.2-2.7-2.7c0-1.5,1.2-2.7,2.8-2.7
		C22.1,287.9,23.2,289.1,23.2,290.7z"/>
	<path class="st5" d="M23.2,291.5c0-1.4,1.2-2.6,2.7-2.6c1.5,0,2.7,1.1,2.7,2.6c0,1.5-1.1,2.7-2.6,2.8
		C24.4,294.4,23.3,293.2,23.2,291.5z"/>
	<path class="st5" d="M-2.2,289.5c-1.5,0-2.7-1.2-2.7-2.7c0-1.5,1.2-2.7,2.8-2.7c1.5,0,2.7,1.2,2.6,2.7
		C0.5,288.3-0.7,289.5-2.2,289.5z"/>
	<path class="st5" d="M70.8,331.8c1.5,0,2.7,1.2,2.7,2.7c0,1.5-1.2,2.7-2.8,2.7c-1.5,0-2.7-1.2-2.6-2.7
		C68.1,333,69.3,331.8,70.8,331.8z"/>
	<path class="st5" d="M44.6,300.3c0,1.5-1.1,2.7-2.6,2.8c-1.5,0.1-2.8-1.1-2.8-2.7c0-1.5,1.2-2.8,2.7-2.8
		C43.4,297.6,44.6,298.8,44.6,300.3z"/>
	<path class="st5" d="M54.9,308c0,1.5-1.2,2.7-2.8,2.7c-1.5,0-2.6-1.2-2.6-2.7c0-1.5,1.2-2.7,2.8-2.7
		C53.8,305.3,54.9,306.5,54.9,308z"/>
	<path class="st5" d="M6.2,287.8c0,1.5-1.1,2.7-2.6,2.7c-1.5,0-2.8-1.1-2.8-2.7c0-1.5,1.2-2.8,2.7-2.7C5,285.1,6.2,286.3,6.2,287.8z
		"/>
	<path class="st5" d="M34.3,292.7c0,1.5-1.2,2.7-2.7,2.6c-1.5,0-2.7-1.2-2.6-2.7c0-1.5,1.2-2.7,2.7-2.6
		C33.2,290,34.3,291.2,34.3,292.7z"/>
	<path class="st5" d="M47.6,304c-1.5,0-2.7-1.1-2.7-2.7s1.2-2.7,2.7-2.7c1.5,0,2.6,1.1,2.6,2.6C50.3,302.8,49.1,304,47.6,304z"/>
	<path class="st5" d="M-7.6,283.1v5.3c1.4-0.1,2.4-1.2,2.4-2.7C-5.2,284.3-6.2,283.3-7.6,283.1z"/>
	<path class="st5" d="M57.1,311.7c-1.1-0.5-1.9-1.3-1.9-2.6c0-1.5,1.1-2.6,2.6-2.7c1.5,0,2.7,1.1,2.7,2.5c0.1,1.5-1,2.7-2.4,2.8
		C57.8,311.7,57.4,311.6,57.1,311.7C57.1,311.6,57.1,311.7,57.1,311.7z"/>
	<path class="st5" d="M62.5,318.2c-1.5,0-2.7-1.2-2.7-2.7c0-1.5,1.2-2.7,2.7-2.6c1.5,0,2.6,1.2,2.6,2.6
		C65.2,317,64.1,318.1,62.5,318.2z"/>
	<path class="st5" d="M69,328.1c0.5-1.1,1.3-1.9,2.6-1.9c1.5,0,2.6,1.1,2.7,2.6c0,1.5-1.1,2.7-2.5,2.7c-1.5,0.1-2.7-1-2.8-2.4
		C69,328.7,69,328.4,69,328.1C69,328,69,328.1,69,328.1z"/>
	<path class="st5" d="M39.9,293.7c0,1.5-1.2,2.7-2.7,2.6c-1.5,0-2.6-1.2-2.6-2.7c0-1.5,1.2-2.7,2.7-2.6
		C38.8,291,39.9,292.2,39.9,293.7z"/>
	<path class="st5" d="M67.2,319.5c1.5,0,2.6,1.2,2.6,2.7c0,1.5-1.2,2.6-2.8,2.6c-1.5,0-2.6-1.2-2.6-2.7
		C64.5,320.6,65.7,319.5,67.2,319.5z"/>
	<path class="st5" d="M42.9,297.3c-1.5,0-2.6-1.2-2.6-2.7c0-1.5,1.2-2.7,2.7-2.6c1.4,0,2.6,1.2,2.5,2.7
		C45.5,296.2,44.3,297.3,42.9,297.3z"/>
	<path class="st5" d="M10.2,285.8c-1.5,0-2.6-1.2-2.6-2.6c0-1.5,1.2-2.7,2.7-2.6c1.5,0,2.6,1.2,2.6,2.7
		C12.8,284.6,11.6,285.8,10.2,285.8z"/>
	<path class="st5" d="M7.1,282.1c0,1.5-1.1,2.6-2.6,2.7c-1.5,0-2.6-1.1-2.7-2.6c0-1.5,1.1-2.6,2.6-2.7
		C5.9,279.5,7.1,280.7,7.1,282.1z"/>
	<path class="st5" d="M27,283.6c1.4,0,2.6,1.2,2.6,2.6c0,1.4-1.2,2.6-2.6,2.6c-1.4,0-2.6-1.2-2.6-2.6
		C24.3,284.7,25.5,283.6,27,283.6z"/>
	<path class="st5" d="M21.2,287.8c-1.3,0-2.5-1.2-2.5-2.6c0-1.5,1.2-2.6,2.6-2.6c1.5,0,2.6,1.1,2.7,2.6
		C23.9,286.7,22.8,287.8,21.2,287.8z"/>
	<path class="st5" d="M76.3,338.1c-1.5,0-2.7-1.1-2.7-2.7c0-1.4,1.2-2.6,2.6-2.6c1.5,0,2.6,1.2,2.6,2.6
		C78.9,336.9,77.8,338.1,76.3,338.1z"/>
	<path class="st5" d="M15.8,286.8c-1.5,0-2.6-1.2-2.6-2.6c0-1.5,1.2-2.7,2.7-2.6c1.4,0,2.6,1.2,2.6,2.7
		C18.4,285.7,17.3,286.8,15.8,286.8z"/>
	<path class="st5" d="M53.2,305c-1.5,0-2.6-1.1-2.6-2.6c0-1.5,1.2-2.7,2.7-2.7c1.5,0,2.6,1.2,2.6,2.6C55.9,303.8,54.7,305,53.2,305z
		"/>
	<path class="st5" d="M75.3,323.2c0,1.4-1.2,2.6-2.7,2.6c-1.4,0-2.6-1.3-2.6-2.7c0-1.4,1.2-2.5,2.6-2.5
		C74.1,320.6,75.3,321.8,75.3,323.2z"/>
	<path class="st5" d="M66,310.2c-0.1,1.4-1.4,2.6-2.8,2.5c-1.4-0.1-2.6-1.4-2.4-2.8c0.1-1.4,1.3-2.5,2.7-2.4
		C64.9,307.5,66,308.8,66,310.2z"/>
	<path class="st5" d="M-1.1,278.5c1.4,0,2.6,1.3,2.5,2.7c-0.1,1.4-1.3,2.6-2.8,2.5c-1.4-0.1-2.5-1.3-2.5-2.7
		C-3.7,279.6-2.5,278.5-1.1,278.5z"/>
	<path class="st5" d="M70.6,316.5c0,1.4-1.2,2.6-2.7,2.6c-1.4,0-2.6-1.2-2.6-2.7c0-1.4,1.2-2.6,2.6-2.6
		C69.4,313.9,70.6,315.1,70.6,316.5z"/>
	<path class="st5" d="M61.5,303.4c0,1.4-1.2,2.6-2.6,2.5c-1.4,0-2.6-1.3-2.6-2.7c0.1-1.4,1.3-2.5,2.7-2.5
		C60.4,300.8,61.5,302,61.5,303.4z"/>
	<path class="st5" d="M-6.7,277.5c-0.3,0-0.6,0-0.8,0.1v5c0.2,0.1,0.4,0.1,0.7,0.1c1.4,0,2.7-1.2,2.7-2.6
		C-4.2,278.7-5.3,277.6-6.7,277.5z"/>
	<path class="st5" d="M83.3,342.9c0.1-0.3,0.2-0.6,0.2-1c0-1.4-1.2-2.6-2.6-2.6c-1.4,0-2.7,1.2-2.7,2.6c0,0.3,0.1,0.7,0.2,1H83.3z"
		/>
	<path class="st5" d="M79.9,329.8c0,1.4-1.2,2.6-2.6,2.6c-1.4,0-2.7-1.2-2.6-2.6c0-1.4,1.2-2.6,2.6-2.6
		C78.7,327.3,79.9,328.4,79.9,329.8z"/>
	<path class="st5" d="M38.3,290.6c-1.4,0-2.6-1.2-2.6-2.6c0-1.4,1.2-2.6,2.6-2.6c1.4,0,2.6,1.2,2.5,2.6
		C40.8,289.4,39.7,290.6,38.3,290.6z"/>
	<path class="st5" d="M51.2,295.8c-0.1,1.4-1.3,2.6-2.8,2.5c-1.4-0.1-2.5-1.3-2.5-2.7c0.1-1.4,1.3-2.6,2.8-2.5
		C50.1,293.2,51.3,294.4,51.2,295.8z"/>
	<path class="st5" d="M32.5,289.6c-1.4-0.1-2.6-1.4-2.5-2.8c0.1-1.4,1.4-2.5,2.7-2.4c1.4,0.1,2.6,1.4,2.5,2.8
		C35.1,288.6,33.9,289.7,32.5,289.6z"/>
	<path class="st5" d="M81.9,339.1c-1.4,0-2.6-1.2-2.5-2.6c0-1.4,1.3-2.6,2.6-2.5c1.4,0.1,2.5,1.2,2.5,2.6
		C84.5,337.9,83.3,339.1,81.9,339.1z"/>
	<path class="st5" d="M56.8,296.7c0,1.4-1.2,2.6-2.6,2.6c-1.4,0-2.6-1.2-2.6-2.6c0-1.4,1.1-2.5,2.5-2.5
		C55.6,294.1,56.8,295.3,56.8,296.7z"/>
	<path class="st5" d="M13.7,277.4c0,1.4-1.1,2.6-2.5,2.6c-1.4,0-2.5-1.1-2.5-2.5c0-1.4,1.1-2.6,2.5-2.6
		C12.6,275,13.7,276.1,13.7,277.4z"/>
	<path class="st5" d="M76.2,317.7c-0.1,1.4-1.3,2.5-2.7,2.4c-1.4-0.1-2.4-1.3-2.3-2.7c0.1-1.4,1.3-2.5,2.7-2.4
		C75.2,315.1,76.3,316.3,76.2,317.7z"/>
	<path class="st5" d="M44,291.6c-1.4,0-2.6-1.1-2.6-2.5c0-1.4,1.1-2.5,2.5-2.5c1.4,0,2.6,1.1,2.6,2.5
		C46.5,290.4,45.4,291.5,44,291.6z"/>
	<path class="st5" d="M71.5,311c-0.1,1.4-1.3,2.5-2.7,2.4c-1.4-0.1-2.4-1.3-2.3-2.7c0.1-1.4,1.3-2.5,2.7-2.4
		C70.6,308.4,71.6,309.6,71.5,311z"/>
	<path class="st5" d="M8,276.5c0,1.4-1.1,2.5-2.5,2.5c-1.4,0-2.6-1.2-2.5-2.6c0-1.4,1.2-2.5,2.6-2.5C7,274,8.1,275.1,8,276.5z"/>
	<path class="st5" d="M19.2,278.7c-0.1,1.4-1.3,2.5-2.7,2.4c-1.4-0.1-2.4-1.3-2.3-2.7c0.1-1.4,1.3-2.5,2.7-2.4
		C18.2,276.1,19.3,277.3,19.2,278.7z"/>
	<path class="st5" d="M64.3,306.9c-1.4,0-2.5-1.1-2.5-2.5c0-1.4,1.2-2.6,2.6-2.5c1.4,0,2.5,1.2,2.5,2.6
		C66.9,305.8,65.7,306.9,64.3,306.9z"/>
	<path class="st5" d="M22.2,282c-1.4-0.1-2.5-1.3-2.4-2.7c0.1-1.4,1.3-2.4,2.7-2.3c1.4,0.1,2.5,1.3,2.4,2.7
		C24.7,281.1,23.5,282.1,22.2,282z"/>
	<path class="st5" d="M62.2,297.7c0,1.4-1,2.5-2.5,2.5c-1.4,0-2.5-1.1-2.5-2.5c0-1.4,1-2.4,2.4-2.5
		C61.1,295.2,62.2,296.3,62.2,297.7z"/>
	<path class="st5" d="M89.1,342.9c0-1.4-1.1-2.4-2.4-2.4c-1.4,0-2.5,1-2.5,2.4c0,0,0,0,0,0H89.1z"/>
	<path class="st5" d="M82.9,333.3c-1.4,0-2.4-1.2-2.4-2.6c0.1-1.4,1.2-2.4,2.6-2.4c1.4,0.1,2.4,1.1,2.3,2.5
		C85.4,332.3,84.3,333.4,82.9,333.3z"/>
	<path class="st5" d="M80.8,324.2c0,1.4-1.1,2.5-2.4,2.5c-1.4,0-2.6-1.1-2.6-2.5c0-1.4,1.1-2.5,2.5-2.5
		C79.7,321.7,80.8,322.8,80.8,324.2z"/>
	<path class="st5" d="M2.4,275.5c0,1.4-1.1,2.5-2.5,2.4c-1.4,0-2.5-1.1-2.4-2.5c0-1.4,1.1-2.5,2.5-2.4C1.3,273,2.4,274.1,2.4,275.5z
		"/>
	<path class="st5" d="M28,283c-1.4,0-2.5-1.1-2.5-2.5c0-1.4,1.1-2.6,2.5-2.6c1.4,0,2.5,1.1,2.5,2.5C30.5,281.9,29.4,283,28,283z"/>
	<path class="st5" d="M31.1,281.5c0-1.4,1.1-2.5,2.5-2.4c1.4,0,2.5,1.1,2.4,2.6c0,1.4-1.1,2.4-2.5,2.4
		C32.2,284,31.1,282.9,31.1,281.5z"/>
	<path class="st5" d="M52.1,290c0,1.4-1,2.5-2.5,2.5c-1.4,0-2.5-1.1-2.5-2.5c0-1.4,1-2.4,2.4-2.5C51,287.5,52.1,288.6,52.1,290z"/>
	<path class="st5" d="M74.6,309.4c1.4,0,2.4,1,2.5,2.4c0,1.4-1.1,2.5-2.5,2.5c-1.4,0-2.4-1.1-2.4-2.4
		C72.2,310.5,73.3,309.4,74.6,309.4z"/>
	<path class="st5" d="M72.5,305.4c0,1.4-1.1,2.4-2.4,2.4c-1.4,0-2.5-1.1-2.5-2.5c0-1.4,1.1-2.4,2.5-2.4
		C71.4,303,72.5,304,72.5,305.4z"/>
	<path class="st5" d="M55.2,293.5c-1.3,0-2.4-1.1-2.4-2.4c0-1.4,1.1-2.5,2.5-2.4c1.3,0,2.4,1.1,2.4,2.5
		C57.7,292.4,56.6,293.5,55.2,293.5z"/>
	<path class="st5" d="M90,337.5c0,1.4-1,2.4-2.4,2.4c-1.4,0-2.5-1.1-2.5-2.5c0-1.3,1.1-2.4,2.4-2.4C89,335.1,90,336.2,90,337.5z"/>
	<path class="st5" d="M-5.9,272c-0.7,0-1.3,0.3-1.7,0.7v3.5c0.4,0.5,1.1,0.7,1.8,0.7c1.4,0,2.5-1.1,2.5-2.5
		C-3.3,273-4.4,272-5.9,272z"/>
	<path class="st5" d="M39.3,279.9c1.4,0,2.5,1.1,2.4,2.5c0,1.4-1.1,2.4-2.4,2.4c-1.4,0-2.5-1.1-2.4-2.5
		C36.9,280.9,37.9,279.9,39.3,279.9z"/>
	<path class="st5" d="M79.3,316.1c1.4,0,2.4,1,2.5,2.4c0,1.4-1.1,2.5-2.4,2.5c-1.4,0-2.4-1.1-2.4-2.4
		C76.9,317.2,77.9,316.1,79.3,316.1z"/>
	<path class="st5" d="M84,327.6c-1.3,0-2.4-1.1-2.5-2.4c0-1.3,1.1-2.4,2.4-2.5c1.3,0,2.4,1.1,2.5,2.4
		C86.4,326.5,85.3,327.6,84,327.6z"/>
	<path class="st5" d="M45,280.9c1.3,0,2.4,1.1,2.4,2.4c0,1.3-1.1,2.4-2.4,2.4c-1.3,0-2.4-1.1-2.4-2.4C42.5,282,43.6,280.9,45,280.9z
		"/>
	<path class="st5" d="M65.4,296.3c1.3,0,2.4,1.1,2.4,2.4c0,1.3-1.1,2.4-2.4,2.4c-1.3,0-2.4-1.1-2.4-2.4
		C62.9,297.4,64,296.3,65.4,296.3z"/>
	<path class="st5" d="M4.1,270.8c0-1.3,1.2-2.4,2.5-2.4c1.3,0,2.4,1.2,2.3,2.5c-0.1,1.3-1.2,2.3-2.4,2.3
		C5.2,273.2,4.1,272.1,4.1,270.8z"/>
	<path class="st5" d="M0.9,272.2c-1.3,0-2.4-1.1-2.4-2.4c0-1.3,1.1-2.4,2.4-2.4c1.3,0,2.4,1.1,2.4,2.4
		C3.3,271.1,2.2,272.2,0.9,272.2z"/>
	<path class="st5" d="M29,277.3c-1.3,0-2.4-1.1-2.4-2.4c0-1.3,1.1-2.4,2.4-2.4c1.3,0,2.4,1.1,2.4,2.4
		C31.4,276.2,30.3,277.3,29,277.3z"/>
	<path class="st5" d="M23.4,271.4c1.3,0,2.4,1.2,2.4,2.5c0,1.3-1.2,2.4-2.5,2.4c-1.3,0-2.3-1.1-2.3-2.4
		C20.9,272.5,22,271.4,23.4,271.4z"/>
	<path class="st5" d="M17.6,270.4c1.3,0,2.4,1.1,2.4,2.4c0,1.3-1.1,2.4-2.5,2.4c-1.3,0-2.4-1.1-2.4-2.4
		C15.2,271.5,16.3,270.4,17.6,270.4z"/>
	<path class="st5" d="M14.6,271.9c0,1.3-1.1,2.4-2.5,2.4c-1.3,0-2.4-1.2-2.4-2.5c0-1.3,1.1-2.3,2.4-2.3
		C13.5,269.4,14.6,270.5,14.6,271.9z"/>
	<path class="st5" d="M63.1,292c0,1.3-1.1,2.4-2.4,2.4c-1.3,0-2.5-1.1-2.4-2.4c0-1.3,1.1-2.4,2.4-2.4C62,289.7,63.1,290.7,63.1,292z
		"/>
	<path class="st5" d="M34.7,273.5c1.3,0,2.4,1.1,2.4,2.4c0,1.3-1.1,2.4-2.4,2.4c-1.3,0-2.4-1.1-2.4-2.4
		C32.3,274.6,33.4,273.5,34.7,273.5z"/>
	<path class="st5" d="M88.6,334.3c-1.3,0-2.4-1.1-2.4-2.3c0-1.3,1.1-2.5,2.4-2.5c1.3,0,2.4,1.1,2.4,2.4
		C91,333.1,89.9,334.2,88.6,334.3z"/>
	<path class="st5" d="M94.4,342.9c-0.4-0.8-1.2-1.3-2.1-1.3c-0.9,0-1.8,0.5-2.2,1.3H94.4z"/>
	<path class="st5" d="M50.6,286.8c-1.3,0-2.4-1.1-2.4-2.4c0-1.3,1.1-2.5,2.4-2.4c1.3,0,2.4,1.1,2.4,2.4
		C53,285.7,51.9,286.8,50.6,286.8z"/>
	<path class="st5" d="M-4.8,271.2c-1.3,0-2.4-1.1-2.4-2.4c0-1.3,1.1-2.4,2.4-2.4c1.3,0,2.4,1.1,2.4,2.4
		C-2.4,270-3.5,271.2-4.8,271.2z"/>
	<path class="st5" d="M40.3,274.5c1.3,0,2.4,1.1,2.3,2.4c0,1.3-1.1,2.3-2.4,2.3c-1.3,0-2.4-1.1-2.3-2.4
		C38,275.6,39,274.5,40.3,274.5z"/>
	<path class="st5" d="M87.3,319.5c0,1.3-1.1,2.4-2.4,2.4c-1.3,0-2.4-1.1-2.3-2.4c0-1.2,1.1-2.3,2.3-2.3
		C86.2,317.2,87.3,318.3,87.3,319.5z"/>
	<path class="st5" d="M78,306.2c0,1.3-1.2,2.4-2.4,2.3c-1.3,0-2.4-1.2-2.3-2.5c0.1-1.3,1.1-2.3,2.4-2.3C77,303.8,78.1,305,78,306.2z
		"/>
	<path class="st5" d="M80.4,315.2c-1.3,0-2.4-1.1-2.4-2.4c0-1.3,1.1-2.4,2.4-2.4c1.2,0,2.3,1.1,2.4,2.3
		C82.7,314.1,81.6,315.2,80.4,315.2z"/>
	<path class="st5" d="M71,302.1c-1.3,0-2.4-1.1-2.3-2.4c0-1.3,1.2-2.4,2.4-2.3c1.3,0,2.3,1.1,2.3,2.4C73.4,301,72.3,302.1,71,302.1z
		"/>
	<path class="st5" d="M93.3,336c1.3,0,2.4,1.1,2.3,2.4c-0.1,1.3-1.1,2.3-2.4,2.2c-1.3,0-2.4-1.1-2.3-2.4C91,337,92,336,93.3,336z"/>
	<path class="st5" d="M56,287.7c-1.3,0-2.4-1.1-2.3-2.4c0-1.3,1.1-2.3,2.4-2.3c1.3,0,2.4,1.1,2.3,2.4
		C58.4,286.7,57.3,287.7,56,287.7z"/>
	<path class="st5" d="M91.9,326.2c0,1.3-1,2.3-2.3,2.3c-1.3,0-2.3-1-2.3-2.3c0-1.3,1-2.3,2.3-2.3C90.9,323.9,91.9,324.9,91.9,326.2z
		"/>
	<path class="st5" d="M48.2,277.9c0,1.3-1,2.3-2.3,2.3c-1.3,0-2.3-1-2.3-2.3c0-1.3,1-2.3,2.3-2.3C47.3,275.6,48.3,276.6,48.2,277.9z
		"/>
	<path class="st5" d="M68.7,293.1c0,1.3-1,2.3-2.3,2.3c-1.3,0-2.3-1-2.3-2.3c0-1.3,1-2.3,2.3-2.3C67.7,290.8,68.7,291.8,68.7,293.1z
		"/>
	<path class="st5" d="M35.6,272.4c-1.2,0-2.2-1-2.2-2.2c0-1.2,1-2.2,2.2-2.2c1.2,0,2.2,1,2.2,2.2C37.9,271.5,36.9,272.5,35.6,272.4z
		"/>
	<path class="st5" d="M64,286.3c0,1.3-0.9,2.3-2.2,2.3c-1.3,0-2.3-1-2.3-2.3c0-1.3,1-2.2,2.2-2.2C63,284.1,64,285.1,64,286.3z"/>
	<path class="st5" d="M4.1,264.1c0,1.3-0.9,2.2-2.2,2.3c-1.3,0-2.3-1-2.3-2.3c0-1.2,1-2.2,2.2-2.2C3.1,261.9,4.1,262.9,4.1,264.1z"
		/>
	<path class="st5" d="M32.2,269.2c0,1.3-0.9,2.3-2.2,2.3c-1.3,0-2.3-1-2.3-2.3c0-1.3,1-2.2,2.2-2.2
		C31.2,266.9,32.2,267.9,32.2,269.2z"/>
	<path class="st5" d="M53.9,278.7c0,1.2-1,2.2-2.2,2.2c-1.3,0-2.3-1-2.2-2.3c0-1.2,1-2.2,2.3-2.2C52.9,276.5,53.9,277.5,53.9,278.7z
		"/>
	<path class="st5" d="M15.3,266.2c0,1.3-1,2.3-2.3,2.2c-1.3,0-2.2-1-2.2-2.3c0-1.3,1-2.3,2.3-2.2C14.3,263.9,15.3,264.9,15.3,266.2z
		"/>
	<path class="st5" d="M18.7,264.9c1.3,0,2.3,1,2.2,2.4c0,1.3-1,2.2-2.3,2.2c-1.3,0-2.3-1-2.2-2.4C16.4,265.8,17.4,264.9,18.7,264.9z
		"/>
	<path class="st5" d="M74.3,294.1c0,1.2-1,2.2-2.3,2.2c-1.2,0-2.2-1-2.2-2.3c0-1.2,1-2.2,2.3-2.2C73.3,291.9,74.3,292.9,74.3,294.1z
		"/>
	<path class="st5" d="M81.4,305c1.3,0,2.2,1,2.2,2.3c0,1.3-1,2.3-2.3,2.2c-1.2,0-2.2-1-2.2-2.3C79.1,305.9,80.1,304.9,81.4,305z"/>
	<path class="st5" d="M76.7,303c-1.3,0-2.2-1-2.2-2.3c0-1.3,1-2.3,2.3-2.2c1.2,0,2.2,1,2.2,2.3C78.9,302,77.9,303,76.7,303z"/>
	<path class="st5" d="M7.6,262.9c1.3,0,2.3,1,2.2,2.3c0,1.2-1,2.2-2.3,2.2c-1.3,0-2.3-1-2.2-2.3C5.3,263.8,6.3,262.9,7.6,262.9z"/>
	<path class="st5" d="M96.5,332.8c0,1.3-1,2.3-2.3,2.3c-1.3,0-2.2-1-2.2-2.2c0-1.3,1-2.3,2.3-2.3C95.5,330.6,96.5,331.6,96.5,332.8z
		"/>
	<path class="st5" d="M90.6,318.3c1.2,0,2.2,1,2.3,2.2c0,1.2-1,2.2-2.2,2.3c-1.2,0-2.2-1-2.3-2.2C88.4,319.3,89.4,318.3,90.6,318.3z
		"/>
	<path class="st5" d="M88.2,313.9c0,1.3-1,2.2-2.2,2.2c-1.3,0-2.3-1-2.3-2.3c0-1.3,1-2.2,2.3-2.2C87.3,311.6,88.2,312.6,88.2,313.9z
		"/>
	<path class="st5" d="M24.2,270.5c-1.3,0-2.2-1.1-2.2-2.4c0.1-1.2,1.1-2.2,2.3-2.1c1.3,0,2.2,1.1,2.2,2.4
		C26.5,269.6,25.5,270.5,24.2,270.5z"/>
	<path class="st5" d="M-1.6,263.1c0,1.2-1,2.2-2.3,2.2c-1.2,0-2.2-1-2.2-2.3c0-1.2,1-2.2,2.2-2.2C-2.6,260.9-1.6,261.9-1.6,263.1z"
		/>
	<path class="st5" d="M43.5,271.3c0,1.2-1.1,2.2-2.3,2.2c-1.2,0-2.2-1.1-2.1-2.2c0-1.2,1.1-2.2,2.3-2.2
		C42.6,269.1,43.5,270.1,43.5,271.3z"/>
	<path class="st5" d="M95.3,325c1.2,0,2.2,1,2.2,2.2c0,1.2-1,2.3-2.3,2.2c-1.2,0-2.2-1.1-2.1-2.2C93.1,326,94.1,325,95.3,325z"/>
	<path class="st5" d="M-7.6,261.2v2.3c0.2-0.3,0.3-0.7,0.3-1C-7.2,262-7.3,261.5-7.6,261.2z"/>
	<path class="st5" d="M69.6,287.4c0,1.2-1,2.2-2.2,2.2c-1.2,0-2.3-1-2.2-2.2c0-1.2,1-2.2,2.2-2.2C68.6,285.2,69.6,286.2,69.6,287.4z
		"/>
	<path class="st5" d="M98.9,341.6c-1.2,0-2.2-1-2.2-2.2c0-1.2,1.1-2.3,2.3-2.2c1.2,0,2.2,1.1,2.1,2.2
		C101.1,340.6,100.1,341.6,98.9,341.6z"/>
	<path class="st5" d="M57.1,281.9c-1.2,0-2.2-0.9-2.3-2.1c0-1.2,1-2.3,2.2-2.3c1.2,0,2.2,1,2.2,2.2
		C59.3,280.9,58.3,281.9,57.1,281.9z"/>
	<path class="st5" d="M47,270.1c1.2,0,2.2,1,2.2,2.2c0,1.2-1.1,2.2-2.2,2.2c-1.1,0-2.1-1-2.1-2.2C44.8,271.1,45.8,270.1,47,270.1z"
		/>
	<path class="st5" d="M80.2,301.7c0-1.2,1.1-2.2,2.2-2.1c1.2,0,2.2,1.1,2.1,2.3c-0.1,1.1-1.1,2.1-2.2,2.1
		C81.1,303.9,80.1,302.9,80.2,301.7z"/>
	<path class="st5" d="M89.2,308.2c0,1.2-1,2.2-2.2,2.2c-1.2,0-2.2-1-2.2-2.2c0-1.1,1-2.1,2.1-2.2C88.1,306,89.1,307,89.2,308.2z"/>
	<path class="st5" d="M93.8,314.9c0,1.2-1,2.2-2.2,2.2c-1.1,0-2.1-1-2.1-2.1c0-1.2,1-2.2,2.2-2.2C92.8,312.8,93.8,313.7,93.8,314.9z
		"/>
	<path class="st5" d="M77.7,297.2c-1.2,0-2.2-1-2.2-2.2c0-1.1,1-2.1,2.1-2.1c1.2,0,2.2,1,2.2,2.2C79.8,296.2,78.9,297.2,77.7,297.2z
		"/>
	<path class="st5" d="M14,262.6c-1.1,0-2.1-0.9-2.2-2.1c0-1.2,1-2.2,2.2-2.2c1.2,0,2.1,1,2.1,2.1C16.2,261.7,15.2,262.6,14,262.6z"
		/>
	<path class="st5" d="M17.5,261.5c0-1.2,1-2.1,2.1-2.1c1.2,0,2.2,1,2.2,2.2c0,1.2-1,2.1-2.2,2.1C18.5,263.6,17.5,262.7,17.5,261.5z"
		/>
	<path class="st5" d="M27.5,262.6c0,1.2-1,2.1-2.1,2.1c-1.2,0-2.1-1-2.1-2.1c0-1.2,1-2.1,2.1-2.1C26.5,260.4,27.5,261.4,27.5,262.6z
		"/>
	<path class="st5" d="M64.9,280.8c0,1.2-1,2.1-2.1,2.1c-1.2,0-2.2-1-2.1-2.2c0.1-1.2,1-2.1,2.2-2.1
		C63.9,278.6,64.9,279.6,64.9,280.8z"/>
	<path class="st5" d="M102.1,333.7c0,1.2-1,2.1-2.1,2.1c-1.2,0-2.2-1-2.1-2.2c0-1.2,1-2.1,2.2-2.1
		C101.1,331.6,102.1,332.6,102.1,333.7z"/>
	<path class="st5" d="M103,328.3c0,1.2-0.9,2-2.1,2c-1.2,0-2-0.9-2-2.1c0-1.2,0.9-2,2.1-2C102.1,326.2,103,327.1,103,328.3z"/>
	<path class="st5" d="M38.7,264.5c0,1.2-0.9,2.1-2.1,2.1c-1.2,0-2-0.9-2.1-2c0-1.2,0.9-2.1,2.1-2.1
		C37.8,262.5,38.7,263.4,38.7,264.5z"/>
	<path class="st5" d="M31,261.5c1.2,0,2.1,0.9,2.1,2.1c0,1.2-0.9,2.1-2.1,2.1c-1.1,0-2-0.9-2.1-2C28.9,262.4,29.8,261.5,31,261.5z"
		/>
	<path class="st5" d="M-0.7,257.7c0,1.2-0.9,2-2,2.1c-1.2,0-2.1-0.9-2.1-2.1c0-1.2,0.9-2,2.1-2C-1.6,255.6-0.7,256.5-0.7,257.7z"/>
	<path class="st5" d="M75.1,288.4c0,1.2-0.9,2.1-2.1,2.1c-1.2,0-2.1-0.9-2.1-2.1c0-1.1,0.9-2,2.1-2
		C74.2,286.3,75.1,287.2,75.1,288.4z"/>
	<path class="st5" d="M2.9,256.4c1.2,0,2.1,0.9,2.1,2.1c0,1.2-0.9,2-2,2.1c-1.2,0-2.1-0.9-2.1-2.1C0.8,257.3,1.7,256.4,2.9,256.4z"
		/>
	<path class="st5" d="M106.6,340.4c0,1.1-1,2-2.1,2c-1.1,0-2-1-2-2.1c0-1.1,1-2,2.1-2C105.8,338.4,106.7,339.3,106.6,340.4z"/>
	<path class="st5" d="M54.5,273.2c0,1.2-0.9,2.1-2.1,2.1s-2.1-0.9-2.1-2.1c0-1.2,0.9-2.1,2.1-2.1C53.6,271.1,54.5,272.1,54.5,273.2z
		"/>
	<path class="st5" d="M70.4,281.7c0,1.1-0.9,2-2,2c-1.1,0-2-0.9-2-2c0-1.1,0.9-2,2-2C69.5,279.7,70.4,280.6,70.4,281.7z"/>
	<path class="st5" d="M98.4,321.5c0,1.2-0.9,2.1-2.1,2.1c-1.2,0-2.1-0.9-2.1-2.1c0-1.1,0.9-2,2-2.1
		C97.4,319.5,98.4,320.4,98.4,321.5z"/>
	<path class="st5" d="M58.1,272.2c1.2,0,2.1,0.9,2.1,2c0,1.2-0.9,2.1-2,2.1c-1.2,0-2.1-0.9-2.1-2C56,273.1,56.9,272.2,58.1,272.2z"
		/>
	<path class="st5" d="M8.5,261.6c-1.2,0-2.1-0.9-2.1-2.1c0-1.2,0.9-2.1,2.1-2.1c1.2,0,2.1,0.9,2.1,2.1
		C10.7,260.7,9.7,261.6,8.5,261.6z"/>
	<path class="st5" d="M42.3,263.5c1.1,0,2,0.9,2,2c0,1.1-0.9,2-2,2c-1.1,0-2-0.9-2-2C40.3,264.4,41.2,263.5,42.3,263.5z"/>
	<path class="st5" d="M99.3,315.9c0,1.1-0.9,2-2,2c-1.1,0-2.1-0.9-2.1-2c0-1.1,0.9-2,2-2C98.4,313.9,99.3,314.8,99.3,315.9z"/>
	<path class="st5" d="M92.6,307.2c1.1,0,2.1,0.9,2.1,2c0,1.1-0.9,2.1-2,2.1c-1.1,0-2-0.9-2-2C90.6,308.2,91.5,307.2,92.6,307.2z"/>
	<path class="st5" d="M-7.6,254.8v3.7c0.7-0.3,1.2-1,1.2-1.8C-6.4,255.8-6.9,255.2-7.6,254.8z"/>
	<path class="st5" d="M80.7,289.4c0,1.1-0.9,2-2,2c-1.1,0-2.1-0.9-2.1-2c0-1.1,0.9-2,2-2C79.8,287.4,80.7,288.3,80.7,289.4z"/>
	<path class="st5" d="M88,300.5c1.1,0,2,0.9,2,2c0,1.1-0.9,2-2.1,2c-1.1,0-2-0.9-2-2C86,301.4,86.9,300.5,88,300.5z"/>
	<path class="st5" d="M85.4,296.1c0,1.1-0.9,2-2.1,2c-1.1,0-2-1-2-2.1c0-1.1,0.9-1.9,2-1.9C84.5,294.1,85.4,295,85.4,296.1z"/>
	<path class="st5" d="M48,264.6c1.1,0,2,0.9,2,2c0,1.1-0.9,2.1-2,2c-1.1,0-2-0.9-2-2C46,265.5,46.9,264.6,48,264.6z"/>
	<path class="st5" d="M9.4,256c-1,0-2-0.8-2-1.9c0-1.1,0.9-2,2-2c1,0,1.9,0.9,1.9,1.9C11.3,255.1,10.5,256,9.4,256z"/>
	<path class="st5" d="M105.6,332.7c1.1,0,2,1,1.9,2.1c0,1.1-1,2-2.1,1.9c-1-0.1-1.9-1-1.9-2C103.6,333.6,104.6,332.7,105.6,332.7z"
		/>
	<path class="st5" d="M24.4,256.9c0-1,0.9-1.9,1.9-2c1.1,0,2,0.9,2,2c0,1-0.9,1.9-2,1.9C25.3,258.8,24.4,257.9,24.4,256.9z"/>
	<path class="st5" d="M101.9,320.6c1.1,0,2,0.9,2,2c0,1-0.9,1.9-1.9,1.9c-1.1,0-2-0.9-2-2C100,321.5,100.9,320.6,101.9,320.6z"/>
	<path class="st5" d="M55.4,267.6c0,1-0.9,1.9-2,1.9c-1.1,0-2-1-1.9-2.1c0.1-1.1,1-1.9,2-1.9C54.6,265.7,55.4,266.6,55.4,267.6z"/>
	<path class="st5" d="M65.7,275.1c0,1.1-1,2-2,2c-1.1,0-2-1-1.9-2.1c0-1,1-1.9,2-1.9C64.8,273.1,65.7,274,65.7,275.1z"/>
	<path class="st5" d="M76,282.7c0,1.1-0.9,2-2,2c-1,0-1.9-0.9-2-1.9c0-1.1,0.9-2,2-2C75.1,280.8,76,281.7,76,282.7z"/>
	<path class="st5" d="M15,256.8c-1.1,0-2-0.9-2-2c0-1,0.9-1.9,1.9-1.9c1.1,0,2,0.9,2,2C17,255.9,16.1,256.8,15,256.8z"/>
	<path class="st5" d="M22.7,255.9c0,1.1-1,2-2,2c-1,0-1.9-1-1.9-2c0-1.1,1-2,2-2C21.8,253.9,22.7,254.8,22.7,255.9z"/>
	<path class="st5" d="M3.9,254.9c-1.1,0-1.9-0.9-1.9-1.9c0-1.1,0.9-1.9,1.9-1.9c1.1,0,1.9,0.9,1.9,1.9C5.8,254.1,4.9,255,3.9,254.9z
		"/>
	<path class="st5" d="M33.9,257.9c0,1-0.9,1.9-1.9,1.9c-1.1,0-2-0.9-1.9-2c0.1-1.1,1-1.9,2-1.8C33.1,256,34,256.9,33.9,257.9z"/>
	<path class="st5" d="M86.2,290.4c0,1.1-0.8,1.9-1.9,1.9c-1,0-1.8-0.8-1.8-1.9c0-1.1,0.8-1.9,1.9-1.9
		C85.5,288.6,86.2,289.4,86.2,290.4z"/>
	<path class="st5" d="M108.3,329.2c0,1.1-0.8,1.9-1.9,1.9c-1,0-1.8-0.8-1.9-1.8c0-1.1,0.8-1.9,1.9-1.9
		C107.5,327.4,108.3,328.2,108.3,329.2z"/>
	<path class="st5" d="M95.5,303.5c0,1.1-0.8,1.9-1.8,1.9c-1.1,0-1.9-0.8-2-1.9c0-1.1,0.8-1.9,1.9-1.9
		C94.7,301.7,95.5,302.5,95.5,303.5z"/>
	<path class="st5" d="M37.7,260.8c-1.1,0-1.9-0.8-1.9-1.9c0-1,0.8-1.8,1.9-1.8c1.1,0,1.9,0.8,1.9,1.9
		C39.5,260,38.7,260.8,37.7,260.8z"/>
	<path class="st5" d="M89,299c-1.1,0-1.9-0.9-1.9-1.9c0-1.1,0.9-1.9,2-1.9c1,0,1.8,0.8,1.8,1.9C90.9,298.2,90.1,299,89,299z"/>
	<path class="st5" d="M-1.8,253.9c-1.1,0-1.9-0.9-1.8-2c0-1,0.9-1.8,1.9-1.8c1.1,0,1.9,0.9,1.8,2C0.1,253.1-0.7,253.9-1.8,253.9z"/>
	<path class="st5" d="M109,342.9h2c0.5-0.3,0.8-0.9,0.8-1.5c0-1.1-0.7-1.9-1.8-1.9c-1.1,0-1.9,0.8-1.9,1.9
		C108.2,342.1,108.5,342.6,109,342.9z"/>
	<path class="st5" d="M71.3,276.1c0,1.1-0.8,1.8-1.9,1.8c-1.1,0-1.9-0.8-1.9-1.9c0-1,0.9-1.8,1.9-1.8
		C70.5,274.2,71.3,275,71.3,276.1z"/>
	<path class="st5" d="M59.1,266.7c1,0,1.8,0.8,1.8,1.9c0,1.1-0.8,1.9-1.9,1.8c-1,0-1.8-0.9-1.8-1.9
		C57.3,267.5,58.1,266.7,59.1,266.7z"/>
	<path class="st5" d="M100.2,310.3c0,1.1-0.9,1.9-1.9,1.8c-1,0-1.8-0.8-1.8-1.9c0-1.1,0.9-1.9,1.9-1.8
		C99.4,308.4,100.2,309.2,100.2,310.3z"/>
	<path class="st5" d="M43.3,261.7c-1,0-1.8-0.8-1.8-1.9c0-1,0.8-1.8,1.9-1.8c1,0,1.8,0.8,1.8,1.9C45.2,261,44.4,261.8,43.3,261.7z"
		/>
	<path class="st5" d="M-7.5,249.2c0,0-0.1,0-0.1,0v3.6c0,0,0.1,0,0.1,0c1,0,1.9-0.8,1.8-1.8C-5.6,250-6.4,249.2-7.5,249.2z"/>
	<path class="st5" d="M77.9,283.7c0-1,0.9-1.8,1.9-1.8c1,0,1.8,0.9,1.8,1.9c0,1-0.9,1.7-1.9,1.7C78.7,285.6,77.9,284.8,77.9,283.7z"
		/>
	<path class="st5" d="M64.7,271.4c-1,0-1.8-0.9-1.8-1.8c0-1,0.9-1.8,1.8-1.8c1,0,1.8,0.9,1.8,1.8C66.5,270.6,65.7,271.4,64.7,271.4z
		"/>
	<path class="st5" d="M109.2,323.6c0,1-0.8,1.8-1.8,1.8c-1,0-1.8-0.8-1.8-1.8c0-1,0.8-1.8,1.8-1.8
		C108.4,321.8,109.2,322.6,109.2,323.6z"/>
	<path class="st5" d="M111,333.9c1,0,1.8,0.8,1.8,1.7c0,1-0.8,1.9-1.8,1.9c-1,0-1.8-0.8-1.8-1.8C109.2,334.8,110,333.9,111,333.9z"
		/>
	<path class="st5" d="M50.6,260.9c0,1-0.8,1.8-1.7,1.9c-1,0-1.9-0.8-1.9-1.8c0-1,0.8-1.8,1.8-1.8C49.7,259.1,50.6,259.9,50.6,260.9z
		"/>
	<path class="st5" d="M102.8,318.7c-1,0-1.9-0.8-1.9-1.8c0-1,0.8-1.9,1.8-1.8c1,0,1.8,0.8,1.8,1.8
		C104.6,317.9,103.8,318.7,102.8,318.7z"/>
	<path class="st5" d="M75.1,275.3c1,0,1.8,0.8,1.8,1.8c0,1-0.9,1.8-1.8,1.8c-0.9,0-1.7-0.8-1.7-1.8
		C73.3,276.2,74.1,275.3,75.1,275.3z"/>
	<path class="st5" d="M96.5,298.1c0,1-0.8,1.8-1.8,1.8c-1,0-1.8-0.9-1.8-1.8c0-0.9,0.8-1.7,1.7-1.8
		C95.6,296.3,96.4,297.1,96.5,298.1z"/>
	<path class="st5" d="M100.9,304.6c0,1-0.8,1.8-1.8,1.8c-0.9,0-1.7-0.8-1.7-1.8c0-1,0.8-1.8,1.8-1.8
		C100.1,302.8,100.9,303.6,100.9,304.6z"/>
	<path class="st5" d="M54.5,260.2c0.9,0,1.7,0.9,1.7,1.8c0,1-0.9,1.8-1.9,1.7c-0.9-0.1-1.7-0.9-1.7-1.8
		C52.7,260.9,53.6,260.1,54.5,260.2z"/>
	<path class="st5" d="M90,293.2c-1,0-1.8-0.9-1.7-1.9c0.1-0.9,0.9-1.7,1.8-1.7c1,0,1.8,0.9,1.7,1.9C91.7,292.5,90.9,293.2,90,293.2z
		"/>
	<path class="st5" d="M21.7,248.6c1,0,1.8,0.9,1.8,1.8c0,0.9-0.9,1.7-1.8,1.7c-1,0-1.8-0.9-1.8-1.8C20,249.4,20.8,248.6,21.7,248.6z
		"/>
	<path class="st5" d="M16.1,247.6c1,0,1.8,0.9,1.7,1.8c0,0.9-0.9,1.7-1.8,1.7c-1,0-1.8-0.9-1.7-1.8
		C14.3,248.4,15.1,247.6,16.1,247.6z"/>
	<path class="st5" d="M10.4,250.1c-0.9,0-1.7-0.8-1.7-1.7c0-1,0.9-1.8,1.8-1.8c0.9,0,1.7,0.9,1.7,1.8
		C12.1,249.3,11.3,250.1,10.4,250.1z"/>
	<path class="st5" d="M103.7,313c-1,0-1.7-0.8-1.7-1.8c0-1,0.9-1.7,1.8-1.6c0.9,0,1.6,0.8,1.6,1.7C105.5,312.2,104.7,313,103.7,313z
		"/>
	<path class="st5" d="M85.4,286.5c-1,0-1.7-0.8-1.7-1.7c0-1,0.8-1.7,1.7-1.7c0.9,0,1.7,0.8,1.7,1.7
		C87.1,285.7,86.4,286.5,85.4,286.5z"/>
	<path class="st5" d="M33,250.5c1,0,1.7,0.8,1.7,1.7c0,1-0.8,1.7-1.7,1.7c-0.9,0-1.7-0.7-1.7-1.7C31.3,251.3,32,250.5,33,250.5z"/>
	<path class="st5" d="M27.4,249.5c0.9,0,1.7,0.8,1.7,1.8c0,0.9-0.8,1.7-1.8,1.7c-0.9,0-1.7-0.8-1.7-1.8
		C25.6,250.2,26.4,249.5,27.4,249.5z"/>
	<path class="st5" d="M6.6,247.3c0,1-0.8,1.7-1.7,1.8c-1,0-1.7-0.8-1.7-1.7c0-0.9,0.7-1.7,1.7-1.7C5.8,245.6,6.6,246.4,6.6,247.3z"
		/>
	<path class="st5" d="M0.9,246.4c0,0.9-0.7,1.6-1.7,1.6c-0.9,0-1.7-0.7-1.6-1.7c0-0.9,0.7-1.7,1.7-1.6
		C0.2,244.7,0.9,245.4,0.9,246.4z"/>
	<path class="st5" d="M72.1,270.7c0,1-0.8,1.7-1.8,1.6c-0.9,0-1.6-0.8-1.6-1.7c0-1,0.8-1.7,1.8-1.6C71.4,269,72.1,269.7,72.1,270.7z
		"/>
	<path class="st5" d="M112.1,331.7c-1,0-1.7-0.7-1.7-1.7c0-0.9,0.7-1.6,1.6-1.7c1,0,1.7,0.7,1.7,1.7
		C113.7,331,113,331.7,112.1,331.7z"/>
	<path class="st5" d="M40.3,253.2c0,0.9-0.7,1.7-1.6,1.7c-1,0-1.7-0.7-1.7-1.7c0-0.9,0.7-1.6,1.6-1.7
		C39.6,251.6,40.3,252.3,40.3,253.2z"/>
	<path class="st5" d="M117.3,342.9c0.1-0.2,0.1-0.3,0.1-0.5c0-0.9-0.7-1.7-1.6-1.7c-0.9,0-1.7,0.7-1.7,1.6c0,0.2,0,0.4,0.1,0.6
		H117.3z"/>
	<path class="st5" d="M61.8,262.9c0,0.9-0.7,1.7-1.6,1.7c-0.9,0-1.7-0.7-1.7-1.6c0-0.9,0.7-1.7,1.6-1.7
		C61,261.3,61.7,262,61.8,262.9z"/>
	<path class="st5" d="M101.7,298.9c0,0.9-0.8,1.6-1.6,1.6c-0.9,0-1.6-0.8-1.6-1.6c0-0.9,0.8-1.6,1.6-1.6
		C101,297.3,101.8,298.1,101.7,298.9z"/>
	<path class="st5" d="M80.7,276.5c1,0,1.7,0.7,1.7,1.6c0,0.9-0.7,1.7-1.6,1.7c-0.9,0-1.6-0.7-1.6-1.6
		C79.1,277.2,79.7,276.5,80.7,276.5z"/>
	<path class="st5" d="M108.4,316.3c0.9,0,1.7,0.7,1.7,1.7c0,0.9-0.7,1.7-1.7,1.6c-0.9,0-1.6-0.7-1.6-1.6
		C106.8,317,107.5,316.3,108.4,316.3z"/>
	<path class="st5" d="M-6.3,243.7c-0.5,0-0.9,0.2-1.2,0.5v2.2c0.3,0.3,0.7,0.5,1.2,0.5c0.9,0,1.6-0.7,1.6-1.6
		C-4.8,244.5-5.5,243.8-6.3,243.7z"/>
	<path class="st5" d="M97.1,292.5c0,0.9-0.8,1.6-1.6,1.6c-0.9,0-1.6-0.8-1.6-1.6c0-0.9,0.8-1.6,1.6-1.6
		C96.4,290.9,97.1,291.6,97.1,292.5z"/>
	<path class="st5" d="M45.8,254.3c0,0.9-0.8,1.6-1.7,1.6c-0.9,0-1.6-0.8-1.6-1.7c0-0.9,0.7-1.6,1.6-1.5
		C45.1,252.6,45.8,253.3,45.8,254.3z"/>
	<path class="st5" d="M113.1,326.2c-0.9,0-1.6-0.7-1.6-1.6c0-0.9,0.8-1.6,1.6-1.6c0.8,0,1.5,0.7,1.6,1.5
		C114.7,325.4,114,326.2,113.1,326.2z"/>
	<path class="st5" d="M90.8,284.2c0.9,0,1.6,0.8,1.6,1.6c0,0.8-0.7,1.5-1.6,1.6c-0.9,0-1.6-0.8-1.6-1.6
		C89.3,284.9,90,284.2,90.8,284.2z"/>
	<path class="st5" d="M49.8,253.7c0.9,0,1.6,0.8,1.6,1.7c0,0.9-0.8,1.6-1.7,1.5c-0.8,0-1.5-0.8-1.5-1.6
		C48.2,254.4,49,253.6,49.8,253.7z"/>
	<path class="st5" d="M67.4,263.9c0,0.9-0.8,1.6-1.6,1.6c-0.8,0-1.5-0.7-1.6-1.6c0-0.9,0.8-1.6,1.6-1.6
		C66.6,262.4,67.3,263.1,67.4,263.9z"/>
	<path class="st5" d="M106.4,305.6c0,0.8-0.7,1.6-1.5,1.6c-0.8,0-1.6-0.7-1.7-1.6c0-0.9,0.8-1.6,1.6-1.6
		C105.6,304,106.4,304.7,106.4,305.6z"/>
	<path class="st5" d="M77.7,271.4c0,0.9-0.8,1.6-1.6,1.6c-0.8,0-1.5-0.7-1.6-1.6c0-0.9,0.8-1.6,1.6-1.6
		C76.9,269.9,77.6,270.6,77.7,271.4z"/>
	<path class="st5" d="M116.7,335.1c0.9,0,1.6,0.8,1.6,1.7c0,0.9-0.8,1.6-1.7,1.5c-0.8,0-1.5-0.8-1.5-1.6
		C115.1,335.9,115.9,335.1,116.7,335.1z"/>
	<path class="st5" d="M110.9,312.3c0,0.8-0.8,1.5-1.6,1.4c-0.8-0.1-1.5-0.8-1.4-1.6c0.1-0.8,0.7-1.4,1.6-1.4
		C110.3,310.8,111,311.5,110.9,312.3z"/>
	<path class="st5" d="M87.9,279.1c0,0.8-0.7,1.5-1.6,1.5c-0.8,0-1.5-0.7-1.5-1.6c0-0.8,0.7-1.4,1.5-1.4
		C87.2,277.6,87.9,278.3,87.9,279.1z"/>
	<path class="st5" d="M18.5,243.7c0,0.8-0.6,1.5-1.4,1.5c-0.9,0-1.5-0.6-1.5-1.5c0-0.9,0.7-1.5,1.5-1.5
		C17.9,242.3,18.5,242.9,18.5,243.7z"/>
	<path class="st5" d="M24.2,244.8c0,0.9-0.7,1.5-1.6,1.4c-0.8-0.1-1.4-0.7-1.4-1.5c0-0.9,0.7-1.5,1.6-1.4
		C23.6,243.3,24.2,244,24.2,244.8z"/>
	<path class="st5" d="M29.8,245.7c0,0.8-0.6,1.5-1.4,1.5c-0.9,0-1.5-0.6-1.5-1.5c0-0.8,0.6-1.4,1.5-1.4
		C29.2,244.3,29.8,244.9,29.8,245.7z"/>
	<path class="st5" d="M11.3,241.2c0.8,0,1.5,0.6,1.5,1.4c0,0.9-0.6,1.5-1.5,1.5c-0.8,0-1.5-0.6-1.5-1.5
		C9.9,241.9,10.5,241.3,11.3,241.2z"/>
	<path class="st5" d="M55.5,254.8c0.9,0,1.5,0.7,1.5,1.5c0,0.8-0.7,1.4-1.5,1.4c-0.9,0-1.5-0.7-1.5-1.5
		C54,255.4,54.6,254.8,55.5,254.8z"/>
	<path class="st5" d="M71.4,263.5c0.8,0,1.5,0.6,1.5,1.4c0,0.8-0.6,1.5-1.5,1.5c-0.8,0-1.4-0.6-1.4-1.4
		C69.9,264.2,70.5,263.5,71.4,263.5z"/>
	<path class="st5" d="M5.7,240.3c0.8,0,1.5,0.6,1.5,1.4c0,0.8-0.6,1.5-1.5,1.5c-0.8,0-1.4-0.6-1.4-1.4
		C4.2,240.9,4.8,240.3,5.7,240.3z"/>
	<path class="st5" d="M32.6,246.7c0-0.8,0.7-1.4,1.6-1.4c0.8,0.1,1.4,0.7,1.3,1.5c0,0.8-0.7,1.4-1.5,1.4
		C33.1,248.2,32.5,247.5,32.6,246.7z"/>
	<path class="st5" d="M83.2,272.5c0,0.8-0.7,1.4-1.5,1.4c-0.8,0-1.4-0.7-1.4-1.4c0-0.8,0.7-1.4,1.5-1.4
		C82.6,271,83.2,271.7,83.2,272.5z"/>
	<path class="st5" d="M115.5,318.9c0,0.8-0.6,1.4-1.4,1.5c-0.8,0-1.5-0.6-1.5-1.4c0-0.8,0.6-1.5,1.5-1.5
		C114.9,317.5,115.5,318.1,115.5,318.9z"/>
	<path class="st5" d="M117.8,332.5c-0.8,0-1.5-0.6-1.5-1.4c0-0.8,0.6-1.5,1.5-1.5c0.8,0,1.4,0.6,1.4,1.4
		C119.2,331.8,118.6,332.5,117.8,332.5z"/>
	<path class="st5" d="M62.5,257.3c0,0.8-0.6,1.4-1.4,1.4c-0.8,0-1.5-0.7-1.4-1.5c0-0.8,0.7-1.4,1.4-1.4
		C61.9,255.9,62.5,256.5,62.5,257.3z"/>
	<path class="st5" d="M39.7,246.2c0.8,0,1.4,0.7,1.4,1.4c0,0.8-0.7,1.5-1.5,1.4c-0.8,0-1.4-0.7-1.3-1.5
		C38.3,246.7,39,246.1,39.7,246.2z"/>
	<path class="st5" d="M122.7,342.9c-0.2-0.5-0.7-1-1.3-1c-0.6,0-1.2,0.4-1.4,1H122.7z"/>
	<path class="st5" d="M102.6,293.5c0,0.8-0.7,1.4-1.4,1.4c-0.8,0-1.4-0.7-1.4-1.4c0-0.8,0.7-1.4,1.4-1.4
		C101.9,292.1,102.6,292.7,102.6,293.5z"/>
	<path class="st5" d="M1.7,240.7c0,0.8-0.7,1.4-1.4,1.4c-0.8,0-1.5-0.7-1.4-1.5c0-0.8,0.7-1.4,1.5-1.3C1.1,239.3,1.7,240,1.7,240.7z
		"/>
	<path class="st5" d="M93.2,280.1c0,0.7-0.6,1.4-1.3,1.4c-0.7,0-1.4-0.6-1.4-1.3c0-0.7,0.6-1.4,1.3-1.4
		C92.5,278.7,93.2,279.4,93.2,280.1z"/>
	<path class="st5" d="M97.9,286.7c0,0.8-0.6,1.4-1.4,1.4c-0.8,0-1.4-0.7-1.4-1.4c0-0.8,0.5-1.3,1.3-1.4
		C97.2,285.3,97.9,286,97.9,286.7z"/>
	<path class="st5" d="M105.8,301.3c-0.8,0-1.4-0.7-1.4-1.4c0-0.8,0.7-1.4,1.5-1.3c0.8,0.1,1.3,0.6,1.3,1.4
		C107.2,300.7,106.5,301.3,105.8,301.3z"/>
	<path class="st5" d="M-4,239.7c0,0.7-0.6,1.4-1.3,1.4c-0.8,0-1.4-0.7-1.4-1.4c0-0.7,0.7-1.3,1.4-1.3C-4.6,238.3-4,239-4,239.7z"/>
	<path class="st5" d="M46.5,248.5c0,0.7-0.6,1.4-1.4,1.4c-0.7,0-1.4-0.6-1.4-1.3c0-0.7,0.6-1.4,1.4-1.4
		C45.9,247.2,46.5,247.8,46.5,248.5z"/>
	<path class="st5" d="M111.8,306.6c0,0.7-0.7,1.3-1.4,1.3c-0.7,0-1.3-0.7-1.3-1.4c0-0.7,0.7-1.3,1.4-1.3
		C111.2,305.3,111.8,305.9,111.8,306.6z"/>
	<path class="st5" d="M122.4,336.4c0.8,0,1.4,0.7,1.3,1.4c-0.1,0.8-0.6,1.2-1.4,1.2c-0.7,0-1.3-0.7-1.2-1.4
		C121.2,336.8,121.7,336.5,122.4,336.4z"/>
	<path class="st5" d="M118.7,326.9c-0.7,0-1.3-0.7-1.3-1.4c0-0.7,0.7-1.4,1.4-1.3c0.8,0.1,1.2,0.6,1.2,1.3
		C120.1,326.3,119.4,327,118.7,326.9z"/>
	<path class="st5" d="M77,264.6c0.7,0,1.4,0.6,1.4,1.3c0,0.7-0.6,1.4-1.3,1.4c-0.8,0-1.2-0.5-1.3-1.3
		C75.7,265.3,76.3,264.7,77,264.6z"/>
	<path class="st5" d="M66.7,257c0.8,0,1.4,0.6,1.3,1.4c-0.1,0.8-0.5,1.2-1.3,1.3c-0.7,0-1.4-0.6-1.3-1.4C65.5,257.4,66,257,66.7,257
		z"/>
	<path class="st5" d="M52.1,249.6c-0.1,0.8-0.5,1.2-1.2,1.3c-0.8,0.1-1.4-0.6-1.3-1.3c0-0.8,0.5-1.2,1.3-1.2
		C51.6,248.3,52,248.8,52.1,249.6z"/>
	<path class="st5" d="M56.4,249.4c0.7,0.1,1.2,0.4,1.3,1.2c0,0.8-0.4,1.2-1.2,1.2c-0.8,0-1.2-0.4-1.3-1.2
		C55.2,249.9,55.7,249.5,56.4,249.4z"/>
	<path class="st5" d="M113.8,313.3c0-0.8,0.6-1.3,1.4-1.3c0.8,0.1,1.2,0.6,1.1,1.4c-0.1,0.7-0.5,1.1-1.3,1.1
		C114.2,314.5,113.9,314,113.8,313.3z"/>
	<path class="st5" d="M87.2,272.2c0.8,0.1,1.2,0.5,1.2,1.3c0,0.8-0.5,1.2-1.3,1.2c-0.7,0-1.2-0.5-1.2-1.2
		C86,272.6,86.4,272.3,87.2,272.2z"/>
	<path class="st5" d="M121.1,320.2c-0.4,0.3-0.9,0.8-1.4,0.9c-0.7,0.1-1.1-0.4-1.1-1.1c0-0.7,0.5-1.2,1.2-1.1
		c0.5,0.1,0.9,0.6,1.3,0.9C121.1,319.9,121.1,320,121.1,320.2z"/>
	<path class="st5" d="M124.7,332.3c-0.4,0.3-0.8,0.8-1.3,0.9c-0.6,0.2-1.3-0.6-1.2-1.2c0.1-0.7,0.5-1.2,1.2-1.1
		c0.5,0.1,0.9,0.6,1.3,0.9C124.7,332,124.7,332.1,124.7,332.3z"/>
	<path class="st5" d="M73.8,259.5c-0.4,0.3-0.8,0.8-1.3,0.9c-0.6,0.2-1.3-0.6-1.2-1.2c0.1-0.7,0.5-1.2,1.2-1.1
		c0.5,0.1,0.9,0.6,1.3,0.9C73.8,259.2,73.8,259.4,73.8,259.5z"/>
	<path class="st5" d="M13.7,237.3c-0.5,0.3-0.9,0.7-1.4,0.9c-0.6,0.1-1.2-0.6-1.1-1.2c0.1-0.7,0.6-1.2,1.2-1c0.5,0.1,0.9,0.6,1.3,1
		C13.7,237,13.7,237.2,13.7,237.3z"/>
	<path class="st5" d="M108.2,294.7c-0.4,0.3-0.8,0.8-1.3,1c-0.6,0.2-1.3-0.5-1.2-1.2c0-0.7,0.5-1.2,1.2-1.1c0.5,0.1,0.9,0.6,1.4,0.9
		C108.2,294.4,108.2,294.5,108.2,294.7z"/>
	<path class="st5" d="M25,238.7c-0.1,1-0.5,1.5-1.3,1.5c-0.7,0-1.1-0.4-1.2-1.1c0-0.7,0.5-1.3,1.2-1.2C24.2,238,24.6,238.5,25,238.7
		z"/>
	<path class="st5" d="M103.5,288.1c-0.4,0.3-0.9,0.8-1.4,0.9c-0.6,0.2-1.2-0.6-1.2-1.2c0.1-0.7,0.5-1.2,1.2-1.1
		c0.5,0.1,0.9,0.6,1.3,0.9C103.5,287.8,103.5,287.9,103.5,288.1z"/>
	<path class="st5" d="M82.5,268.3c-0.3-0.4-0.8-0.8-0.9-1.3c-0.1-0.7,0.4-1.1,1.1-1.2c0.7,0,1.2,0.4,1.1,1.1
		c-0.1,0.5-0.6,0.9-0.9,1.4C82.9,268.3,82.7,268.3,82.5,268.3z"/>
	<path class="st5" d="M30.7,240.3c-0.4,0.3-0.8,0.8-1.3,0.9c-0.6,0.2-1.3-0.6-1.2-1.2c0.1-0.7,0.5-1.2,1.2-1.1
		c0.5,0.1,0.9,0.6,1.3,0.9C30.7,240,30.7,240.2,30.7,240.3z"/>
	<path class="st5" d="M17.7,236.8c1,0.1,1.5,0.5,1.5,1.3c0,0.7-0.5,1.1-1.2,1.2c-0.8,0-1.3-0.5-1.2-1.2
		C17,237.6,17.5,237.2,17.7,236.8z"/>
	<path class="st5" d="M98.8,281.3c-0.4,0.3-0.8,0.8-1.3,0.9c-0.7,0.1-1.2-0.4-1.1-1.1c0.1-0.4,0.6-1,1-1.1c0.4,0,0.9,0.5,1.4,0.8
		C98.8,281,98.8,281.2,98.8,281.3z"/>
	<path class="st5" d="M34.8,242.4c-0.3-0.4-0.8-0.9-0.9-1.3c-0.1-0.7,0.5-1.2,1.1-1.1c0.4,0.1,1,0.7,1,1.1c0,0.4-0.5,0.9-0.8,1.3
		C35.1,242.4,35,242.4,34.8,242.4z"/>
	<path class="st5" d="M8,236.3c-0.5,0.3-0.9,0.8-1.4,0.8c-0.7,0.1-1.2-0.5-1-1.2c0.1-0.4,0.7-1,1.1-1c0.4,0,0.9,0.5,1.3,0.9
		C8,236,8,236.2,8,236.3z"/>
	<path class="st5" d="M112.7,301.2c-0.4,0.3-0.9,0.8-1.3,0.8c-0.4,0-0.9-0.6-1-1.1c-0.1-0.7,0.4-1.2,1.1-1c0.4,0.1,0.8,0.6,1.2,0.9
		C112.7,300.9,112.7,301.1,112.7,301.2z"/>
	<path class="st5" d="M62.4,250.4c0.3,0.4,0.7,0.8,0.7,1.3c0.1,0.7-0.4,1-1.1,1c-0.7,0-1.1-0.5-1-1.1c0.1-0.4,0.6-0.8,0.9-1.2
		C62.1,250.4,62.3,250.4,62.4,250.4z"/>
	<path class="st5" d="M117.3,307.9c-0.4,0.3-0.8,0.7-1.2,0.7c-0.7,0.1-1.1-0.4-1-1c0-0.7,0.5-1.1,1.1-1c0.4,0.1,0.8,0.5,1.1,0.8
		C117.3,307.6,117.3,307.7,117.3,307.9z"/>
	<path class="st5" d="M93.1,273.3c0.3,0.4,0.7,0.7,0.8,1.2c0.1,0.7-0.3,1.1-1,1.1c-0.7,0-1.1-0.4-1-1.1c0.1-0.4,0.5-0.8,0.8-1.2
		C92.8,273.3,92.9,273.3,93.1,273.3z"/>
	<path class="st5" d="M1,236.2c-0.3-0.4-0.7-0.8-0.7-1.2c-0.1-0.7,0.3-1.1,1-1c0.7,0,1.1,0.4,1,1.1c-0.1,0.4-0.5,0.8-0.8,1.1
		C1.3,236.2,1.2,236.2,1,236.2z"/>
	<path class="st5" d="M41.7,242.3c-0.4,0.3-0.8,0.7-1.2,0.8c-0.6,0.1-1.1-0.4-1.1-1c0-0.7,0.4-1.2,1.1-1c0.4,0.1,0.8,0.5,1.3,0.8
		C41.7,242,41.7,242.2,41.7,242.3z"/>
	<path class="st5" d="M47.3,243.3c-0.4,0.3-0.8,0.8-1.1,0.8c-0.4,0-0.7-0.6-1.1-0.9c0.3-0.4,0.6-0.9,1-1c0.3-0.1,0.8,0.4,1.2,0.7
		C47.3,243,47.3,243.2,47.3,243.3z"/>
	<path class="st5" d="M125.5,326.7c-0.4,0.2-0.8,0.7-1.2,0.7c-0.3,0-0.9-0.6-0.9-0.9c0.1-0.4,0.6-0.9,0.9-1c0.3,0,0.8,0.5,1.1,0.7
		C125.6,326.4,125.5,326.5,125.5,326.7z"/>
	<path class="st5" d="M128.1,340.1c-0.5-0.6-1-1-0.9-1.4c0-0.4,0.6-0.7,0.9-1c0.3,0.3,0.9,0.6,0.9,1
		C129,339.1,128.5,339.5,128.1,340.1z"/>
	<path class="st5" d="M-3,234c-0.6,0.5-1.1,1-1.4,0.9c-0.4-0.1-0.7-0.6-1-1c0.3-0.3,0.7-0.8,1-0.9C-4,233.1-3.6,233.6-3,234z"/>
	<path class="st5" d="M79.5,260.4c-0.7,0.4-1.1,0.9-1.4,0.9c-0.4-0.1-0.7-0.7-1-1c0.4-0.3,0.7-0.8,1.1-0.8
		C78.5,259.4,78.9,259.9,79.5,260.4z"/>
	<path class="st5" d="M68.9,252.9c-0.4,0.2-0.8,0.7-1.1,0.6c-0.3-0.1-0.8-0.6-0.8-1c0-0.2,0.6-0.8,0.9-0.8c0.4,0,0.7,0.4,1.1,0.7
		C68.9,252.6,68.9,252.7,68.9,252.9z"/>
	<path class="st5" d="M51.9,245.2c-0.4-0.6-0.9-0.9-0.9-1.2c0-0.3,0.5-0.6,0.8-1c0.3,0.3,0.8,0.6,0.9,0.9
		C52.7,244.2,52.3,244.6,51.9,245.2z"/>
	<path class="st5" d="M120.9,313.2c0.3,0.4,0.8,0.7,0.7,1.1c0,0.3-0.5,0.8-0.9,0.9c-0.2,0-0.8-0.5-0.9-0.8c0-0.4,0.4-0.8,0.6-1.1
		C120.6,313.2,120.8,313.2,120.9,313.2z"/>
	<path class="st5" d="M88,268.9c-0.2-0.4-0.7-0.8-0.7-1.1c0-0.3,0.6-0.8,0.9-0.9c0.2,0,0.8,0.5,0.8,0.8c0,0.4-0.4,0.7-0.7,1.1
		C88.3,268.9,88.2,268.9,88,268.9z"/>
	<path class="st5" d="M57.4,243.8c0.4,0.5,0.8,0.8,0.8,1.1c0,0.3-0.5,0.5-0.7,0.8c-0.3-0.3-0.7-0.5-0.7-0.8
		C56.7,244.7,57.1,244.4,57.4,243.8z"/>
	<path class="st5" d="M113.7,295.3c-0.6,0.4-1,0.8-1.2,0.8c-0.3,0-0.7-0.5-0.7-0.8c0-0.2,0.5-0.7,0.7-0.7
		C112.8,294.5,113.1,294.9,113.7,295.3z"/>
	<path class="st5" d="M83.5,262.4c-0.4-0.5-0.7-0.9-0.7-1.1c0-0.3,0.5-0.5,0.8-0.8c0.3,0.3,0.7,0.5,0.7,0.8
		C84.3,261.6,83.9,261.9,83.5,262.4z"/>
	<path class="st5" d="M104.4,282.1c-0.6,0.4-0.9,0.8-1.2,0.8c-0.3,0-0.7-0.5-0.8-0.8c0-0.2,0.4-0.7,0.7-0.7
		C103.4,281.4,103.8,281.7,104.4,282.1z"/>
	<path class="st5" d="M107.8,287.6c0.4,0.5,0.9,0.9,0.8,1.1c-0.1,0.3-0.5,0.6-0.8,0.9c-0.3-0.3-0.7-0.5-0.8-0.8
		C107,288.5,107.4,288.2,107.8,287.6z"/>
	<path class="st5" d="M24.7,234.4c-0.3-0.5-0.7-0.8-0.6-1c0.1-0.3,0.5-0.5,0.7-0.7c0.2,0.3,0.6,0.5,0.6,0.8
		C25.4,233.7,25,234,24.7,234.4z"/>
	<path class="st5" d="M98.5,276.6c-0.3-0.6-0.7-0.9-0.6-1.2c0.1-0.3,0.5-0.6,0.8-0.6c0.2,0,0.6,0.5,0.6,0.7
		C99.2,275.8,98.8,276.1,98.5,276.6z"/>
	<path class="st5" d="M130.1,333c-0.5,0.4-0.8,0.8-1.1,0.8c-0.3,0-0.7-0.4-0.7-0.7c0-0.2,0.4-0.7,0.6-0.7
		C129.3,332.4,129.6,332.7,130.1,333z"/>
	<path class="st5" d="M74.5,253.7c-0.5,0.3-0.9,0.7-1.1,0.7c-0.3-0.1-0.6-0.5-0.7-0.8c0-0.2,0.5-0.6,0.7-0.6
		C73.7,252.9,74,253.3,74.5,253.7z"/>
	<path class="st5" d="M124.3,321c0.5-0.4,0.8-0.8,1.1-0.8c0.2,0,0.7,0.4,0.7,0.6c0,0.3-0.4,0.7-0.6,0.8
		C125.2,321.7,124.9,321.3,124.3,321z"/>
	<path class="st5" d="M118.2,301.9c-0.5,0.4-0.8,0.8-1.1,0.7c-0.3,0-0.6-0.4-0.7-0.7c0-0.2,0.4-0.7,0.7-0.7
		C117.4,301.2,117.7,301.6,118.2,301.9z"/>
	<path class="st5" d="M20.1,232.5c-0.5,0.3-0.8,0.7-1,0.6c-0.3-0.1-0.5-0.5-0.7-0.8c0.3-0.2,0.5-0.6,0.8-0.6
		C19.4,231.7,19.6,232.1,20.1,232.5z"/>
	<path class="st5" d="M8.6,230.3C8.2,230.6,8,231,7.8,231c-0.2,0-0.5-0.3-0.6-0.6c0-0.1,0.3-0.5,0.5-0.6
		C7.9,229.8,8.2,230.1,8.6,230.3z"/>
	<path class="st5" d="M31.4,234.5c-0.5,0.3-0.8,0.6-1,0.6c-0.2,0-0.6-0.5-0.6-0.6c0.1-0.3,0.4-0.6,0.7-0.6
		C30.7,233.8,30.9,234.1,31.4,234.5z"/>
	<path class="st5" d="M94.8,268.8c-0.4,0.3-0.7,0.6-0.9,0.6c-0.2,0-0.6-0.4-0.6-0.5c0-0.3,0.3-0.6,0.5-0.6
		C94,268.2,94.3,268.5,94.8,268.8z"/>
	<path class="st5" d="M63.2,246.8c-0.3-0.4-0.6-0.6-0.6-0.8c0.1-0.2,0.4-0.4,0.6-0.7c0.2,0.2,0.5,0.4,0.5,0.6
		C63.7,246.2,63.4,246.4,63.2,246.8z"/>
	<path class="st5" d="M36,234.5c0.3,0.4,0.6,0.7,0.6,0.9c0,0.2-0.4,0.6-0.6,0.6c-0.2,0-0.6-0.3-0.6-0.6
		C35.4,235.2,35.7,235,36,234.5z"/>
	<path class="st5" d="M122.7,308.6c-0.4,0.3-0.7,0.6-0.9,0.6c-0.2,0-0.5-0.4-0.6-0.6c0-0.1,0.3-0.5,0.5-0.5
		C122,308,122.2,308.3,122.7,308.6z"/>
	<path class="st5" d="M42.3,236.5c-0.4,0.3-0.6,0.6-0.8,0.5c-0.2-0.1-0.4-0.4-0.6-0.6c0.2-0.2,0.4-0.5,0.6-0.5
		C41.8,235.9,42,236.2,42.3,236.5z"/>
	<path class="st5" d="M14.4,231.4c-0.5,0.3-0.7,0.6-1,0.6c-0.2,0-0.4-0.4-0.6-0.6c0.2-0.2,0.4-0.6,0.7-0.7
		C13.6,230.7,13.9,231.1,14.4,231.4z"/>
</g>
<circle class="st6" cx="316.3" cy="316.8" r="1.6"/>
<path class="st3" d="M479.2,252.1c0,0.9-0.7,1.6-1.6,1.6c-0.9,0-1.6-0.7-1.6-1.6s0.7-1.6,1.6-1.6
	C478.5,250.5,479.2,251.2,479.2,252.1z"/>
<path class="st6" d="M182.9,297.7c0,1.2-0.9,2.1-2.1,2.1s-2.1-0.9-2.1-2.1s0.9-2.1,2.1-2.1S182.9,296.5,182.9,297.7z"/>
<g>
	<rect x="356.2" y="296.7" class="st6" width="1.9" height="6.3"/>
	
		<rect x="356.2" y="296.7" transform="matrix(-1.836970e-16 1 -1 -1.836970e-16 656.9706 -57.3505)" class="st6" width="1.9" height="6.3"/>
</g>
<g>
	<rect x="69.1" y="295.1" class="st6" width="3.4" height="11.3"/>
	
		<rect x="69.1" y="295.1" transform="matrix(-1.836970e-16 1 -1 -1.836970e-16 371.5139 229.9607)" class="st6" width="3.4" height="11.3"/>
</g>
<line class="st4" x1="363.2" y1="239" x2="337" y2="265.1"/>
<line class="st7" x1="151.9" y1="263.1" x2="126.5" y2="288.5"/>
<circle class="st4" cx="72.5" cy="222.2" r="48.6"/>
<rect x="-4.1" class="st8" width="508.1" height="338.7"/>
</svg>
